G04*
G04 #@! TF.GenerationSoftware,Altium Limited,Altium Designer,24.1.2 (44)*
G04*
G04 Layer_Color=65535*
%FSLAX44Y44*%
%MOMM*%
G71*
G04*
G04 #@! TF.SameCoordinates,BBC2EA18-74A8-411A-9B9A-F0C275BE575F*
G04*
G04*
G04 #@! TF.FilePolarity,Positive*
G04*
G01*
G75*
%ADD10C,0.1800*%
G36*
X235370Y336120D02*
X235522D01*
Y335512D01*
X235675D01*
Y334904D01*
X235827D01*
Y334295D01*
X235979D01*
Y333839D01*
X235827D01*
Y333687D01*
X235370D01*
Y333535D01*
X235066D01*
Y333383D01*
X234914D01*
Y333231D01*
X234762D01*
Y333079D01*
X234458D01*
Y332774D01*
X234306D01*
Y332622D01*
X234154D01*
Y332470D01*
X234002D01*
Y332166D01*
X233849D01*
Y331558D01*
X233697D01*
Y329733D01*
X233849D01*
Y329124D01*
X234002D01*
Y328820D01*
X234154D01*
Y328668D01*
X234306D01*
Y328516D01*
X234458D01*
Y328364D01*
X234610D01*
Y328212D01*
X235218D01*
Y328060D01*
X235522D01*
Y328212D01*
X235979D01*
Y328364D01*
X236283D01*
Y328516D01*
X236435D01*
Y328668D01*
X236587D01*
Y328820D01*
X236739D01*
Y328972D01*
X236891D01*
Y329124D01*
X237043D01*
Y329428D01*
X237195D01*
Y329733D01*
X237348D01*
Y330037D01*
X237500D01*
Y330493D01*
X237652D01*
Y330949D01*
X237804D01*
Y331254D01*
X237956D01*
Y331710D01*
X238108D01*
Y332166D01*
X238260D01*
Y332622D01*
X238412D01*
Y332926D01*
X238564D01*
Y333231D01*
X238716D01*
Y333535D01*
X238869D01*
Y333839D01*
X239021D01*
Y334143D01*
X239173D01*
Y334295D01*
X239325D01*
Y334447D01*
X239477D01*
Y334752D01*
X239629D01*
Y334904D01*
X239781D01*
Y335056D01*
X239933D01*
Y335208D01*
X240085D01*
Y335360D01*
X240389D01*
Y335512D01*
X240542D01*
Y335664D01*
X240846D01*
Y335816D01*
X241150D01*
Y335968D01*
X241454D01*
Y336120D01*
X242215D01*
Y336273D01*
X243431D01*
Y336120D01*
X244192D01*
Y335968D01*
X244496D01*
Y335816D01*
X244800D01*
Y335664D01*
X245104D01*
Y335512D01*
X245257D01*
Y335360D01*
X245561D01*
Y335208D01*
X245713D01*
Y335056D01*
X245865D01*
Y334904D01*
X246017D01*
Y334752D01*
X246169D01*
Y334447D01*
X246321D01*
Y334295D01*
X246473D01*
Y333991D01*
X246625D01*
Y333839D01*
X246777D01*
Y333535D01*
X246929D01*
Y333079D01*
X247082D01*
Y332622D01*
X247234D01*
Y331862D01*
X247386D01*
Y329885D01*
X247234D01*
Y328972D01*
X247082D01*
Y328516D01*
X246929D01*
Y328212D01*
X246777D01*
Y327907D01*
X246625D01*
Y327603D01*
X246473D01*
Y327299D01*
X246321D01*
Y327147D01*
X246169D01*
Y326995D01*
X246017D01*
Y326843D01*
X245865D01*
Y326691D01*
X245713D01*
Y326539D01*
X245561D01*
Y326386D01*
X245409D01*
Y326234D01*
X245257D01*
Y326082D01*
X244952D01*
Y325930D01*
X244648D01*
Y325778D01*
X244496D01*
Y325626D01*
X244040D01*
Y325474D01*
X243736D01*
Y325322D01*
X243127D01*
Y325626D01*
X242975D01*
Y326234D01*
X242823D01*
Y326691D01*
X242671D01*
Y327299D01*
X242519D01*
Y327907D01*
X242367D01*
Y328212D01*
X242519D01*
Y328364D01*
X242823D01*
Y328516D01*
X243127D01*
Y328668D01*
X243431D01*
Y328820D01*
X243584D01*
Y328972D01*
X243736D01*
Y329124D01*
X243888D01*
Y329276D01*
X244040D01*
Y329428D01*
X244192D01*
Y329885D01*
X244344D01*
Y330645D01*
X244496D01*
Y331101D01*
X244344D01*
Y332014D01*
X244192D01*
Y332318D01*
X244040D01*
Y332622D01*
X243888D01*
Y332774D01*
X243736D01*
Y332926D01*
X243431D01*
Y333079D01*
X242367D01*
Y332926D01*
X242062D01*
Y332774D01*
X241910D01*
Y332622D01*
X241758D01*
Y332470D01*
X241606D01*
Y332318D01*
X241454D01*
Y332014D01*
X241302D01*
Y331710D01*
X241150D01*
Y331406D01*
X240998D01*
Y330949D01*
X240846D01*
Y330645D01*
X240694D01*
Y330189D01*
X240542D01*
Y329733D01*
X240389D01*
Y329580D01*
Y329276D01*
X240237D01*
Y328820D01*
X240085D01*
Y328364D01*
X239933D01*
Y328060D01*
X239781D01*
Y327755D01*
X239629D01*
Y327451D01*
X239477D01*
Y327147D01*
X239325D01*
Y326995D01*
X239173D01*
Y326691D01*
X239021D01*
Y326539D01*
X238869D01*
Y326386D01*
X238716D01*
Y326234D01*
X238564D01*
Y326082D01*
X238412D01*
Y325930D01*
X238260D01*
Y325778D01*
X237956D01*
Y325626D01*
X237804D01*
Y325474D01*
X237500D01*
Y325322D01*
X237043D01*
Y325170D01*
X236435D01*
Y325018D01*
X234458D01*
Y325170D01*
X233849D01*
Y325322D01*
X233545D01*
Y325474D01*
X233241D01*
Y325626D01*
X232937D01*
Y325778D01*
X232785D01*
Y325930D01*
X232633D01*
Y326082D01*
X232481D01*
Y326234D01*
X232328D01*
Y326386D01*
X232176D01*
Y326539D01*
X232024D01*
Y326691D01*
X231872D01*
Y326843D01*
X231720D01*
Y327147D01*
X231568D01*
Y327451D01*
X231416D01*
Y327755D01*
X231264D01*
Y328060D01*
X231112D01*
Y328516D01*
X230960D01*
Y329124D01*
X230807D01*
Y332166D01*
X230960D01*
Y332926D01*
X231112D01*
Y333231D01*
X231264D01*
Y333687D01*
X231416D01*
Y333991D01*
X231568D01*
Y334143D01*
X231720D01*
Y334447D01*
X231872D01*
Y334599D01*
X232024D01*
Y334752D01*
X232176D01*
Y335056D01*
X232328D01*
Y335208D01*
X232481D01*
Y335360D01*
X232785D01*
Y335512D01*
X232937D01*
Y335664D01*
X233089D01*
Y335816D01*
X233393D01*
Y335968D01*
X233545D01*
Y336120D01*
X233849D01*
Y336273D01*
X234154D01*
Y336425D01*
X234610D01*
Y336577D01*
X235370D01*
Y336120D01*
D02*
G37*
G36*
X242367Y321367D02*
X241606D01*
Y321215D01*
X240998D01*
Y321063D01*
X241302D01*
Y320911D01*
X241454D01*
Y320607D01*
X241606D01*
Y320455D01*
X241758D01*
Y320303D01*
X241910D01*
Y319998D01*
X242062D01*
Y319694D01*
X242215D01*
Y319390D01*
X242367D01*
Y318934D01*
X242519D01*
Y316196D01*
X242367D01*
Y315740D01*
X242215D01*
Y315284D01*
X242062D01*
Y314979D01*
X241910D01*
Y314827D01*
X241758D01*
Y314523D01*
X241606D01*
Y314371D01*
X241454D01*
Y314219D01*
X241302D01*
Y314067D01*
X241150D01*
Y313915D01*
X240998D01*
Y313763D01*
X240846D01*
Y313610D01*
X240694D01*
Y313458D01*
X240542D01*
Y313306D01*
X240237D01*
Y313154D01*
X239933D01*
Y313002D01*
X239781D01*
Y312850D01*
X239325D01*
Y312698D01*
X238869D01*
Y312546D01*
X238260D01*
Y312394D01*
X235066D01*
Y312546D01*
X234458D01*
Y312698D01*
X234002D01*
Y312850D01*
X233697D01*
Y313002D01*
X233393D01*
Y313154D01*
X233089D01*
Y313306D01*
X232937D01*
Y313458D01*
X232785D01*
Y313610D01*
X232481D01*
Y313763D01*
X232328D01*
Y313915D01*
X232176D01*
Y314067D01*
X232024D01*
Y314219D01*
X231872D01*
Y314523D01*
X231720D01*
Y314675D01*
X231568D01*
Y314979D01*
X231416D01*
Y315284D01*
X231264D01*
Y315588D01*
X231112D01*
Y316044D01*
X230960D01*
Y316805D01*
X230807D01*
Y318477D01*
X230960D01*
Y319086D01*
X231112D01*
Y319542D01*
X231264D01*
Y319846D01*
X231416D01*
Y320151D01*
X231568D01*
Y320303D01*
X231720D01*
Y320607D01*
X231872D01*
Y320759D01*
X232024D01*
Y320911D01*
X232176D01*
Y321063D01*
X226549D01*
Y321215D01*
X226397D01*
Y321367D01*
X226245D01*
Y323801D01*
X226397D01*
Y323953D01*
X242367D01*
Y321367D01*
D02*
G37*
G36*
X238260Y311481D02*
X238869D01*
Y311329D01*
X239325D01*
Y311177D01*
X239629D01*
Y311025D01*
X239933D01*
Y310873D01*
X240237D01*
Y310721D01*
X240542D01*
Y310569D01*
X240694D01*
Y310417D01*
X240846D01*
Y310264D01*
X240998D01*
Y310112D01*
X241150D01*
Y309960D01*
X241302D01*
Y309808D01*
X241454D01*
Y309656D01*
X241606D01*
Y309504D01*
X241758D01*
Y309200D01*
X241910D01*
Y309048D01*
X242062D01*
Y308743D01*
X242215D01*
Y308287D01*
X242367D01*
Y307831D01*
X242519D01*
Y305093D01*
X242367D01*
Y304637D01*
X242215D01*
Y304333D01*
X242062D01*
Y304029D01*
X241910D01*
Y303724D01*
X241758D01*
Y303572D01*
X241606D01*
Y303268D01*
X241454D01*
Y303116D01*
X241302D01*
Y302964D01*
X240998D01*
Y302812D01*
X241454D01*
Y302660D01*
X242367D01*
Y300074D01*
X231112D01*
Y302660D01*
X231872D01*
Y302812D01*
X232328D01*
Y302964D01*
X232176D01*
Y303116D01*
X232024D01*
Y303268D01*
X231872D01*
Y303420D01*
X231720D01*
Y303724D01*
X231568D01*
Y303876D01*
X231416D01*
Y304181D01*
X231264D01*
Y304485D01*
X231112D01*
Y304941D01*
X230960D01*
Y305550D01*
X230807D01*
Y307223D01*
X230960D01*
Y307983D01*
X231112D01*
Y308439D01*
X231264D01*
Y308743D01*
X231416D01*
Y309048D01*
X231568D01*
Y309352D01*
X231720D01*
Y309504D01*
X231872D01*
Y309808D01*
X232024D01*
Y309960D01*
X232176D01*
Y310112D01*
X232328D01*
Y310264D01*
X232481D01*
Y310417D01*
X232785D01*
Y310569D01*
X232937D01*
Y310721D01*
X233241D01*
Y310873D01*
X233393D01*
Y311025D01*
X233697D01*
Y311177D01*
X234154D01*
Y311329D01*
X234610D01*
Y311481D01*
X235218D01*
Y311633D01*
X238260D01*
Y311481D01*
D02*
G37*
G36*
X237956Y298553D02*
X238716D01*
Y298401D01*
X239173D01*
Y298249D01*
X239477D01*
Y298097D01*
X239781D01*
Y297945D01*
X240085D01*
Y297793D01*
X240237D01*
Y297641D01*
X240542D01*
Y297488D01*
X240694D01*
Y297336D01*
X240846D01*
Y297184D01*
X240998D01*
Y297032D01*
X241150D01*
Y296880D01*
X241302D01*
Y296728D01*
X241454D01*
Y296576D01*
X241606D01*
Y296272D01*
X241758D01*
Y295968D01*
X241910D01*
Y295816D01*
X242062D01*
Y295359D01*
X242215D01*
Y295055D01*
X242367D01*
Y294447D01*
X242519D01*
Y291405D01*
X242367D01*
Y290796D01*
X242215D01*
Y290340D01*
X242062D01*
Y290036D01*
X241910D01*
Y289732D01*
X241758D01*
Y289580D01*
X241606D01*
Y289275D01*
X241454D01*
Y289123D01*
X241302D01*
Y288971D01*
X241150D01*
Y288819D01*
X240998D01*
Y288667D01*
X240846D01*
Y288515D01*
X240542D01*
Y288363D01*
X240389D01*
Y288211D01*
X240085D01*
Y288059D01*
X239781D01*
Y287907D01*
X239477D01*
Y287754D01*
X239021D01*
Y287907D01*
X238869D01*
Y288363D01*
X238716D01*
Y288819D01*
X238564D01*
Y289428D01*
X238412D01*
Y290188D01*
X238564D01*
Y290340D01*
X238716D01*
Y290492D01*
X239021D01*
Y290644D01*
X239173D01*
Y290796D01*
X239325D01*
Y290949D01*
X239477D01*
Y291253D01*
X239629D01*
Y291557D01*
X239781D01*
Y292013D01*
X239933D01*
Y293534D01*
X239781D01*
Y293990D01*
X239629D01*
Y294294D01*
X239477D01*
Y294599D01*
X239325D01*
Y294751D01*
X239173D01*
Y294903D01*
X239021D01*
Y295055D01*
X238869D01*
Y295207D01*
X238564D01*
Y295359D01*
X238260D01*
Y295511D01*
X237804D01*
Y295663D01*
X236891D01*
Y295816D01*
X236587D01*
Y295663D01*
X235522D01*
Y295511D01*
X235218D01*
Y295359D01*
X234914D01*
Y295207D01*
X234610D01*
Y295055D01*
X234458D01*
Y294903D01*
X234306D01*
Y294751D01*
X234154D01*
Y294599D01*
X234002D01*
Y294447D01*
X233849D01*
Y294142D01*
X233697D01*
Y293838D01*
X233545D01*
Y291709D01*
X233697D01*
Y291405D01*
X233849D01*
Y291101D01*
X234002D01*
Y290949D01*
X234154D01*
Y290796D01*
X234306D01*
Y290644D01*
X234458D01*
Y290492D01*
X234762D01*
Y290340D01*
X234914D01*
Y290188D01*
X235066D01*
Y290036D01*
X235218D01*
Y289884D01*
X235066D01*
Y289275D01*
X234914D01*
Y288515D01*
X234762D01*
Y287907D01*
X234610D01*
Y287602D01*
X234002D01*
Y287754D01*
X233697D01*
Y287907D01*
X233393D01*
Y288059D01*
X233089D01*
Y288211D01*
X232937D01*
Y288363D01*
X232785D01*
Y288515D01*
X232481D01*
Y288667D01*
X232328D01*
Y288819D01*
X232176D01*
Y288971D01*
X232024D01*
Y289275D01*
X231872D01*
Y289428D01*
X231720D01*
Y289732D01*
X231568D01*
Y289884D01*
X231416D01*
Y290188D01*
X231264D01*
Y290644D01*
X231112D01*
Y291101D01*
X230960D01*
Y291861D01*
X230807D01*
Y293838D01*
X230960D01*
Y294599D01*
X231112D01*
Y295207D01*
X231264D01*
Y295511D01*
X231416D01*
Y295816D01*
X231568D01*
Y296120D01*
X231720D01*
Y296424D01*
X231872D01*
Y296576D01*
X232024D01*
Y296728D01*
X232176D01*
Y297032D01*
X232328D01*
Y297184D01*
X232481D01*
Y297336D01*
X232785D01*
Y297488D01*
X232937D01*
Y297641D01*
X233089D01*
Y297793D01*
X233393D01*
Y297945D01*
X233697D01*
Y298097D01*
X233849D01*
Y298249D01*
X234306D01*
Y298401D01*
X234762D01*
Y298553D01*
X235370D01*
Y298705D01*
X237956D01*
Y298553D01*
D02*
G37*
G36*
X237652Y286994D02*
X238564D01*
Y286842D01*
X239021D01*
Y286690D01*
X239477D01*
Y286538D01*
X239781D01*
Y286386D01*
X239933D01*
Y286234D01*
X240237D01*
Y286081D01*
X240389D01*
Y285929D01*
X240694D01*
Y285777D01*
X240846D01*
Y285625D01*
X240998D01*
Y285473D01*
X241150D01*
Y285321D01*
X241302D01*
Y285169D01*
X241454D01*
Y284865D01*
X241606D01*
Y284713D01*
X241758D01*
Y284408D01*
X241910D01*
Y284256D01*
X242062D01*
Y283800D01*
X242215D01*
Y283496D01*
X242367D01*
Y282887D01*
X242519D01*
Y279998D01*
X242367D01*
Y279389D01*
X242215D01*
Y279085D01*
X242062D01*
Y278781D01*
X241910D01*
Y278477D01*
X241758D01*
Y278325D01*
X241606D01*
Y278020D01*
X241454D01*
Y277868D01*
X241302D01*
Y277716D01*
X241150D01*
Y277564D01*
X240998D01*
Y277412D01*
X240846D01*
Y277260D01*
X240542D01*
Y277108D01*
X240389D01*
Y276956D01*
X240085D01*
Y276804D01*
X239781D01*
Y276652D01*
X239477D01*
Y276500D01*
X239021D01*
Y276347D01*
X238564D01*
Y276195D01*
X237804D01*
Y276043D01*
X235827D01*
Y284104D01*
X235675D01*
Y283952D01*
X235218D01*
Y283800D01*
X234762D01*
Y283648D01*
X234610D01*
Y283496D01*
X234306D01*
Y283344D01*
X234154D01*
Y283192D01*
X234002D01*
Y283040D01*
X233849D01*
Y282735D01*
X233697D01*
Y282431D01*
X233545D01*
Y281975D01*
X233393D01*
Y280758D01*
X233545D01*
Y280150D01*
X233697D01*
Y279846D01*
X233849D01*
Y279541D01*
X234002D01*
Y279389D01*
X234154D01*
Y279237D01*
X234306D01*
Y279085D01*
X234610D01*
Y278933D01*
X234762D01*
Y278172D01*
X234610D01*
Y277716D01*
X234458D01*
Y277260D01*
X234306D01*
Y276804D01*
X234154D01*
Y276500D01*
X234002D01*
Y276347D01*
X233697D01*
Y276500D01*
X233393D01*
Y276652D01*
X233089D01*
Y276804D01*
X232937D01*
Y276956D01*
X232785D01*
Y277108D01*
X232481D01*
Y277260D01*
X232328D01*
Y277412D01*
X232176D01*
Y277716D01*
X232024D01*
Y277868D01*
X231872D01*
Y278020D01*
X231720D01*
Y278325D01*
X231568D01*
Y278477D01*
X231416D01*
Y278781D01*
X231264D01*
Y279237D01*
X231112D01*
Y279694D01*
X230960D01*
Y280454D01*
X230807D01*
Y282279D01*
X230960D01*
Y283192D01*
X231112D01*
Y283648D01*
X231264D01*
Y283952D01*
X231416D01*
Y284256D01*
X231568D01*
Y284561D01*
X231720D01*
Y284865D01*
X231872D01*
Y285017D01*
X232024D01*
Y285169D01*
X232176D01*
Y285321D01*
X232328D01*
Y285473D01*
X232481D01*
Y285625D01*
X232633D01*
Y285777D01*
X232785D01*
Y285929D01*
X232937D01*
Y286081D01*
X233241D01*
Y286234D01*
X233393D01*
Y286386D01*
X233697D01*
Y286538D01*
X234002D01*
Y286690D01*
X234458D01*
Y286842D01*
X234914D01*
Y286994D01*
X235675D01*
Y287146D01*
X237652D01*
Y286994D01*
D02*
G37*
G36*
X284193Y288515D02*
X285257D01*
Y288363D01*
X286018D01*
Y288211D01*
X286626D01*
Y288059D01*
X287234D01*
Y287907D01*
X287691D01*
Y287754D01*
X288147D01*
Y287602D01*
X288603D01*
Y287450D01*
X288908D01*
Y287298D01*
X289364D01*
Y287146D01*
X289668D01*
Y286994D01*
X290124D01*
Y286842D01*
X290429D01*
Y286690D01*
X290733D01*
Y286538D01*
X291037D01*
Y286386D01*
X291341D01*
Y286234D01*
X291645D01*
Y286081D01*
X291797D01*
Y285929D01*
X292101D01*
Y285777D01*
X292406D01*
Y285625D01*
X292710D01*
Y285473D01*
X292862D01*
Y285321D01*
X293166D01*
Y285169D01*
X293318D01*
Y285017D01*
X293622D01*
Y284865D01*
X293775D01*
Y284713D01*
X294079D01*
Y284561D01*
X294231D01*
Y284408D01*
X294535D01*
Y284256D01*
X294687D01*
Y284104D01*
X294839D01*
Y283952D01*
X295143D01*
Y283800D01*
X295296D01*
Y283648D01*
X295448D01*
Y283496D01*
X295752D01*
Y283344D01*
X295904D01*
Y283192D01*
X296056D01*
Y283040D01*
X296208D01*
Y282887D01*
X296512D01*
Y282735D01*
X296664D01*
Y282583D01*
X296816D01*
Y282431D01*
X296968D01*
Y282279D01*
X297121D01*
Y282127D01*
X297273D01*
Y281975D01*
X297425D01*
Y281823D01*
X297577D01*
Y281671D01*
X297729D01*
Y281519D01*
X297881D01*
Y281367D01*
X298033D01*
Y281214D01*
X298185D01*
Y281062D01*
X298337D01*
Y280910D01*
X298489D01*
Y280758D01*
X298642D01*
Y280606D01*
X298794D01*
Y280454D01*
X298946D01*
Y280302D01*
X299098D01*
Y280150D01*
X299250D01*
Y279998D01*
X299402D01*
Y279694D01*
X299554D01*
Y279541D01*
X299706D01*
Y279389D01*
X299858D01*
Y279237D01*
X300010D01*
Y279085D01*
X300163D01*
Y278781D01*
X300315D01*
Y278629D01*
X300467D01*
Y278477D01*
X300619D01*
Y278172D01*
X300771D01*
Y278020D01*
X300923D01*
Y277868D01*
X301075D01*
Y277564D01*
X301227D01*
Y277412D01*
X301379D01*
Y277108D01*
X301531D01*
Y276956D01*
X301684D01*
Y276652D01*
X301836D01*
Y276500D01*
X301988D01*
Y276195D01*
X302140D01*
Y275891D01*
X302292D01*
Y275739D01*
X302444D01*
Y275435D01*
X302596D01*
Y275131D01*
X302748D01*
Y274827D01*
X302900D01*
Y274370D01*
X303052D01*
Y274066D01*
X303204D01*
Y273458D01*
X303356D01*
Y273001D01*
X303509D01*
Y272241D01*
X303661D01*
Y269655D01*
X303509D01*
Y269199D01*
X303356D01*
Y268743D01*
X303204D01*
Y268438D01*
X303052D01*
Y268286D01*
X302900D01*
Y267982D01*
X302748D01*
Y267830D01*
X302596D01*
Y267678D01*
X302444D01*
Y267526D01*
X302140D01*
Y267374D01*
X301836D01*
Y267222D01*
X301531D01*
Y267070D01*
X300771D01*
Y266918D01*
X300315D01*
Y267070D01*
X299554D01*
Y267222D01*
X299250D01*
Y267374D01*
X298794D01*
Y267526D01*
X298489D01*
Y267678D01*
X298337D01*
Y267830D01*
X298033D01*
Y267982D01*
X297881D01*
Y268134D01*
X297577D01*
Y268286D01*
X297425D01*
Y268438D01*
X297273D01*
Y268591D01*
X297121D01*
Y268743D01*
X296968D01*
Y268895D01*
X296816D01*
Y269047D01*
X296664D01*
Y269199D01*
X296512D01*
Y269351D01*
X296360D01*
Y269503D01*
X296208D01*
Y269655D01*
X296056D01*
Y269807D01*
X295904D01*
Y269960D01*
X295752D01*
Y270112D01*
X295600D01*
Y270264D01*
X295448D01*
Y270416D01*
X295296D01*
Y270720D01*
X295143D01*
Y270872D01*
X294991D01*
Y271024D01*
X294839D01*
Y271176D01*
X294687D01*
Y271480D01*
X294535D01*
Y271632D01*
X294383D01*
Y271937D01*
X294231D01*
Y272089D01*
X294079D01*
Y272241D01*
X293927D01*
Y272545D01*
X293775D01*
Y272697D01*
X293622D01*
Y273001D01*
X293470D01*
Y273153D01*
X293318D01*
Y273458D01*
X293166D01*
Y273610D01*
X293014D01*
Y273762D01*
X292862D01*
Y274066D01*
X292710D01*
Y274218D01*
X292558D01*
Y274370D01*
X292406D01*
Y274522D01*
X292254D01*
Y274827D01*
X292101D01*
Y274979D01*
X291949D01*
Y275131D01*
X291797D01*
Y275283D01*
X291645D01*
Y275435D01*
X291493D01*
Y275739D01*
X291341D01*
Y275891D01*
X291189D01*
Y276043D01*
X291037D01*
Y276195D01*
X290885D01*
Y276347D01*
X290733D01*
Y276500D01*
X290581D01*
Y276652D01*
X290429D01*
Y276804D01*
X290276D01*
Y276956D01*
X290124D01*
Y277108D01*
X289972D01*
Y277260D01*
X289820D01*
Y277412D01*
X289668D01*
Y277564D01*
X289516D01*
Y277716D01*
X289364D01*
Y277868D01*
X289212D01*
Y278020D01*
X289060D01*
Y278172D01*
X288908D01*
Y278325D01*
X288755D01*
Y278477D01*
X288603D01*
Y278629D01*
X288299D01*
Y278781D01*
X288147D01*
Y278933D01*
X287995D01*
Y279085D01*
X287843D01*
Y279237D01*
X287691D01*
Y279389D01*
X287387D01*
Y279541D01*
X287234D01*
Y279694D01*
X287082D01*
Y279846D01*
X286930D01*
Y279998D01*
X286626D01*
Y280150D01*
X286474D01*
Y280302D01*
X286322D01*
Y280454D01*
X286018D01*
Y280606D01*
X285866D01*
Y280758D01*
X285562D01*
Y280910D01*
X285409D01*
Y281062D01*
X285105D01*
Y281214D01*
X284953D01*
Y281367D01*
X284649D01*
Y281519D01*
X284497D01*
Y281671D01*
X284193D01*
Y281823D01*
X283888D01*
Y281975D01*
X283736D01*
Y282127D01*
X283432D01*
Y282279D01*
X283128D01*
Y282431D01*
X282824D01*
Y282583D01*
X282520D01*
Y282735D01*
X282215D01*
Y282887D01*
X281911D01*
Y283040D01*
X281607D01*
Y283192D01*
X281303D01*
Y283344D01*
X280999D01*
Y283496D01*
X280542D01*
Y283648D01*
X280238D01*
Y283800D01*
X279782D01*
Y283952D01*
X279326D01*
Y284104D01*
X278869D01*
Y284256D01*
X278413D01*
Y284408D01*
X277805D01*
Y284561D01*
X277196D01*
Y284713D01*
X276436D01*
Y284865D01*
X275219D01*
Y285017D01*
X273850D01*
Y284713D01*
X273698D01*
Y284561D01*
X273546D01*
Y284408D01*
X273394D01*
Y284104D01*
X273242D01*
Y283952D01*
X273090D01*
Y283648D01*
X272938D01*
Y283344D01*
X272786D01*
Y283040D01*
X272633D01*
Y282735D01*
X272481D01*
Y282431D01*
X272329D01*
Y281975D01*
X272177D01*
Y281367D01*
X272025D01*
Y280910D01*
X271873D01*
Y279998D01*
X271721D01*
Y278477D01*
X271569D01*
Y277108D01*
X271721D01*
Y275283D01*
X271873D01*
Y274218D01*
X272025D01*
Y273305D01*
X272177D01*
Y272545D01*
X272329D01*
Y271785D01*
X272481D01*
Y271176D01*
X272633D01*
Y270568D01*
X272786D01*
Y269807D01*
X272938D01*
Y269047D01*
X273090D01*
Y268286D01*
X273242D01*
Y267374D01*
X273394D01*
Y264180D01*
X273242D01*
Y263724D01*
X273090D01*
Y263419D01*
X272938D01*
Y263267D01*
X272786D01*
Y263115D01*
X272633D01*
Y262963D01*
X272481D01*
Y262811D01*
X272329D01*
Y262659D01*
X272025D01*
Y262507D01*
X271417D01*
Y262355D01*
X270200D01*
Y262507D01*
X269440D01*
Y262659D01*
X268983D01*
Y262811D01*
X268679D01*
Y262963D01*
X268375D01*
Y263115D01*
X268071D01*
Y263267D01*
X267766D01*
Y263419D01*
X267614D01*
Y263571D01*
X267310D01*
Y263724D01*
X267158D01*
Y263876D01*
X267006D01*
Y264028D01*
X266854D01*
Y264180D01*
X266702D01*
Y264332D01*
X266550D01*
Y264484D01*
X266398D01*
Y264636D01*
X266245D01*
Y264788D01*
X266093D01*
Y264940D01*
X265941D01*
Y265092D01*
X265789D01*
Y265245D01*
X265637D01*
Y265549D01*
X265485D01*
Y265701D01*
X265333D01*
Y266005D01*
X265181D01*
Y266157D01*
X265029D01*
Y266461D01*
X264877D01*
Y266765D01*
X264725D01*
Y267070D01*
X264573D01*
Y267374D01*
X264420D01*
Y267678D01*
X264268D01*
Y267982D01*
X264116D01*
Y268438D01*
X263964D01*
Y268743D01*
X263812D01*
Y269351D01*
X263660D01*
Y269807D01*
X263508D01*
Y270568D01*
X263356D01*
Y271480D01*
X263204D01*
Y276043D01*
X263356D01*
Y276956D01*
X263508D01*
Y277564D01*
X263660D01*
Y278172D01*
X263812D01*
Y278629D01*
X263964D01*
Y278933D01*
X264116D01*
Y279237D01*
X264268D01*
Y279541D01*
X264420D01*
Y279846D01*
X264573D01*
Y280150D01*
X264725D01*
Y280454D01*
X264877D01*
Y280606D01*
X265029D01*
Y280910D01*
X265181D01*
Y281062D01*
X265333D01*
Y281214D01*
X265485D01*
Y281519D01*
X265637D01*
Y281671D01*
X265789D01*
Y281823D01*
X265941D01*
Y281975D01*
X266093D01*
Y282127D01*
X266245D01*
Y282279D01*
X266398D01*
Y282431D01*
X266550D01*
Y282583D01*
X266854D01*
Y282735D01*
X267006D01*
Y282887D01*
X267158D01*
Y283040D01*
X267462D01*
Y283192D01*
X267614D01*
Y283344D01*
X267918D01*
Y283496D01*
X268071D01*
Y283648D01*
X268375D01*
Y283800D01*
X268679D01*
Y283952D01*
X268983D01*
Y284104D01*
X269135D01*
Y284256D01*
X269440D01*
Y284408D01*
X269744D01*
Y284561D01*
X270048D01*
Y284713D01*
X270352D01*
Y284865D01*
X270656D01*
Y285017D01*
X271112D01*
Y285169D01*
X271417D01*
Y285321D01*
X271721D01*
Y285473D01*
X272025D01*
Y285625D01*
X272329D01*
Y285777D01*
X272786D01*
Y285929D01*
X273090D01*
Y286081D01*
X273394D01*
Y286234D01*
X273850D01*
Y286386D01*
X274154D01*
Y286538D01*
X274611D01*
Y286690D01*
X274915D01*
Y286842D01*
X275371D01*
Y286994D01*
X275675D01*
Y287146D01*
X276132D01*
Y287298D01*
X276588D01*
Y287450D01*
X277044D01*
Y287602D01*
X277348D01*
Y287754D01*
X277805D01*
Y287907D01*
X278109D01*
Y288059D01*
X278717D01*
Y288211D01*
X279174D01*
Y288363D01*
X279782D01*
Y288515D01*
X280695D01*
Y288667D01*
X284193D01*
Y288515D01*
D02*
G37*
G36*
X239325Y272089D02*
X240237D01*
Y271937D01*
X240846D01*
Y271785D01*
X241302D01*
Y271632D01*
X241758D01*
Y271480D01*
X242062D01*
Y271328D01*
X242367D01*
Y271176D01*
X242671D01*
Y271024D01*
X242975D01*
Y270872D01*
X243279D01*
Y270720D01*
X243431D01*
Y270568D01*
X243736D01*
Y270416D01*
X243888D01*
Y270264D01*
X244192D01*
Y270112D01*
X244344D01*
Y269960D01*
X244496D01*
Y269807D01*
X244648D01*
Y269655D01*
X244800D01*
Y269503D01*
X245104D01*
Y269351D01*
X245257D01*
Y269199D01*
X245409D01*
Y269047D01*
X245561D01*
Y268895D01*
X245713D01*
Y268743D01*
X245865D01*
Y268591D01*
X246017D01*
Y268286D01*
X246169D01*
Y268134D01*
X246321D01*
Y267982D01*
X246473D01*
Y267830D01*
X246625D01*
Y267678D01*
X246777D01*
Y267374D01*
X246929D01*
Y267222D01*
X247082D01*
Y266918D01*
X247234D01*
Y266765D01*
X247386D01*
Y266461D01*
X247538D01*
Y266157D01*
X247690D01*
Y265701D01*
X247842D01*
Y265092D01*
X247994D01*
Y263876D01*
X247842D01*
Y263419D01*
X247690D01*
Y263267D01*
X247538D01*
Y263115D01*
X247386D01*
Y262963D01*
X247234D01*
Y262811D01*
X245865D01*
Y262963D01*
X245561D01*
Y263115D01*
X245409D01*
Y263267D01*
X245257D01*
Y263419D01*
X244952D01*
Y263571D01*
X244800D01*
Y263724D01*
X244648D01*
Y263876D01*
X244496D01*
Y264180D01*
X244344D01*
Y264332D01*
X244192D01*
Y264484D01*
X244040D01*
Y264636D01*
X243888D01*
Y264940D01*
X243736D01*
Y265092D01*
X243584D01*
Y265397D01*
X243431D01*
Y265549D01*
X243279D01*
Y265701D01*
X243127D01*
Y266005D01*
X242975D01*
Y266157D01*
X242823D01*
Y266309D01*
X242671D01*
Y266461D01*
X242519D01*
Y266613D01*
X242367D01*
Y266765D01*
X242215D01*
Y267070D01*
X242062D01*
Y267222D01*
X241910D01*
Y267374D01*
X241606D01*
Y267526D01*
X241454D01*
Y267678D01*
X241302D01*
Y267830D01*
X241150D01*
Y267982D01*
X240998D01*
Y268134D01*
X240846D01*
Y268286D01*
X240694D01*
Y268438D01*
X240389D01*
Y268591D01*
X240237D01*
Y268743D01*
X239933D01*
Y268895D01*
X239781D01*
Y269047D01*
X239477D01*
Y269199D01*
X239173D01*
Y269351D01*
X239021D01*
Y269503D01*
X238716D01*
Y269655D01*
X238412D01*
Y269807D01*
X237956D01*
Y269960D01*
X237652D01*
Y270112D01*
X237195D01*
Y270264D01*
X236587D01*
Y270416D01*
X235675D01*
Y270568D01*
X235066D01*
Y270416D01*
X234914D01*
Y270112D01*
X234762D01*
Y269960D01*
X234610D01*
Y269655D01*
X234458D01*
Y269199D01*
X234306D01*
Y268591D01*
X234154D01*
Y266005D01*
X234306D01*
Y265092D01*
X234458D01*
Y264484D01*
X234610D01*
Y263724D01*
X234762D01*
Y262963D01*
X234914D01*
Y261594D01*
X234762D01*
Y261138D01*
X234610D01*
Y260986D01*
X234306D01*
Y260834D01*
X234002D01*
Y260682D01*
X233545D01*
Y260834D01*
X232937D01*
Y260986D01*
X232633D01*
Y261138D01*
X232328D01*
Y261290D01*
X232176D01*
Y261442D01*
X232024D01*
Y261594D01*
X231872D01*
Y261746D01*
X231720D01*
Y261898D01*
X231568D01*
Y262051D01*
X231416D01*
Y262203D01*
X231264D01*
Y262507D01*
X231112D01*
Y262811D01*
X230960D01*
Y263115D01*
X230807D01*
Y263419D01*
X230655D01*
Y264028D01*
X230503D01*
Y264788D01*
X230351D01*
Y266613D01*
X230503D01*
Y267374D01*
X230655D01*
Y267830D01*
X230807D01*
Y268286D01*
X230960D01*
Y268438D01*
X231112D01*
Y268743D01*
X231264D01*
Y268895D01*
X231416D01*
Y269199D01*
X231568D01*
Y269351D01*
X231720D01*
Y269503D01*
X232024D01*
Y269655D01*
X232176D01*
Y269807D01*
X232328D01*
Y269960D01*
X232633D01*
Y270112D01*
X232937D01*
Y270264D01*
X233241D01*
Y270416D01*
X233545D01*
Y270568D01*
X233849D01*
Y270720D01*
X234154D01*
Y270872D01*
X234458D01*
Y271024D01*
X234914D01*
Y271176D01*
X235218D01*
Y271328D01*
X235675D01*
Y271480D01*
X235979D01*
Y271632D01*
X236435D01*
Y271785D01*
X236891D01*
Y271937D01*
X237348D01*
Y272089D01*
X238260D01*
Y272241D01*
X239325D01*
Y272089D01*
D02*
G37*
G36*
X242215Y258704D02*
X242367D01*
Y255967D01*
X231112D01*
Y258857D01*
X242215D01*
Y258704D01*
D02*
G37*
G36*
X246625Y258857D02*
X246929D01*
Y258704D01*
X247082D01*
Y258552D01*
X247234D01*
Y258248D01*
X247386D01*
Y257792D01*
X247538D01*
Y257031D01*
X247386D01*
Y256575D01*
X247234D01*
Y256271D01*
X247082D01*
Y256119D01*
X246929D01*
Y255967D01*
X246625D01*
Y255815D01*
X246321D01*
Y255663D01*
X245561D01*
Y255815D01*
X245104D01*
Y255967D01*
X244952D01*
Y256119D01*
X244648D01*
Y256423D01*
X244496D01*
Y256727D01*
X244344D01*
Y258096D01*
X244496D01*
Y258400D01*
X244648D01*
Y258552D01*
X244800D01*
Y258704D01*
X244952D01*
Y258857D01*
X245104D01*
Y259009D01*
X246625D01*
Y258857D01*
D02*
G37*
G36*
X242367Y251252D02*
X242215D01*
Y251100D01*
X231264D01*
Y251252D01*
X231112D01*
Y253990D01*
X242367D01*
Y251252D01*
D02*
G37*
G36*
X246473Y254142D02*
X246777D01*
Y253990D01*
X246929D01*
Y253838D01*
X247082D01*
Y253685D01*
X247234D01*
Y253533D01*
X247386D01*
Y253077D01*
X247538D01*
Y252164D01*
X247386D01*
Y251708D01*
X247234D01*
Y251556D01*
X247082D01*
Y251404D01*
X246929D01*
Y251252D01*
X246777D01*
Y251100D01*
X246473D01*
Y250948D01*
X245257D01*
Y251100D01*
X244952D01*
Y251252D01*
X244800D01*
Y251404D01*
X244648D01*
Y251556D01*
X244496D01*
Y251708D01*
Y251860D01*
X244344D01*
Y253381D01*
X244496D01*
Y253533D01*
X244648D01*
Y253838D01*
X244800D01*
Y253990D01*
X245104D01*
Y254142D01*
X245257D01*
Y254294D01*
X246473D01*
Y254142D01*
D02*
G37*
G36*
X284345Y270568D02*
X284953D01*
Y270416D01*
X285409D01*
Y270264D01*
X285714D01*
Y270112D01*
X286018D01*
Y269960D01*
X286322D01*
Y269807D01*
X286626D01*
Y269655D01*
X286930D01*
Y269503D01*
X287082D01*
Y269351D01*
X287234D01*
Y269199D01*
X287387D01*
Y269047D01*
X287691D01*
Y268895D01*
X287843D01*
Y268743D01*
X287995D01*
Y268591D01*
X288147D01*
Y268438D01*
X288299D01*
Y268134D01*
X288451D01*
Y267982D01*
X288603D01*
Y267830D01*
X288755D01*
Y267678D01*
X288908D01*
Y267374D01*
X289060D01*
Y267222D01*
X289212D01*
Y266918D01*
X289364D01*
Y266765D01*
X289516D01*
Y266461D01*
X289668D01*
Y266157D01*
X289820D01*
Y265853D01*
X289972D01*
Y265549D01*
X290124D01*
Y265245D01*
X290276D01*
Y264788D01*
X290429D01*
Y264332D01*
X290581D01*
Y263876D01*
X290733D01*
Y263419D01*
X290885D01*
Y262811D01*
X291037D01*
Y262051D01*
X291189D01*
Y260682D01*
X291341D01*
Y258096D01*
X291189D01*
Y256575D01*
X291037D01*
Y255815D01*
X290885D01*
Y255206D01*
X290733D01*
Y254750D01*
X290581D01*
Y254294D01*
X290429D01*
Y253990D01*
X290276D01*
Y253685D01*
X290124D01*
Y253381D01*
X289972D01*
Y253077D01*
X289820D01*
Y252773D01*
X289668D01*
Y252469D01*
X289516D01*
Y252316D01*
X289364D01*
Y252164D01*
X289212D01*
Y251860D01*
X289060D01*
Y251708D01*
X288908D01*
Y251556D01*
X288755D01*
Y251404D01*
X288603D01*
Y251252D01*
X288451D01*
Y251100D01*
X288299D01*
Y250948D01*
X288147D01*
Y250796D01*
X287995D01*
Y250644D01*
X287843D01*
Y250491D01*
X287691D01*
Y250339D01*
X287539D01*
Y250187D01*
X287234D01*
Y250035D01*
X287082D01*
Y249883D01*
X286930D01*
Y249731D01*
X286626D01*
Y249579D01*
X286474D01*
Y249427D01*
X286170D01*
Y249275D01*
X285866D01*
Y249123D01*
X285562D01*
Y248970D01*
X285257D01*
Y248818D01*
X284953D01*
Y248666D01*
X284649D01*
Y248514D01*
X284345D01*
Y248362D01*
X284041D01*
Y248210D01*
X283736D01*
Y248058D01*
X283432D01*
Y247906D01*
X283128D01*
Y247754D01*
X282824D01*
Y247602D01*
X282367D01*
Y247449D01*
X282063D01*
Y247297D01*
X281759D01*
Y247145D01*
X281455D01*
Y246993D01*
X280999D01*
Y246841D01*
X280695D01*
Y246689D01*
X280238D01*
Y246537D01*
X279934D01*
Y246385D01*
X279478D01*
Y246233D01*
X279174D01*
Y246081D01*
X278717D01*
Y245929D01*
X278413D01*
Y245777D01*
X277957D01*
Y245624D01*
X277500D01*
Y245472D01*
X277044D01*
Y245320D01*
X276740D01*
Y245168D01*
X276132D01*
Y245016D01*
X275827D01*
Y244864D01*
X275219D01*
Y244712D01*
X274763D01*
Y244560D01*
X274002D01*
Y244408D01*
X269896D01*
Y244560D01*
X269135D01*
Y244712D01*
X268375D01*
Y244864D01*
X267766D01*
Y245016D01*
X267158D01*
Y245168D01*
X266702D01*
Y245320D01*
X266245D01*
Y245472D01*
X265789D01*
Y245624D01*
X265485D01*
Y245777D01*
X265029D01*
Y245929D01*
X264725D01*
Y246081D01*
X264420D01*
Y246233D01*
X263964D01*
Y246385D01*
X263660D01*
Y246537D01*
X263356D01*
Y246689D01*
X263051D01*
Y246841D01*
X262747D01*
Y246993D01*
X262595D01*
Y247145D01*
X262291D01*
Y247297D01*
X261987D01*
Y247449D01*
X261835D01*
Y247602D01*
X261531D01*
Y247754D01*
X261226D01*
Y247906D01*
X261074D01*
Y248058D01*
X260770D01*
Y248210D01*
X260618D01*
Y248362D01*
X260314D01*
Y248514D01*
X260162D01*
Y248666D01*
X259858D01*
Y248818D01*
X259705D01*
Y248970D01*
X259553D01*
Y249123D01*
X259249D01*
Y249275D01*
X259097D01*
Y249427D01*
X258945D01*
Y249579D01*
X258793D01*
Y249731D01*
X258489D01*
Y249883D01*
X258337D01*
Y250035D01*
X258185D01*
Y250187D01*
X258032D01*
Y250339D01*
X257880D01*
Y250491D01*
X257728D01*
Y250644D01*
X257424D01*
Y250796D01*
X257272D01*
Y250948D01*
X257120D01*
Y251100D01*
X256968D01*
Y251252D01*
X256816D01*
Y251404D01*
X256664D01*
Y251556D01*
X256511D01*
Y251708D01*
X256359D01*
Y251860D01*
X256207D01*
Y252012D01*
X256055D01*
Y252164D01*
X255903D01*
Y252316D01*
X255751D01*
Y252469D01*
X255599D01*
Y252621D01*
X255447D01*
Y252925D01*
X255295D01*
Y253077D01*
X255143D01*
Y253229D01*
X254991D01*
Y253381D01*
X254838D01*
Y253533D01*
X254686D01*
Y253685D01*
X254534D01*
Y253838D01*
X254382D01*
Y254142D01*
X254230D01*
Y254294D01*
X254078D01*
Y254446D01*
X253926D01*
Y254750D01*
X253774D01*
Y254902D01*
X253622D01*
Y255054D01*
X253470D01*
Y255358D01*
X253318D01*
Y255511D01*
X253165D01*
Y255815D01*
X253013D01*
Y255967D01*
X252861D01*
Y256271D01*
X252709D01*
Y256423D01*
X252557D01*
Y256727D01*
X252405D01*
Y256879D01*
X252253D01*
Y257183D01*
X252101D01*
Y257488D01*
X251949D01*
Y257792D01*
X251797D01*
Y258096D01*
X251644D01*
Y258400D01*
X251492D01*
Y258857D01*
X251340D01*
Y259161D01*
X251188D01*
Y259769D01*
X251036D01*
Y260378D01*
X250884D01*
Y263267D01*
Y263419D01*
Y263724D01*
X251036D01*
Y264180D01*
X251188D01*
Y264484D01*
X251340D01*
Y264788D01*
X251492D01*
Y264940D01*
X251644D01*
Y265092D01*
X251797D01*
Y265245D01*
X251949D01*
Y265397D01*
X252101D01*
Y265549D01*
X252253D01*
Y265701D01*
X252557D01*
Y265853D01*
X253013D01*
Y266005D01*
X254838D01*
Y265853D01*
X255295D01*
Y265701D01*
X255599D01*
Y265549D01*
X255903D01*
Y265397D01*
X256207D01*
Y265245D01*
X256359D01*
Y265092D01*
X256664D01*
Y264940D01*
X256816D01*
Y264788D01*
X256968D01*
Y264636D01*
X257120D01*
Y264484D01*
X257424D01*
Y264332D01*
X257576D01*
Y264180D01*
X257728D01*
Y264028D01*
X257880D01*
Y263876D01*
X258032D01*
Y263724D01*
X258185D01*
Y263571D01*
X258337D01*
Y263419D01*
X258489D01*
Y263115D01*
X258641D01*
Y262963D01*
X258793D01*
Y262811D01*
X258945D01*
Y262659D01*
X259097D01*
Y262507D01*
X259249D01*
Y262203D01*
X259401D01*
Y262051D01*
X259553D01*
Y261898D01*
X259705D01*
Y261746D01*
X259858D01*
Y261442D01*
X260010D01*
Y261290D01*
X260162D01*
Y261138D01*
X260314D01*
Y260834D01*
X260466D01*
Y260682D01*
X260618D01*
Y260378D01*
X260770D01*
Y260225D01*
X260922D01*
Y259921D01*
X261074D01*
Y259769D01*
X261226D01*
Y259617D01*
X261378D01*
Y259313D01*
X261531D01*
Y259161D01*
X261683D01*
Y259009D01*
X261835D01*
Y258704D01*
X261987D01*
Y258552D01*
X262139D01*
Y258400D01*
X262291D01*
Y258096D01*
X262443D01*
Y257944D01*
X262595D01*
Y257792D01*
X262747D01*
Y257640D01*
X262899D01*
Y257488D01*
X263051D01*
Y257336D01*
X263204D01*
Y257031D01*
X263356D01*
Y256879D01*
X263508D01*
Y256727D01*
X263660D01*
Y256575D01*
X263812D01*
Y256423D01*
X263964D01*
Y256271D01*
X264116D01*
Y256119D01*
X264268D01*
Y255967D01*
X264420D01*
Y255815D01*
X264573D01*
Y255663D01*
X264725D01*
Y255511D01*
X264877D01*
Y255358D01*
X265029D01*
Y255206D01*
X265181D01*
Y255054D01*
X265333D01*
Y254902D01*
X265485D01*
Y254750D01*
X265637D01*
Y254598D01*
X265941D01*
Y254446D01*
X266093D01*
Y254294D01*
X266245D01*
Y254142D01*
X266398D01*
Y253990D01*
X266550D01*
Y253838D01*
X266854D01*
Y253685D01*
X267006D01*
Y253533D01*
X267158D01*
Y253381D01*
X267310D01*
Y253229D01*
X267614D01*
Y253077D01*
X267766D01*
Y252925D01*
X267918D01*
Y252773D01*
X268223D01*
Y252621D01*
X268375D01*
Y252469D01*
X268527D01*
Y252316D01*
X268831D01*
Y252164D01*
X268983D01*
Y252012D01*
X269287D01*
Y251860D01*
X269440D01*
Y251708D01*
X269744D01*
Y251556D01*
X270048D01*
Y251404D01*
X270200D01*
Y251252D01*
X270504D01*
Y251100D01*
X270808D01*
Y250948D01*
X270960D01*
Y250796D01*
X271265D01*
Y250644D01*
X271569D01*
Y250491D01*
X271873D01*
Y250339D01*
X272177D01*
Y250187D01*
X272481D01*
Y250035D01*
X272786D01*
Y249883D01*
X273090D01*
Y249731D01*
X273394D01*
Y249579D01*
X273850D01*
Y249427D01*
X274154D01*
Y249275D01*
X274611D01*
Y249123D01*
X275067D01*
Y248970D01*
X275523D01*
Y248818D01*
X275979D01*
Y248666D01*
X276588D01*
Y248514D01*
X277196D01*
Y248362D01*
X278109D01*
Y248210D01*
X279174D01*
Y248058D01*
X280542D01*
Y248210D01*
X280695D01*
Y248362D01*
X280847D01*
Y248666D01*
X280999D01*
Y248818D01*
X281151D01*
Y249123D01*
X281303D01*
Y249275D01*
X281455D01*
Y249579D01*
X281607D01*
Y249883D01*
X281759D01*
Y250187D01*
X281911D01*
Y250644D01*
X282063D01*
Y250948D01*
X282215D01*
Y251404D01*
X282367D01*
Y252012D01*
X282520D01*
Y252773D01*
X282672D01*
Y254142D01*
X282824D01*
Y256423D01*
X282672D01*
Y257944D01*
X282520D01*
Y259009D01*
X282367D01*
Y259921D01*
X282215D01*
Y260682D01*
X282063D01*
Y261442D01*
X281911D01*
Y262051D01*
X281759D01*
Y262659D01*
X281607D01*
Y263419D01*
X281455D01*
Y264180D01*
X281303D01*
Y264940D01*
X281151D01*
Y266005D01*
X280999D01*
Y268591D01*
X281151D01*
Y269199D01*
X281303D01*
Y269503D01*
X281455D01*
Y269807D01*
X281607D01*
Y269960D01*
X281759D01*
Y270112D01*
X281911D01*
Y270264D01*
X282215D01*
Y270416D01*
X282520D01*
Y270568D01*
X282976D01*
Y270720D01*
X284345D01*
Y270568D01*
D02*
G37*
G36*
X242215Y249123D02*
X242367D01*
Y246689D01*
X242215D01*
Y246537D01*
X240998D01*
Y246385D01*
X241150D01*
Y246233D01*
X241302D01*
Y246081D01*
X241454D01*
Y245929D01*
X241606D01*
Y245777D01*
X241758D01*
Y245472D01*
X241910D01*
Y245320D01*
X242062D01*
Y245016D01*
X242215D01*
Y244560D01*
X242367D01*
Y244103D01*
X242519D01*
Y241518D01*
X242367D01*
Y241061D01*
X242215D01*
Y240605D01*
X242062D01*
Y240453D01*
X241910D01*
Y240149D01*
X241758D01*
Y239997D01*
X241606D01*
Y239845D01*
X241454D01*
Y239693D01*
X241302D01*
Y239541D01*
X241150D01*
Y239389D01*
X240846D01*
Y239236D01*
X240694D01*
Y239084D01*
X240237D01*
Y238932D01*
X239781D01*
Y238780D01*
X238869D01*
Y238628D01*
X231264D01*
Y238780D01*
X231112D01*
Y241518D01*
X231264D01*
Y241670D01*
X238564D01*
Y241822D01*
X238869D01*
Y241974D01*
X239173D01*
Y242126D01*
X239325D01*
Y242278D01*
X239477D01*
Y242430D01*
X239629D01*
Y242582D01*
X239781D01*
Y243039D01*
X239933D01*
Y244408D01*
X239781D01*
Y244712D01*
X239629D01*
Y245016D01*
X239477D01*
Y245320D01*
X239325D01*
Y245472D01*
X239173D01*
Y245624D01*
X239021D01*
Y245777D01*
X238716D01*
Y245929D01*
X238412D01*
Y246081D01*
X238108D01*
Y246233D01*
X237348D01*
Y246385D01*
X231112D01*
Y249123D01*
X231264D01*
Y249275D01*
X242215D01*
Y249123D01*
D02*
G37*
G36*
X246929Y240301D02*
X247082D01*
Y227069D01*
X244344D01*
Y227221D01*
X244192D01*
Y232240D01*
X231112D01*
Y235130D01*
X231264D01*
Y235282D01*
X244192D01*
Y240301D01*
X244344D01*
Y240453D01*
X246929D01*
Y240301D01*
D02*
G37*
G36*
X237804Y229655D02*
X238564D01*
Y229502D01*
X239021D01*
Y229350D01*
X239477D01*
Y229198D01*
X239781D01*
Y229046D01*
X240085D01*
Y228894D01*
X240237D01*
Y228742D01*
X240542D01*
Y228590D01*
X240694D01*
Y228438D01*
X240846D01*
Y228286D01*
X240998D01*
Y228134D01*
X241150D01*
Y227981D01*
X241302D01*
Y227829D01*
X241454D01*
Y227677D01*
X241606D01*
Y227373D01*
X241758D01*
Y227069D01*
X241910D01*
Y226917D01*
X242062D01*
Y226460D01*
X242215D01*
Y226156D01*
X242367D01*
Y225548D01*
X242519D01*
Y222658D01*
X242367D01*
Y222050D01*
X242215D01*
Y221746D01*
X242062D01*
Y221441D01*
X241910D01*
Y221137D01*
X241758D01*
Y220985D01*
X241606D01*
Y220681D01*
X241454D01*
Y220529D01*
X241302D01*
Y220377D01*
X241150D01*
Y220225D01*
X240998D01*
Y220072D01*
X240846D01*
Y219920D01*
X240542D01*
Y219768D01*
X240389D01*
Y219616D01*
X240085D01*
Y219464D01*
X239781D01*
Y219312D01*
X239477D01*
Y219160D01*
X239021D01*
Y219008D01*
X238564D01*
Y218856D01*
X237652D01*
Y218704D01*
X235979D01*
Y218856D01*
X235827D01*
Y226765D01*
X235675D01*
Y226613D01*
X235218D01*
Y226460D01*
X234762D01*
Y226308D01*
X234610D01*
Y226156D01*
X234306D01*
Y226004D01*
X234154D01*
Y225852D01*
X234002D01*
Y225700D01*
X233849D01*
Y225396D01*
X233697D01*
Y225092D01*
X233545D01*
Y224635D01*
X233393D01*
Y223419D01*
X233545D01*
Y222810D01*
X233697D01*
Y222506D01*
X233849D01*
Y222202D01*
X234002D01*
Y222050D01*
X234154D01*
Y221898D01*
X234306D01*
Y221746D01*
X234610D01*
Y221593D01*
X234762D01*
Y220833D01*
X234610D01*
Y220377D01*
X234458D01*
Y219920D01*
X234306D01*
Y219464D01*
X234154D01*
Y219160D01*
X234002D01*
Y219008D01*
X233697D01*
Y219160D01*
X233393D01*
Y219312D01*
X233241D01*
Y219464D01*
X232937D01*
Y219616D01*
X232785D01*
Y219768D01*
X232633D01*
Y219920D01*
X232328D01*
Y220072D01*
X232176D01*
Y220377D01*
X232024D01*
Y220529D01*
X231872D01*
Y220681D01*
X231720D01*
Y220985D01*
X231568D01*
Y221137D01*
X231416D01*
Y221441D01*
X231264D01*
Y221898D01*
X231112D01*
Y222354D01*
X230960D01*
Y223114D01*
X230807D01*
Y224940D01*
X230960D01*
Y225852D01*
X231112D01*
Y226308D01*
X231264D01*
Y226613D01*
X231416D01*
Y226917D01*
X231568D01*
Y227221D01*
X231720D01*
Y227525D01*
X231872D01*
Y227677D01*
X232024D01*
Y227829D01*
X232176D01*
Y227981D01*
X232328D01*
Y228286D01*
X232633D01*
Y228438D01*
X232785D01*
Y228590D01*
X232937D01*
Y228742D01*
X233241D01*
Y228894D01*
X233393D01*
Y229046D01*
X233697D01*
Y229198D01*
X234002D01*
Y229350D01*
X234458D01*
Y229502D01*
X234914D01*
Y229655D01*
X235675D01*
Y229807D01*
X237804D01*
Y229655D01*
D02*
G37*
G36*
X237956Y217943D02*
X238564D01*
Y217791D01*
X239021D01*
Y217639D01*
X239477D01*
Y217487D01*
X239781D01*
Y217335D01*
X240085D01*
Y217183D01*
X240237D01*
Y217031D01*
X240542D01*
Y216879D01*
X240694D01*
Y216726D01*
X240846D01*
Y216574D01*
X240998D01*
Y216422D01*
X241150D01*
Y216270D01*
X241302D01*
Y216118D01*
X241454D01*
Y215814D01*
X241606D01*
Y215662D01*
X241758D01*
Y215358D01*
X241910D01*
Y215205D01*
X242062D01*
Y214749D01*
X242215D01*
Y214445D01*
X242367D01*
Y213837D01*
X242519D01*
Y210795D01*
X242367D01*
Y210186D01*
X242215D01*
Y209730D01*
X242062D01*
Y209426D01*
X241910D01*
Y209122D01*
X241758D01*
Y208970D01*
X241606D01*
Y208666D01*
X241454D01*
Y208513D01*
X241302D01*
Y208361D01*
X241150D01*
Y208209D01*
X240998D01*
Y208057D01*
X240846D01*
Y207905D01*
X240542D01*
Y207753D01*
X240389D01*
Y207601D01*
X240085D01*
Y207449D01*
X239781D01*
Y207297D01*
X239477D01*
Y207145D01*
X239021D01*
Y207297D01*
X238869D01*
Y207753D01*
X238716D01*
Y208209D01*
X238564D01*
Y208666D01*
X238412D01*
Y209578D01*
X238564D01*
Y209730D01*
X238716D01*
Y209882D01*
X239021D01*
Y210034D01*
X239173D01*
Y210186D01*
X239325D01*
Y210338D01*
X239477D01*
Y210643D01*
X239629D01*
Y210947D01*
X239781D01*
Y211403D01*
X239933D01*
Y212924D01*
X239781D01*
Y213380D01*
X239629D01*
Y213685D01*
X239477D01*
Y213989D01*
X239325D01*
Y214141D01*
X239173D01*
Y214293D01*
X239021D01*
Y214445D01*
X238869D01*
Y214597D01*
X238564D01*
Y214749D01*
X238260D01*
Y214901D01*
X237804D01*
Y215053D01*
X235675D01*
Y214901D01*
X235218D01*
Y214749D01*
X234914D01*
Y214597D01*
X234610D01*
Y214445D01*
X234458D01*
Y214293D01*
X234306D01*
Y214141D01*
X234154D01*
Y213989D01*
X234002D01*
Y213837D01*
X233849D01*
Y213533D01*
X233697D01*
Y213076D01*
X233545D01*
Y211099D01*
X233697D01*
Y210795D01*
X233849D01*
Y210491D01*
X234002D01*
Y210338D01*
X234154D01*
Y210186D01*
X234306D01*
Y210034D01*
X234458D01*
Y209882D01*
X234610D01*
Y209730D01*
X234914D01*
Y209578D01*
X235066D01*
Y208513D01*
X234914D01*
Y207905D01*
X234762D01*
Y207297D01*
X234610D01*
Y206992D01*
X234002D01*
Y207145D01*
X233697D01*
Y207297D01*
X233393D01*
Y207449D01*
X233089D01*
Y207601D01*
X232937D01*
Y207753D01*
X232785D01*
Y207905D01*
X232481D01*
Y208057D01*
X232328D01*
Y208209D01*
X232176D01*
Y208361D01*
X232024D01*
Y208666D01*
X231872D01*
Y208818D01*
X231720D01*
Y209122D01*
X231568D01*
Y209274D01*
X231416D01*
Y209578D01*
X231264D01*
Y210034D01*
X231112D01*
Y210491D01*
X230960D01*
Y211251D01*
X230807D01*
Y213228D01*
X230960D01*
Y213989D01*
X231112D01*
Y214597D01*
X231264D01*
Y214901D01*
X231416D01*
Y215205D01*
X231568D01*
Y215510D01*
X231720D01*
Y215814D01*
X231872D01*
Y215966D01*
X232024D01*
Y216118D01*
X232176D01*
Y216270D01*
X232328D01*
Y216574D01*
X232633D01*
Y216726D01*
X232785D01*
Y216879D01*
X232937D01*
Y217031D01*
X233089D01*
Y217183D01*
X233393D01*
Y217335D01*
X233697D01*
Y217487D01*
X234002D01*
Y217639D01*
X234306D01*
Y217791D01*
X234762D01*
Y217943D01*
X235522D01*
Y218095D01*
X237956D01*
Y217943D01*
D02*
G37*
G36*
X247234Y205928D02*
X247386D01*
Y203190D01*
X241150D01*
Y203038D01*
X241302D01*
Y202886D01*
X241454D01*
Y202734D01*
X241606D01*
Y202582D01*
X241758D01*
Y202278D01*
X241910D01*
Y202125D01*
X242062D01*
Y201821D01*
X242215D01*
Y201365D01*
X242367D01*
Y200909D01*
X242519D01*
Y198323D01*
X242367D01*
Y197867D01*
X242215D01*
Y197411D01*
X242062D01*
Y197258D01*
X241910D01*
Y196954D01*
X241758D01*
Y196802D01*
X241606D01*
Y196650D01*
X241454D01*
Y196498D01*
X241302D01*
Y196346D01*
X241150D01*
Y196194D01*
X240846D01*
Y196042D01*
X240694D01*
Y195889D01*
X240237D01*
Y195737D01*
X239781D01*
Y195585D01*
X238716D01*
Y195433D01*
X231264D01*
Y195585D01*
X231112D01*
Y198323D01*
X231264D01*
Y198475D01*
X238564D01*
Y198627D01*
X238869D01*
Y198779D01*
X239173D01*
Y198931D01*
X239325D01*
Y199083D01*
X239477D01*
Y199236D01*
X239629D01*
Y199388D01*
X239781D01*
Y199844D01*
X239933D01*
Y201213D01*
X239781D01*
Y201669D01*
X239629D01*
Y201821D01*
X239477D01*
Y202125D01*
X239325D01*
Y202278D01*
X239173D01*
Y202430D01*
X239021D01*
Y202582D01*
X238716D01*
Y202734D01*
X238412D01*
Y202886D01*
X238108D01*
Y203038D01*
X237348D01*
Y203190D01*
X231112D01*
Y205928D01*
X231264D01*
Y206080D01*
X247234D01*
Y205928D01*
D02*
G37*
G36*
X204608Y396357D02*
Y394920D01*
X199937Y390966D01*
X199923Y390953D01*
X199910Y390940D01*
X199830Y390860D01*
X199724Y390754D01*
X199577Y390647D01*
X199564D01*
X199551Y390620D01*
X199458Y390594D01*
X199448Y390592D01*
X199498Y390580D01*
X199737Y390514D01*
X199857Y390474D01*
X199963Y390447D01*
X199977D01*
X200017Y390434D01*
X200056Y390421D01*
X200123Y390394D01*
X200269Y390354D01*
X200403Y390314D01*
X204608Y388890D01*
Y386974D01*
X196596Y389689D01*
Y391139D01*
X201388Y395212D01*
X201401Y395226D01*
X201427Y395239D01*
X201467Y395266D01*
X201521Y395305D01*
X201627Y395399D01*
X201706Y395458D01*
X201680Y395465D01*
X201574Y395492D01*
X201454Y395532D01*
X201441D01*
X201401Y395545D01*
X201334Y395558D01*
X201254Y395585D01*
X201081Y395638D01*
X200988Y395665D01*
X200908Y395691D01*
X196596Y397155D01*
Y399072D01*
X204608Y396357D01*
D02*
G37*
G36*
Y380119D02*
Y378203D01*
X196596Y376432D01*
Y378708D01*
X198286Y379054D01*
Y383766D01*
X196596Y385243D01*
Y387266D01*
X204608Y380119D01*
D02*
G37*
G36*
Y371308D02*
Y369871D01*
X199937Y365918D01*
X199923Y365905D01*
X199910Y365891D01*
X199830Y365811D01*
X199724Y365705D01*
X199577Y365598D01*
X199564D01*
X199551Y365572D01*
X199458Y365545D01*
X199448Y365543D01*
X199498Y365532D01*
X199737Y365465D01*
X199857Y365425D01*
X199963Y365399D01*
X199977D01*
X200017Y365386D01*
X200056Y365372D01*
X200123Y365345D01*
X200269Y365306D01*
X200403Y365266D01*
X204608Y363842D01*
Y361925D01*
X196596Y364640D01*
Y366091D01*
X201388Y370164D01*
X201401Y370177D01*
X201427Y370190D01*
X201467Y370217D01*
X201521Y370257D01*
X201627Y370350D01*
X201706Y370409D01*
X201680Y370416D01*
X201574Y370443D01*
X201454Y370483D01*
X201441D01*
X201401Y370496D01*
X201334Y370510D01*
X201254Y370536D01*
X201081Y370589D01*
X200988Y370616D01*
X200908Y370643D01*
X196596Y372107D01*
Y374023D01*
X204608Y371308D01*
D02*
G37*
G36*
X197701Y360421D02*
X197834Y360408D01*
X197994Y360381D01*
X198167Y360354D01*
X198353Y360301D01*
X198552Y360235D01*
X202625Y358850D01*
X202639D01*
X202679Y358837D01*
X202732Y358811D01*
X202812Y358784D01*
X202891Y358744D01*
X202998Y358704D01*
X203237Y358584D01*
X203490Y358451D01*
X203743Y358291D01*
X203983Y358105D01*
X204076Y357999D01*
X204169Y357892D01*
Y357879D01*
X204182Y357865D01*
X204209Y357826D01*
X204236Y357786D01*
X204276Y357719D01*
X204302Y357639D01*
X204342Y357559D01*
X204395Y357453D01*
X204435Y357333D01*
X204475Y357200D01*
X204502Y357054D01*
X204542Y356894D01*
X204569Y356721D01*
X204595Y356535D01*
X204608Y356335D01*
Y350239D01*
X204595Y350146D01*
X204582Y350039D01*
X204555Y349800D01*
X204502Y349547D01*
X204422Y349308D01*
X204369Y349188D01*
X204316Y349095D01*
X204249Y349015D01*
X204169Y348948D01*
X204142Y348935D01*
X204089Y348908D01*
X203969Y348868D01*
X203810Y348842D01*
X203717D01*
X203597D01*
X203477D01*
X203331Y348855D01*
X203184Y348881D01*
X203011Y348922D01*
X202825Y348961D01*
X202625Y349028D01*
X198552Y350412D01*
X198539D01*
X198499Y350425D01*
X198446Y350452D01*
X198379Y350479D01*
X198286Y350519D01*
X198180Y350559D01*
X197954Y350678D01*
X197687Y350825D01*
X197448Y350984D01*
X197208Y351171D01*
X197115Y351277D01*
X197022Y351384D01*
X197009Y351410D01*
X196982Y351450D01*
X196955Y351490D01*
X196929Y351557D01*
X196889Y351637D01*
X196849Y351716D01*
X196809Y351823D01*
X196769Y351943D01*
X196729Y352076D01*
X196689Y352222D01*
X196663Y352382D01*
X196636Y352555D01*
X196609Y352741D01*
X196596Y352941D01*
Y358957D01*
X196609Y359037D01*
Y359130D01*
X196623Y359236D01*
X196649Y359476D01*
X196702Y359729D01*
X196769Y359968D01*
X196822Y360088D01*
X196875Y360181D01*
X196942Y360261D01*
X197009Y360328D01*
X197035Y360341D01*
X197089Y360368D01*
X197208Y360394D01*
X197368Y360421D01*
X197461Y360434D01*
X197568D01*
X197701Y360421D01*
D02*
G37*
G36*
X204608Y344622D02*
Y337715D01*
X204595Y337635D01*
X204582Y337542D01*
X204555Y337342D01*
X204515Y337129D01*
X204435Y336903D01*
X204342Y336717D01*
X204276Y336637D01*
X204209Y336570D01*
X204196Y336557D01*
X204129Y336517D01*
X204036Y336477D01*
X203903Y336437D01*
X203730Y336410D01*
X203517D01*
X203251Y336450D01*
X203118Y336477D01*
X202958Y336530D01*
X201148Y337142D01*
X201135D01*
X201108Y337156D01*
X201068Y337169D01*
X201015Y337196D01*
X200855Y337262D01*
X200669Y337369D01*
X200469Y337489D01*
X200256Y337648D01*
X200070Y337821D01*
X199897Y338034D01*
X199883Y338061D01*
X199844Y338141D01*
X199777Y338274D01*
X199710Y338447D01*
X199631Y338673D01*
X199577Y338939D01*
X199524Y339259D01*
X199511Y339605D01*
Y340457D01*
X196596Y337888D01*
Y340683D01*
X199511Y342799D01*
Y344276D01*
X196596Y345261D01*
Y347338D01*
X204608Y344622D01*
D02*
G37*
G36*
Y329423D02*
Y327506D01*
X196596Y325736D01*
Y328012D01*
X198286Y328358D01*
Y333070D01*
X196596Y334547D01*
Y336570D01*
X204608Y329423D01*
D02*
G37*
G36*
X197701Y322994D02*
X197847Y322981D01*
X198007Y322954D01*
X198180Y322928D01*
X198366Y322875D01*
X198566Y322808D01*
X202625Y321424D01*
X202639D01*
X202679Y321410D01*
X202732Y321384D01*
X202812Y321357D01*
X202891Y321317D01*
X202998Y321277D01*
X203237Y321158D01*
X203490Y321025D01*
X203743Y320865D01*
X203983Y320678D01*
X204076Y320572D01*
X204169Y320466D01*
Y320452D01*
X204182Y320439D01*
X204209Y320399D01*
X204236Y320359D01*
X204276Y320293D01*
X204302Y320213D01*
X204342Y320133D01*
X204395Y320026D01*
X204435Y319907D01*
X204475Y319774D01*
X204502Y319627D01*
X204542Y319467D01*
X204569Y319294D01*
X204595Y319108D01*
X204608Y318908D01*
Y313891D01*
X204595Y313797D01*
X204582Y313691D01*
X204555Y313451D01*
X204502Y313199D01*
X204422Y312959D01*
X204369Y312852D01*
X204316Y312759D01*
X204249Y312679D01*
X204169Y312613D01*
X204142Y312600D01*
X204089Y312573D01*
X203969Y312533D01*
X203810Y312506D01*
X203717Y312493D01*
X203597D01*
X203477D01*
X203331Y312506D01*
X203184Y312533D01*
X203011Y312573D01*
X202825Y312613D01*
X202625Y312679D01*
X201773Y312972D01*
X201467Y315182D01*
X202931Y314689D01*
Y319228D01*
X198340Y320785D01*
Y316246D01*
X200003Y315674D01*
X199591Y313718D01*
X198566Y314064D01*
X198552D01*
X198513Y314077D01*
X198459Y314104D01*
X198379Y314130D01*
X198300Y314170D01*
X198193Y314210D01*
X197954Y314330D01*
X197701Y314476D01*
X197448Y314636D01*
X197208Y314822D01*
X197115Y314929D01*
X197022Y315035D01*
X197009Y315062D01*
X196982Y315102D01*
X196955Y315142D01*
X196929Y315208D01*
X196889Y315288D01*
X196849Y315368D01*
X196809Y315474D01*
X196769Y315594D01*
X196729Y315727D01*
X196689Y315874D01*
X196663Y316033D01*
X196636Y316206D01*
X196609Y316393D01*
X196596Y316593D01*
Y321530D01*
X196609Y321610D01*
Y321703D01*
X196623Y321810D01*
X196649Y322049D01*
X196702Y322302D01*
X196769Y322542D01*
X196822Y322662D01*
X196875Y322755D01*
X196942Y322835D01*
X197009Y322901D01*
X197035Y322915D01*
X197089Y322941D01*
X197208Y322968D01*
X197368Y322994D01*
X197461Y323008D01*
X197581D01*
X197701Y322994D01*
D02*
G37*
G36*
X204608Y308367D02*
Y306251D01*
X201388Y307342D01*
X204608Y302178D01*
Y299370D01*
X200815Y305772D01*
X196596Y301459D01*
Y304561D01*
X199990Y307821D01*
X196596Y308966D01*
Y311082D01*
X204608Y308367D01*
D02*
G37*
G36*
Y290319D02*
Y288216D01*
X198340Y290346D01*
Y284556D01*
X196596Y285142D01*
Y293034D01*
X204608Y290319D01*
D02*
G37*
G36*
Y276930D02*
Y275013D01*
X196596Y273243D01*
Y275519D01*
X198286Y275865D01*
Y280577D01*
X196596Y282054D01*
Y284077D01*
X204608Y276930D01*
D02*
G37*
G36*
X197714Y270581D02*
X197847Y270568D01*
X198007Y270541D01*
X198167Y270515D01*
X198353Y270461D01*
X198552Y270395D01*
X198885Y270288D01*
X199245Y268279D01*
X198340Y268585D01*
Y263434D01*
X199804Y262928D01*
Y267706D01*
X199817Y267786D01*
Y267879D01*
X199830Y267986D01*
X199857Y268225D01*
X199910Y268478D01*
X199990Y268718D01*
X200030Y268838D01*
X200083Y268931D01*
X200150Y269011D01*
X200229Y269077D01*
X200256Y269090D01*
X200309Y269117D01*
X200429Y269144D01*
X200589Y269170D01*
X200682Y269184D01*
X200788D01*
X200922Y269170D01*
X201055Y269157D01*
X201214Y269130D01*
X201388Y269104D01*
X201574Y269051D01*
X201773Y268984D01*
X202625Y268691D01*
X202639D01*
X202679Y268678D01*
X202732Y268651D01*
X202812Y268625D01*
X202891Y268585D01*
X202998Y268545D01*
X203237Y268425D01*
X203490Y268292D01*
X203743Y268132D01*
X203983Y267946D01*
X204076Y267839D01*
X204169Y267733D01*
Y267720D01*
X204182Y267706D01*
X204209Y267666D01*
X204236Y267626D01*
X204276Y267560D01*
X204302Y267480D01*
X204342Y267400D01*
X204395Y267294D01*
X204435Y267174D01*
X204475Y267041D01*
X204502Y266894D01*
X204542Y266735D01*
X204569Y266562D01*
X204595Y266375D01*
X204608Y266176D01*
Y261397D01*
X204595Y261304D01*
X204582Y261198D01*
X204555Y260972D01*
X204502Y260719D01*
X204435Y260479D01*
X204382Y260373D01*
X204329Y260280D01*
X204262Y260186D01*
X204182Y260120D01*
X204169Y260107D01*
X204103Y260080D01*
X203996Y260040D01*
X203850Y260000D01*
X203650Y259987D01*
X203410Y260000D01*
X203264Y260013D01*
X203104Y260040D01*
X202945Y260093D01*
X202758Y260146D01*
X202479Y260240D01*
X202080Y262263D01*
X202958Y261970D01*
Y266708D01*
X201600Y267174D01*
Y262342D01*
X201587Y262236D01*
X201574Y262130D01*
X201547Y261890D01*
X201494Y261637D01*
X201414Y261397D01*
X201361Y261278D01*
X201308Y261185D01*
X201241Y261105D01*
X201161Y261038D01*
X201135Y261025D01*
X201081Y260998D01*
X200961Y260958D01*
X200802Y260932D01*
X200709Y260918D01*
X200589D01*
X200469D01*
X200323Y260932D01*
X200176Y260958D01*
X200003Y260998D01*
X199817Y261038D01*
X199617Y261105D01*
X198552Y261464D01*
X198539D01*
X198499Y261477D01*
X198446Y261504D01*
X198379Y261531D01*
X198286Y261571D01*
X198180Y261611D01*
X197954Y261730D01*
X197687Y261863D01*
X197448Y262036D01*
X197208Y262223D01*
X197115Y262329D01*
X197022Y262436D01*
X197009Y262462D01*
X196982Y262502D01*
X196955Y262542D01*
X196929Y262609D01*
X196889Y262689D01*
X196849Y262768D01*
X196809Y262875D01*
X196769Y262995D01*
X196729Y263128D01*
X196689Y263274D01*
X196663Y263434D01*
X196636Y263620D01*
X196609Y263807D01*
X196596Y264006D01*
Y269090D01*
X196609Y269170D01*
Y269277D01*
X196623Y269383D01*
X196649Y269623D01*
X196702Y269876D01*
X196782Y270129D01*
X196822Y270235D01*
X196875Y270342D01*
X196942Y270422D01*
X197022Y270488D01*
X197048Y270501D01*
X197102Y270528D01*
X197222Y270555D01*
X197368Y270581D01*
X197474Y270595D01*
X197581D01*
X197714Y270581D01*
D02*
G37*
G36*
X204608Y255754D02*
Y247542D01*
X202998Y248088D01*
Y254197D01*
X201574Y254676D01*
Y251109D01*
X199963Y251655D01*
Y255222D01*
X198340Y255781D01*
Y249605D01*
X196596Y250191D01*
Y258469D01*
X204608Y255754D01*
D02*
G37*
G36*
Y244228D02*
Y237320D01*
X204595Y237241D01*
X204582Y237148D01*
X204555Y236948D01*
X204515Y236735D01*
X204435Y236509D01*
X204342Y236322D01*
X204276Y236242D01*
X204209Y236176D01*
X204196Y236162D01*
X204129Y236123D01*
X204036Y236083D01*
X203903Y236043D01*
X203730Y236016D01*
X203517D01*
X203251Y236056D01*
X203118Y236083D01*
X202958Y236136D01*
X201148Y236748D01*
X201135D01*
X201108Y236761D01*
X201068Y236775D01*
X201015Y236801D01*
X200855Y236868D01*
X200669Y236974D01*
X200469Y237094D01*
X200256Y237254D01*
X200070Y237427D01*
X199897Y237640D01*
X199883Y237666D01*
X199844Y237746D01*
X199777Y237880D01*
X199710Y238053D01*
X199631Y238279D01*
X199577Y238545D01*
X199524Y238864D01*
X199511Y239210D01*
Y240062D01*
X196596Y237493D01*
Y240289D01*
X199511Y242405D01*
Y243882D01*
X196596Y244867D01*
Y246943D01*
X204608Y244228D01*
D02*
G37*
G36*
Y226061D02*
Y217848D01*
X202998Y218394D01*
Y224503D01*
X201574Y224982D01*
Y221416D01*
X199963Y221961D01*
Y225528D01*
X198340Y226087D01*
Y219911D01*
X196596Y220497D01*
Y228776D01*
X204608Y226061D01*
D02*
G37*
G36*
X200695Y213363D02*
X204608Y215772D01*
Y213164D01*
X201986Y211660D01*
X204608Y208492D01*
Y206189D01*
X200908Y210821D01*
X196596Y208119D01*
Y210794D01*
X199577Y212525D01*
X196596Y216078D01*
Y218434D01*
X200695Y213363D01*
D02*
G37*
G36*
X204608Y205311D02*
Y196114D01*
X202931Y196686D01*
Y200240D01*
X196596Y202383D01*
Y204486D01*
X202931Y202343D01*
Y205883D01*
X204608Y205311D01*
D02*
G37*
G36*
Y187649D02*
X199018Y186518D01*
X204608Y181726D01*
Y179690D01*
X196596Y186717D01*
Y188141D01*
X204608Y189952D01*
Y187649D01*
D02*
G37*
G36*
X202852Y174952D02*
Y176589D01*
X204156Y176150D01*
X204675Y172410D01*
X196596Y175151D01*
Y177081D01*
X202852Y174952D01*
D02*
G37*
G36*
X197048Y169095D02*
X197155Y169069D01*
X197288Y169029D01*
X198499Y168616D01*
X198513Y168603D01*
X198566Y168590D01*
X198632Y168563D01*
X198712Y168523D01*
X198899Y168417D01*
X198978Y168363D01*
X199045Y168297D01*
X199058Y168284D01*
X199072Y168257D01*
X199098Y168217D01*
X199125Y168137D01*
X199151Y168044D01*
X199178Y167924D01*
X199205Y167778D01*
Y166207D01*
X199191Y166167D01*
X199178Y166101D01*
X199138Y165994D01*
X199085Y165941D01*
X199032Y165914D01*
X199018D01*
X199005Y165901D01*
X198965D01*
X198912D01*
X198832D01*
X198739Y165914D01*
X198632Y165941D01*
X198499Y165981D01*
X197288Y166394D01*
X197275D01*
X197222Y166420D01*
X197155Y166447D01*
X197075Y166487D01*
X196889Y166580D01*
X196809Y166646D01*
X196742Y166713D01*
Y166726D01*
X196716Y166753D01*
X196702Y166793D01*
X196676Y166859D01*
X196649Y166966D01*
X196623Y167086D01*
X196609Y167232D01*
X196596Y167418D01*
Y168803D01*
X196609Y168856D01*
X196623Y168909D01*
X196663Y169016D01*
X196702Y169056D01*
X196756Y169095D01*
X196769D01*
X196782D01*
X196822Y169109D01*
X196889D01*
X196955D01*
X197048Y169095D01*
D02*
G37*
G36*
X197435Y163532D02*
X197461Y163519D01*
X197528Y163492D01*
X197634Y163452D01*
X197754Y163386D01*
X197887Y163319D01*
X198033Y163226D01*
X198180Y163120D01*
X198300Y163000D01*
X198313Y162986D01*
X198353Y162933D01*
X198419Y162853D01*
X198499Y162733D01*
X198592Y162587D01*
X198712Y162414D01*
X198832Y162201D01*
X198965Y161948D01*
X202213Y155586D01*
X202998Y155320D01*
Y159406D01*
X201401Y159952D01*
X201827Y161642D01*
X202945Y161256D01*
X202958D01*
X202985Y161243D01*
X203038Y161216D01*
X203091Y161203D01*
X203264Y161123D01*
X203450Y161030D01*
X203663Y160910D01*
X203876Y160764D01*
X204076Y160604D01*
X204156Y160511D01*
X204236Y160418D01*
X204249Y160391D01*
X204289Y160311D01*
X204356Y160191D01*
X204422Y160018D01*
X204489Y159779D01*
X204555Y159499D01*
X204595Y159166D01*
X204608Y158980D01*
Y154641D01*
X204595Y154548D01*
Y154455D01*
X204569Y154229D01*
X204515Y153989D01*
X204449Y153763D01*
X204409Y153656D01*
X204356Y153563D01*
X204302Y153497D01*
X204236Y153430D01*
X204222Y153417D01*
X204169Y153390D01*
X204076Y153350D01*
X203943Y153324D01*
X203757Y153310D01*
X203544Y153324D01*
X203264Y153364D01*
X203118Y153404D01*
X202945Y153457D01*
X202439Y153630D01*
X202412Y153643D01*
X202346Y153670D01*
X202226Y153710D01*
X202093Y153763D01*
X201947Y153843D01*
X201800Y153923D01*
X201640Y154029D01*
X201507Y154136D01*
X201494Y154149D01*
X201454Y154202D01*
X201374Y154282D01*
X201294Y154388D01*
X201175Y154548D01*
X201041Y154748D01*
X200908Y154987D01*
X200749Y155280D01*
X198273Y160577D01*
Y156411D01*
X199418Y156012D01*
X198965Y154442D01*
X198246Y154681D01*
X198233D01*
X198207Y154694D01*
X198153Y154708D01*
X198100Y154734D01*
X197927Y154814D01*
X197741Y154907D01*
X197528Y155027D01*
X197315Y155174D01*
X197115Y155347D01*
X197035Y155440D01*
X196955Y155533D01*
X196942Y155560D01*
X196902Y155639D01*
X196836Y155759D01*
X196782Y155932D01*
X196716Y156172D01*
X196649Y156451D01*
X196609Y156784D01*
X196596Y156970D01*
Y163812D01*
X197435Y163532D01*
D02*
G37*
G36*
X197048Y152232D02*
X197155Y152206D01*
X197288Y152166D01*
X198499Y151753D01*
X198513Y151740D01*
X198566Y151726D01*
X198632Y151700D01*
X198712Y151660D01*
X198899Y151553D01*
X198978Y151500D01*
X199045Y151434D01*
X199058Y151420D01*
X199072Y151394D01*
X199098Y151354D01*
X199125Y151274D01*
X199151Y151181D01*
X199178Y151061D01*
X199205Y150915D01*
Y149344D01*
X199191Y149304D01*
X199178Y149237D01*
X199138Y149131D01*
X199085Y149078D01*
X199032Y149051D01*
X199018D01*
X199005Y149038D01*
X198965D01*
X198912D01*
X198832D01*
X198739Y149051D01*
X198632Y149078D01*
X198499Y149118D01*
X197288Y149530D01*
X197275D01*
X197222Y149557D01*
X197155Y149584D01*
X197075Y149623D01*
X196889Y149717D01*
X196809Y149783D01*
X196742Y149850D01*
Y149863D01*
X196716Y149890D01*
X196702Y149930D01*
X196676Y149996D01*
X196649Y150103D01*
X196623Y150223D01*
X196609Y150369D01*
X196596Y150555D01*
Y151939D01*
X196609Y151993D01*
X196623Y152046D01*
X196663Y152152D01*
X196702Y152192D01*
X196756Y152232D01*
X196769D01*
X196782D01*
X196822Y152246D01*
X196889D01*
X196955D01*
X197048Y152232D01*
D02*
G37*
G36*
X202852Y141225D02*
Y142862D01*
X204156Y142423D01*
X204675Y138683D01*
X196596Y141425D01*
Y143355D01*
X202852Y141225D01*
D02*
G37*
G36*
X221372Y343897D02*
Y336989D01*
X221359Y336910D01*
X221346Y336816D01*
X221319Y336617D01*
X221279Y336404D01*
X221199Y336177D01*
X221106Y335991D01*
X221040Y335911D01*
X220973Y335845D01*
X220960Y335831D01*
X220893Y335792D01*
X220800Y335752D01*
X220667Y335712D01*
X220494Y335685D01*
X220281D01*
X220015Y335725D01*
X219882Y335752D01*
X219722Y335805D01*
X218005Y336390D01*
X217992D01*
X217965Y336404D01*
X217925Y336417D01*
X217872Y336444D01*
X217712Y336510D01*
X217526Y336603D01*
X217326Y336723D01*
X217113Y336883D01*
X216927Y337056D01*
X216754Y337269D01*
X216741Y337295D01*
X216714Y337336D01*
X216701Y337375D01*
X216634Y337509D01*
X216568Y337695D01*
X216488Y337921D01*
X216434Y338187D01*
X216381Y338507D01*
X216368Y338853D01*
Y343524D01*
X213360Y344536D01*
Y346612D01*
X221372Y343897D01*
D02*
G37*
G36*
Y332544D02*
Y325636D01*
X221359Y325556D01*
X221346Y325463D01*
X221319Y325264D01*
X221279Y325051D01*
X221199Y324824D01*
X221106Y324638D01*
X221040Y324558D01*
X220973Y324492D01*
X220960Y324478D01*
X220893Y324439D01*
X220800Y324398D01*
X220667Y324359D01*
X220494Y324332D01*
X220281D01*
X220015Y324372D01*
X219882Y324398D01*
X219722Y324452D01*
X217912Y325064D01*
X217899D01*
X217872Y325077D01*
X217832Y325091D01*
X217779Y325117D01*
X217619Y325184D01*
X217433Y325290D01*
X217233Y325410D01*
X217020Y325570D01*
X216834Y325743D01*
X216661Y325956D01*
X216647Y325982D01*
X216607Y326062D01*
X216541Y326195D01*
X216474Y326368D01*
X216395Y326595D01*
X216341Y326861D01*
X216288Y327180D01*
X216275Y327526D01*
Y328378D01*
X213360Y325809D01*
Y328604D01*
X216275Y330721D01*
Y332198D01*
X213360Y333183D01*
Y335259D01*
X221372Y332544D01*
D02*
G37*
G36*
X214465Y322695D02*
X214598Y322682D01*
X214757Y322655D01*
X214930Y322628D01*
X215117Y322575D01*
X215317Y322509D01*
X219389Y321124D01*
X219403D01*
X219443Y321111D01*
X219496Y321084D01*
X219576Y321058D01*
X219655Y321018D01*
X219762Y320978D01*
X220002Y320858D01*
X220254Y320725D01*
X220507Y320565D01*
X220747Y320379D01*
X220840Y320273D01*
X220933Y320166D01*
Y320153D01*
X220947Y320140D01*
X220973Y320099D01*
X221000Y320060D01*
X221040Y319993D01*
X221066Y319913D01*
X221106Y319833D01*
X221159Y319727D01*
X221199Y319607D01*
X221239Y319474D01*
X221266Y319328D01*
X221306Y319168D01*
X221332Y318995D01*
X221359Y318808D01*
X221372Y318609D01*
Y312513D01*
X221359Y312420D01*
X221346Y312313D01*
X221319Y312074D01*
X221266Y311821D01*
X221186Y311581D01*
X221133Y311462D01*
X221080Y311368D01*
X221013Y311289D01*
X220933Y311222D01*
X220907Y311209D01*
X220853Y311182D01*
X220734Y311142D01*
X220574Y311116D01*
X220481D01*
X220361D01*
X220241D01*
X220095Y311129D01*
X219948Y311155D01*
X219775Y311195D01*
X219589Y311235D01*
X219389Y311302D01*
X215317Y312686D01*
X215303D01*
X215263Y312699D01*
X215210Y312726D01*
X215144Y312753D01*
X215050Y312793D01*
X214944Y312833D01*
X214718Y312952D01*
X214451Y313099D01*
X214212Y313258D01*
X213972Y313445D01*
X213879Y313551D01*
X213786Y313658D01*
X213773Y313684D01*
X213746Y313724D01*
X213719Y313764D01*
X213693Y313831D01*
X213653Y313911D01*
X213613Y313990D01*
X213573Y314097D01*
X213533Y314217D01*
X213493Y314350D01*
X213453Y314496D01*
X213426Y314656D01*
X213400Y314829D01*
X213373Y315015D01*
X213360Y315215D01*
Y321231D01*
X213373Y321311D01*
Y321404D01*
X213387Y321510D01*
X213413Y321750D01*
X213466Y322003D01*
X213533Y322242D01*
X213586Y322362D01*
X213640Y322455D01*
X213706Y322535D01*
X213773Y322602D01*
X213799Y322615D01*
X213853Y322642D01*
X213972Y322668D01*
X214132Y322695D01*
X214225Y322708D01*
X214332D01*
X214465Y322695D01*
D02*
G37*
G36*
Y309918D02*
X214611Y309904D01*
X214771Y309878D01*
X214944Y309851D01*
X215130Y309798D01*
X215330Y309731D01*
X217047Y309146D01*
X217419Y306910D01*
X215104Y307695D01*
Y304474D01*
X221372Y302344D01*
Y300242D01*
X215330Y302291D01*
X215317D01*
X215277Y302305D01*
X215223Y302331D01*
X215144Y302358D01*
X215064Y302398D01*
X214957Y302438D01*
X214718Y302558D01*
X214465Y302704D01*
X214212Y302864D01*
X213972Y303050D01*
X213879Y303156D01*
X213786Y303263D01*
X213773Y303290D01*
X213746Y303329D01*
X213719Y303369D01*
X213693Y303436D01*
X213653Y303516D01*
X213613Y303596D01*
X213573Y303702D01*
X213533Y303822D01*
X213493Y303955D01*
X213453Y304101D01*
X213426Y304261D01*
X213400Y304434D01*
X213373Y304620D01*
X213360Y304820D01*
Y308454D01*
X213373Y308533D01*
Y308627D01*
X213387Y308733D01*
X213413Y308973D01*
X213466Y309226D01*
X213533Y309465D01*
X213586Y309585D01*
X213640Y309678D01*
X213706Y309758D01*
X213773Y309825D01*
X213799Y309838D01*
X213853Y309865D01*
X213972Y309891D01*
X214132Y309918D01*
X214225Y309931D01*
X214345D01*
X214465Y309918D01*
D02*
G37*
G36*
X221372Y296701D02*
Y288489D01*
X219762Y289035D01*
Y295144D01*
X218338Y295623D01*
Y292056D01*
X216727Y292602D01*
Y296169D01*
X215104Y296728D01*
Y290552D01*
X213360Y291138D01*
Y299416D01*
X221372Y296701D01*
D02*
G37*
G36*
X214465Y287571D02*
X214611Y287558D01*
X214771Y287531D01*
X214944Y287504D01*
X215130Y287451D01*
X215330Y287384D01*
X219389Y286000D01*
X219403D01*
X219443Y285987D01*
X219496Y285960D01*
X219576Y285934D01*
X219655Y285894D01*
X219762Y285854D01*
X220002Y285734D01*
X220254Y285601D01*
X220507Y285441D01*
X220747Y285255D01*
X220840Y285149D01*
X220933Y285042D01*
Y285029D01*
X220947Y285015D01*
X220973Y284975D01*
X221000Y284936D01*
X221040Y284869D01*
X221066Y284789D01*
X221106Y284709D01*
X221159Y284603D01*
X221199Y284483D01*
X221239Y284350D01*
X221266Y284203D01*
X221306Y284044D01*
X221332Y283871D01*
X221359Y283685D01*
X221372Y283485D01*
Y278467D01*
X221359Y278374D01*
X221346Y278267D01*
X221319Y278028D01*
X221266Y277775D01*
X221186Y277535D01*
X221133Y277429D01*
X221080Y277336D01*
X221013Y277256D01*
X220933Y277189D01*
X220907Y277176D01*
X220853Y277150D01*
X220734Y277110D01*
X220574Y277083D01*
X220481Y277070D01*
X220361D01*
X220241D01*
X220095Y277083D01*
X219948Y277110D01*
X219775Y277150D01*
X219589Y277189D01*
X219389Y277256D01*
X218537Y277549D01*
X218231Y279758D01*
X219695Y279266D01*
Y283804D01*
X215104Y285361D01*
Y280823D01*
X216767Y280251D01*
X216355Y278294D01*
X215330Y278640D01*
X215317D01*
X215277Y278653D01*
X215223Y278680D01*
X215144Y278707D01*
X215064Y278747D01*
X214957Y278787D01*
X214718Y278906D01*
X214465Y279053D01*
X214212Y279212D01*
X213972Y279399D01*
X213879Y279505D01*
X213786Y279612D01*
X213773Y279638D01*
X213746Y279678D01*
X213719Y279718D01*
X213693Y279785D01*
X213653Y279865D01*
X213613Y279944D01*
X213573Y280051D01*
X213533Y280171D01*
X213493Y280304D01*
X213453Y280450D01*
X213426Y280610D01*
X213400Y280783D01*
X213373Y280969D01*
X213360Y281169D01*
Y286107D01*
X213373Y286187D01*
Y286280D01*
X213387Y286386D01*
X213413Y286626D01*
X213466Y286879D01*
X213533Y287118D01*
X213586Y287238D01*
X213640Y287331D01*
X213706Y287411D01*
X213773Y287478D01*
X213799Y287491D01*
X213853Y287518D01*
X213972Y287544D01*
X214132Y287571D01*
X214225Y287584D01*
X214345D01*
X214465Y287571D01*
D02*
G37*
G36*
X221372Y274687D02*
Y265490D01*
X219695Y266063D01*
Y269616D01*
X213360Y271759D01*
Y273862D01*
X219695Y271719D01*
Y275259D01*
X221372Y274687D01*
D02*
G37*
G36*
Y257478D02*
Y250544D01*
X221346Y250384D01*
X221319Y250171D01*
X221266Y249958D01*
X221199Y249745D01*
X221093Y249559D01*
X221026Y249479D01*
X220960Y249412D01*
X220947Y249399D01*
X220880Y249359D01*
X220787Y249319D01*
X220654Y249279D01*
X220481Y249252D01*
X220268D01*
X220015Y249293D01*
X219868Y249319D01*
X219722Y249372D01*
X218790Y249692D01*
X218764Y249705D01*
X218684Y249732D01*
X218577Y249785D01*
X218444Y249851D01*
X218285Y249958D01*
X218111Y250078D01*
X217952Y250224D01*
X217805Y250410D01*
X217792Y250437D01*
X217752Y250504D01*
X217686Y250597D01*
X217632Y250730D01*
X217566Y250890D01*
X217513Y251063D01*
X217486Y251262D01*
X217459Y251129D01*
X217419Y250996D01*
X217340Y250850D01*
X217246Y250717D01*
X217100Y250610D01*
X217087Y250597D01*
X217020Y250570D01*
X216927Y250544D01*
X216807Y250517D01*
X216647Y250490D01*
X216461D01*
X216235Y250517D01*
X215995Y250583D01*
X215010Y250916D01*
X214997D01*
X214970Y250930D01*
X214930Y250943D01*
X214877Y250970D01*
X214718Y251049D01*
X214545Y251156D01*
X214332Y251302D01*
X214132Y251488D01*
X213932Y251702D01*
X213759Y251968D01*
Y251981D01*
X213746Y252008D01*
X213719Y252048D01*
X213693Y252101D01*
X213666Y252181D01*
X213640Y252260D01*
X213600Y252367D01*
X213560Y252487D01*
X213520Y252620D01*
X213493Y252766D01*
X213426Y253099D01*
X213373Y253485D01*
X213360Y253911D01*
Y260193D01*
X221372Y257478D01*
D02*
G37*
G36*
Y245353D02*
Y237141D01*
X219762Y237687D01*
Y243796D01*
X218338Y244275D01*
Y240708D01*
X216727Y241254D01*
Y244820D01*
X215104Y245379D01*
Y239204D01*
X213360Y239789D01*
Y248068D01*
X221372Y245353D01*
D02*
G37*
G36*
Y233827D02*
Y225615D01*
X219762Y226160D01*
Y232269D01*
X218338Y232749D01*
Y229182D01*
X216727Y229727D01*
Y233294D01*
X215104Y233853D01*
Y227678D01*
X213360Y228263D01*
Y236542D01*
X221372Y233827D01*
D02*
G37*
G36*
X218404Y224563D02*
Y220770D01*
X216568Y221382D01*
Y225175D01*
X218404Y224563D01*
D02*
G37*
G36*
X221372Y217256D02*
Y210349D01*
X221359Y210269D01*
X221346Y210176D01*
X221319Y209976D01*
X221279Y209763D01*
X221199Y209537D01*
X221106Y209350D01*
X221040Y209270D01*
X220973Y209204D01*
X220960Y209191D01*
X220893Y209151D01*
X220800Y209111D01*
X220667Y209071D01*
X220494Y209044D01*
X220281D01*
X220015Y209084D01*
X219882Y209111D01*
X219722Y209164D01*
X218005Y209750D01*
X217992D01*
X217965Y209763D01*
X217925Y209776D01*
X217872Y209803D01*
X217712Y209869D01*
X217526Y209963D01*
X217326Y210082D01*
X217113Y210242D01*
X216927Y210415D01*
X216754Y210628D01*
X216741Y210655D01*
X216714Y210695D01*
X216701Y210735D01*
X216634Y210868D01*
X216568Y211054D01*
X216488Y211280D01*
X216434Y211546D01*
X216381Y211866D01*
X216368Y212212D01*
Y216884D01*
X213360Y217895D01*
Y219971D01*
X221372Y217256D01*
D02*
G37*
G36*
X214465Y208299D02*
X214611Y208286D01*
X214771Y208259D01*
X214944Y208232D01*
X215130Y208179D01*
X215330Y208113D01*
X219389Y206728D01*
X219403D01*
X219443Y206715D01*
X219496Y206688D01*
X219576Y206662D01*
X219655Y206622D01*
X219762Y206582D01*
X220002Y206462D01*
X220254Y206329D01*
X220507Y206169D01*
X220747Y205983D01*
X220840Y205877D01*
X220933Y205770D01*
Y205757D01*
X220947Y205744D01*
X220973Y205704D01*
X221000Y205664D01*
X221040Y205597D01*
X221066Y205517D01*
X221106Y205437D01*
X221159Y205331D01*
X221199Y205211D01*
X221239Y205078D01*
X221266Y204932D01*
X221306Y204772D01*
X221332Y204599D01*
X221359Y204412D01*
X221372Y204213D01*
Y199195D01*
X221359Y199102D01*
X221346Y198995D01*
X221319Y198756D01*
X221266Y198503D01*
X221186Y198263D01*
X221133Y198157D01*
X221080Y198064D01*
X221013Y197984D01*
X220933Y197917D01*
X220907Y197904D01*
X220853Y197878D01*
X220734Y197838D01*
X220574Y197811D01*
X220481Y197798D01*
X220361D01*
X220241D01*
X220095Y197811D01*
X219948Y197838D01*
X219775Y197878D01*
X219589Y197917D01*
X219389Y197984D01*
X218537Y198277D01*
X218231Y200486D01*
X219695Y199994D01*
Y204532D01*
X215104Y206089D01*
Y201551D01*
X216767Y200979D01*
X216355Y199022D01*
X215330Y199368D01*
X215317D01*
X215277Y199382D01*
X215223Y199408D01*
X215144Y199435D01*
X215064Y199475D01*
X214957Y199515D01*
X214718Y199634D01*
X214465Y199781D01*
X214212Y199940D01*
X213972Y200127D01*
X213879Y200233D01*
X213786Y200340D01*
X213773Y200366D01*
X213746Y200406D01*
X213719Y200446D01*
X213693Y200513D01*
X213653Y200593D01*
X213613Y200672D01*
X213573Y200779D01*
X213533Y200899D01*
X213493Y201032D01*
X213453Y201178D01*
X213426Y201338D01*
X213400Y201511D01*
X213373Y201697D01*
X213360Y201897D01*
Y206835D01*
X213373Y206915D01*
Y207008D01*
X213387Y207114D01*
X213413Y207354D01*
X213466Y207607D01*
X213533Y207846D01*
X213586Y207966D01*
X213640Y208059D01*
X213706Y208139D01*
X213773Y208206D01*
X213799Y208219D01*
X213853Y208246D01*
X213972Y208272D01*
X214132Y208299D01*
X214225Y208312D01*
X214345D01*
X214465Y208299D01*
D02*
G37*
G36*
X219615Y190930D02*
Y192567D01*
X220920Y192128D01*
X221439Y188388D01*
X213360Y191129D01*
Y193059D01*
X219615Y190930D01*
D02*
G37*
G36*
X100176Y458832D02*
X100300D01*
X100424Y458822D01*
X100710Y458803D01*
X100995Y458784D01*
X101271Y458746D01*
X101405Y458727D01*
X101519Y458699D01*
X101529D01*
X101557Y458689D01*
X101605Y458680D01*
X101662Y458661D01*
X101738Y458641D01*
X101814Y458613D01*
X101910Y458575D01*
X102015Y458537D01*
X102243Y458441D01*
X102481Y458318D01*
X102729Y458175D01*
X102957Y457994D01*
X102967Y457984D01*
X102996Y457965D01*
X103034Y457927D01*
X103081Y457879D01*
X103148Y457813D01*
X103224Y457737D01*
X103300Y457641D01*
X103396Y457546D01*
X103481Y457432D01*
X103577Y457298D01*
X103672Y457165D01*
X103767Y457022D01*
X103862Y456860D01*
X103948Y456689D01*
X104110Y456327D01*
Y456317D01*
X104129Y456279D01*
X104148Y456222D01*
X104167Y456146D01*
X104205Y456051D01*
X104234Y455936D01*
X104272Y455803D01*
X104310Y455660D01*
X104339Y455498D01*
X104377Y455317D01*
X104415Y455127D01*
X104443Y454927D01*
X104462Y454708D01*
X104481Y454489D01*
X104501Y454012D01*
Y454003D01*
Y453965D01*
Y453908D01*
Y453822D01*
X104491Y453727D01*
Y453612D01*
X104481Y453488D01*
X104472Y453346D01*
X104453Y453193D01*
X104434Y453041D01*
X104386Y452707D01*
X104319Y452365D01*
X104234Y452031D01*
Y452022D01*
X104224Y451993D01*
X104205Y451945D01*
X104186Y451888D01*
X104158Y451812D01*
X104129Y451726D01*
X104091Y451631D01*
X104053Y451536D01*
X103958Y451307D01*
X103843Y451069D01*
X103710Y450831D01*
X103567Y450612D01*
Y450602D01*
X103548Y450583D01*
X103529Y450555D01*
X103500Y450517D01*
X103415Y450421D01*
X103310Y450288D01*
X103176Y450145D01*
X103024Y450002D01*
X102862Y449859D01*
X102681Y449726D01*
X102672D01*
X102662Y449716D01*
X102634Y449697D01*
X102596Y449669D01*
X102548Y449650D01*
X102491Y449612D01*
X102357Y449545D01*
X102186Y449469D01*
X101986Y449383D01*
X101757Y449307D01*
X101510Y449240D01*
X101500D01*
X101481Y449231D01*
X101443Y449221D01*
X101386Y449212D01*
X101329Y449202D01*
X101252Y449193D01*
X101157Y449174D01*
X101062Y449164D01*
X100948Y449145D01*
X100833Y449126D01*
X100567Y449107D01*
X100271Y449088D01*
X99948Y449078D01*
X96423D01*
Y458842D01*
X100071D01*
X100176Y458832D01*
D02*
G37*
G36*
X90089Y450231D02*
X94890D01*
Y449078D01*
X88794D01*
Y458842D01*
X90089D01*
Y450231D01*
D02*
G37*
G36*
X109177Y458870D02*
X109292Y458861D01*
X109415Y458842D01*
X109549Y458813D01*
X109701Y458784D01*
X109863Y458746D01*
X110035Y458699D01*
X110206Y458641D01*
X110377Y458565D01*
X110549Y458479D01*
X110711Y458384D01*
X110873Y458270D01*
X111025Y458137D01*
X111035Y458127D01*
X111063Y458098D01*
X111101Y458060D01*
X111149Y458003D01*
X111206Y457937D01*
X111273Y457841D01*
X111340Y457746D01*
X111416Y457632D01*
X111492Y457508D01*
X111559Y457365D01*
X111625Y457222D01*
X111682Y457060D01*
X111730Y456889D01*
X111778Y456708D01*
X111797Y456527D01*
X111806Y456327D01*
Y456317D01*
Y456298D01*
Y456260D01*
X111797Y456213D01*
Y456155D01*
X111787Y456079D01*
X111759Y455917D01*
X111721Y455736D01*
X111654Y455536D01*
X111568Y455336D01*
X111444Y455136D01*
Y455127D01*
X111425Y455117D01*
X111378Y455051D01*
X111292Y454965D01*
X111178Y454851D01*
X111025Y454727D01*
X110844Y454603D01*
X110625Y454479D01*
X110368Y454365D01*
X110377D01*
X110406Y454355D01*
X110454Y454336D01*
X110511Y454308D01*
X110587Y454279D01*
X110673Y454241D01*
X110873Y454136D01*
X111092Y454003D01*
X111320Y453841D01*
X111539Y453650D01*
X111635Y453536D01*
X111730Y453422D01*
X111740Y453412D01*
X111749Y453393D01*
X111778Y453355D01*
X111806Y453307D01*
X111844Y453241D01*
X111882Y453174D01*
X111920Y453079D01*
X111968Y452984D01*
X112016Y452879D01*
X112054Y452755D01*
X112130Y452498D01*
X112187Y452193D01*
X112197Y452041D01*
X112206Y451869D01*
Y451860D01*
Y451812D01*
X112197Y451745D01*
Y451660D01*
X112178Y451555D01*
X112159Y451431D01*
X112130Y451288D01*
X112092Y451136D01*
X112044Y450974D01*
X111987Y450802D01*
X111920Y450631D01*
X111835Y450450D01*
X111730Y450269D01*
X111616Y450098D01*
X111473Y449926D01*
X111320Y449764D01*
X111311Y449755D01*
X111282Y449726D01*
X111225Y449688D01*
X111159Y449631D01*
X111073Y449564D01*
X110968Y449497D01*
X110835Y449421D01*
X110701Y449345D01*
X110539Y449259D01*
X110358Y449183D01*
X110168Y449116D01*
X109958Y449050D01*
X109739Y448993D01*
X109501Y448955D01*
X109254Y448926D01*
X108987Y448916D01*
X108920D01*
X108844Y448926D01*
X108749D01*
X108625Y448945D01*
X108482Y448964D01*
X108320Y448983D01*
X108149Y449021D01*
X107968Y449069D01*
X107777Y449126D01*
X107587Y449193D01*
X107396Y449278D01*
X107196Y449374D01*
X107006Y449488D01*
X106825Y449612D01*
X106653Y449764D01*
X106644Y449774D01*
X106615Y449802D01*
X106577Y449850D01*
X106520Y449917D01*
X106453Y450002D01*
X106377Y450107D01*
X106301Y450221D01*
X106215Y450355D01*
X106129Y450498D01*
X106053Y450659D01*
X105977Y450840D01*
X105910Y451031D01*
X105863Y451231D01*
X105815Y451441D01*
X105786Y451660D01*
X105777Y451898D01*
Y451907D01*
Y451936D01*
Y451993D01*
X105786Y452060D01*
X105796Y452136D01*
X105805Y452231D01*
X105815Y452336D01*
X105834Y452450D01*
X105891Y452707D01*
X105977Y452974D01*
X106034Y453107D01*
X106101Y453241D01*
X106167Y453365D01*
X106253Y453488D01*
X106263Y453498D01*
X106272Y453517D01*
X106301Y453546D01*
X106339Y453593D01*
X106396Y453650D01*
X106453Y453708D01*
X106529Y453774D01*
X106606Y453841D01*
X106701Y453917D01*
X106806Y453984D01*
X106920Y454060D01*
X107044Y454136D01*
X107177Y454203D01*
X107320Y454260D01*
X107472Y454317D01*
X107634Y454365D01*
X107625D01*
X107606Y454374D01*
X107558Y454393D01*
X107510Y454412D01*
X107453Y454441D01*
X107377Y454479D01*
X107215Y454565D01*
X107034Y454679D01*
X106844Y454812D01*
X106672Y454965D01*
X106520Y455146D01*
Y455155D01*
X106501Y455165D01*
X106491Y455193D01*
X106463Y455232D01*
X106434Y455289D01*
X106405Y455346D01*
X106348Y455489D01*
X106282Y455660D01*
X106224Y455870D01*
X106186Y456098D01*
X106167Y456355D01*
Y456365D01*
Y456403D01*
X106177Y456460D01*
Y456536D01*
X106186Y456622D01*
X106206Y456727D01*
X106234Y456851D01*
X106263Y456984D01*
X106301Y457117D01*
X106358Y457260D01*
X106415Y457413D01*
X106491Y457565D01*
X106577Y457708D01*
X106682Y457860D01*
X106796Y458003D01*
X106929Y458146D01*
X106939Y458156D01*
X106967Y458175D01*
X107006Y458213D01*
X107072Y458260D01*
X107149Y458318D01*
X107234Y458375D01*
X107348Y458441D01*
X107472Y458518D01*
X107606Y458584D01*
X107758Y458651D01*
X107929Y458708D01*
X108111Y458765D01*
X108310Y458813D01*
X108511Y458851D01*
X108739Y458870D01*
X108968Y458880D01*
X109092D01*
X109177Y458870D01*
D02*
G37*
G36*
X157997Y414288D02*
X157987Y414279D01*
X157959Y414241D01*
X157901Y414184D01*
X157835Y414107D01*
X157749Y414002D01*
X157654Y413888D01*
X157540Y413745D01*
X157416Y413583D01*
X157282Y413402D01*
X157130Y413202D01*
X156978Y412983D01*
X156816Y412745D01*
X156654Y412497D01*
X156482Y412231D01*
X156311Y411945D01*
X156139Y411640D01*
X156130Y411621D01*
X156101Y411564D01*
X156054Y411478D01*
X155987Y411354D01*
X155911Y411212D01*
X155825Y411031D01*
X155730Y410831D01*
X155625Y410602D01*
X155511Y410354D01*
X155396Y410097D01*
X155273Y409812D01*
X155158Y409526D01*
X155044Y409221D01*
X154930Y408907D01*
X154825Y408583D01*
X154730Y408259D01*
Y408249D01*
X154711Y408202D01*
X154691Y408135D01*
X154672Y408049D01*
X154644Y407935D01*
X154606Y407792D01*
X154577Y407640D01*
X154539Y407468D01*
X154501Y407278D01*
X154463Y407068D01*
X154425Y406849D01*
X154387Y406611D01*
X154349Y406373D01*
X154320Y406116D01*
X154272Y405582D01*
X153044D01*
Y405592D01*
Y405639D01*
X153053Y405697D01*
Y405782D01*
X153063Y405897D01*
X153072Y406030D01*
X153091Y406183D01*
X153110Y406354D01*
X153129Y406554D01*
X153158Y406763D01*
X153196Y406992D01*
X153244Y407230D01*
X153291Y407497D01*
X153349Y407764D01*
X153415Y408059D01*
X153491Y408354D01*
Y408364D01*
X153501Y408373D01*
X153510Y408430D01*
X153539Y408516D01*
X153568Y408630D01*
X153615Y408783D01*
X153672Y408954D01*
X153729Y409145D01*
X153806Y409364D01*
X153891Y409592D01*
X153987Y409840D01*
X154082Y410107D01*
X154196Y410373D01*
X154444Y410935D01*
X154730Y411507D01*
X154739Y411526D01*
X154768Y411574D01*
X154815Y411650D01*
X154873Y411764D01*
X154949Y411888D01*
X155034Y412040D01*
X155139Y412212D01*
X155253Y412393D01*
X155377Y412593D01*
X155511Y412802D01*
X155796Y413231D01*
X156120Y413660D01*
X156282Y413869D01*
X156454Y414069D01*
X151682D01*
Y415222D01*
X157997D01*
Y414288D01*
D02*
G37*
G36*
X145986Y415336D02*
X146110D01*
X146233Y415326D01*
X146519Y415307D01*
X146805Y415288D01*
X147081Y415250D01*
X147214Y415231D01*
X147329Y415203D01*
X147338D01*
X147367Y415193D01*
X147414Y415184D01*
X147472Y415164D01*
X147548Y415145D01*
X147624Y415117D01*
X147719Y415079D01*
X147824Y415041D01*
X148053Y414945D01*
X148291Y414822D01*
X148538Y414679D01*
X148767Y414498D01*
X148777Y414488D01*
X148805Y414469D01*
X148843Y414431D01*
X148891Y414384D01*
X148958Y414317D01*
X149034Y414241D01*
X149110Y414145D01*
X149205Y414050D01*
X149291Y413936D01*
X149386Y413802D01*
X149481Y413669D01*
X149577Y413526D01*
X149672Y413364D01*
X149758Y413193D01*
X149920Y412831D01*
Y412821D01*
X149939Y412783D01*
X149958Y412726D01*
X149977Y412650D01*
X150015Y412555D01*
X150043Y412440D01*
X150081Y412307D01*
X150119Y412164D01*
X150148Y412002D01*
X150186Y411821D01*
X150224Y411631D01*
X150253Y411431D01*
X150272Y411212D01*
X150291Y410993D01*
X150310Y410516D01*
Y410507D01*
Y410469D01*
Y410412D01*
Y410326D01*
X150301Y410231D01*
Y410116D01*
X150291Y409992D01*
X150281Y409850D01*
X150262Y409697D01*
X150243Y409545D01*
X150196Y409211D01*
X150129Y408868D01*
X150043Y408535D01*
Y408526D01*
X150034Y408497D01*
X150015Y408449D01*
X149996Y408392D01*
X149967Y408316D01*
X149939Y408230D01*
X149901Y408135D01*
X149862Y408040D01*
X149767Y407811D01*
X149653Y407573D01*
X149520Y407335D01*
X149377Y407116D01*
Y407106D01*
X149358Y407087D01*
X149339Y407059D01*
X149310Y407021D01*
X149224Y406925D01*
X149119Y406792D01*
X148986Y406649D01*
X148834Y406506D01*
X148672Y406363D01*
X148491Y406230D01*
X148481D01*
X148472Y406221D01*
X148443Y406202D01*
X148405Y406173D01*
X148357Y406154D01*
X148300Y406116D01*
X148167Y406049D01*
X147996Y405973D01*
X147795Y405887D01*
X147567Y405811D01*
X147319Y405744D01*
X147310D01*
X147291Y405735D01*
X147253Y405725D01*
X147195Y405716D01*
X147138Y405706D01*
X147062Y405697D01*
X146967Y405678D01*
X146872Y405668D01*
X146757Y405649D01*
X146643Y405630D01*
X146376Y405611D01*
X146081Y405592D01*
X145757Y405582D01*
X142233D01*
Y415345D01*
X145881D01*
X145986Y415336D01*
D02*
G37*
G36*
X135899Y406735D02*
X140699D01*
Y405582D01*
X134603D01*
Y415345D01*
X135899D01*
Y406735D01*
D02*
G37*
G36*
X109434Y348825D02*
X109539Y348816D01*
X109654Y348797D01*
X109777Y348778D01*
X109920Y348758D01*
X110216Y348673D01*
X110377Y348625D01*
X110530Y348558D01*
X110692Y348492D01*
X110844Y348396D01*
X110997Y348301D01*
X111139Y348187D01*
X111149Y348177D01*
X111168Y348158D01*
X111206Y348120D01*
X111254Y348073D01*
X111311Y348006D01*
X111378Y347920D01*
X111454Y347825D01*
X111530Y347720D01*
X111606Y347606D01*
X111682Y347463D01*
X111749Y347320D01*
X111825Y347158D01*
X111892Y346987D01*
X111939Y346806D01*
X111987Y346615D01*
X112025Y346406D01*
X110835Y346311D01*
Y346320D01*
X110825Y346339D01*
X110816Y346377D01*
X110806Y346425D01*
X110787Y346482D01*
X110768Y346549D01*
X110720Y346701D01*
X110654Y346872D01*
X110577Y347044D01*
X110482Y347206D01*
X110377Y347339D01*
X110368Y347349D01*
X110358Y347358D01*
X110330Y347387D01*
X110292Y347415D01*
X110244Y347463D01*
X110187Y347501D01*
X110044Y347596D01*
X109873Y347692D01*
X109663Y347777D01*
X109434Y347835D01*
X109311Y347844D01*
X109177Y347854D01*
X109082D01*
X108977Y347835D01*
X108834Y347815D01*
X108682Y347777D01*
X108511Y347720D01*
X108339Y347635D01*
X108168Y347530D01*
X108158D01*
X108139Y347511D01*
X108111Y347492D01*
X108072Y347453D01*
X107977Y347358D01*
X107844Y347225D01*
X107701Y347053D01*
X107549Y346844D01*
X107406Y346606D01*
X107272Y346320D01*
Y346311D01*
X107263Y346282D01*
X107244Y346234D01*
X107225Y346177D01*
X107196Y346091D01*
X107168Y345996D01*
X107139Y345872D01*
X107110Y345739D01*
X107082Y345587D01*
X107053Y345425D01*
X107025Y345234D01*
X106996Y345034D01*
X106977Y344815D01*
X106958Y344577D01*
X106948Y344329D01*
X106939Y344063D01*
X106948Y344072D01*
X106958Y344091D01*
X106987Y344129D01*
X107015Y344167D01*
X107053Y344225D01*
X107110Y344291D01*
X107234Y344434D01*
X107387Y344596D01*
X107568Y344758D01*
X107768Y344910D01*
X107996Y345044D01*
X108006D01*
X108025Y345053D01*
X108063Y345072D01*
X108101Y345091D01*
X108168Y345120D01*
X108234Y345148D01*
X108310Y345177D01*
X108396Y345206D01*
X108596Y345263D01*
X108815Y345320D01*
X109053Y345358D01*
X109311Y345368D01*
X109368D01*
X109425Y345358D01*
X109511D01*
X109615Y345339D01*
X109739Y345320D01*
X109873Y345291D01*
X110015Y345253D01*
X110168Y345206D01*
X110339Y345148D01*
X110501Y345082D01*
X110673Y344996D01*
X110854Y344891D01*
X111025Y344777D01*
X111187Y344634D01*
X111349Y344482D01*
X111358Y344472D01*
X111387Y344444D01*
X111425Y344386D01*
X111482Y344320D01*
X111549Y344234D01*
X111616Y344129D01*
X111692Y344005D01*
X111778Y343863D01*
X111854Y343710D01*
X111930Y343539D01*
X111997Y343348D01*
X112063Y343148D01*
X112121Y342929D01*
X112159Y342701D01*
X112187Y342462D01*
X112197Y342205D01*
Y342196D01*
Y342167D01*
Y342119D01*
X112187Y342053D01*
Y341967D01*
X112178Y341872D01*
X112168Y341767D01*
X112149Y341643D01*
X112101Y341376D01*
X112025Y341091D01*
X111930Y340796D01*
X111797Y340491D01*
Y340481D01*
X111778Y340453D01*
X111759Y340415D01*
X111721Y340367D01*
X111682Y340300D01*
X111635Y340224D01*
X111511Y340053D01*
X111349Y339852D01*
X111168Y339652D01*
X110949Y339462D01*
X110701Y339291D01*
X110692D01*
X110673Y339272D01*
X110635Y339253D01*
X110577Y339224D01*
X110511Y339195D01*
X110435Y339157D01*
X110349Y339119D01*
X110244Y339081D01*
X110139Y339043D01*
X110015Y339005D01*
X109749Y338938D01*
X109453Y338890D01*
X109292Y338881D01*
X109130Y338871D01*
X109063D01*
X108987Y338881D01*
X108882Y338890D01*
X108758Y338910D01*
X108606Y338929D01*
X108444Y338967D01*
X108263Y339005D01*
X108072Y339062D01*
X107882Y339138D01*
X107672Y339224D01*
X107472Y339338D01*
X107263Y339462D01*
X107063Y339605D01*
X106872Y339776D01*
X106691Y339967D01*
X106682Y339976D01*
X106653Y340024D01*
X106606Y340081D01*
X106548Y340176D01*
X106472Y340300D01*
X106396Y340453D01*
X106310Y340624D01*
X106224Y340834D01*
X106129Y341072D01*
X106044Y341338D01*
X105967Y341634D01*
X105901Y341967D01*
X105834Y342319D01*
X105786Y342720D01*
X105758Y343139D01*
X105748Y343596D01*
Y343605D01*
Y343624D01*
Y343662D01*
Y343720D01*
Y343786D01*
X105758Y343863D01*
Y343958D01*
X105767Y344063D01*
Y344167D01*
X105777Y344291D01*
X105805Y344558D01*
X105834Y344853D01*
X105882Y345168D01*
X105929Y345501D01*
X106005Y345844D01*
X106082Y346187D01*
X106186Y346530D01*
X106301Y346853D01*
X106444Y347168D01*
X106606Y347453D01*
X106786Y347711D01*
X106796Y347720D01*
X106825Y347758D01*
X106882Y347815D01*
X106958Y347882D01*
X107044Y347968D01*
X107158Y348063D01*
X107291Y348168D01*
X107434Y348273D01*
X107606Y348377D01*
X107787Y348482D01*
X107987Y348577D01*
X108206Y348663D01*
X108444Y348730D01*
X108692Y348787D01*
X108958Y348825D01*
X109244Y348835D01*
X109358D01*
X109434Y348825D01*
D02*
G37*
G36*
X100186Y348787D02*
X100309D01*
X100433Y348778D01*
X100719Y348758D01*
X101005Y348739D01*
X101281Y348701D01*
X101414Y348682D01*
X101529Y348654D01*
X101538D01*
X101567Y348644D01*
X101614Y348635D01*
X101672Y348615D01*
X101748Y348596D01*
X101824Y348568D01*
X101919Y348530D01*
X102024Y348492D01*
X102253Y348396D01*
X102491Y348273D01*
X102738Y348130D01*
X102967Y347949D01*
X102977Y347939D01*
X103005Y347920D01*
X103043Y347882D01*
X103091Y347835D01*
X103158Y347768D01*
X103234Y347692D01*
X103310Y347596D01*
X103405Y347501D01*
X103491Y347387D01*
X103586Y347253D01*
X103681Y347120D01*
X103777Y346977D01*
X103872Y346815D01*
X103958Y346644D01*
X104120Y346282D01*
Y346272D01*
X104139Y346234D01*
X104158Y346177D01*
X104177Y346101D01*
X104215Y346006D01*
X104243Y345891D01*
X104281Y345758D01*
X104319Y345615D01*
X104348Y345453D01*
X104386Y345272D01*
X104424Y345082D01*
X104453Y344882D01*
X104472Y344663D01*
X104491Y344444D01*
X104510Y343967D01*
Y343958D01*
Y343920D01*
Y343863D01*
Y343777D01*
X104501Y343682D01*
Y343567D01*
X104491Y343443D01*
X104481Y343301D01*
X104462Y343148D01*
X104443Y342996D01*
X104396Y342662D01*
X104329Y342319D01*
X104243Y341986D01*
Y341977D01*
X104234Y341948D01*
X104215Y341900D01*
X104196Y341843D01*
X104167Y341767D01*
X104139Y341681D01*
X104101Y341586D01*
X104062Y341491D01*
X103967Y341262D01*
X103853Y341024D01*
X103720Y340786D01*
X103577Y340567D01*
Y340557D01*
X103558Y340538D01*
X103539Y340510D01*
X103510Y340472D01*
X103424Y340376D01*
X103319Y340243D01*
X103186Y340100D01*
X103034Y339957D01*
X102872Y339814D01*
X102691Y339681D01*
X102681D01*
X102672Y339672D01*
X102643Y339652D01*
X102605Y339624D01*
X102557Y339605D01*
X102500Y339567D01*
X102367Y339500D01*
X102196Y339424D01*
X101995Y339338D01*
X101767Y339262D01*
X101519Y339195D01*
X101510D01*
X101491Y339186D01*
X101453Y339176D01*
X101395Y339167D01*
X101338Y339157D01*
X101262Y339148D01*
X101167Y339129D01*
X101072Y339119D01*
X100957Y339100D01*
X100843Y339081D01*
X100576Y339062D01*
X100281Y339043D01*
X99957Y339033D01*
X96433D01*
Y348797D01*
X100081D01*
X100186Y348787D01*
D02*
G37*
G36*
X90099Y340186D02*
X94899D01*
Y339033D01*
X88803D01*
Y348797D01*
X90099D01*
Y340186D01*
D02*
G37*
G36*
X157578Y304146D02*
X153663D01*
X153139Y301508D01*
X153148Y301518D01*
X153177Y301537D01*
X153225Y301565D01*
X153291Y301603D01*
X153368Y301651D01*
X153472Y301708D01*
X153577Y301756D01*
X153701Y301822D01*
X153834Y301880D01*
X153977Y301927D01*
X154291Y302032D01*
X154453Y302070D01*
X154625Y302099D01*
X154806Y302118D01*
X154987Y302127D01*
X155044D01*
X155111Y302118D01*
X155206D01*
X155311Y302099D01*
X155444Y302080D01*
X155587Y302051D01*
X155739Y302013D01*
X155901Y301965D01*
X156082Y301908D01*
X156263Y301841D01*
X156444Y301756D01*
X156625Y301651D01*
X156806Y301537D01*
X156978Y301394D01*
X157149Y301241D01*
X157158Y301232D01*
X157187Y301203D01*
X157235Y301146D01*
X157292Y301079D01*
X157359Y300994D01*
X157425Y300889D01*
X157511Y300765D01*
X157597Y300622D01*
X157673Y300470D01*
X157759Y300298D01*
X157825Y300108D01*
X157901Y299908D01*
X157949Y299689D01*
X157997Y299460D01*
X158025Y299212D01*
X158035Y298955D01*
Y298936D01*
Y298898D01*
X158025Y298832D01*
Y298736D01*
X158016Y298622D01*
X157997Y298489D01*
X157968Y298336D01*
X157940Y298174D01*
X157892Y298003D01*
X157844Y297812D01*
X157778Y297622D01*
X157701Y297431D01*
X157616Y297241D01*
X157511Y297041D01*
X157387Y296850D01*
X157254Y296669D01*
X157244Y296660D01*
X157206Y296622D01*
X157158Y296565D01*
X157082Y296488D01*
X156987Y296393D01*
X156873Y296298D01*
X156739Y296193D01*
X156587Y296079D01*
X156406Y295965D01*
X156215Y295860D01*
X156006Y295765D01*
X155777Y295669D01*
X155530Y295593D01*
X155273Y295536D01*
X154987Y295498D01*
X154691Y295488D01*
X154634D01*
X154568Y295498D01*
X154473D01*
X154358Y295507D01*
X154225Y295526D01*
X154082Y295555D01*
X153920Y295583D01*
X153749Y295622D01*
X153577Y295669D01*
X153396Y295726D01*
X153206Y295803D01*
X153025Y295888D01*
X152844Y295984D01*
X152672Y296098D01*
X152510Y296231D01*
X152501Y296241D01*
X152472Y296269D01*
X152434Y296307D01*
X152377Y296364D01*
X152310Y296441D01*
X152244Y296536D01*
X152158Y296641D01*
X152082Y296755D01*
X151996Y296888D01*
X151910Y297041D01*
X151834Y297203D01*
X151758Y297384D01*
X151691Y297574D01*
X151634Y297774D01*
X151586Y297984D01*
X151558Y298212D01*
X152815Y298317D01*
Y298308D01*
X152825Y298279D01*
X152834Y298231D01*
X152844Y298165D01*
X152863Y298089D01*
X152882Y298003D01*
X152949Y297793D01*
X153034Y297574D01*
X153139Y297346D01*
X153282Y297117D01*
X153368Y297022D01*
X153453Y296926D01*
X153463Y296917D01*
X153482Y296908D01*
X153510Y296888D01*
X153548Y296860D01*
X153596Y296822D01*
X153653Y296784D01*
X153806Y296698D01*
X153987Y296612D01*
X154196Y296546D01*
X154434Y296488D01*
X154558Y296479D01*
X154691Y296469D01*
X154777D01*
X154834Y296479D01*
X154911Y296488D01*
X154996Y296507D01*
X155092Y296527D01*
X155196Y296555D01*
X155435Y296631D01*
X155549Y296679D01*
X155673Y296745D01*
X155796Y296822D01*
X155920Y296908D01*
X156044Y297003D01*
X156158Y297117D01*
X156168Y297127D01*
X156187Y297146D01*
X156215Y297184D01*
X156254Y297241D01*
X156301Y297298D01*
X156349Y297384D01*
X156406Y297479D01*
X156463Y297584D01*
X156511Y297698D01*
X156568Y297831D01*
X156616Y297974D01*
X156663Y298127D01*
X156701Y298289D01*
X156730Y298470D01*
X156749Y298650D01*
X156758Y298851D01*
Y298860D01*
Y298898D01*
Y298946D01*
X156749Y299022D01*
X156739Y299108D01*
X156730Y299203D01*
X156711Y299317D01*
X156682Y299441D01*
X156616Y299698D01*
X156568Y299832D01*
X156511Y299965D01*
X156444Y300098D01*
X156368Y300232D01*
X156282Y300355D01*
X156177Y300470D01*
X156168Y300479D01*
X156149Y300498D01*
X156120Y300527D01*
X156073Y300565D01*
X156016Y300613D01*
X155949Y300660D01*
X155863Y300718D01*
X155777Y300775D01*
X155673Y300822D01*
X155558Y300879D01*
X155435Y300927D01*
X155301Y300975D01*
X155149Y301013D01*
X154996Y301041D01*
X154834Y301060D01*
X154663Y301070D01*
X154568D01*
X154511Y301060D01*
X154453D01*
X154311Y301041D01*
X154149Y301003D01*
X153977Y300956D01*
X153796Y300889D01*
X153615Y300803D01*
X153606D01*
X153596Y300794D01*
X153539Y300756D01*
X153453Y300698D01*
X153358Y300622D01*
X153234Y300517D01*
X153120Y300403D01*
X152996Y300270D01*
X152891Y300127D01*
X151767Y300270D01*
X152710Y305289D01*
X157578D01*
Y304146D01*
D02*
G37*
G36*
X145948Y305404D02*
X146071D01*
X146195Y305394D01*
X146481Y305375D01*
X146767Y305356D01*
X147043Y305318D01*
X147176Y305299D01*
X147291Y305270D01*
X147300D01*
X147329Y305261D01*
X147376Y305251D01*
X147434Y305232D01*
X147510Y305213D01*
X147586Y305185D01*
X147681Y305147D01*
X147786Y305109D01*
X148014Y305013D01*
X148253Y304889D01*
X148500Y304746D01*
X148729Y304566D01*
X148738Y304556D01*
X148767Y304537D01*
X148805Y304499D01*
X148853Y304451D01*
X148919Y304385D01*
X148996Y304308D01*
X149072Y304213D01*
X149167Y304118D01*
X149253Y304004D01*
X149348Y303870D01*
X149443Y303737D01*
X149538Y303594D01*
X149634Y303432D01*
X149719Y303261D01*
X149881Y302899D01*
Y302889D01*
X149901Y302851D01*
X149920Y302794D01*
X149939Y302718D01*
X149977Y302623D01*
X150005Y302508D01*
X150043Y302375D01*
X150081Y302232D01*
X150110Y302070D01*
X150148Y301889D01*
X150186Y301698D01*
X150215Y301499D01*
X150234Y301279D01*
X150253Y301060D01*
X150272Y300584D01*
Y300575D01*
Y300536D01*
Y300479D01*
Y300394D01*
X150262Y300298D01*
Y300184D01*
X150253Y300060D01*
X150243Y299917D01*
X150224Y299765D01*
X150205Y299613D01*
X150158Y299279D01*
X150091Y298936D01*
X150005Y298603D01*
Y298593D01*
X149996Y298565D01*
X149977Y298517D01*
X149958Y298460D01*
X149929Y298384D01*
X149901Y298298D01*
X149862Y298203D01*
X149824Y298108D01*
X149729Y297879D01*
X149615Y297641D01*
X149481Y297403D01*
X149339Y297184D01*
Y297174D01*
X149319Y297155D01*
X149300Y297127D01*
X149272Y297088D01*
X149186Y296993D01*
X149081Y296860D01*
X148948Y296717D01*
X148796Y296574D01*
X148634Y296431D01*
X148453Y296298D01*
X148443D01*
X148434Y296288D01*
X148405Y296269D01*
X148367Y296241D01*
X148319Y296222D01*
X148262Y296184D01*
X148129Y296117D01*
X147957Y296041D01*
X147757Y295955D01*
X147529Y295879D01*
X147281Y295812D01*
X147272D01*
X147253Y295803D01*
X147214Y295793D01*
X147157Y295784D01*
X147100Y295774D01*
X147024Y295765D01*
X146929Y295745D01*
X146833Y295736D01*
X146719Y295717D01*
X146605Y295698D01*
X146338Y295679D01*
X146043Y295660D01*
X145719Y295650D01*
X142195D01*
Y305413D01*
X145843D01*
X145948Y305404D01*
D02*
G37*
G36*
X135861Y296803D02*
X140661D01*
Y295650D01*
X134565D01*
Y305413D01*
X135861D01*
Y296803D01*
D02*
G37*
G36*
X110863Y232617D02*
X112178D01*
Y231522D01*
X110863D01*
Y229188D01*
X109663D01*
Y231522D01*
X105424D01*
Y232617D01*
X109882Y238952D01*
X110863D01*
Y232617D01*
D02*
G37*
G36*
X100205Y238942D02*
X100329D01*
X100452Y238932D01*
X100738Y238913D01*
X101024Y238894D01*
X101300Y238856D01*
X101433Y238837D01*
X101548Y238809D01*
X101557D01*
X101586Y238799D01*
X101634Y238790D01*
X101691Y238771D01*
X101767Y238752D01*
X101843Y238723D01*
X101938Y238685D01*
X102043Y238647D01*
X102272Y238552D01*
X102510Y238428D01*
X102757Y238285D01*
X102986Y238104D01*
X102996Y238094D01*
X103024Y238075D01*
X103062Y238037D01*
X103110Y237990D01*
X103176Y237923D01*
X103253Y237847D01*
X103329Y237751D01*
X103424Y237656D01*
X103510Y237542D01*
X103605Y237409D01*
X103700Y237275D01*
X103796Y237132D01*
X103891Y236970D01*
X103977Y236799D01*
X104139Y236437D01*
Y236427D01*
X104158Y236389D01*
X104177Y236332D01*
X104196Y236256D01*
X104234Y236161D01*
X104262Y236046D01*
X104300Y235913D01*
X104339Y235770D01*
X104367Y235608D01*
X104405Y235427D01*
X104443Y235237D01*
X104472Y235037D01*
X104491Y234818D01*
X104510Y234599D01*
X104529Y234122D01*
Y234113D01*
Y234075D01*
Y234018D01*
Y233932D01*
X104520Y233837D01*
Y233722D01*
X104510Y233598D01*
X104501Y233456D01*
X104481Y233303D01*
X104462Y233151D01*
X104415Y232817D01*
X104348Y232475D01*
X104262Y232141D01*
Y232132D01*
X104253Y232103D01*
X104234Y232055D01*
X104215Y231998D01*
X104186Y231922D01*
X104158Y231836D01*
X104120Y231741D01*
X104081Y231646D01*
X103986Y231417D01*
X103872Y231179D01*
X103738Y230941D01*
X103596Y230722D01*
Y230712D01*
X103577Y230693D01*
X103558Y230665D01*
X103529Y230627D01*
X103443Y230532D01*
X103338Y230398D01*
X103205Y230255D01*
X103053Y230112D01*
X102891Y229970D01*
X102710Y229836D01*
X102700D01*
X102691Y229827D01*
X102662Y229808D01*
X102624Y229779D01*
X102577Y229760D01*
X102519Y229722D01*
X102386Y229655D01*
X102214Y229579D01*
X102015Y229493D01*
X101786Y229417D01*
X101538Y229350D01*
X101529D01*
X101510Y229341D01*
X101472Y229331D01*
X101414Y229322D01*
X101357Y229312D01*
X101281Y229303D01*
X101186Y229284D01*
X101091Y229274D01*
X100976Y229255D01*
X100862Y229236D01*
X100595Y229217D01*
X100300Y229198D01*
X99976Y229188D01*
X96452D01*
Y238952D01*
X100100D01*
X100205Y238942D01*
D02*
G37*
G36*
X90118Y230341D02*
X94918D01*
Y229188D01*
X88822D01*
Y238952D01*
X90118D01*
Y230341D01*
D02*
G37*
G36*
X154796Y195471D02*
X154873D01*
X154949Y195462D01*
X155044Y195452D01*
X155149Y195443D01*
X155377Y195395D01*
X155616Y195338D01*
X155873Y195252D01*
X156130Y195138D01*
X156139D01*
X156158Y195119D01*
X156196Y195100D01*
X156244Y195072D01*
X156301Y195043D01*
X156358Y194995D01*
X156511Y194890D01*
X156682Y194757D01*
X156854Y194595D01*
X157016Y194405D01*
X157158Y194195D01*
Y194186D01*
X157178Y194167D01*
X157197Y194138D01*
X157216Y194090D01*
X157244Y194043D01*
X157273Y193976D01*
X157339Y193814D01*
X157406Y193633D01*
X157463Y193414D01*
X157501Y193186D01*
X157521Y192938D01*
Y192928D01*
Y192909D01*
Y192881D01*
X157511Y192833D01*
Y192776D01*
X157501Y192709D01*
X157482Y192557D01*
X157435Y192376D01*
X157378Y192185D01*
X157292Y191985D01*
X157178Y191785D01*
Y191776D01*
X157158Y191766D01*
X157140Y191738D01*
X157111Y191700D01*
X157035Y191604D01*
X156920Y191490D01*
X156777Y191357D01*
X156606Y191223D01*
X156406Y191090D01*
X156168Y190966D01*
X156177D01*
X156206Y190957D01*
X156254Y190947D01*
X156311Y190928D01*
X156387Y190900D01*
X156463Y190871D01*
X156663Y190785D01*
X156873Y190680D01*
X157101Y190528D01*
X157320Y190357D01*
X157416Y190252D01*
X157511Y190138D01*
X157521Y190128D01*
X157530Y190109D01*
X157559Y190071D01*
X157587Y190023D01*
X157625Y189966D01*
X157663Y189890D01*
X157711Y189804D01*
X157759Y189709D01*
X157797Y189595D01*
X157844Y189480D01*
X157882Y189347D01*
X157921Y189214D01*
X157978Y188909D01*
X157987Y188737D01*
X157997Y188566D01*
Y188556D01*
Y188509D01*
X157987Y188442D01*
Y188356D01*
X157968Y188242D01*
X157949Y188118D01*
X157921Y187975D01*
X157882Y187813D01*
X157835Y187652D01*
X157768Y187480D01*
X157692Y187299D01*
X157606Y187118D01*
X157492Y186937D01*
X157368Y186747D01*
X157225Y186575D01*
X157063Y186404D01*
X157054Y186394D01*
X157025Y186366D01*
X156968Y186318D01*
X156892Y186270D01*
X156806Y186194D01*
X156692Y186127D01*
X156568Y186042D01*
X156416Y185966D01*
X156254Y185880D01*
X156073Y185794D01*
X155882Y185727D01*
X155673Y185661D01*
X155454Y185604D01*
X155215Y185556D01*
X154968Y185527D01*
X154701Y185518D01*
X154644D01*
X154577Y185527D01*
X154492D01*
X154377Y185537D01*
X154253Y185556D01*
X154110Y185585D01*
X153949Y185613D01*
X153787Y185651D01*
X153615Y185708D01*
X153434Y185765D01*
X153263Y185842D01*
X153082Y185928D01*
X152901Y186032D01*
X152729Y186147D01*
X152568Y186280D01*
X152558Y186289D01*
X152529Y186318D01*
X152491Y186356D01*
X152434Y186423D01*
X152367Y186499D01*
X152291Y186585D01*
X152215Y186689D01*
X152129Y186813D01*
X152044Y186947D01*
X151958Y187099D01*
X151882Y187261D01*
X151805Y187442D01*
X151739Y187632D01*
X151682Y187833D01*
X151634Y188042D01*
X151605Y188271D01*
X152806Y188433D01*
Y188423D01*
X152815Y188385D01*
X152825Y188337D01*
X152844Y188261D01*
X152863Y188185D01*
X152891Y188080D01*
X152929Y187975D01*
X152968Y187861D01*
X153063Y187623D01*
X153187Y187375D01*
X153329Y187147D01*
X153415Y187051D01*
X153501Y186956D01*
X153510D01*
X153520Y186937D01*
X153548Y186918D01*
X153587Y186889D01*
X153634Y186851D01*
X153691Y186813D01*
X153834Y186737D01*
X154015Y186651D01*
X154225Y186575D01*
X154453Y186528D01*
X154577Y186518D01*
X154711Y186509D01*
X154796D01*
X154853Y186518D01*
X154930Y186528D01*
X155006Y186537D01*
X155101Y186556D01*
X155206Y186585D01*
X155435Y186651D01*
X155549Y186699D01*
X155673Y186756D01*
X155796Y186823D01*
X155911Y186899D01*
X156025Y186985D01*
X156139Y187090D01*
X156149Y187099D01*
X156168Y187118D01*
X156196Y187147D01*
X156235Y187194D01*
X156273Y187251D01*
X156320Y187318D01*
X156377Y187394D01*
X156435Y187490D01*
X156482Y187585D01*
X156539Y187699D01*
X156635Y187947D01*
X156663Y188080D01*
X156692Y188223D01*
X156711Y188375D01*
X156720Y188537D01*
Y188547D01*
Y188575D01*
Y188613D01*
X156711Y188680D01*
X156701Y188747D01*
X156692Y188833D01*
X156673Y188918D01*
X156654Y189023D01*
X156587Y189233D01*
X156549Y189347D01*
X156492Y189461D01*
X156425Y189576D01*
X156358Y189690D01*
X156273Y189795D01*
X156177Y189899D01*
X156168Y189909D01*
X156149Y189918D01*
X156120Y189947D01*
X156082Y189985D01*
X156025Y190023D01*
X155958Y190071D01*
X155892Y190119D01*
X155806Y190166D01*
X155711Y190214D01*
X155606Y190261D01*
X155368Y190347D01*
X155101Y190414D01*
X154958Y190423D01*
X154806Y190433D01*
X154749D01*
X154672Y190423D01*
X154577Y190414D01*
X154453Y190404D01*
X154311Y190385D01*
X154149Y190347D01*
X153968Y190309D01*
X154101Y191357D01*
X154120D01*
X154168Y191347D01*
X154234Y191338D01*
X154368D01*
X154425Y191347D01*
X154492D01*
X154568Y191357D01*
X154653Y191376D01*
X154749Y191385D01*
X154968Y191433D01*
X155196Y191509D01*
X155435Y191604D01*
X155673Y191738D01*
X155682Y191747D01*
X155701Y191757D01*
X155730Y191776D01*
X155768Y191814D01*
X155815Y191852D01*
X155873Y191909D01*
X155920Y191966D01*
X155987Y192043D01*
X156044Y192119D01*
X156092Y192214D01*
X156149Y192319D01*
X156196Y192423D01*
X156235Y192547D01*
X156263Y192681D01*
X156282Y192814D01*
X156292Y192966D01*
Y192976D01*
Y192995D01*
Y193033D01*
X156282Y193081D01*
Y193138D01*
X156273Y193205D01*
X156235Y193357D01*
X156187Y193528D01*
X156101Y193709D01*
X155997Y193890D01*
X155920Y193976D01*
X155844Y194062D01*
X155835Y194071D01*
X155825Y194081D01*
X155796Y194100D01*
X155768Y194128D01*
X155663Y194205D01*
X155530Y194281D01*
X155368Y194357D01*
X155168Y194433D01*
X154939Y194481D01*
X154825Y194500D01*
X154625D01*
X154577Y194490D01*
X154511D01*
X154444Y194481D01*
X154282Y194443D01*
X154092Y194395D01*
X153901Y194310D01*
X153701Y194205D01*
X153606Y194128D01*
X153520Y194052D01*
X153510Y194043D01*
X153501Y194033D01*
X153472Y194005D01*
X153444Y193967D01*
X153406Y193929D01*
X153368Y193871D01*
X153320Y193805D01*
X153272Y193728D01*
X153225Y193633D01*
X153167Y193538D01*
X153120Y193433D01*
X153072Y193309D01*
X153034Y193186D01*
X152987Y193043D01*
X152958Y192900D01*
X152929Y192738D01*
X151729Y192947D01*
Y192957D01*
X151739Y193004D01*
X151758Y193062D01*
X151777Y193147D01*
X151805Y193243D01*
X151844Y193367D01*
X151882Y193490D01*
X151939Y193633D01*
X151996Y193776D01*
X152072Y193929D01*
X152148Y194090D01*
X152244Y194243D01*
X152339Y194395D01*
X152453Y194548D01*
X152586Y194681D01*
X152720Y194814D01*
X152729Y194824D01*
X152758Y194843D01*
X152796Y194871D01*
X152863Y194919D01*
X152939Y194967D01*
X153025Y195024D01*
X153139Y195091D01*
X153253Y195148D01*
X153387Y195214D01*
X153539Y195271D01*
X153701Y195329D01*
X153872Y195376D01*
X154053Y195424D01*
X154244Y195452D01*
X154453Y195471D01*
X154663Y195481D01*
X154739D01*
X154796Y195471D01*
D02*
G37*
G36*
X145986Y195433D02*
X146110D01*
X146233Y195424D01*
X146519Y195405D01*
X146805Y195386D01*
X147081Y195348D01*
X147214Y195329D01*
X147329Y195300D01*
X147338D01*
X147367Y195291D01*
X147414Y195281D01*
X147472Y195262D01*
X147548Y195243D01*
X147624Y195214D01*
X147719Y195176D01*
X147824Y195138D01*
X148053Y195043D01*
X148291Y194919D01*
X148538Y194776D01*
X148767Y194595D01*
X148777Y194586D01*
X148805Y194567D01*
X148843Y194529D01*
X148891Y194481D01*
X148958Y194414D01*
X149034Y194338D01*
X149110Y194243D01*
X149205Y194147D01*
X149291Y194033D01*
X149386Y193900D01*
X149481Y193766D01*
X149577Y193624D01*
X149672Y193462D01*
X149758Y193290D01*
X149920Y192928D01*
Y192919D01*
X149939Y192881D01*
X149958Y192824D01*
X149977Y192747D01*
X150015Y192652D01*
X150043Y192538D01*
X150081Y192404D01*
X150119Y192262D01*
X150148Y192100D01*
X150186Y191919D01*
X150224Y191728D01*
X150253Y191528D01*
X150272Y191309D01*
X150291Y191090D01*
X150310Y190614D01*
Y190604D01*
Y190566D01*
Y190509D01*
Y190423D01*
X150301Y190328D01*
Y190214D01*
X150291Y190090D01*
X150281Y189947D01*
X150262Y189795D01*
X150243Y189642D01*
X150196Y189309D01*
X150129Y188966D01*
X150043Y188633D01*
Y188623D01*
X150034Y188594D01*
X150015Y188547D01*
X149996Y188490D01*
X149967Y188414D01*
X149939Y188328D01*
X149901Y188232D01*
X149862Y188137D01*
X149767Y187909D01*
X149653Y187670D01*
X149520Y187432D01*
X149377Y187213D01*
Y187204D01*
X149358Y187185D01*
X149339Y187156D01*
X149310Y187118D01*
X149224Y187023D01*
X149119Y186889D01*
X148986Y186747D01*
X148834Y186604D01*
X148672Y186461D01*
X148491Y186327D01*
X148481D01*
X148472Y186318D01*
X148443Y186299D01*
X148405Y186270D01*
X148357Y186251D01*
X148300Y186213D01*
X148167Y186147D01*
X147996Y186070D01*
X147795Y185985D01*
X147567Y185908D01*
X147319Y185842D01*
X147310D01*
X147291Y185832D01*
X147253Y185823D01*
X147195Y185813D01*
X147138Y185804D01*
X147062Y185794D01*
X146967Y185775D01*
X146872Y185765D01*
X146757Y185746D01*
X146643Y185727D01*
X146376Y185708D01*
X146081Y185689D01*
X145757Y185680D01*
X142233D01*
Y195443D01*
X145881D01*
X145986Y195433D01*
D02*
G37*
G36*
X135899Y186832D02*
X140699D01*
Y185680D01*
X134603D01*
Y195443D01*
X135899D01*
Y186832D01*
D02*
G37*
G36*
X109220Y129097D02*
X109325D01*
X109439Y129088D01*
X109573Y129068D01*
X109725Y129040D01*
X109896Y129011D01*
X110068Y128964D01*
X110249Y128916D01*
X110439Y128849D01*
X110620Y128773D01*
X110811Y128687D01*
X110982Y128583D01*
X111154Y128459D01*
X111316Y128326D01*
X111325Y128316D01*
X111354Y128287D01*
X111392Y128249D01*
X111440Y128183D01*
X111506Y128106D01*
X111573Y128021D01*
X111649Y127916D01*
X111725Y127792D01*
X111801Y127659D01*
X111878Y127506D01*
X111944Y127354D01*
X112011Y127183D01*
X112059Y127002D01*
X112097Y126802D01*
X112125Y126602D01*
X112135Y126392D01*
Y126383D01*
Y126363D01*
Y126335D01*
Y126297D01*
X112125Y126240D01*
Y126182D01*
X112106Y126030D01*
X112078Y125859D01*
X112030Y125659D01*
X111973Y125449D01*
X111887Y125239D01*
Y125230D01*
X111878Y125211D01*
X111859Y125182D01*
X111840Y125144D01*
X111811Y125087D01*
X111782Y125030D01*
X111697Y124878D01*
X111592Y124706D01*
X111449Y124496D01*
X111287Y124277D01*
X111087Y124049D01*
X111077Y124039D01*
X111059Y124020D01*
X111030Y123982D01*
X110982Y123935D01*
X110916Y123868D01*
X110849Y123792D01*
X110754Y123706D01*
X110649Y123601D01*
X110535Y123487D01*
X110392Y123354D01*
X110249Y123211D01*
X110077Y123058D01*
X109896Y122896D01*
X109696Y122715D01*
X109477Y122534D01*
X109249Y122334D01*
X109239Y122325D01*
X109201Y122296D01*
X109144Y122249D01*
X109077Y122191D01*
X108992Y122115D01*
X108896Y122030D01*
X108668Y121839D01*
X108439Y121639D01*
X108210Y121439D01*
X108106Y121344D01*
X108011Y121249D01*
X107925Y121172D01*
X107858Y121106D01*
X107849Y121096D01*
X107810Y121048D01*
X107753Y120982D01*
X107677Y120906D01*
X107601Y120801D01*
X107515Y120696D01*
X107430Y120582D01*
X107353Y120458D01*
X112144D01*
Y119305D01*
X105696D01*
Y119315D01*
Y119325D01*
Y119382D01*
Y119458D01*
X105705Y119572D01*
X105724Y119696D01*
X105744Y119839D01*
X105782Y119982D01*
X105829Y120134D01*
Y120144D01*
X105839Y120163D01*
X105858Y120201D01*
X105877Y120248D01*
X105906Y120306D01*
X105934Y120372D01*
X106020Y120544D01*
X106134Y120744D01*
X106267Y120963D01*
X106429Y121191D01*
X106620Y121430D01*
X106629Y121439D01*
X106648Y121458D01*
X106677Y121496D01*
X106725Y121544D01*
X106782Y121601D01*
X106848Y121677D01*
X106925Y121763D01*
X107020Y121858D01*
X107125Y121953D01*
X107239Y122068D01*
X107372Y122191D01*
X107506Y122325D01*
X107658Y122458D01*
X107820Y122601D01*
X108001Y122753D01*
X108182Y122906D01*
X108201Y122925D01*
X108249Y122963D01*
X108334Y123030D01*
X108439Y123125D01*
X108573Y123230D01*
X108715Y123363D01*
X108877Y123506D01*
X109049Y123658D01*
X109411Y123992D01*
X109763Y124335D01*
X109925Y124506D01*
X110077Y124677D01*
X110220Y124830D01*
X110335Y124982D01*
X110344Y124992D01*
X110363Y125020D01*
X110392Y125058D01*
X110420Y125116D01*
X110468Y125182D01*
X110516Y125259D01*
X110563Y125354D01*
X110620Y125449D01*
X110725Y125668D01*
X110820Y125906D01*
X110849Y126040D01*
X110878Y126163D01*
X110897Y126297D01*
X110906Y126421D01*
Y126430D01*
Y126449D01*
Y126487D01*
X110897Y126544D01*
X110887Y126602D01*
X110878Y126668D01*
X110839Y126840D01*
X110782Y127030D01*
X110687Y127230D01*
X110630Y127325D01*
X110563Y127430D01*
X110487Y127526D01*
X110392Y127621D01*
X110382Y127630D01*
X110373Y127640D01*
X110335Y127668D01*
X110296Y127697D01*
X110249Y127735D01*
X110182Y127773D01*
X110115Y127821D01*
X110030Y127868D01*
X109944Y127916D01*
X109839Y127964D01*
X109611Y128040D01*
X109354Y128097D01*
X109211Y128106D01*
X109058Y128116D01*
X108973D01*
X108915Y128106D01*
X108839Y128097D01*
X108753Y128088D01*
X108658Y128068D01*
X108563Y128049D01*
X108334Y127992D01*
X108106Y127897D01*
X107991Y127840D01*
X107877Y127764D01*
X107772Y127687D01*
X107668Y127592D01*
X107658Y127583D01*
X107648Y127573D01*
X107620Y127535D01*
X107591Y127497D01*
X107553Y127449D01*
X107506Y127383D01*
X107458Y127306D01*
X107410Y127221D01*
X107363Y127125D01*
X107315Y127021D01*
X107277Y126897D01*
X107229Y126773D01*
X107201Y126640D01*
X107172Y126487D01*
X107163Y126335D01*
X107153Y126163D01*
X105925Y126287D01*
Y126306D01*
X105934Y126344D01*
X105944Y126421D01*
X105953Y126516D01*
X105982Y126630D01*
X106010Y126763D01*
X106048Y126906D01*
X106086Y127068D01*
X106144Y127230D01*
X106210Y127402D01*
X106286Y127573D01*
X106372Y127754D01*
X106477Y127926D01*
X106591Y128088D01*
X106725Y128240D01*
X106868Y128383D01*
X106877Y128392D01*
X106906Y128411D01*
X106953Y128449D01*
X107020Y128497D01*
X107106Y128554D01*
X107201Y128611D01*
X107325Y128678D01*
X107458Y128745D01*
X107610Y128811D01*
X107772Y128878D01*
X107953Y128935D01*
X108153Y128992D01*
X108363Y129040D01*
X108591Y129078D01*
X108830Y129097D01*
X109087Y129107D01*
X109153D01*
X109220Y129097D01*
D02*
G37*
G36*
X100238Y129059D02*
X100362D01*
X100486Y129050D01*
X100772Y129030D01*
X101057Y129011D01*
X101334Y128973D01*
X101467Y128954D01*
X101581Y128926D01*
X101591D01*
X101619Y128916D01*
X101667Y128907D01*
X101724Y128888D01*
X101800Y128869D01*
X101876Y128840D01*
X101972Y128802D01*
X102076Y128764D01*
X102305Y128668D01*
X102543Y128545D01*
X102791Y128402D01*
X103019Y128221D01*
X103029Y128211D01*
X103057Y128192D01*
X103096Y128154D01*
X103143Y128106D01*
X103210Y128040D01*
X103286Y127964D01*
X103362Y127868D01*
X103457Y127773D01*
X103543Y127659D01*
X103638Y127526D01*
X103734Y127392D01*
X103829Y127249D01*
X103924Y127087D01*
X104010Y126916D01*
X104172Y126554D01*
Y126544D01*
X104191Y126506D01*
X104210Y126449D01*
X104229Y126373D01*
X104267Y126278D01*
X104296Y126163D01*
X104334Y126030D01*
X104372Y125887D01*
X104401Y125725D01*
X104439Y125544D01*
X104477Y125354D01*
X104505Y125154D01*
X104524Y124935D01*
X104543Y124716D01*
X104562Y124239D01*
Y124230D01*
Y124192D01*
Y124135D01*
Y124049D01*
X104553Y123954D01*
Y123839D01*
X104543Y123715D01*
X104534Y123573D01*
X104515Y123420D01*
X104496Y123268D01*
X104448Y122934D01*
X104382Y122591D01*
X104296Y122258D01*
Y122249D01*
X104286Y122220D01*
X104267Y122172D01*
X104248Y122115D01*
X104220Y122039D01*
X104191Y121953D01*
X104153Y121858D01*
X104115Y121763D01*
X104019Y121534D01*
X103905Y121296D01*
X103772Y121058D01*
X103629Y120839D01*
Y120829D01*
X103610Y120810D01*
X103591Y120782D01*
X103562Y120744D01*
X103477Y120648D01*
X103372Y120515D01*
X103238Y120372D01*
X103086Y120229D01*
X102924Y120086D01*
X102743Y119953D01*
X102734D01*
X102724Y119944D01*
X102696Y119924D01*
X102657Y119896D01*
X102610Y119877D01*
X102553Y119839D01*
X102419Y119772D01*
X102248Y119696D01*
X102048Y119610D01*
X101819Y119534D01*
X101572Y119467D01*
X101562D01*
X101543Y119458D01*
X101505Y119448D01*
X101448Y119439D01*
X101391Y119429D01*
X101314Y119420D01*
X101219Y119401D01*
X101124Y119391D01*
X101010Y119372D01*
X100895Y119353D01*
X100629Y119334D01*
X100333Y119315D01*
X100009Y119305D01*
X96485D01*
Y129068D01*
X100133D01*
X100238Y129059D01*
D02*
G37*
G36*
X90151Y120458D02*
X94952D01*
Y119305D01*
X88856D01*
Y129068D01*
X90151D01*
Y120458D01*
D02*
G37*
G36*
X157054Y75871D02*
X155854D01*
Y83501D01*
X155844D01*
X155835Y83482D01*
X155806Y83463D01*
X155777Y83434D01*
X155682Y83349D01*
X155549Y83244D01*
X155387Y83120D01*
X155187Y82977D01*
X154958Y82825D01*
X154711Y82672D01*
X154701D01*
X154682Y82653D01*
X154644Y82634D01*
X154596Y82606D01*
X154530Y82568D01*
X154463Y82529D01*
X154291Y82444D01*
X154101Y82348D01*
X153891Y82244D01*
X153672Y82148D01*
X153463Y82063D01*
Y83215D01*
X153472Y83225D01*
X153510Y83234D01*
X153558Y83263D01*
X153634Y83301D01*
X153720Y83349D01*
X153815Y83406D01*
X153930Y83463D01*
X154053Y83539D01*
X154330Y83701D01*
X154625Y83901D01*
X154920Y84120D01*
X155215Y84358D01*
X155225Y84368D01*
X155244Y84387D01*
X155292Y84425D01*
X155339Y84473D01*
X155396Y84539D01*
X155473Y84606D01*
X155549Y84692D01*
X155634Y84777D01*
X155806Y84977D01*
X155977Y85196D01*
X156139Y85435D01*
X156215Y85549D01*
X156273Y85673D01*
X157054D01*
Y75871D01*
D02*
G37*
G36*
X146929Y85625D02*
X147052D01*
X147176Y85616D01*
X147462Y85596D01*
X147748Y85577D01*
X148024Y85539D01*
X148157Y85520D01*
X148272Y85492D01*
X148281D01*
X148310Y85482D01*
X148357Y85473D01*
X148415Y85454D01*
X148491Y85435D01*
X148567Y85406D01*
X148662Y85368D01*
X148767Y85330D01*
X148996Y85234D01*
X149234Y85111D01*
X149481Y84968D01*
X149710Y84787D01*
X149719Y84777D01*
X149748Y84758D01*
X149786Y84720D01*
X149834Y84672D01*
X149901Y84606D01*
X149977Y84530D01*
X150053Y84434D01*
X150148Y84339D01*
X150234Y84225D01*
X150329Y84092D01*
X150424Y83958D01*
X150520Y83815D01*
X150615Y83653D01*
X150701Y83482D01*
X150863Y83120D01*
Y83110D01*
X150882Y83072D01*
X150901Y83015D01*
X150920Y82939D01*
X150958Y82844D01*
X150986Y82729D01*
X151024Y82596D01*
X151062Y82453D01*
X151091Y82291D01*
X151129Y82110D01*
X151167Y81920D01*
X151196Y81720D01*
X151215Y81501D01*
X151234Y81282D01*
X151253Y80805D01*
Y80796D01*
Y80758D01*
Y80701D01*
Y80615D01*
X151243Y80520D01*
Y80405D01*
X151234Y80281D01*
X151224Y80139D01*
X151205Y79986D01*
X151186Y79834D01*
X151139Y79500D01*
X151072Y79158D01*
X150986Y78824D01*
Y78815D01*
X150977Y78786D01*
X150958Y78738D01*
X150939Y78681D01*
X150910Y78605D01*
X150882Y78519D01*
X150843Y78424D01*
X150805Y78329D01*
X150710Y78100D01*
X150596Y77862D01*
X150462Y77624D01*
X150320Y77405D01*
Y77395D01*
X150301Y77376D01*
X150281Y77348D01*
X150253Y77310D01*
X150167Y77214D01*
X150062Y77081D01*
X149929Y76938D01*
X149777Y76795D01*
X149615Y76652D01*
X149434Y76519D01*
X149424D01*
X149415Y76510D01*
X149386Y76491D01*
X149348Y76462D01*
X149300Y76443D01*
X149243Y76405D01*
X149110Y76338D01*
X148938Y76262D01*
X148738Y76176D01*
X148510Y76100D01*
X148262Y76033D01*
X148253D01*
X148234Y76024D01*
X148195Y76014D01*
X148138Y76005D01*
X148081Y75995D01*
X148005Y75986D01*
X147910Y75967D01*
X147815Y75957D01*
X147700Y75938D01*
X147586Y75919D01*
X147319Y75900D01*
X147024Y75881D01*
X146700Y75871D01*
X143176D01*
Y85634D01*
X146824D01*
X146929Y85625D01*
D02*
G37*
G36*
X136842Y77024D02*
X141642D01*
Y75871D01*
X135546D01*
Y85634D01*
X136842D01*
Y77024D01*
D02*
G37*
%LPC*%
G36*
X237043Y321367D02*
X236283D01*
Y321215D01*
X235522D01*
Y321063D01*
X235066D01*
Y320911D01*
X234914D01*
Y320759D01*
X234610D01*
Y320607D01*
X234458D01*
Y320455D01*
X234306D01*
Y320303D01*
X234154D01*
Y320151D01*
X234002D01*
Y319998D01*
X233849D01*
Y319694D01*
X233697D01*
Y319238D01*
X233545D01*
Y317413D01*
X233697D01*
Y316957D01*
X233849D01*
Y316652D01*
X234002D01*
Y316500D01*
X234154D01*
Y316196D01*
X234458D01*
Y316044D01*
X234610D01*
Y315892D01*
X234762D01*
Y315740D01*
X235066D01*
Y315588D01*
X235522D01*
Y315436D01*
X236131D01*
Y315284D01*
X237348D01*
Y315436D01*
X237956D01*
Y315588D01*
X238412D01*
Y315740D01*
X238564D01*
Y315892D01*
X238869D01*
Y316044D01*
X239021D01*
Y316196D01*
X239173D01*
Y316348D01*
X239325D01*
Y316500D01*
X239477D01*
Y316805D01*
X239629D01*
Y317109D01*
X239781D01*
Y317565D01*
X239933D01*
Y319086D01*
X239781D01*
Y319542D01*
X239629D01*
Y319846D01*
X239477D01*
Y320151D01*
X239325D01*
Y320303D01*
X239173D01*
Y320455D01*
X239021D01*
Y320607D01*
X238869D01*
Y320759D01*
X238564D01*
Y320911D01*
X238260D01*
Y321063D01*
X237956D01*
Y321215D01*
X237043D01*
Y321367D01*
D02*
G37*
G36*
X237348Y308743D02*
X236131D01*
Y308591D01*
X235522D01*
Y308439D01*
X235066D01*
Y308287D01*
X234762D01*
Y308135D01*
X234610D01*
Y307983D01*
X234458D01*
Y307831D01*
X234306D01*
Y307679D01*
X234154D01*
Y307527D01*
X234002D01*
Y307375D01*
X233849D01*
Y307071D01*
X233697D01*
Y306614D01*
X233545D01*
Y304789D01*
X233697D01*
Y304333D01*
X233849D01*
Y304029D01*
X234002D01*
Y303876D01*
X234154D01*
Y303724D01*
X234306D01*
Y303572D01*
X234458D01*
Y303420D01*
X234610D01*
Y303268D01*
X234914D01*
Y303116D01*
X235218D01*
Y302964D01*
X235522D01*
Y302812D01*
X236283D01*
Y302660D01*
X237195D01*
Y302812D01*
X237956D01*
Y302964D01*
X238260D01*
Y303116D01*
X238564D01*
Y303268D01*
X238869D01*
Y303420D01*
X239021D01*
Y303572D01*
X239173D01*
Y303724D01*
X239325D01*
Y303876D01*
X239477D01*
Y304181D01*
X239629D01*
Y304485D01*
X239781D01*
Y304941D01*
X239933D01*
Y306462D01*
X239781D01*
Y306918D01*
X239629D01*
Y307223D01*
X239477D01*
Y307527D01*
X239325D01*
Y307679D01*
X239173D01*
Y307831D01*
X239021D01*
Y307983D01*
X238869D01*
Y308135D01*
X238564D01*
Y308287D01*
X238260D01*
Y308439D01*
X237956D01*
Y308591D01*
X237348D01*
Y308743D01*
D02*
G37*
G36*
X238260Y283952D02*
X237956D01*
Y279085D01*
X238108D01*
Y279237D01*
X238564D01*
Y279389D01*
X238869D01*
Y279541D01*
X239173D01*
Y279694D01*
X239325D01*
Y279846D01*
X239477D01*
Y279998D01*
X239629D01*
Y280302D01*
X239781D01*
Y280606D01*
X239933D01*
Y281214D01*
X240085D01*
Y281671D01*
X239933D01*
Y282431D01*
X239781D01*
Y282735D01*
X239629D01*
Y283040D01*
X239477D01*
Y283192D01*
X239325D01*
Y283344D01*
X239173D01*
Y283496D01*
X238869D01*
Y283648D01*
X238716D01*
Y283800D01*
X238260D01*
Y283952D01*
D02*
G37*
G36*
X238412Y226613D02*
X237956D01*
Y221898D01*
X238564D01*
Y222050D01*
X238869D01*
Y222202D01*
X239173D01*
Y222354D01*
X239325D01*
Y222506D01*
X239477D01*
Y222658D01*
X239629D01*
Y222962D01*
X239781D01*
Y223267D01*
X239933D01*
Y223875D01*
X240085D01*
Y224331D01*
X239933D01*
Y225092D01*
X239781D01*
Y225396D01*
X239629D01*
Y225700D01*
X239477D01*
Y225852D01*
X239325D01*
Y226004D01*
X239173D01*
Y226156D01*
X238869D01*
Y226308D01*
X238716D01*
Y226460D01*
X238412D01*
Y226613D01*
D02*
G37*
G36*
X199977Y382355D02*
Y379281D01*
X202812Y379840D01*
X199977Y382355D01*
D02*
G37*
G36*
X198340Y358212D02*
Y352582D01*
X202931Y351024D01*
Y356654D01*
X198340Y358212D01*
D02*
G37*
G36*
X201121Y343731D02*
Y339711D01*
X201135Y339631D01*
X201161Y339432D01*
X201188Y339352D01*
X201214Y339285D01*
Y339272D01*
X201228Y339259D01*
X201294Y339192D01*
X201348Y339152D01*
X201414Y339112D01*
X201494Y339072D01*
X201587Y339032D01*
X202519Y338713D01*
X202532D01*
X202559Y338700D01*
X202612Y338686D01*
X202665Y338673D01*
X202785D01*
X202838Y338686D01*
X202878Y338713D01*
X202891Y338740D01*
X202918Y338766D01*
X202931Y338806D01*
X202958Y338873D01*
X202971Y338966D01*
X202985Y339072D01*
Y343092D01*
X201121Y343731D01*
D02*
G37*
G36*
X199977Y331659D02*
Y328584D01*
X202812Y329143D01*
X199977Y331659D01*
D02*
G37*
G36*
Y279166D02*
Y276091D01*
X202812Y276650D01*
X199977Y279166D01*
D02*
G37*
G36*
X201121Y243336D02*
Y239317D01*
X201135Y239237D01*
X201161Y239037D01*
X201188Y238958D01*
X201214Y238891D01*
Y238878D01*
X201228Y238864D01*
X201294Y238798D01*
X201348Y238758D01*
X201414Y238718D01*
X201494Y238678D01*
X201587Y238638D01*
X202519Y238319D01*
X202532D01*
X202559Y238305D01*
X202612Y238292D01*
X202665Y238279D01*
X202785D01*
X202838Y238292D01*
X202878Y238319D01*
X202891Y238345D01*
X202918Y238372D01*
X202931Y238412D01*
X202958Y238478D01*
X202971Y238572D01*
X202985Y238678D01*
Y242698D01*
X201121Y243336D01*
D02*
G37*
G36*
X217992Y342965D02*
Y338959D01*
X218005Y338866D01*
X218032Y338680D01*
X218058Y338587D01*
X218085Y338520D01*
Y338507D01*
X218098Y338493D01*
X218165Y338427D01*
X218218Y338387D01*
X218285Y338347D01*
X218364Y338307D01*
X218458Y338267D01*
X219283Y337988D01*
X219296D01*
X219323Y337974D01*
X219376Y337961D01*
X219429Y337948D01*
X219549D01*
X219602Y337961D01*
X219642Y337988D01*
X219655Y338014D01*
X219682Y338041D01*
X219695Y338081D01*
X219722Y338147D01*
X219735Y338241D01*
X219749Y338347D01*
Y342366D01*
X217992Y342965D01*
D02*
G37*
G36*
X217885Y331652D02*
Y327633D01*
X217899Y327553D01*
X217925Y327353D01*
X217952Y327273D01*
X217978Y327207D01*
Y327194D01*
X217992Y327180D01*
X218058Y327114D01*
X218111Y327074D01*
X218178Y327034D01*
X218258Y326994D01*
X218351Y326954D01*
X219283Y326635D01*
X219296D01*
X219323Y326621D01*
X219376Y326608D01*
X219429Y326595D01*
X219549D01*
X219602Y326608D01*
X219642Y326635D01*
X219655Y326661D01*
X219682Y326688D01*
X219695Y326728D01*
X219722Y326794D01*
X219735Y326887D01*
X219749Y326994D01*
Y331013D01*
X217885Y331652D01*
D02*
G37*
G36*
X215104Y320485D02*
Y314856D01*
X219695Y313298D01*
Y318928D01*
X215104Y320485D01*
D02*
G37*
G36*
X215037Y257558D02*
Y253458D01*
X215050Y253365D01*
X215077Y253152D01*
X215104Y253059D01*
X215144Y252992D01*
Y252979D01*
X215170Y252966D01*
X215197Y252926D01*
X215250Y252886D01*
X215303Y252846D01*
X215383Y252806D01*
X215476Y252753D01*
X215583Y252713D01*
X216168Y252513D01*
X216182D01*
X216222Y252500D01*
X216275Y252487D01*
X216341Y252460D01*
X216488D01*
X216541Y252474D01*
X216594Y252500D01*
X216607Y252527D01*
X216634Y252553D01*
X216661Y252607D01*
X216674Y252673D01*
X216701Y252766D01*
X216714Y252886D01*
Y256985D01*
X215037Y257558D01*
D02*
G37*
G36*
X218285Y256453D02*
Y252367D01*
X218298Y252274D01*
X218325Y252087D01*
X218338Y251994D01*
X218364Y251928D01*
Y251915D01*
X218378Y251901D01*
X218444Y251835D01*
X218537Y251755D01*
X218684Y251688D01*
X219416Y251449D01*
X219429D01*
X219456Y251435D01*
X219536Y251422D01*
X219629D01*
X219682Y251449D01*
X219722Y251475D01*
X219735Y251502D01*
X219762Y251528D01*
X219775Y251568D01*
X219802Y251635D01*
X219815Y251728D01*
X219828Y251835D01*
Y255921D01*
X218285Y256453D01*
D02*
G37*
G36*
X217992Y216325D02*
Y212318D01*
X218005Y212225D01*
X218032Y212039D01*
X218058Y211946D01*
X218085Y211879D01*
Y211866D01*
X218098Y211853D01*
X218165Y211786D01*
X218218Y211746D01*
X218285Y211706D01*
X218364Y211666D01*
X218458Y211626D01*
X219283Y211347D01*
X219296D01*
X219323Y211334D01*
X219376Y211320D01*
X219429Y211307D01*
X219549D01*
X219602Y211320D01*
X219642Y211347D01*
X219655Y211373D01*
X219682Y211400D01*
X219695Y211440D01*
X219722Y211507D01*
X219735Y211600D01*
X219749Y211706D01*
Y215726D01*
X217992Y216325D01*
D02*
G37*
G36*
X99976Y457689D02*
X97719D01*
Y450231D01*
X99957D01*
X100033Y450240D01*
X100128D01*
X100233Y450250D01*
X100348D01*
X100595Y450269D01*
X100843Y450307D01*
X101091Y450345D01*
X101205Y450374D01*
X101310Y450402D01*
X101319D01*
X101338Y450412D01*
X101367Y450421D01*
X101405Y450440D01*
X101500Y450479D01*
X101624Y450536D01*
X101767Y450612D01*
X101910Y450698D01*
X102053Y450802D01*
X102186Y450917D01*
X102196Y450926D01*
X102205Y450936D01*
X102234Y450964D01*
X102262Y451002D01*
X102300Y451050D01*
X102348Y451098D01*
X102453Y451241D01*
X102567Y451422D01*
X102691Y451631D01*
X102805Y451869D01*
X102910Y452145D01*
Y452155D01*
X102919Y452183D01*
X102938Y452222D01*
X102948Y452288D01*
X102967Y452365D01*
X102996Y452450D01*
X103015Y452555D01*
X103043Y452679D01*
X103062Y452803D01*
X103081Y452946D01*
X103110Y453107D01*
X103129Y453269D01*
X103148Y453450D01*
X103158Y453631D01*
X103167Y454031D01*
Y454050D01*
Y454098D01*
Y454174D01*
X103158Y454279D01*
X103148Y454412D01*
X103138Y454555D01*
X103129Y454717D01*
X103100Y454898D01*
X103081Y455079D01*
X103043Y455270D01*
X102957Y455660D01*
X102900Y455851D01*
X102834Y456041D01*
X102748Y456213D01*
X102662Y456375D01*
X102653Y456384D01*
X102643Y456413D01*
X102615Y456451D01*
X102577Y456508D01*
X102519Y456575D01*
X102462Y456651D01*
X102319Y456822D01*
X102138Y457013D01*
X101929Y457194D01*
X101691Y457356D01*
X101567Y457432D01*
X101433Y457489D01*
X101424D01*
X101405Y457498D01*
X101376Y457508D01*
X101338Y457518D01*
X101281Y457537D01*
X101214Y457556D01*
X101129Y457575D01*
X101033Y457594D01*
X100919Y457603D01*
X100805Y457622D01*
X100662Y457641D01*
X100510Y457660D01*
X100348Y457670D01*
X100167Y457679D01*
X99976Y457689D01*
D02*
G37*
G36*
X108987Y457898D02*
X108920D01*
X108872Y457889D01*
X108815D01*
X108739Y457879D01*
X108587Y457841D01*
X108406Y457794D01*
X108215Y457708D01*
X108025Y457603D01*
X107929Y457527D01*
X107844Y457451D01*
Y457441D01*
X107825Y457432D01*
X107777Y457375D01*
X107701Y457279D01*
X107625Y457156D01*
X107539Y457003D01*
X107463Y456822D01*
X107415Y456622D01*
X107406Y456517D01*
X107396Y456403D01*
Y456394D01*
Y456375D01*
Y456336D01*
X107406Y456289D01*
Y456232D01*
X107415Y456165D01*
X107453Y456003D01*
X107501Y455822D01*
X107577Y455632D01*
X107691Y455441D01*
X107758Y455355D01*
X107834Y455270D01*
X107844D01*
X107853Y455251D01*
X107882Y455232D01*
X107920Y455203D01*
X108015Y455127D01*
X108149Y455051D01*
X108310Y454974D01*
X108511Y454898D01*
X108739Y454851D01*
X108863Y454841D01*
X108996Y454831D01*
X109063D01*
X109111Y454841D01*
X109168D01*
X109244Y454851D01*
X109396Y454889D01*
X109577Y454936D01*
X109768Y455012D01*
X109958Y455117D01*
X110044Y455184D01*
X110130Y455260D01*
X110139Y455270D01*
X110149Y455279D01*
X110168Y455308D01*
X110197Y455336D01*
X110273Y455432D01*
X110358Y455555D01*
X110435Y455717D01*
X110511Y455898D01*
X110558Y456108D01*
X110577Y456222D01*
Y456336D01*
Y456346D01*
Y456365D01*
Y456403D01*
X110568Y456451D01*
Y456498D01*
X110558Y456565D01*
X110520Y456717D01*
X110463Y456898D01*
X110387Y457079D01*
X110273Y457270D01*
X110197Y457356D01*
X110120Y457441D01*
X110111Y457451D01*
X110101Y457460D01*
X110073Y457479D01*
X110035Y457518D01*
X109939Y457584D01*
X109806Y457670D01*
X109644Y457756D01*
X109453Y457832D01*
X109234Y457879D01*
X109111Y457889D01*
X108987Y457898D01*
D02*
G37*
G36*
X108958Y453850D02*
X108872D01*
X108815Y453841D01*
X108749Y453831D01*
X108663Y453822D01*
X108568Y453803D01*
X108463Y453784D01*
X108244Y453717D01*
X108130Y453669D01*
X108006Y453612D01*
X107891Y453546D01*
X107777Y453479D01*
X107663Y453384D01*
X107558Y453288D01*
X107549Y453279D01*
X107539Y453260D01*
X107510Y453231D01*
X107472Y453184D01*
X107434Y453136D01*
X107387Y453069D01*
X107329Y452993D01*
X107282Y452907D01*
X107234Y452803D01*
X107177Y452698D01*
X107091Y452460D01*
X107053Y452326D01*
X107034Y452193D01*
X107015Y452041D01*
X107006Y451888D01*
Y451879D01*
Y451869D01*
Y451841D01*
Y451802D01*
X107015Y451698D01*
X107034Y451574D01*
X107063Y451422D01*
X107110Y451250D01*
X107168Y451079D01*
X107244Y450898D01*
Y450888D01*
X107253Y450879D01*
X107291Y450821D01*
X107348Y450736D01*
X107425Y450631D01*
X107520Y450507D01*
X107644Y450383D01*
X107787Y450259D01*
X107958Y450155D01*
X107968D01*
X107977Y450145D01*
X108006Y450136D01*
X108044Y450117D01*
X108139Y450069D01*
X108272Y450031D01*
X108425Y449983D01*
X108606Y449936D01*
X108796Y449907D01*
X108996Y449897D01*
X109082D01*
X109139Y449907D01*
X109215Y449917D01*
X109301Y449926D01*
X109396Y449945D01*
X109501Y449964D01*
X109720Y450031D01*
X109844Y450079D01*
X109958Y450126D01*
X110082Y450193D01*
X110197Y450259D01*
X110311Y450345D01*
X110415Y450440D01*
X110425Y450450D01*
X110444Y450469D01*
X110463Y450498D01*
X110501Y450545D01*
X110549Y450593D01*
X110597Y450659D01*
X110644Y450736D01*
X110701Y450821D01*
X110749Y450917D01*
X110796Y451031D01*
X110892Y451269D01*
X110930Y451402D01*
X110949Y451545D01*
X110968Y451698D01*
X110977Y451850D01*
Y451860D01*
Y451888D01*
Y451936D01*
X110968Y451993D01*
X110958Y452069D01*
X110949Y452155D01*
X110930Y452250D01*
X110901Y452355D01*
X110835Y452584D01*
X110787Y452698D01*
X110730Y452822D01*
X110663Y452936D01*
X110587Y453060D01*
X110501Y453174D01*
X110396Y453279D01*
X110387Y453288D01*
X110368Y453307D01*
X110339Y453336D01*
X110292Y453365D01*
X110235Y453412D01*
X110168Y453460D01*
X110092Y453507D01*
X110006Y453565D01*
X109901Y453622D01*
X109796Y453669D01*
X109549Y453765D01*
X109415Y453793D01*
X109272Y453822D01*
X109120Y453841D01*
X108958Y453850D01*
D02*
G37*
G36*
X145786Y414193D02*
X143528D01*
Y406735D01*
X145767D01*
X145843Y406744D01*
X145938D01*
X146043Y406754D01*
X146157D01*
X146405Y406773D01*
X146652Y406811D01*
X146900Y406849D01*
X147014Y406878D01*
X147119Y406906D01*
X147129D01*
X147148Y406916D01*
X147176Y406925D01*
X147214Y406945D01*
X147310Y406983D01*
X147434Y407040D01*
X147576Y407116D01*
X147719Y407202D01*
X147862Y407306D01*
X147996Y407421D01*
X148005Y407430D01*
X148014Y407440D01*
X148043Y407468D01*
X148072Y407506D01*
X148110Y407554D01*
X148157Y407602D01*
X148262Y407745D01*
X148377Y407925D01*
X148500Y408135D01*
X148615Y408373D01*
X148719Y408649D01*
Y408659D01*
X148729Y408688D01*
X148748Y408726D01*
X148757Y408792D01*
X148777Y408868D01*
X148805Y408954D01*
X148824Y409059D01*
X148853Y409183D01*
X148872Y409307D01*
X148891Y409450D01*
X148919Y409612D01*
X148938Y409773D01*
X148958Y409954D01*
X148967Y410135D01*
X148976Y410535D01*
Y410554D01*
Y410602D01*
Y410678D01*
X148967Y410783D01*
X148958Y410916D01*
X148948Y411059D01*
X148938Y411221D01*
X148910Y411402D01*
X148891Y411583D01*
X148853Y411774D01*
X148767Y412164D01*
X148710Y412355D01*
X148643Y412545D01*
X148557Y412717D01*
X148472Y412878D01*
X148462Y412888D01*
X148453Y412917D01*
X148424Y412955D01*
X148386Y413012D01*
X148329Y413079D01*
X148272Y413155D01*
X148129Y413326D01*
X147948Y413517D01*
X147738Y413698D01*
X147500Y413860D01*
X147376Y413936D01*
X147243Y413993D01*
X147233D01*
X147214Y414002D01*
X147186Y414012D01*
X147148Y414021D01*
X147091Y414041D01*
X147024Y414060D01*
X146938Y414079D01*
X146843Y414098D01*
X146729Y414107D01*
X146614Y414126D01*
X146472Y414145D01*
X146319Y414164D01*
X146157Y414174D01*
X145976Y414184D01*
X145786Y414193D01*
D02*
G37*
G36*
X109063Y344310D02*
X108987D01*
X108930Y344301D01*
X108863Y344291D01*
X108777Y344282D01*
X108692Y344263D01*
X108587Y344234D01*
X108377Y344167D01*
X108263Y344120D01*
X108139Y344063D01*
X108025Y343996D01*
X107910Y343910D01*
X107796Y343825D01*
X107691Y343720D01*
X107682Y343710D01*
X107663Y343691D01*
X107644Y343662D01*
X107606Y343615D01*
X107558Y343558D01*
X107510Y343491D01*
X107463Y343405D01*
X107415Y343310D01*
X107358Y343205D01*
X107310Y343091D01*
X107263Y342967D01*
X107215Y342834D01*
X107177Y342691D01*
X107158Y342529D01*
X107139Y342367D01*
X107129Y342196D01*
Y342186D01*
Y342167D01*
Y342138D01*
Y342091D01*
X107139Y342034D01*
Y341967D01*
X107158Y341815D01*
X107196Y341634D01*
X107234Y341434D01*
X107301Y341224D01*
X107387Y341005D01*
Y340995D01*
X107396Y340976D01*
X107415Y340948D01*
X107434Y340910D01*
X107491Y340815D01*
X107577Y340691D01*
X107682Y340548D01*
X107806Y340405D01*
X107958Y340272D01*
X108120Y340148D01*
X108130D01*
X108139Y340138D01*
X108168Y340119D01*
X108206Y340100D01*
X108292Y340053D01*
X108415Y340005D01*
X108568Y339948D01*
X108739Y339900D01*
X108920Y339862D01*
X109111Y339852D01*
X109187D01*
X109234Y339862D01*
X109301Y339872D01*
X109377Y339881D01*
X109558Y339929D01*
X109768Y340005D01*
X109873Y340053D01*
X109987Y340110D01*
X110092Y340176D01*
X110206Y340262D01*
X110311Y340357D01*
X110415Y340462D01*
X110425Y340472D01*
X110444Y340491D01*
X110463Y340529D01*
X110501Y340576D01*
X110539Y340634D01*
X110587Y340710D01*
X110644Y340796D01*
X110692Y340900D01*
X110739Y341015D01*
X110796Y341138D01*
X110844Y341272D01*
X110882Y341424D01*
X110920Y341586D01*
X110949Y341758D01*
X110958Y341939D01*
X110968Y342129D01*
Y342138D01*
Y342177D01*
Y342224D01*
X110958Y342300D01*
X110949Y342377D01*
X110939Y342481D01*
X110920Y342586D01*
X110901Y342710D01*
X110835Y342958D01*
X110796Y343091D01*
X110739Y343224D01*
X110673Y343358D01*
X110606Y343482D01*
X110520Y343605D01*
X110425Y343720D01*
X110415Y343729D01*
X110396Y343748D01*
X110368Y343777D01*
X110330Y343815D01*
X110273Y343853D01*
X110216Y343910D01*
X110139Y343958D01*
X110054Y344015D01*
X109958Y344072D01*
X109863Y344120D01*
X109625Y344215D01*
X109501Y344253D01*
X109358Y344282D01*
X109215Y344301D01*
X109063Y344310D01*
D02*
G37*
G36*
X99986Y347644D02*
X97728D01*
Y340186D01*
X99967D01*
X100043Y340195D01*
X100138D01*
X100243Y340205D01*
X100357D01*
X100605Y340224D01*
X100852Y340262D01*
X101100Y340300D01*
X101214Y340329D01*
X101319Y340357D01*
X101329D01*
X101348Y340367D01*
X101376Y340376D01*
X101414Y340396D01*
X101510Y340434D01*
X101634Y340491D01*
X101776Y340567D01*
X101919Y340653D01*
X102062Y340757D01*
X102196Y340872D01*
X102205Y340881D01*
X102214Y340891D01*
X102243Y340919D01*
X102272Y340957D01*
X102310Y341005D01*
X102357Y341053D01*
X102462Y341196D01*
X102577Y341376D01*
X102700Y341586D01*
X102815Y341824D01*
X102919Y342100D01*
Y342110D01*
X102929Y342138D01*
X102948Y342177D01*
X102957Y342243D01*
X102977Y342319D01*
X103005Y342405D01*
X103024Y342510D01*
X103053Y342634D01*
X103072Y342758D01*
X103091Y342901D01*
X103119Y343063D01*
X103138Y343224D01*
X103158Y343405D01*
X103167Y343586D01*
X103176Y343986D01*
Y344005D01*
Y344053D01*
Y344129D01*
X103167Y344234D01*
X103158Y344367D01*
X103148Y344510D01*
X103138Y344672D01*
X103110Y344853D01*
X103091Y345034D01*
X103053Y345225D01*
X102967Y345615D01*
X102910Y345806D01*
X102843Y345996D01*
X102757Y346168D01*
X102672Y346329D01*
X102662Y346339D01*
X102653Y346368D01*
X102624Y346406D01*
X102586Y346463D01*
X102529Y346530D01*
X102472Y346606D01*
X102329Y346777D01*
X102148Y346968D01*
X101938Y347149D01*
X101700Y347311D01*
X101576Y347387D01*
X101443Y347444D01*
X101433D01*
X101414Y347453D01*
X101386Y347463D01*
X101348Y347472D01*
X101291Y347492D01*
X101224Y347511D01*
X101138Y347530D01*
X101043Y347549D01*
X100929Y347558D01*
X100814Y347577D01*
X100672Y347596D01*
X100519Y347615D01*
X100357Y347625D01*
X100176Y347635D01*
X99986Y347644D01*
D02*
G37*
G36*
X145748Y304261D02*
X143490D01*
Y296803D01*
X145729D01*
X145805Y296812D01*
X145900D01*
X146005Y296822D01*
X146119D01*
X146367Y296841D01*
X146614Y296879D01*
X146862Y296917D01*
X146976Y296946D01*
X147081Y296974D01*
X147091D01*
X147110Y296984D01*
X147138Y296993D01*
X147176Y297012D01*
X147272Y297050D01*
X147395Y297108D01*
X147538Y297184D01*
X147681Y297269D01*
X147824Y297374D01*
X147957Y297488D01*
X147967Y297498D01*
X147976Y297507D01*
X148005Y297536D01*
X148034Y297574D01*
X148072Y297622D01*
X148119Y297670D01*
X148224Y297812D01*
X148338Y297993D01*
X148462Y298203D01*
X148576Y298441D01*
X148681Y298717D01*
Y298727D01*
X148691Y298755D01*
X148710Y298793D01*
X148719Y298860D01*
X148738Y298936D01*
X148767Y299022D01*
X148786Y299127D01*
X148815Y299251D01*
X148834Y299374D01*
X148853Y299517D01*
X148881Y299679D01*
X148900Y299841D01*
X148919Y300022D01*
X148929Y300203D01*
X148938Y300603D01*
Y300622D01*
Y300670D01*
Y300746D01*
X148929Y300851D01*
X148919Y300984D01*
X148910Y301127D01*
X148900Y301289D01*
X148872Y301470D01*
X148853Y301651D01*
X148815Y301841D01*
X148729Y302232D01*
X148672Y302422D01*
X148605Y302613D01*
X148519Y302784D01*
X148434Y302946D01*
X148424Y302956D01*
X148415Y302984D01*
X148386Y303022D01*
X148348Y303080D01*
X148291Y303146D01*
X148234Y303223D01*
X148091Y303394D01*
X147910Y303584D01*
X147700Y303766D01*
X147462Y303927D01*
X147338Y304004D01*
X147205Y304061D01*
X147195D01*
X147176Y304070D01*
X147148Y304080D01*
X147110Y304089D01*
X147052Y304108D01*
X146986Y304127D01*
X146900Y304146D01*
X146805Y304165D01*
X146691Y304175D01*
X146576Y304194D01*
X146433Y304213D01*
X146281Y304232D01*
X146119Y304242D01*
X145938Y304251D01*
X145748Y304261D01*
D02*
G37*
G36*
X109663Y237027D02*
X106596Y232617D01*
X109663D01*
Y237027D01*
D02*
G37*
G36*
X100005Y237799D02*
X97747D01*
Y230341D01*
X99986D01*
X100062Y230350D01*
X100157D01*
X100262Y230360D01*
X100376D01*
X100624Y230379D01*
X100871Y230417D01*
X101119Y230455D01*
X101233Y230484D01*
X101338Y230512D01*
X101348D01*
X101367Y230522D01*
X101395Y230532D01*
X101433Y230550D01*
X101529Y230589D01*
X101652Y230646D01*
X101795Y230722D01*
X101938Y230808D01*
X102081Y230912D01*
X102214Y231027D01*
X102224Y231036D01*
X102234Y231046D01*
X102262Y231074D01*
X102291Y231112D01*
X102329Y231160D01*
X102376Y231208D01*
X102481Y231351D01*
X102596Y231532D01*
X102719Y231741D01*
X102834Y231979D01*
X102938Y232255D01*
Y232265D01*
X102948Y232294D01*
X102967Y232332D01*
X102977Y232398D01*
X102996Y232475D01*
X103024Y232560D01*
X103043Y232665D01*
X103072Y232789D01*
X103091Y232913D01*
X103110Y233056D01*
X103138Y233218D01*
X103158Y233379D01*
X103176Y233560D01*
X103186Y233741D01*
X103196Y234141D01*
Y234160D01*
Y234208D01*
Y234284D01*
X103186Y234389D01*
X103176Y234522D01*
X103167Y234665D01*
X103158Y234827D01*
X103129Y235008D01*
X103110Y235189D01*
X103072Y235380D01*
X102986Y235770D01*
X102929Y235961D01*
X102862Y236151D01*
X102776Y236323D01*
X102691Y236485D01*
X102681Y236494D01*
X102672Y236523D01*
X102643Y236561D01*
X102605Y236618D01*
X102548Y236685D01*
X102491Y236761D01*
X102348Y236932D01*
X102167Y237123D01*
X101957Y237304D01*
X101719Y237466D01*
X101595Y237542D01*
X101462Y237599D01*
X101453D01*
X101433Y237609D01*
X101405Y237618D01*
X101367Y237628D01*
X101310Y237647D01*
X101243Y237666D01*
X101157Y237685D01*
X101062Y237704D01*
X100948Y237713D01*
X100833Y237732D01*
X100690Y237751D01*
X100538Y237771D01*
X100376Y237780D01*
X100195Y237789D01*
X100005Y237799D01*
D02*
G37*
G36*
X145786Y194290D02*
X143528D01*
Y186832D01*
X145767D01*
X145843Y186842D01*
X145938D01*
X146043Y186851D01*
X146157D01*
X146405Y186870D01*
X146652Y186908D01*
X146900Y186947D01*
X147014Y186975D01*
X147119Y187004D01*
X147129D01*
X147148Y187013D01*
X147176Y187023D01*
X147214Y187042D01*
X147310Y187080D01*
X147434Y187137D01*
X147576Y187213D01*
X147719Y187299D01*
X147862Y187404D01*
X147996Y187518D01*
X148005Y187528D01*
X148014Y187537D01*
X148043Y187566D01*
X148072Y187604D01*
X148110Y187652D01*
X148157Y187699D01*
X148262Y187842D01*
X148377Y188023D01*
X148500Y188232D01*
X148615Y188471D01*
X148719Y188747D01*
Y188756D01*
X148729Y188785D01*
X148748Y188823D01*
X148757Y188890D01*
X148777Y188966D01*
X148805Y189052D01*
X148824Y189156D01*
X148853Y189280D01*
X148872Y189404D01*
X148891Y189547D01*
X148919Y189709D01*
X148938Y189871D01*
X148958Y190052D01*
X148967Y190233D01*
X148976Y190633D01*
Y190652D01*
Y190700D01*
Y190776D01*
X148967Y190881D01*
X148958Y191014D01*
X148948Y191157D01*
X148938Y191319D01*
X148910Y191500D01*
X148891Y191681D01*
X148853Y191871D01*
X148767Y192262D01*
X148710Y192452D01*
X148643Y192643D01*
X148557Y192814D01*
X148472Y192976D01*
X148462Y192985D01*
X148453Y193014D01*
X148424Y193052D01*
X148386Y193109D01*
X148329Y193176D01*
X148272Y193252D01*
X148129Y193424D01*
X147948Y193614D01*
X147738Y193795D01*
X147500Y193957D01*
X147376Y194033D01*
X147243Y194090D01*
X147233D01*
X147214Y194100D01*
X147186Y194109D01*
X147148Y194119D01*
X147091Y194138D01*
X147024Y194157D01*
X146938Y194176D01*
X146843Y194195D01*
X146729Y194205D01*
X146614Y194224D01*
X146472Y194243D01*
X146319Y194262D01*
X146157Y194271D01*
X145976Y194281D01*
X145786Y194290D01*
D02*
G37*
G36*
X100038Y127916D02*
X97781D01*
Y120458D01*
X100019D01*
X100095Y120468D01*
X100190D01*
X100295Y120477D01*
X100409D01*
X100657Y120496D01*
X100905Y120534D01*
X101152Y120572D01*
X101267Y120601D01*
X101372Y120629D01*
X101381D01*
X101400Y120639D01*
X101429Y120648D01*
X101467Y120667D01*
X101562Y120706D01*
X101686Y120763D01*
X101829Y120839D01*
X101972Y120925D01*
X102114Y121029D01*
X102248Y121144D01*
X102257Y121153D01*
X102267Y121163D01*
X102296Y121191D01*
X102324Y121229D01*
X102362Y121277D01*
X102410Y121325D01*
X102515Y121468D01*
X102629Y121649D01*
X102753Y121858D01*
X102867Y122096D01*
X102972Y122373D01*
Y122382D01*
X102981Y122411D01*
X103000Y122449D01*
X103010Y122515D01*
X103029Y122591D01*
X103057Y122677D01*
X103076Y122782D01*
X103105Y122906D01*
X103124Y123030D01*
X103143Y123173D01*
X103172Y123335D01*
X103191Y123496D01*
X103210Y123677D01*
X103219Y123858D01*
X103229Y124258D01*
Y124277D01*
Y124325D01*
Y124401D01*
X103219Y124506D01*
X103210Y124639D01*
X103200Y124782D01*
X103191Y124944D01*
X103162Y125125D01*
X103143Y125306D01*
X103105Y125497D01*
X103019Y125887D01*
X102962Y126078D01*
X102896Y126268D01*
X102810Y126440D01*
X102724Y126602D01*
X102715Y126611D01*
X102705Y126640D01*
X102676Y126678D01*
X102638Y126735D01*
X102581Y126802D01*
X102524Y126878D01*
X102381Y127049D01*
X102200Y127240D01*
X101991Y127421D01*
X101753Y127583D01*
X101629Y127659D01*
X101495Y127716D01*
X101486D01*
X101467Y127725D01*
X101438Y127735D01*
X101400Y127745D01*
X101343Y127764D01*
X101276Y127783D01*
X101191Y127802D01*
X101095Y127821D01*
X100981Y127830D01*
X100867Y127849D01*
X100724Y127868D01*
X100571Y127887D01*
X100409Y127897D01*
X100229Y127907D01*
X100038Y127916D01*
D02*
G37*
G36*
X146729Y84482D02*
X144471D01*
Y77024D01*
X146710D01*
X146786Y77034D01*
X146881D01*
X146986Y77043D01*
X147100D01*
X147348Y77062D01*
X147595Y77100D01*
X147843Y77138D01*
X147957Y77167D01*
X148062Y77195D01*
X148072D01*
X148091Y77205D01*
X148119Y77214D01*
X148157Y77234D01*
X148253Y77272D01*
X148377Y77329D01*
X148519Y77405D01*
X148662Y77491D01*
X148805Y77595D01*
X148938Y77710D01*
X148948Y77719D01*
X148958Y77729D01*
X148986Y77757D01*
X149015Y77796D01*
X149053Y77843D01*
X149100Y77891D01*
X149205Y78034D01*
X149319Y78215D01*
X149443Y78424D01*
X149558Y78662D01*
X149662Y78938D01*
Y78948D01*
X149672Y78977D01*
X149691Y79015D01*
X149700Y79081D01*
X149719Y79158D01*
X149748Y79243D01*
X149767Y79348D01*
X149796Y79472D01*
X149815Y79596D01*
X149834Y79739D01*
X149862Y79900D01*
X149881Y80062D01*
X149901Y80243D01*
X149910Y80424D01*
X149920Y80824D01*
Y80843D01*
Y80891D01*
Y80967D01*
X149910Y81072D01*
X149901Y81205D01*
X149891Y81348D01*
X149881Y81510D01*
X149853Y81691D01*
X149834Y81872D01*
X149796Y82063D01*
X149710Y82453D01*
X149653Y82644D01*
X149586Y82834D01*
X149500Y83006D01*
X149415Y83168D01*
X149405Y83177D01*
X149396Y83206D01*
X149367Y83244D01*
X149329Y83301D01*
X149272Y83368D01*
X149215Y83444D01*
X149072Y83615D01*
X148891Y83806D01*
X148681Y83987D01*
X148443Y84149D01*
X148319Y84225D01*
X148186Y84282D01*
X148176D01*
X148157Y84291D01*
X148129Y84301D01*
X148091Y84311D01*
X148034Y84330D01*
X147967Y84349D01*
X147881Y84368D01*
X147786Y84387D01*
X147672Y84396D01*
X147557Y84415D01*
X147414Y84434D01*
X147262Y84453D01*
X147100Y84463D01*
X146919Y84473D01*
X146729Y84482D01*
D02*
G37*
%LPD*%
D10*
X175049Y43840D02*
X174591Y46316D01*
X173920Y48742D01*
X173042Y51101D01*
X171962Y53375D01*
X170690Y55547D01*
X169234Y57601D01*
X167605Y59521D01*
X165817Y61292D01*
X163882Y62902D01*
X161814Y64338D01*
X159630Y65590D01*
X157346Y66648D01*
X154979Y67504D01*
X152546Y68152D01*
X150067Y68586D01*
X147559Y68804D01*
X145041D01*
X142534Y68586D01*
X140054Y68152D01*
X137621Y67504D01*
X135254Y66648D01*
X132970Y65590D01*
X130786Y64338D01*
X128718Y62902D01*
X126783Y61292D01*
X124995Y59521D01*
X123366Y57601D01*
X121910Y55547D01*
X120638Y53375D01*
X119558Y51101D01*
X118680Y48742D01*
X118009Y46316D01*
X117551Y43840D01*
X151363Y11165D02*
X153906Y11732D01*
X156387Y12524D01*
X158788Y13536D01*
X161088Y14759D01*
X163269Y16184D01*
X165314Y17798D01*
X167205Y19588D01*
X168929Y21542D01*
X170471Y23641D01*
X171818Y25871D01*
X172960Y28212D01*
X173887Y30647D01*
X174593Y33154D01*
X175071Y35715D01*
X117564Y35666D02*
X118049Y33113D01*
X118760Y30614D01*
X119692Y28189D01*
X120836Y25856D01*
X122185Y23635D01*
X123727Y21544D01*
X125449Y19599D01*
X127339Y17816D01*
X129381Y16208D01*
X131558Y14790D01*
X133853Y13572D01*
X136248Y12565D01*
X138723Y11775D01*
X141259Y11210D01*
X129249Y88540D02*
X128791Y91016D01*
X128120Y93442D01*
X127242Y95801D01*
X126162Y98075D01*
X124889Y100247D01*
X123434Y102301D01*
X121805Y104221D01*
X120017Y105992D01*
X118082Y107602D01*
X116014Y109038D01*
X113830Y110290D01*
X111546Y111348D01*
X109179Y112204D01*
X106746Y112852D01*
X104267Y113286D01*
X101759Y113504D01*
X99241D01*
X96734Y113286D01*
X94254Y112852D01*
X91821Y112204D01*
X89454Y111348D01*
X87170Y110290D01*
X84986Y109038D01*
X82918Y107602D01*
X80983Y105992D01*
X79195Y104221D01*
X77566Y102301D01*
X76111Y100247D01*
X74838Y98075D01*
X73759Y95801D01*
X72880Y93442D01*
X72209Y91016D01*
X71751Y88540D01*
X105563Y55865D02*
X108106Y56432D01*
X110587Y57224D01*
X112988Y58236D01*
X115288Y59459D01*
X117469Y60884D01*
X119514Y62498D01*
X121405Y64288D01*
X123129Y66241D01*
X124671Y68341D01*
X126018Y70571D01*
X127160Y72912D01*
X128087Y75346D01*
X128793Y77854D01*
X129271Y80415D01*
X71764Y80366D02*
X72249Y77813D01*
X72960Y75314D01*
X73892Y72889D01*
X75036Y70556D01*
X76385Y68335D01*
X77927Y66244D01*
X79650Y64299D01*
X81539Y62516D01*
X83581Y60908D01*
X85758Y59490D01*
X88053Y58272D01*
X90448Y57264D01*
X92923Y56475D01*
X95459Y55910D01*
X175049Y153840D02*
X174591Y156316D01*
X173920Y158742D01*
X173042Y161101D01*
X171962Y163375D01*
X170690Y165547D01*
X169234Y167601D01*
X167605Y169521D01*
X165817Y171292D01*
X163882Y172902D01*
X161814Y174338D01*
X159630Y175590D01*
X157346Y176648D01*
X154979Y177504D01*
X152546Y178152D01*
X150067Y178586D01*
X147559Y178804D01*
X145041D01*
X142534Y178586D01*
X140054Y178152D01*
X137621Y177504D01*
X135254Y176648D01*
X132970Y175590D01*
X130786Y174338D01*
X128718Y172902D01*
X126783Y171292D01*
X124995Y169521D01*
X123366Y167601D01*
X121910Y165547D01*
X120638Y163375D01*
X119558Y161101D01*
X118680Y158742D01*
X118009Y156316D01*
X117551Y153840D01*
X151363Y121165D02*
X153906Y121732D01*
X156387Y122524D01*
X158788Y123536D01*
X161088Y124759D01*
X163269Y126184D01*
X165314Y127798D01*
X167205Y129588D01*
X168929Y131542D01*
X170471Y133641D01*
X171818Y135871D01*
X172960Y138212D01*
X173887Y140646D01*
X174593Y143154D01*
X175071Y145715D01*
X117564Y145666D02*
X118049Y143113D01*
X118760Y140614D01*
X119692Y138189D01*
X120836Y135856D01*
X122185Y133635D01*
X123727Y131544D01*
X125449Y129599D01*
X127339Y127816D01*
X129381Y126208D01*
X131558Y124790D01*
X133853Y123572D01*
X136248Y122564D01*
X138723Y121775D01*
X141259Y121210D01*
X129249Y198540D02*
X128791Y201016D01*
X128120Y203442D01*
X127242Y205801D01*
X126162Y208075D01*
X124889Y210247D01*
X123434Y212301D01*
X121805Y214221D01*
X120017Y215992D01*
X118082Y217602D01*
X116014Y219038D01*
X113830Y220290D01*
X111546Y221348D01*
X109179Y222204D01*
X106746Y222852D01*
X104267Y223286D01*
X101759Y223504D01*
X99241D01*
X96734Y223286D01*
X94254Y222852D01*
X91821Y222204D01*
X89454Y221348D01*
X87170Y220290D01*
X84986Y219038D01*
X82918Y217602D01*
X80983Y215992D01*
X79195Y214221D01*
X77566Y212301D01*
X76111Y210247D01*
X74838Y208075D01*
X73759Y205801D01*
X72880Y203442D01*
X72209Y201016D01*
X71751Y198540D01*
X105563Y165865D02*
X108106Y166432D01*
X110587Y167225D01*
X112988Y168236D01*
X115288Y169459D01*
X117469Y170884D01*
X119514Y172498D01*
X121405Y174288D01*
X123129Y176241D01*
X124671Y178341D01*
X126018Y180571D01*
X127160Y182912D01*
X128087Y185347D01*
X128793Y187854D01*
X129271Y190415D01*
X71764Y190366D02*
X72249Y187813D01*
X72960Y185314D01*
X73892Y182889D01*
X75036Y180556D01*
X76385Y178335D01*
X77927Y176244D01*
X79650Y174299D01*
X81539Y172516D01*
X83581Y170909D01*
X85758Y169490D01*
X88053Y168272D01*
X90448Y167264D01*
X92923Y166475D01*
X95459Y165910D01*
X175049Y263840D02*
X174591Y266316D01*
X173920Y268742D01*
X173042Y271101D01*
X171962Y273375D01*
X170690Y275547D01*
X169234Y277601D01*
X167605Y279521D01*
X165817Y281292D01*
X163882Y282902D01*
X161814Y284338D01*
X159630Y285590D01*
X157346Y286648D01*
X154979Y287504D01*
X152546Y288151D01*
X150067Y288586D01*
X147559Y288804D01*
X145041D01*
X142534Y288586D01*
X140054Y288151D01*
X137621Y287504D01*
X135254Y286648D01*
X132970Y285590D01*
X130786Y284338D01*
X128718Y282902D01*
X126783Y281292D01*
X124995Y279521D01*
X123366Y277601D01*
X121910Y275547D01*
X120638Y273375D01*
X119558Y271101D01*
X118680Y268742D01*
X118009Y266316D01*
X117551Y263840D01*
X151363Y231165D02*
X153906Y231732D01*
X156387Y232525D01*
X158788Y233536D01*
X161088Y234759D01*
X163269Y236184D01*
X165314Y237798D01*
X167205Y239588D01*
X168929Y241542D01*
X170471Y243641D01*
X171818Y245871D01*
X172960Y248212D01*
X173887Y250646D01*
X174593Y253154D01*
X175071Y255715D01*
X117564Y255666D02*
X118049Y253113D01*
X118760Y250614D01*
X119692Y248189D01*
X120836Y245856D01*
X122185Y243635D01*
X123727Y241544D01*
X125449Y239599D01*
X127339Y237816D01*
X129381Y236208D01*
X131558Y234790D01*
X133853Y233572D01*
X136248Y232565D01*
X138723Y231775D01*
X141259Y231210D01*
X129249Y308540D02*
X128791Y311016D01*
X128120Y313442D01*
X127242Y315801D01*
X126162Y318075D01*
X124889Y320247D01*
X123434Y322301D01*
X121805Y324221D01*
X120017Y325992D01*
X118082Y327602D01*
X116014Y329038D01*
X113830Y330290D01*
X111546Y331348D01*
X109179Y332204D01*
X106746Y332852D01*
X104267Y333286D01*
X101759Y333504D01*
X99241D01*
X96734Y333286D01*
X94254Y332852D01*
X91821Y332204D01*
X89454Y331348D01*
X87170Y330290D01*
X84986Y329038D01*
X82918Y327602D01*
X80983Y325992D01*
X79195Y324221D01*
X77566Y322301D01*
X76111Y320247D01*
X74838Y318075D01*
X73759Y315801D01*
X72880Y313442D01*
X72209Y311016D01*
X71751Y308540D01*
X105563Y275865D02*
X108106Y276432D01*
X110587Y277225D01*
X112988Y278236D01*
X115288Y279459D01*
X117469Y280884D01*
X119514Y282498D01*
X121405Y284288D01*
X123129Y286241D01*
X124671Y288341D01*
X126018Y290571D01*
X127160Y292912D01*
X128087Y295347D01*
X128793Y297854D01*
X129271Y300415D01*
X71764Y300366D02*
X72249Y297813D01*
X72960Y295314D01*
X73892Y292889D01*
X75036Y290556D01*
X76385Y288335D01*
X77927Y286244D01*
X79650Y284299D01*
X81539Y282516D01*
X83581Y280909D01*
X85758Y279490D01*
X88053Y278272D01*
X90448Y277264D01*
X92923Y276475D01*
X95459Y275910D01*
X175049Y373840D02*
X174591Y376316D01*
X173920Y378742D01*
X173042Y381101D01*
X171962Y383375D01*
X170690Y385547D01*
X169234Y387601D01*
X167605Y389521D01*
X165817Y391292D01*
X163882Y392902D01*
X161814Y394338D01*
X159630Y395590D01*
X157346Y396648D01*
X154979Y397504D01*
X152546Y398152D01*
X150067Y398586D01*
X147559Y398804D01*
X145041D01*
X142534Y398586D01*
X140054Y398152D01*
X137621Y397504D01*
X135254Y396648D01*
X132970Y395590D01*
X130786Y394338D01*
X128718Y392902D01*
X126783Y391292D01*
X124995Y389521D01*
X123366Y387601D01*
X121910Y385547D01*
X120638Y383375D01*
X119558Y381101D01*
X118680Y378742D01*
X118009Y376316D01*
X117551Y373840D01*
X151363Y341165D02*
X153906Y341732D01*
X156387Y342524D01*
X158788Y343536D01*
X161088Y344759D01*
X163269Y346184D01*
X165314Y347798D01*
X167205Y349588D01*
X168929Y351541D01*
X170471Y353641D01*
X171818Y355871D01*
X172960Y358212D01*
X173887Y360647D01*
X174593Y363154D01*
X175071Y365715D01*
X117564Y365666D02*
X118049Y363113D01*
X118760Y360614D01*
X119692Y358189D01*
X120836Y355856D01*
X122185Y353635D01*
X123727Y351544D01*
X125449Y349599D01*
X127339Y347816D01*
X129381Y346208D01*
X131558Y344790D01*
X133853Y343572D01*
X136248Y342565D01*
X138723Y341775D01*
X141259Y341210D01*
X129249Y418540D02*
X128791Y421016D01*
X128120Y423442D01*
X127242Y425801D01*
X126162Y428075D01*
X124889Y430247D01*
X123434Y432301D01*
X121805Y434221D01*
X120017Y435992D01*
X118082Y437602D01*
X116014Y439038D01*
X113830Y440290D01*
X111546Y441348D01*
X109179Y442204D01*
X106746Y442852D01*
X104267Y443286D01*
X101759Y443504D01*
X99241D01*
X96734Y443286D01*
X94254Y442852D01*
X91821Y442204D01*
X89454Y441348D01*
X87170Y440290D01*
X84986Y439038D01*
X82918Y437602D01*
X80983Y435992D01*
X79195Y434221D01*
X77566Y432301D01*
X76111Y430247D01*
X74838Y428075D01*
X73759Y425801D01*
X72880Y423442D01*
X72209Y421016D01*
X71751Y418540D01*
X105563Y385865D02*
X108106Y386432D01*
X110587Y387225D01*
X112988Y388236D01*
X115288Y389459D01*
X117469Y390884D01*
X119514Y392498D01*
X121405Y394288D01*
X123129Y396241D01*
X124671Y398341D01*
X126018Y400571D01*
X127160Y402912D01*
X128087Y405346D01*
X128793Y407854D01*
X129271Y410415D01*
X71764Y410366D02*
X72249Y407813D01*
X72960Y405314D01*
X73892Y402889D01*
X75036Y400556D01*
X76385Y398335D01*
X77927Y396244D01*
X79650Y394299D01*
X81539Y392516D01*
X83581Y390909D01*
X85758Y389490D01*
X88053Y388272D01*
X90448Y387265D01*
X92923Y386475D01*
X95459Y385910D01*
X141318Y14900D02*
X151341D01*
Y11210D02*
Y14900D01*
X141259Y11210D02*
Y14841D01*
X175071Y35715D02*
Y35729D01*
X171100Y39700D02*
X175071Y35729D01*
X171100Y39700D02*
Y39892D01*
X175049Y43840D01*
X117573Y43781D02*
X121640Y39715D01*
X117595Y35670D02*
X121640Y39715D01*
X95518Y59600D02*
X105541D01*
Y55910D02*
Y59600D01*
X95459Y55910D02*
Y59541D01*
X129271Y80415D02*
Y80429D01*
X125300Y84400D02*
X129271Y80429D01*
X125300Y84400D02*
Y84592D01*
X129249Y88540D01*
X71773Y88482D02*
X75840Y84415D01*
X71795Y80370D02*
X75840Y84415D01*
X141318Y124900D02*
X151341D01*
Y121210D02*
Y124900D01*
X141259Y121210D02*
Y124841D01*
X175071Y145715D02*
Y145729D01*
X171100Y149700D02*
X175071Y145729D01*
X171100Y149700D02*
Y149892D01*
X175049Y153840D01*
X117573Y153781D02*
X121640Y149715D01*
X117595Y145670D02*
X121640Y149715D01*
X95518Y169600D02*
X105541D01*
Y165910D02*
Y169600D01*
X95459Y165910D02*
Y169541D01*
X129271Y190415D02*
Y190429D01*
X125300Y194400D02*
X129271Y190429D01*
X125300Y194400D02*
Y194592D01*
X129249Y198540D01*
X71773Y198481D02*
X75840Y194415D01*
X71795Y190370D02*
X75840Y194415D01*
X141318Y234900D02*
X151341D01*
Y231210D02*
Y234900D01*
X141259Y231210D02*
Y234841D01*
X175071Y255715D02*
Y255729D01*
X171100Y259700D02*
X175071Y255729D01*
X171100Y259700D02*
Y259891D01*
X175049Y263840D01*
X117573Y263781D02*
X121640Y259715D01*
X117595Y255670D02*
X121640Y259715D01*
X95518Y279600D02*
X105541D01*
Y275910D02*
Y279600D01*
X95459Y275910D02*
Y279541D01*
X129271Y300415D02*
Y300429D01*
X125300Y304400D02*
X129271Y300429D01*
X125300Y304400D02*
Y304592D01*
X129249Y308540D01*
X71773Y308482D02*
X75840Y304415D01*
X71795Y300370D02*
X75840Y304415D01*
X141318Y344900D02*
X151341D01*
Y341210D02*
Y344900D01*
X141259Y341210D02*
Y344841D01*
X175071Y365715D02*
Y365729D01*
X171100Y369700D02*
X175071Y365729D01*
X171100Y369700D02*
Y369892D01*
X175049Y373840D01*
X117573Y373781D02*
X121640Y369715D01*
X117595Y365670D02*
X121640Y369715D01*
X95518Y389600D02*
X105541D01*
Y385910D02*
Y389600D01*
X95459Y385910D02*
Y389541D01*
X129271Y410415D02*
Y410429D01*
X125300Y414400D02*
X129271Y410429D01*
X125300Y414400D02*
Y414591D01*
X129249Y418540D01*
X71773Y418481D02*
X75840Y414415D01*
X71795Y410370D02*
X75840Y414415D01*
M02*
