G04*
G04 #@! TF.GenerationSoftware,Altium Limited,Altium Designer,24.1.2 (44)*
G04*
G04 Layer_Color=128*
%FSLAX44Y44*%
%MOMM*%
G71*
G04*
G04 #@! TF.SameCoordinates,BBC2EA18-74A8-411A-9B9A-F0C275BE575F*
G04*
G04*
G04 #@! TF.FilePolarity,Positive*
G04*
G01*
G75*
%ADD35R,1.6000X0.8000*%
%ADD36R,3.0000X2.1000*%
%ADD37R,1.5000X0.4000*%
%ADD38R,0.9500X0.9000*%
%ADD39R,0.7000X0.8000*%
%ADD40C,1.5000*%
%ADD41R,0.9100X1.2200*%
%ADD42R,0.9100X1.2200*%
%ADD43R,0.8000X0.7000*%
D35*
X256794Y371348D02*
D03*
Y358848D02*
D03*
Y383848D02*
D03*
Y396348D02*
D03*
Y346348D02*
D03*
Y333848D02*
D03*
Y321348D02*
D03*
Y308848D02*
D03*
D36*
X285794Y421848D02*
D03*
Y283348D02*
D03*
D37*
X269525Y177488D02*
D03*
Y170988D02*
D03*
Y164488D02*
D03*
Y157988D02*
D03*
Y151488D02*
D03*
Y144988D02*
D03*
Y138488D02*
D03*
Y131988D02*
D03*
Y125488D02*
D03*
Y118988D02*
D03*
Y112488D02*
D03*
Y105988D02*
D03*
X213137D02*
D03*
Y112488D02*
D03*
Y118988D02*
D03*
Y125488D02*
D03*
Y131988D02*
D03*
Y138488D02*
D03*
Y144988D02*
D03*
Y151488D02*
D03*
Y157988D02*
D03*
Y164488D02*
D03*
Y170988D02*
D03*
Y177488D02*
D03*
D38*
X229708Y308204D02*
D03*
X229708Y396954D02*
D03*
X204708Y406454D02*
D03*
X229708Y415954D02*
D03*
X229708Y361037D02*
D03*
X204708Y370537D02*
D03*
X229708Y380037D02*
D03*
Y325121D02*
D03*
X204708Y334621D02*
D03*
X229708Y344121D02*
D03*
Y289204D02*
D03*
X204708Y298704D02*
D03*
D39*
X251040Y218186D02*
D03*
X235040D02*
D03*
X205523Y197120D02*
D03*
X189523D02*
D03*
X251040Y197110D02*
D03*
X235040D02*
D03*
X296548D02*
D03*
X280548D02*
D03*
D40*
X238845Y244179D02*
D03*
X29150Y443540D02*
D03*
X296672Y244179D02*
D03*
X267377D02*
D03*
X210312D02*
D03*
X56388Y443540D02*
D03*
D41*
X29150Y291800D02*
D03*
X74950Y357100D02*
D03*
X29150Y401800D02*
D03*
Y71800D02*
D03*
X74950Y137100D02*
D03*
X29150Y181800D02*
D03*
X74950Y247100D02*
D03*
Y27100D02*
D03*
D42*
X61850Y71800D02*
D03*
X107650Y137100D02*
D03*
X61850Y401800D02*
D03*
Y181800D02*
D03*
X107650Y357100D02*
D03*
Y247100D02*
D03*
X61850Y291800D02*
D03*
X107650Y27100D02*
D03*
D43*
X295433Y175462D02*
D03*
Y159462D02*
D03*
Y123400D02*
D03*
Y107400D02*
D03*
X190023Y175452D02*
D03*
Y159452D02*
D03*
M02*
