G04*
G04 #@! TF.GenerationSoftware,Altium Limited,Altium Designer,24.1.2 (44)*
G04*
G04 Layer_Color=255*
%FSLAX44Y44*%
%MOMM*%
G71*
G04*
G04 #@! TF.SameCoordinates,72F2B316-7FC6-4B7C-B3EC-A1DFD3802FF3*
G04*
G04*
G04 #@! TF.FilePolarity,Positive*
G04*
G01*
G75*
%ADD29C,1.1000*%
%ADD30C,0.9000*%
%ADD31C,0.6000*%
%ADD32C,6.3500*%
%ADD33C,1.0000*%
D29*
X146300Y29800D02*
D03*
X100500Y74500D02*
D03*
X146300Y139800D02*
D03*
X100500Y184500D02*
D03*
X146300Y249800D02*
D03*
X100500Y294500D02*
D03*
X146300Y359800D02*
D03*
X100500Y404500D02*
D03*
D30*
X156300Y39800D02*
D03*
X136300D02*
D03*
X110500Y84500D02*
D03*
X90500D02*
D03*
X156300Y149800D02*
D03*
X136300D02*
D03*
X110500Y194500D02*
D03*
X90500D02*
D03*
X156300Y259800D02*
D03*
X136300D02*
D03*
X110500Y304500D02*
D03*
X90500D02*
D03*
X156300Y369800D02*
D03*
X136300D02*
D03*
X110500Y414500D02*
D03*
X90500D02*
D03*
D31*
X338328Y7114D02*
D03*
X340335Y15778D02*
D03*
Y31779D02*
D03*
Y47779D02*
D03*
X328845Y4644D02*
D03*
X312845D02*
D03*
X296845D02*
D03*
X333114Y530371D02*
D03*
X317114Y530356D02*
D03*
X301114D02*
D03*
X285114D02*
D03*
X269114D02*
D03*
X253114D02*
D03*
X237114D02*
D03*
X221114D02*
D03*
X205114D02*
D03*
X189114D02*
D03*
X173114D02*
D03*
X157114D02*
D03*
X141114D02*
D03*
X125114D02*
D03*
X109114D02*
D03*
X93114D02*
D03*
X77114D02*
D03*
X61114D02*
D03*
X45114D02*
D03*
X29114D02*
D03*
X13114D02*
D03*
X4644Y516782D02*
D03*
Y500782D02*
D03*
Y484782D02*
D03*
Y468782D02*
D03*
Y452782D02*
D03*
Y436782D02*
D03*
Y420782D02*
D03*
Y404782D02*
D03*
Y388782D02*
D03*
Y372782D02*
D03*
Y356782D02*
D03*
Y340782D02*
D03*
Y324782D02*
D03*
Y308782D02*
D03*
Y292782D02*
D03*
Y276782D02*
D03*
Y260782D02*
D03*
Y244782D02*
D03*
Y228782D02*
D03*
Y212782D02*
D03*
Y196782D02*
D03*
Y180782D02*
D03*
Y164782D02*
D03*
Y148782D02*
D03*
Y132782D02*
D03*
Y116782D02*
D03*
Y100782D02*
D03*
Y84782D02*
D03*
Y68782D02*
D03*
Y52782D02*
D03*
Y36782D02*
D03*
Y20782D02*
D03*
X8860Y5348D02*
D03*
X24845Y4644D02*
D03*
X40845D02*
D03*
X56845D02*
D03*
X72845D02*
D03*
X88845D02*
D03*
X104845D02*
D03*
X120845D02*
D03*
X136845D02*
D03*
X152845D02*
D03*
X168845D02*
D03*
X184845D02*
D03*
X200845D02*
D03*
X216845D02*
D03*
X232845D02*
D03*
X248845D02*
D03*
X264845D02*
D03*
X280845D02*
D03*
X340335Y63779D02*
D03*
X332650Y77812D02*
D03*
X321004Y88783D02*
D03*
X320356Y104770D02*
D03*
Y120770D02*
D03*
Y136770D02*
D03*
Y152770D02*
D03*
Y168770D02*
D03*
Y184770D02*
D03*
Y200770D02*
D03*
Y216770D02*
D03*
Y232770D02*
D03*
Y248770D02*
D03*
Y264770D02*
D03*
Y280770D02*
D03*
Y296770D02*
D03*
Y312770D02*
D03*
Y328770D02*
D03*
Y344770D02*
D03*
Y360770D02*
D03*
Y376770D02*
D03*
Y392770D02*
D03*
Y408770D02*
D03*
Y424770D02*
D03*
X323615Y440435D02*
D03*
X337961Y447520D02*
D03*
X340355Y463340D02*
D03*
Y511339D02*
D03*
D32*
X309000Y49000D02*
D03*
Y499000D02*
D03*
D33*
X325164Y482836D02*
D03*
X292836D02*
D03*
Y515164D02*
D03*
X325164D02*
D03*
X331860Y499000D02*
D03*
X309000Y476140D02*
D03*
X286140Y499000D02*
D03*
X309000Y521860D02*
D03*
X325164Y32836D02*
D03*
X292836D02*
D03*
Y65164D02*
D03*
X325164D02*
D03*
X331860Y49000D02*
D03*
X309000Y26140D02*
D03*
X286140Y49000D02*
D03*
X309000Y71860D02*
D03*
M02*
