G04*
G04 #@! TF.GenerationSoftware,Altium Limited,Altium Designer,24.1.2 (44)*
G04*
G04 Layer_Color=16711935*
%FSLAX44Y44*%
%MOMM*%
G71*
G04*
G04 #@! TF.SameCoordinates,BBC2EA18-74A8-411A-9B9A-F0C275BE575F*
G04*
G04*
G04 #@! TF.FilePolarity,Negative*
G04*
G01*
G75*
%ADD11C,0.8890*%
%ADD12C,1.0922*%
%ADD14R,3.3586X2.0672*%
%ADD15R,6.5336X3.3587*%
%ADD17R,3.3565X6.5340*%
%ADD18C,0.8032*%
%ADD19C,6.5532*%
%ADD20C,1.2032*%
%ADD48R,1.8032X1.0032*%
%ADD49R,3.2032X2.3032*%
%ADD50R,1.7032X0.6032*%
%ADD51R,1.1532X1.1032*%
%ADD52R,0.9032X1.0032*%
%ADD53C,1.7032*%
%ADD54R,1.1132X1.4232*%
%ADD55R,1.1132X1.4232*%
%ADD56R,1.0032X0.9032*%
%ADD57R,3.0344X3.8980*%
%ADD58R,3.3782X4.9403*%
%ADD59C,1.3032*%
%ADD60C,1.1032*%
G36*
X331582Y536016D02*
X331631Y536016D01*
X331648Y536014D01*
X331666Y536013D01*
X331714Y536005D01*
X331763Y535998D01*
X331780Y535994D01*
X331797Y535991D01*
X331844Y535976D01*
X331892Y535964D01*
X331908Y535957D01*
X331924Y535952D01*
X331969Y535931D01*
X332014Y535913D01*
X332029Y535904D01*
X332045Y535896D01*
X332087Y535870D01*
X332130Y535846D01*
X332144Y535835D01*
X332158Y535826D01*
X332196Y535794D01*
X332235Y535764D01*
X332248Y535752D01*
X332261Y535741D01*
X332294Y535705D01*
X332329Y535670D01*
X332340Y535656D01*
X332352Y535643D01*
X332380Y535603D01*
X332410Y535564D01*
X332419Y535549D01*
X332429Y535535D01*
X332452Y535491D01*
X332477Y535449D01*
X332483Y535433D01*
X332491Y535417D01*
X332509Y535371D01*
X332527Y535326D01*
X332532Y535309D01*
X332538Y535293D01*
X332549Y535244D01*
X332561Y535197D01*
X332564Y535180D01*
X332568Y535163D01*
X334005Y526273D01*
X334010Y526230D01*
X334016Y526188D01*
X334016Y526164D01*
X334018Y526140D01*
X334016Y526097D01*
X334017Y526054D01*
X334014Y526031D01*
X334013Y526007D01*
X334006Y525965D01*
X334001Y525922D01*
X333995Y525899D01*
X333991Y525876D01*
X333979Y525835D01*
X333968Y525793D01*
X333959Y525771D01*
X333952Y525748D01*
X333934Y525710D01*
X333918Y525670D01*
X333907Y525649D01*
X333897Y525627D01*
X333874Y525591D01*
X333853Y525554D01*
X333839Y525535D01*
X333826Y525514D01*
X333799Y525481D01*
X333773Y525447D01*
X333756Y525430D01*
X333741Y525412D01*
X333710Y525382D01*
X333680Y525352D01*
X333661Y525337D01*
X333644Y525321D01*
X333609Y525296D01*
X333575Y525270D01*
X333555Y525258D01*
X333535Y525244D01*
X333497Y525224D01*
X333461Y525202D01*
X333439Y525192D01*
X333418Y525181D01*
X333377Y525166D01*
X333338Y525149D01*
X333315Y525143D01*
X333293Y525135D01*
X333251Y525125D01*
X333210Y525114D01*
X333186Y525110D01*
X333163Y525105D01*
X333120Y525101D01*
X333078Y525095D01*
X332268Y525033D01*
X331836Y524903D01*
X331678Y524789D01*
X331625Y524690D01*
X331604Y524422D01*
X331721Y523887D01*
X332046Y523116D01*
X332425Y522454D01*
X333103Y522071D01*
X333868Y521757D01*
X334396Y521652D01*
X334658Y521679D01*
X334767Y521743D01*
X334895Y521928D01*
X335031Y522394D01*
X335093Y523238D01*
X335100Y523289D01*
X335106Y523342D01*
X335110Y523356D01*
X335112Y523370D01*
X335126Y523420D01*
X335138Y523471D01*
X335143Y523484D01*
X335147Y523498D01*
X335168Y523547D01*
X335187Y523595D01*
X335193Y523607D01*
X335199Y523621D01*
X335226Y523666D01*
X335251Y523712D01*
X335260Y523723D01*
X335267Y523736D01*
X335299Y523777D01*
X335330Y523819D01*
X335340Y523829D01*
X335349Y523841D01*
X335387Y523878D01*
X335422Y523915D01*
X335433Y523924D01*
X335444Y523934D01*
X335486Y523965D01*
X335526Y523998D01*
X335539Y524006D01*
X335550Y524014D01*
X335596Y524040D01*
X335640Y524067D01*
X335653Y524073D01*
X335666Y524080D01*
X335715Y524100D01*
X335762Y524120D01*
X335776Y524124D01*
X335789Y524130D01*
X335840Y524143D01*
X335890Y524157D01*
X335904Y524160D01*
X335919Y524163D01*
X335971Y524170D01*
X336022Y524177D01*
X336036Y524178D01*
X336051Y524179D01*
X336103Y524179D01*
X336155Y524180D01*
X336169Y524178D01*
X336184Y524178D01*
X336236Y524171D01*
X336287Y524165D01*
X345177Y522579D01*
X345231Y522565D01*
X345284Y522554D01*
X345295Y522550D01*
X345307Y522547D01*
X345357Y522527D01*
X345409Y522508D01*
X345420Y522503D01*
X345431Y522498D01*
X345479Y522472D01*
X345527Y522446D01*
X345537Y522440D01*
X345547Y522434D01*
X345591Y522402D01*
X345636Y522370D01*
X345645Y522362D01*
X345655Y522355D01*
X345694Y522317D01*
X345735Y522280D01*
X345742Y522271D01*
X345751Y522263D01*
X345785Y522220D01*
X345820Y522178D01*
X345826Y522168D01*
X345834Y522159D01*
X345862Y522112D01*
X345892Y522065D01*
X345897Y522055D01*
X345903Y522045D01*
X345924Y521995D01*
X345948Y521945D01*
X345951Y521933D01*
X345956Y521923D01*
X345971Y521870D01*
X345988Y521818D01*
X345990Y521806D01*
X345993Y521795D01*
X346001Y521740D01*
X346011Y521686D01*
X346011Y521675D01*
X346013Y521663D01*
X346014Y521609D01*
X346017Y521553D01*
X345963Y519176D01*
X345960Y519145D01*
X345959Y519115D01*
X345528Y513876D01*
X345523Y513845D01*
X345521Y513812D01*
X344658Y507929D01*
X344651Y507899D01*
X344647Y507868D01*
X342788Y499000D01*
X344647Y490132D01*
X344651Y490101D01*
X344658Y490070D01*
X345521Y484188D01*
X345523Y484155D01*
X345528Y484123D01*
X345959Y478885D01*
X345960Y478855D01*
X345963Y478824D01*
X346017Y476447D01*
X346014Y476396D01*
X346014Y476346D01*
X346011Y476330D01*
X346011Y476314D01*
X346002Y476264D01*
X345995Y476214D01*
X345990Y476198D01*
X345988Y476182D01*
X345973Y476135D01*
X345959Y476086D01*
X345953Y476071D01*
X345948Y476055D01*
X345927Y476010D01*
X345907Y475964D01*
X345899Y475950D01*
X345892Y475935D01*
X345865Y475892D01*
X345839Y475849D01*
X336949Y462847D01*
X336947Y462844D01*
X336945Y462840D01*
X336906Y462792D01*
X336867Y462742D01*
X336864Y462739D01*
X336862Y462736D01*
X336817Y462693D01*
X336772Y462649D01*
X336768Y462647D01*
X336766Y462644D01*
X336716Y462607D01*
X336665Y462569D01*
X336662Y462567D01*
X336659Y462565D01*
X336603Y462534D01*
X336549Y462504D01*
X336546Y462502D01*
X336542Y462500D01*
X336483Y462477D01*
X336426Y462454D01*
X336422Y462453D01*
X336418Y462452D01*
X336357Y462436D01*
X336297Y462421D01*
X336293Y462420D01*
X336289Y462420D01*
X336227Y462412D01*
X336164Y462405D01*
X336160Y462405D01*
X336157Y462405D01*
X336094Y462406D01*
X336031Y462406D01*
X336027Y462407D01*
X336023Y462407D01*
X335961Y462416D01*
X335899Y462425D01*
X335895Y462426D01*
X335892Y462427D01*
X335833Y462444D01*
X335771Y462461D01*
X335767Y462463D01*
X335764Y462464D01*
X335706Y462489D01*
X335648Y462513D01*
X335645Y462515D01*
X335642Y462517D01*
X335588Y462549D01*
X335534Y462581D01*
X335531Y462584D01*
X335527Y462585D01*
X335479Y462624D01*
X335429Y462663D01*
X335426Y462666D01*
X335423Y462668D01*
X335380Y462713D01*
X335336Y462758D01*
X335334Y462762D01*
X335331Y462764D01*
X335294Y462814D01*
X335256Y462865D01*
X335254Y462868D01*
X335252Y462872D01*
X328208Y473844D01*
X328185Y473886D01*
X328161Y473927D01*
X328153Y473944D01*
X328144Y473961D01*
X328126Y474005D01*
X328107Y474049D01*
X328102Y474067D01*
X328095Y474085D01*
X328084Y474131D01*
X328070Y474177D01*
X328068Y474195D01*
X328063Y474214D01*
X328058Y474261D01*
X328051Y474309D01*
X328050Y474328D01*
X328048Y474346D01*
X328049Y474394D01*
X328048Y474442D01*
X328050Y474461D01*
X328051Y474479D01*
X328058Y474527D01*
X328063Y474574D01*
X328068Y474593D01*
X328070Y474611D01*
X328084Y474657D01*
X328095Y474703D01*
X335843Y499000D01*
X329351Y519360D01*
X309000Y525841D01*
X284712Y518106D01*
X284666Y518094D01*
X284621Y518082D01*
X284602Y518079D01*
X284583Y518074D01*
X284536Y518069D01*
X284489Y518061D01*
X284470Y518061D01*
X284450Y518059D01*
X284403Y518060D01*
X284356Y518059D01*
X284337Y518061D01*
X284317Y518061D01*
X284270Y518069D01*
X284224Y518074D01*
X284205Y518078D01*
X284186Y518081D01*
X284141Y518094D01*
X284094Y518106D01*
X284076Y518113D01*
X284058Y518118D01*
X284014Y518137D01*
X283970Y518154D01*
X283953Y518164D01*
X283936Y518172D01*
X283895Y518196D01*
X283854Y518219D01*
X272875Y525253D01*
X272871Y525256D01*
X272867Y525258D01*
X272818Y525295D01*
X272768Y525332D01*
X272764Y525335D01*
X272761Y525338D01*
X272717Y525381D01*
X272672Y525424D01*
X272669Y525428D01*
X272666Y525431D01*
X272627Y525480D01*
X272589Y525528D01*
X272586Y525532D01*
X272583Y525536D01*
X272551Y525590D01*
X272520Y525642D01*
X272518Y525646D01*
X272516Y525650D01*
X272491Y525707D01*
X272466Y525764D01*
X272465Y525769D01*
X272463Y525773D01*
X272447Y525833D01*
X272430Y525892D01*
X272429Y525897D01*
X272428Y525901D01*
X272419Y525964D01*
X272410Y526024D01*
X272409Y526029D01*
X272409Y526033D01*
X272408Y526096D01*
X272407Y526157D01*
X272407Y526162D01*
X272407Y526166D01*
X272415Y526228D01*
X272422Y526289D01*
X272423Y526294D01*
X272423Y526298D01*
X272439Y526358D01*
X272454Y526419D01*
X272456Y526423D01*
X272457Y526427D01*
X272479Y526484D01*
X272502Y526543D01*
X272505Y526547D01*
X272506Y526551D01*
X272536Y526604D01*
X272567Y526659D01*
X272570Y526663D01*
X272572Y526667D01*
X272609Y526716D01*
X272646Y526767D01*
X272649Y526770D01*
X272652Y526773D01*
X272695Y526818D01*
X272738Y526862D01*
X272742Y526865D01*
X272745Y526869D01*
X272794Y526907D01*
X272842Y526946D01*
X272846Y526948D01*
X272850Y526951D01*
X285863Y535841D01*
X285867Y535843D01*
X285870Y535846D01*
X285923Y535876D01*
X285978Y535909D01*
X285982Y535910D01*
X285986Y535913D01*
X286042Y535936D01*
X286100Y535961D01*
X286105Y535962D01*
X286108Y535964D01*
X286169Y535980D01*
X286229Y535997D01*
X286233Y535997D01*
X286237Y535998D01*
X286299Y536007D01*
X286360Y536015D01*
X286365Y536015D01*
X286369Y536016D01*
X286431Y536016D01*
X286494Y536017D01*
X286498Y536016D01*
X286502D01*
X294119Y535531D01*
X294153Y535526D01*
X294187Y535524D01*
X297048Y535146D01*
X297085Y535139D01*
X297123Y535133D01*
X309000Y532641D01*
X320877Y535133D01*
X320914Y535139D01*
X320952Y535146D01*
X323813Y535524D01*
X323847Y535526D01*
X323881Y535531D01*
X331498Y536016D01*
X331515Y536016D01*
X331533Y536018D01*
X331582Y536016D01*
D02*
G37*
G36*
X328969Y74734D02*
X329008Y74733D01*
X329035Y74729D01*
X329063Y74727D01*
X329101Y74719D01*
X329140Y74714D01*
X329166Y74706D01*
X329194Y74701D01*
X329231Y74688D01*
X329268Y74677D01*
X329293Y74666D01*
X329320Y74657D01*
X329355Y74640D01*
X329390Y74625D01*
X329414Y74611D01*
X329439Y74598D01*
X329471Y74576D01*
X329504Y74557D01*
X329526Y74539D01*
X329550Y74524D01*
X330877Y73498D01*
X333073Y72076D01*
X333867Y71708D01*
X334456Y71539D01*
X334774Y71529D01*
X334857Y71560D01*
X334912Y71620D01*
X335014Y71906D01*
X335074Y72582D01*
X335084Y72645D01*
X335093Y72708D01*
X335094Y72710D01*
X335094Y72713D01*
X335112Y72772D01*
X335130Y72836D01*
X335131Y72838D01*
X335132Y72841D01*
X335158Y72899D01*
X335183Y72958D01*
X335185Y72960D01*
X335186Y72963D01*
X335220Y73020D01*
X335252Y73072D01*
X335253Y73074D01*
X335255Y73077D01*
X335296Y73128D01*
X335335Y73176D01*
X335337Y73178D01*
X335339Y73180D01*
X335385Y73225D01*
X335430Y73269D01*
X335433Y73270D01*
X335435Y73272D01*
X335487Y73311D01*
X335537Y73348D01*
X335540Y73349D01*
X335542Y73351D01*
X335598Y73382D01*
X335654Y73412D01*
X335657Y73414D01*
X335659Y73415D01*
X335719Y73438D01*
X335778Y73461D01*
X335781Y73462D01*
X335783Y73463D01*
X335846Y73478D01*
X335907Y73493D01*
X335910Y73494D01*
X335913Y73495D01*
X335975Y73501D01*
X336039Y73509D01*
X336042Y73509D01*
X336045Y73509D01*
X336110Y73507D01*
X336172Y73506D01*
X336178Y73506D01*
D01*
D01*
X345063Y72768D01*
X345098Y72763D01*
X345134Y72759D01*
X345164Y72753D01*
X345194Y72748D01*
X345229Y72738D01*
X345264Y72731D01*
X345293Y72720D01*
X345322Y72712D01*
X345355Y72697D01*
X345389Y72685D01*
X345416Y72671D01*
X345444Y72659D01*
X345475Y72640D01*
X345507Y72623D01*
X345532Y72606D01*
X345559Y72590D01*
X345587Y72568D01*
X345616Y72547D01*
X345639Y72526D01*
X345663Y72507D01*
X345688Y72481D01*
X345714Y72457D01*
X345734Y72433D01*
X345755Y72411D01*
X345777Y72382D01*
X345800Y72355D01*
X345816Y72329D01*
X345835Y72304D01*
X345852Y72273D01*
X345871Y72242D01*
X345884Y72215D01*
X345899Y72188D01*
X345912Y72154D01*
X345928Y72122D01*
X345937Y72092D01*
X345948Y72064D01*
X345957Y72029D01*
X345967Y71995D01*
X345973Y71964D01*
X345980Y71934D01*
X345984Y71899D01*
X345990Y71863D01*
X345992Y71833D01*
X345995Y71802D01*
X345995Y71766D01*
X345996Y71730D01*
X345943Y69355D01*
X345940Y69325D01*
X345940Y69295D01*
X345512Y64054D01*
X345508Y64023D01*
X345505Y63991D01*
X344650Y58098D01*
X344644Y58068D01*
X344639Y58038D01*
X342768Y49000D01*
X344639Y39962D01*
X344644Y39932D01*
X344650Y39902D01*
X345505Y34009D01*
X345508Y33977D01*
X345512Y33946D01*
X345940Y28705D01*
X345940Y28675D01*
X345943Y28645D01*
X345996Y26270D01*
X345994Y26216D01*
X345993Y26164D01*
X345991Y26151D01*
X345990Y26137D01*
X345981Y26084D01*
X345974Y26032D01*
X345970Y26019D01*
X345967Y26005D01*
X345951Y25954D01*
X345937Y25904D01*
X345932Y25892D01*
X345928Y25878D01*
X345905Y25830D01*
X345884Y25782D01*
X345877Y25770D01*
X345871Y25758D01*
X345843Y25713D01*
X345816Y25668D01*
X345000Y24488D01*
X345505Y21009D01*
X345508Y20977D01*
X345512Y20946D01*
X345940Y15705D01*
X345940Y15675D01*
X345943Y15645D01*
X345996Y13270D01*
X345994Y13228D01*
X345995Y13186D01*
X345992Y13161D01*
X345990Y13137D01*
X345983Y13096D01*
X345978Y13054D01*
X345972Y13030D01*
X345967Y13005D01*
X345955Y12965D01*
X345944Y12925D01*
X345935Y12902D01*
X345928Y12878D01*
X345910Y12840D01*
X345894Y12802D01*
X345882Y12780D01*
X345871Y12758D01*
X345849Y12722D01*
X345828Y12686D01*
X345813Y12666D01*
X345800Y12645D01*
X345773Y12613D01*
X345748Y12580D01*
X345730Y12562D01*
X345714Y12543D01*
X345684Y12515D01*
X345654Y12485D01*
X345634Y12470D01*
X345616Y12453D01*
X345582Y12429D01*
X345549Y12404D01*
X345527Y12391D01*
X345507Y12377D01*
X345470Y12357D01*
X345434Y12336D01*
X345411Y12327D01*
X345389Y12315D01*
X345350Y12301D01*
X345311Y12284D01*
X345287Y12278D01*
X345264Y12269D01*
X345223Y12260D01*
X345183Y12249D01*
X336293Y10426D01*
X336292Y10426D01*
X336292Y10426D01*
X336213Y10415D01*
X336161Y10408D01*
X336161D01*
X336160Y10408D01*
X336066Y10407D01*
X336028Y10407D01*
X336027Y10407D01*
X336027D01*
X335954Y10417D01*
X335896Y10424D01*
X335895Y10424D01*
X335895Y10424D01*
X335822Y10443D01*
X335767Y10458D01*
X335766Y10458D01*
X335766Y10458D01*
X335694Y10487D01*
X335643Y10508D01*
X335643Y10508D01*
X335643Y10508D01*
X335589Y10539D01*
X335528Y10574D01*
X335527Y10574D01*
X335527Y10574D01*
X335468Y10619D01*
X335421Y10654D01*
X335421Y10654D01*
X335421Y10655D01*
X335362Y10713D01*
X335327Y10748D01*
X335327Y10748D01*
X335326Y10748D01*
X335284Y10803D01*
X335245Y10853D01*
X335245Y10853D01*
X335245Y10854D01*
X335210Y10913D01*
X335178Y10968D01*
X335178Y10968D01*
X335177Y10969D01*
X335153Y11028D01*
X335126Y11091D01*
X335126Y11091D01*
X335126Y11091D01*
X335112Y11143D01*
X335091Y11219D01*
X335091Y11219D01*
X335091Y11220D01*
X335082Y11284D01*
X335073Y11351D01*
Y11351D01*
X335073Y11352D01*
X335008Y12264D01*
X334861Y12800D01*
X334705Y13043D01*
X334569Y13132D01*
X334302Y13173D01*
X333777Y13088D01*
X333006Y12793D01*
X332032Y12263D01*
X330880Y11494D01*
X329546Y10473D01*
X329524Y10459D01*
X329504Y10443D01*
X329469Y10422D01*
X329435Y10399D01*
X329412Y10388D01*
X329390Y10375D01*
X329352Y10359D01*
X329315Y10341D01*
X329291Y10333D01*
X329268Y10323D01*
X329228Y10311D01*
X329189Y10298D01*
X329164Y10293D01*
X329140Y10286D01*
X329099Y10280D01*
X329058Y10272D01*
X329033Y10271D01*
X329008Y10267D01*
X328966Y10266D01*
X328925Y10264D01*
X328900Y10266D01*
X328875Y10265D01*
X328834Y10270D01*
X328792Y10273D01*
X328768Y10278D01*
X328742Y10281D01*
X328702Y10291D01*
X328662Y10299D01*
X328638Y10307D01*
X328613Y10313D01*
X328574Y10329D01*
X328536Y10342D01*
X328513Y10353D01*
X328489Y10363D01*
X328453Y10383D01*
X328416Y10401D01*
X328395Y10415D01*
X328373Y10428D01*
X328340Y10453D01*
X328306Y10475D01*
X328287Y10492D01*
X328266Y10507D01*
X328237Y10536D01*
X328206Y10563D01*
X328189Y10582D01*
X328171Y10600D01*
X328145Y10633D01*
X328118Y10663D01*
X328104Y10684D01*
X328088Y10704D01*
X328067Y10740D01*
X328044Y10774D01*
X328033Y10797D01*
X328020Y10819D01*
X328004Y10857D01*
X327986Y10894D01*
X327978Y10918D01*
X327967Y10941D01*
X327956Y10981D01*
X327943Y11020D01*
X327938Y11045D01*
X327931Y11069D01*
X327925Y11110D01*
X327917Y11151D01*
X327916Y11176D01*
X327912Y11201D01*
X327911Y11243D01*
X327909Y11284D01*
X327910Y11309D01*
X327910Y11334D01*
X327915Y11375D01*
X327918Y11416D01*
X327923Y11441D01*
X327926Y11467D01*
X327936Y11507D01*
X327944Y11547D01*
X327952Y11571D01*
X327958Y11596D01*
X328216Y12391D01*
X330629Y19840D01*
X328076Y23723D01*
X328049Y23770D01*
X328020Y23819D01*
X328016Y23829D01*
X328010Y23839D01*
X327990Y23890D01*
X327967Y23941D01*
X327965Y23952D01*
X327960Y23962D01*
X327947Y24016D01*
X327931Y24069D01*
X327930Y24080D01*
X327927Y24091D01*
X327920Y24145D01*
X327912Y24201D01*
X327912Y24212D01*
X327910Y24223D01*
X327911Y24278D01*
X327910Y24334D01*
X327911Y24345D01*
X327911Y24356D01*
X327919Y24411D01*
X327926Y24467D01*
X327928Y24477D01*
X327930Y24488D01*
X327945Y24541D01*
X327958Y24596D01*
X335862Y49000D01*
X327958Y73404D01*
X327951Y73432D01*
X327943Y73458D01*
X327935Y73496D01*
X327926Y73533D01*
X327922Y73561D01*
X327917Y73589D01*
X327915Y73627D01*
X327910Y73666D01*
X327910Y73694D01*
X327909Y73721D01*
X327911Y73760D01*
X327912Y73799D01*
X327916Y73827D01*
X327918Y73854D01*
X327926Y73892D01*
X327931Y73931D01*
X327939Y73957D01*
X327944Y73985D01*
X327957Y74022D01*
X327967Y74059D01*
X327979Y74084D01*
X327988Y74111D01*
X328005Y74145D01*
X328020Y74181D01*
X328035Y74205D01*
X328047Y74230D01*
X328069Y74262D01*
X328088Y74296D01*
X328106Y74317D01*
X328121Y74341D01*
X328147Y74369D01*
X328171Y74400D01*
X328191Y74420D01*
X328209Y74440D01*
X328238Y74466D01*
X328266Y74493D01*
X328289Y74510D01*
X328310Y74528D01*
X328342Y74549D01*
X328373Y74572D01*
X328398Y74586D01*
X328421Y74601D01*
X328456Y74619D01*
X328489Y74637D01*
X328516Y74648D01*
X328541Y74660D01*
X328577Y74672D01*
X328613Y74687D01*
X328641Y74694D01*
X328667Y74702D01*
X328704Y74710D01*
X328742Y74719D01*
X328770Y74723D01*
X328797Y74728D01*
X328836Y74730D01*
X328875Y74735D01*
X328903Y74734D01*
X328931Y74736D01*
X328969Y74734D01*
D02*
G37*
D11*
X334968Y446445D02*
X332468Y446221D01*
X330045Y445568D01*
X327771Y444505D01*
X325715Y443065D01*
X323940Y441290D01*
X322499Y439235D01*
X321435Y436962D01*
X320781Y434538D01*
X320556Y432038D01*
X320555Y92000D02*
X320774Y89492D01*
X321426Y87059D01*
X322490Y84777D01*
X323935Y82715D01*
X325715Y80934D01*
X327777Y79490D01*
X330060Y78426D01*
X332492Y77775D01*
X335000Y77555D01*
X12000Y530555D02*
X9665Y530185D01*
X7559Y529112D01*
X5888Y527441D01*
X4815Y525335D01*
X4445Y523000D01*
X340554Y452520D02*
X340523Y451758D01*
X335010Y446445D02*
X337621Y447102D01*
X339617Y448909D01*
X340528Y451443D01*
X333000Y4445D02*
X335758Y4966D01*
X338135Y6458D01*
X339803Y8714D01*
X340533Y11424D01*
Y72491D02*
X339638Y75057D01*
X337634Y76891D01*
X335000Y77555D01*
X4445Y12000D02*
X4815Y9665D01*
X5888Y7559D01*
X7559Y5888D01*
X9665Y4815D01*
X12000Y4445D01*
X340533Y523583D02*
X339801Y526290D01*
X338132Y528545D01*
X335756Y530034D01*
X333000Y530555D01*
D12*
X12000Y4445D02*
X333000D01*
X320555Y92000D02*
Y431903D01*
X12000Y530555D02*
X333000D01*
X340533Y11424D02*
Y72491D01*
X340554Y452520D02*
Y523163D01*
X4445Y12000D02*
Y523000D01*
D14*
X324777Y476680D02*
D03*
D15*
X308902Y514777D02*
D03*
D17*
X324767Y36099D02*
D03*
D18*
X338328Y7114D02*
D03*
X340335Y15778D02*
D03*
Y31779D02*
D03*
Y47779D02*
D03*
X328845Y4644D02*
D03*
X312845D02*
D03*
X296845D02*
D03*
X333114Y530371D02*
D03*
X317114Y530356D02*
D03*
X301114D02*
D03*
X285114D02*
D03*
X269114D02*
D03*
X253114D02*
D03*
X237114D02*
D03*
X221114D02*
D03*
X205114D02*
D03*
X189114D02*
D03*
X173114D02*
D03*
X157114D02*
D03*
X141114D02*
D03*
X125114D02*
D03*
X109114D02*
D03*
X93114D02*
D03*
X77114D02*
D03*
X61114D02*
D03*
X45114D02*
D03*
X29114D02*
D03*
X13114D02*
D03*
X4644Y516782D02*
D03*
Y500782D02*
D03*
Y484782D02*
D03*
Y468782D02*
D03*
Y452782D02*
D03*
Y436782D02*
D03*
Y420782D02*
D03*
Y404782D02*
D03*
Y388782D02*
D03*
Y372782D02*
D03*
Y356782D02*
D03*
Y340782D02*
D03*
Y324782D02*
D03*
Y308782D02*
D03*
Y292782D02*
D03*
Y276782D02*
D03*
Y260782D02*
D03*
Y244782D02*
D03*
Y228782D02*
D03*
Y212782D02*
D03*
Y196782D02*
D03*
Y180782D02*
D03*
Y164782D02*
D03*
Y148782D02*
D03*
Y132782D02*
D03*
Y116782D02*
D03*
Y100782D02*
D03*
Y84782D02*
D03*
Y68782D02*
D03*
Y52782D02*
D03*
Y36782D02*
D03*
Y20782D02*
D03*
X8860Y5348D02*
D03*
X24845Y4644D02*
D03*
X40845D02*
D03*
X56845D02*
D03*
X72845D02*
D03*
X88845D02*
D03*
X104845D02*
D03*
X120845D02*
D03*
X136845D02*
D03*
X152845D02*
D03*
X168845D02*
D03*
X184845D02*
D03*
X200845D02*
D03*
X216845D02*
D03*
X232845D02*
D03*
X248845D02*
D03*
X264845D02*
D03*
X280845D02*
D03*
X340335Y63779D02*
D03*
X332650Y77812D02*
D03*
X321004Y88783D02*
D03*
X320356Y104770D02*
D03*
Y120770D02*
D03*
Y136770D02*
D03*
Y152770D02*
D03*
Y168770D02*
D03*
Y184770D02*
D03*
Y200770D02*
D03*
Y216770D02*
D03*
Y232770D02*
D03*
Y248770D02*
D03*
Y264770D02*
D03*
Y280770D02*
D03*
Y296770D02*
D03*
Y312770D02*
D03*
Y328770D02*
D03*
Y344770D02*
D03*
Y360770D02*
D03*
Y376770D02*
D03*
Y392770D02*
D03*
Y408770D02*
D03*
Y424770D02*
D03*
X323615Y440435D02*
D03*
X337961Y447520D02*
D03*
X340355Y463340D02*
D03*
Y511339D02*
D03*
D19*
X309000Y49000D02*
D03*
Y499000D02*
D03*
D20*
X325164Y482836D02*
D03*
X292836D02*
D03*
Y515164D02*
D03*
X325164D02*
D03*
X331860Y499000D02*
D03*
X309000Y476140D02*
D03*
X286140Y499000D02*
D03*
X309000Y521860D02*
D03*
X325164Y32836D02*
D03*
X292836D02*
D03*
Y65164D02*
D03*
X325164D02*
D03*
X331860Y49000D02*
D03*
X309000Y26140D02*
D03*
X286140Y49000D02*
D03*
X309000Y71860D02*
D03*
D48*
X256794Y371348D02*
D03*
Y358848D02*
D03*
Y383848D02*
D03*
Y396348D02*
D03*
Y346348D02*
D03*
Y333848D02*
D03*
Y321348D02*
D03*
Y308848D02*
D03*
D49*
X285794Y421848D02*
D03*
Y283348D02*
D03*
D50*
X269525Y177488D02*
D03*
Y170988D02*
D03*
Y164488D02*
D03*
Y157988D02*
D03*
Y151488D02*
D03*
Y144988D02*
D03*
Y138488D02*
D03*
Y131988D02*
D03*
Y125488D02*
D03*
Y118988D02*
D03*
Y112488D02*
D03*
Y105988D02*
D03*
X213137D02*
D03*
Y112488D02*
D03*
Y118988D02*
D03*
Y125488D02*
D03*
Y131988D02*
D03*
Y138488D02*
D03*
Y144988D02*
D03*
Y151488D02*
D03*
Y157988D02*
D03*
Y164488D02*
D03*
Y170988D02*
D03*
Y177488D02*
D03*
D51*
X229708Y308204D02*
D03*
X229708Y396954D02*
D03*
X204708Y406454D02*
D03*
X229708Y415954D02*
D03*
X229708Y361037D02*
D03*
X204708Y370537D02*
D03*
X229708Y380037D02*
D03*
Y325121D02*
D03*
X204708Y334621D02*
D03*
X229708Y344121D02*
D03*
Y289204D02*
D03*
X204708Y298704D02*
D03*
D52*
X251040Y218186D02*
D03*
X235040D02*
D03*
X205523Y197120D02*
D03*
X189523D02*
D03*
X251040Y197110D02*
D03*
X235040D02*
D03*
X296548D02*
D03*
X280548D02*
D03*
D53*
X238845Y244179D02*
D03*
X29150Y443540D02*
D03*
X296672Y244179D02*
D03*
X267377D02*
D03*
X210312D02*
D03*
X56388Y443540D02*
D03*
D54*
X29150Y291800D02*
D03*
X74950Y357100D02*
D03*
X29150Y401800D02*
D03*
Y71800D02*
D03*
X74950Y137100D02*
D03*
X29150Y181800D02*
D03*
X74950Y247100D02*
D03*
Y27100D02*
D03*
D55*
X61850Y71800D02*
D03*
X107650Y137100D02*
D03*
X61850Y401800D02*
D03*
Y181800D02*
D03*
X107650Y357100D02*
D03*
Y247100D02*
D03*
X61850Y291800D02*
D03*
X107650Y27100D02*
D03*
D56*
X295433Y175462D02*
D03*
Y159462D02*
D03*
Y123400D02*
D03*
Y107400D02*
D03*
X190023Y175452D02*
D03*
Y159452D02*
D03*
D57*
X323156Y62298D02*
D03*
D58*
X293125Y28131D02*
D03*
D59*
X146300Y29800D02*
D03*
X100500Y74500D02*
D03*
X146300Y139800D02*
D03*
X100500Y184500D02*
D03*
X146300Y249800D02*
D03*
X100500Y294500D02*
D03*
X146300Y359800D02*
D03*
X100500Y404500D02*
D03*
D60*
X156300Y39800D02*
D03*
X136300D02*
D03*
X110500Y84500D02*
D03*
X90500D02*
D03*
X156300Y149800D02*
D03*
X136300D02*
D03*
X110500Y194500D02*
D03*
X90500D02*
D03*
X156300Y259800D02*
D03*
X136300D02*
D03*
X110500Y304500D02*
D03*
X90500D02*
D03*
X156300Y369800D02*
D03*
X136300D02*
D03*
X110500Y414500D02*
D03*
X90500D02*
D03*
M02*
