G04*
G04 #@! TF.GenerationSoftware,Altium Limited,Altium Designer,24.1.2 (44)*
G04*
G04 Layer_Physical_Order=2*
G04 Layer_Color=16711680*
%FSLAX44Y44*%
%MOMM*%
G71*
G04*
G04 #@! TF.SameCoordinates,72F2B316-7FC6-4B7C-B3EC-A1DFD3802FF3*
G04*
G04*
G04 #@! TF.FilePolarity,Positive*
G04*
G01*
G75*
%ADD11C,0.8890*%
%ADD21C,0.5000*%
%ADD22C,0.3810*%
%ADD23C,0.6000*%
%ADD25R,3.1554X1.8640*%
%ADD26R,6.3304X3.1555*%
%ADD28R,3.1533X6.3308*%
%ADD29C,1.1000*%
%ADD30C,0.9000*%
%ADD31C,0.6000*%
%ADD32C,6.3500*%
%ADD33C,1.0000*%
%ADD34C,0.5000*%
%ADD35R,1.6000X0.8000*%
%ADD36R,3.0000X2.1000*%
%ADD37R,1.5000X0.4000*%
%ADD38R,0.9500X0.9000*%
%ADD39R,0.7000X0.8000*%
%ADD40C,1.5000*%
%ADD41R,0.9100X1.2200*%
%ADD42R,0.9100X1.2200*%
%ADD43R,0.8000X0.7000*%
%ADD44C,0.4000*%
%ADD45C,0.2794*%
%ADD46R,2.8312X3.6948*%
%ADD47R,3.1750X4.7371*%
G36*
X333000Y526110D02*
X332080Y526040D01*
X331378Y525829D01*
X330893Y525477D01*
X330626Y524985D01*
X330577Y524352D01*
X330746Y523578D01*
X331132Y522663D01*
X331680Y521705D01*
X332657Y521154D01*
X333573Y520778D01*
X334348Y520623D01*
X334982Y520689D01*
X335475Y520976D01*
X335827Y521484D01*
X336038Y522213D01*
X336109Y523163D01*
X344999Y521576D01*
X344945Y519199D01*
X344513Y513960D01*
X343650Y508077D01*
X341747Y499000D01*
X343650Y489923D01*
X344513Y484040D01*
X344945Y478801D01*
X344999Y476424D01*
X336109Y463422D01*
X329065Y474394D01*
X329712Y476424D01*
X336912Y499000D01*
X330161Y520171D01*
X309000Y526910D01*
X284403Y519076D01*
X273424Y526110D01*
X286437Y535000D01*
X294054Y534514D01*
X296914Y534137D01*
X309000Y531600D01*
X321086Y534137D01*
X323946Y534514D01*
X331562Y535000D01*
X333000Y526110D01*
D02*
G37*
G36*
X12000Y524208D02*
X273029D01*
X275435Y522666D01*
Y499000D01*
X275470Y498825D01*
Y496361D01*
X276296Y491148D01*
X277927Y486129D01*
X280323Y481426D01*
X283425Y477157D01*
X287157Y473425D01*
X291426Y470323D01*
X296129Y467926D01*
X301148Y466296D01*
X306361Y465470D01*
X311639D01*
X312113Y465545D01*
X332589D01*
X334207Y463025D01*
Y452692D01*
X330949Y452371D01*
X327053Y451189D01*
X323462Y449270D01*
X320314Y446687D01*
X317731Y443539D01*
X315812Y439948D01*
X314630Y436052D01*
X314236Y432055D01*
X314212Y432055D01*
X314209Y432038D01*
X314212Y432026D01*
X314208Y431903D01*
X314208Y430785D01*
Y92000D01*
X314251Y91782D01*
X314629Y87948D01*
X315811Y84052D01*
X316012Y83676D01*
X315359Y82587D01*
X309000D01*
X308714Y82530D01*
X306361D01*
X301148Y81704D01*
X296129Y80073D01*
X291426Y77677D01*
X287157Y74575D01*
X283425Y70843D01*
X280323Y66574D01*
X277927Y61871D01*
X276296Y56852D01*
X275619Y52579D01*
X275573Y52510D01*
X275435Y51816D01*
Y10792D01*
X12000D01*
X11847Y10761D01*
X11079Y11079D01*
X10761Y11847D01*
X10792Y12000D01*
Y523000D01*
X10761Y523153D01*
X11079Y523921D01*
X11847Y524239D01*
X12000Y524208D01*
D02*
G37*
G36*
X330288Y72667D02*
X332579Y71183D01*
X333510Y70751D01*
X334298Y70525D01*
X334943Y70505D01*
X335444Y70692D01*
X335802Y71086D01*
X336017Y71685D01*
X336088Y72491D01*
X344978Y71753D01*
X344925Y69378D01*
X344497Y64137D01*
X343642Y58244D01*
X341728Y49000D01*
X343642Y39756D01*
X344497Y33863D01*
X344925Y28622D01*
X344978Y26247D01*
X343935Y24738D01*
X344497Y20863D01*
X344925Y15622D01*
X344978Y13247D01*
X336088Y11424D01*
X336017Y12436D01*
X335802Y13220D01*
X335444Y13776D01*
X334943Y14104D01*
X334298Y14204D01*
X333510Y14076D01*
X332579Y13720D01*
X331505Y13135D01*
X330288Y12323D01*
X328927Y11282D01*
X331748Y19991D01*
X328927Y24282D01*
X336933Y49000D01*
X328927Y73718D01*
X330288Y72667D01*
D02*
G37*
%LPC*%
G36*
X57710Y453580D02*
X57658D01*
Y444810D01*
X66428D01*
Y444862D01*
X65744Y447415D01*
X64422Y449705D01*
X62553Y451574D01*
X60263Y452896D01*
X57710Y453580D01*
D02*
G37*
G36*
X55118D02*
X55066D01*
X52513Y452896D01*
X50223Y451574D01*
X48354Y449705D01*
X47032Y447415D01*
X46348Y444862D01*
Y444810D01*
X55118D01*
Y453580D01*
D02*
G37*
G36*
X66428Y442270D02*
X57658D01*
Y433500D01*
X57710D01*
X60263Y434184D01*
X62553Y435506D01*
X64422Y437375D01*
X65744Y439665D01*
X66428Y442218D01*
Y442270D01*
D02*
G37*
G36*
X55118D02*
X46348D01*
Y442218D01*
X47032Y439665D01*
X48354Y437375D01*
X50223Y435506D01*
X52513Y434184D01*
X55066Y433500D01*
X55118D01*
Y442270D01*
D02*
G37*
G36*
X303334Y434888D02*
X287064D01*
Y423118D01*
X303334D01*
Y434888D01*
D02*
G37*
G36*
X284524D02*
X268254D01*
Y423118D01*
X284524D01*
Y434888D01*
D02*
G37*
G36*
X303334Y420578D02*
X287064D01*
Y408808D01*
X303334D01*
Y420578D01*
D02*
G37*
G36*
X284524D02*
X268254D01*
Y408808D01*
X284524D01*
Y420578D01*
D02*
G37*
G36*
X29150Y469184D02*
X28728Y469100D01*
X28299D01*
X27901Y468936D01*
X27480Y468852D01*
X27123Y468613D01*
X26726Y468448D01*
X26422Y468144D01*
X26064Y467906D01*
X25826Y467548D01*
X25522Y467244D01*
X25357Y466847D01*
X25118Y466490D01*
X25034Y466068D01*
X24870Y465671D01*
Y465242D01*
X24786Y464820D01*
Y454616D01*
X24749Y454229D01*
X24646Y453613D01*
X24506Y453045D01*
X24330Y452523D01*
X24121Y452045D01*
X23879Y451606D01*
X23602Y451203D01*
X23290Y450830D01*
X22877Y450424D01*
X22873Y450418D01*
X22867Y450414D01*
X22801Y450314D01*
X21724Y449238D01*
X20502Y447122D01*
X19870Y444762D01*
Y442318D01*
X20502Y439958D01*
X21724Y437842D01*
X22801Y436766D01*
X22867Y436666D01*
X22873Y436662D01*
X22877Y436656D01*
X23290Y436250D01*
X23602Y435877D01*
X23879Y435473D01*
X24121Y435035D01*
X24330Y434557D01*
X24506Y434035D01*
X24646Y433467D01*
X24749Y432851D01*
X24786Y432464D01*
Y414500D01*
Y411580D01*
X24763Y411255D01*
X24679Y410634D01*
X24574Y410148D01*
X24462Y409809D01*
X24398Y409680D01*
X22820D01*
Y407892D01*
X22816Y407869D01*
X22820Y407847D01*
Y395753D01*
X22816Y395731D01*
X22820Y395708D01*
Y393920D01*
X24398D01*
X24462Y393791D01*
X24574Y393452D01*
X24673Y392995D01*
X24786Y391874D01*
Y356782D01*
Y304500D01*
Y301580D01*
X24763Y301255D01*
X24679Y300634D01*
X24574Y300148D01*
X24462Y299809D01*
X24398Y299680D01*
X22820D01*
Y297892D01*
X22816Y297869D01*
X22820Y297847D01*
Y285753D01*
X22816Y285730D01*
X22820Y285708D01*
Y283920D01*
X24398D01*
X24462Y283791D01*
X24574Y283452D01*
X24673Y282995D01*
X24786Y281874D01*
Y247100D01*
Y194221D01*
Y191580D01*
X24763Y191255D01*
X24679Y190634D01*
X24574Y190148D01*
X24462Y189809D01*
X24398Y189680D01*
X22820D01*
Y187892D01*
X22816Y187869D01*
X22820Y187847D01*
Y175753D01*
X22816Y175730D01*
X22820Y175708D01*
Y173920D01*
X24398D01*
X24462Y173791D01*
X24574Y173452D01*
X24673Y172995D01*
X24786Y171874D01*
Y137100D01*
Y84782D01*
Y81580D01*
X24763Y81255D01*
X24679Y80634D01*
X24574Y80148D01*
X24462Y79809D01*
X24398Y79680D01*
X22820D01*
Y77892D01*
X22816Y77870D01*
X22820Y77847D01*
Y65753D01*
X22816Y65731D01*
X22820Y65708D01*
Y63920D01*
X24398D01*
X24462Y63791D01*
X24574Y63452D01*
X24673Y62996D01*
X24786Y61874D01*
Y33588D01*
X25118Y31918D01*
X26064Y30502D01*
X32552Y24014D01*
X33968Y23068D01*
X35638Y22736D01*
X66572D01*
X67001Y22698D01*
X67594Y22599D01*
X68049Y22477D01*
X68358Y22350D01*
X68529Y22246D01*
X68589Y22190D01*
X68595Y22182D01*
X68598Y22173D01*
X68620Y21963D01*
Y19220D01*
X81280D01*
Y34980D01*
X82361Y35436D01*
X100239D01*
X101320Y34980D01*
Y19220D01*
X113980D01*
Y25946D01*
X140119D01*
X140475Y25330D01*
X141830Y23975D01*
X143490Y23016D01*
X145342Y22520D01*
X147258D01*
X149110Y23016D01*
X150770Y23975D01*
X152126Y25330D01*
X153084Y26990D01*
X153580Y28842D01*
Y30758D01*
X153084Y32610D01*
X152818Y33070D01*
X153702Y34079D01*
X155051Y33520D01*
X157549D01*
X159857Y34476D01*
X161624Y36243D01*
X162580Y38551D01*
Y41049D01*
X161624Y43357D01*
X159857Y45124D01*
X157549Y46080D01*
X155051D01*
X152743Y45124D01*
X150976Y43357D01*
X150020Y41049D01*
Y38551D01*
X150578Y37202D01*
X149570Y36318D01*
X149110Y36584D01*
X147258Y37080D01*
X145342D01*
X143490Y36584D01*
X143030Y36318D01*
X142022Y37202D01*
X142580Y38551D01*
Y41049D01*
X141624Y43357D01*
X139857Y45124D01*
X137549Y46080D01*
X135051D01*
X132743Y45124D01*
X132006Y44387D01*
X131919Y44339D01*
X131901Y44325D01*
X131890Y44320D01*
X131779Y44284D01*
X131599Y44242D01*
X131395Y44207D01*
X130836Y44164D01*
X77879D01*
X76209Y43832D01*
X74793Y42886D01*
X71864Y39957D01*
X70918Y38541D01*
X70586Y36871D01*
Y35616D01*
X70544Y35220D01*
X70502Y34980D01*
X68620D01*
Y32237D01*
X68598Y32027D01*
X68595Y32018D01*
X68589Y32009D01*
X68529Y31954D01*
X68358Y31850D01*
X68049Y31723D01*
X67594Y31601D01*
X67001Y31502D01*
X66572Y31464D01*
X37446D01*
X33514Y35396D01*
Y62020D01*
X33537Y62345D01*
X33621Y62966D01*
X33726Y63452D01*
X33838Y63791D01*
X33902Y63920D01*
X35480D01*
Y65708D01*
X35484Y65731D01*
X35480Y65753D01*
Y77847D01*
X35484Y77870D01*
X35480Y77892D01*
Y79680D01*
X36444Y80418D01*
X54556D01*
X55520Y79680D01*
Y63920D01*
X68180D01*
Y65951D01*
X68182Y65966D01*
X68215Y66059D01*
X68271Y66142D01*
X68402Y66264D01*
X68665Y66424D01*
X69089Y66596D01*
X69678Y66754D01*
X70427Y66878D01*
X70975Y66926D01*
X77896D01*
X79761Y67297D01*
X81342Y68354D01*
X82615Y69626D01*
X93934D01*
X94099Y69616D01*
X94462Y69570D01*
X94778Y69512D01*
X95026Y69451D01*
X95200Y69392D01*
X95296Y69349D01*
X95314Y69338D01*
X95396Y69268D01*
X95488Y69216D01*
X96030Y68675D01*
X97690Y67716D01*
X99542Y67220D01*
X101458D01*
X103310Y67716D01*
X104970Y68675D01*
X106325Y70030D01*
X107284Y71690D01*
X107780Y73542D01*
Y75458D01*
X107284Y77310D01*
X107018Y77770D01*
X107902Y78779D01*
X109251Y78220D01*
X111749D01*
X114057Y79176D01*
X115824Y80943D01*
X116780Y83251D01*
Y85749D01*
X115824Y88057D01*
X114057Y89824D01*
X111749Y90780D01*
X109251D01*
X106943Y89824D01*
X105176Y88057D01*
X104220Y85749D01*
Y83251D01*
X104778Y81903D01*
X103770Y81018D01*
X103310Y81284D01*
X101458Y81780D01*
X99542D01*
X97690Y81284D01*
X97230Y81018D01*
X96222Y81903D01*
X96780Y83251D01*
Y85749D01*
X95824Y88057D01*
X94057Y89824D01*
X91749Y90780D01*
X89251D01*
X86943Y89824D01*
X86435Y89316D01*
X86412Y89305D01*
X86397Y89294D01*
X86372Y89285D01*
X86248Y89250D01*
X86056Y89211D01*
X85834Y89178D01*
X85352Y89146D01*
X35865D01*
X35297Y89246D01*
X34822Y89404D01*
X34464Y89597D01*
X34190Y89822D01*
X33965Y90096D01*
X33772Y90455D01*
X33614Y90929D01*
X33514Y91497D01*
Y130385D01*
X33614Y130953D01*
X33772Y131427D01*
X33965Y131786D01*
X34190Y132060D01*
X34464Y132285D01*
X34822Y132478D01*
X35297Y132636D01*
X35865Y132736D01*
X66572D01*
X67001Y132698D01*
X67594Y132599D01*
X68049Y132477D01*
X68358Y132351D01*
X68529Y132246D01*
X68589Y132191D01*
X68595Y132182D01*
X68598Y132172D01*
X68620Y131963D01*
Y129220D01*
X81280D01*
Y144980D01*
X82361Y145436D01*
X100239D01*
X101320Y144980D01*
Y129220D01*
X113980D01*
Y131441D01*
X113982Y131460D01*
X114016Y131554D01*
X114073Y131639D01*
X114205Y131761D01*
X114469Y131922D01*
X114893Y132094D01*
X115482Y132252D01*
X116229Y132376D01*
X116777Y132424D01*
X129932D01*
X131797Y132795D01*
X133378Y133852D01*
X134155Y134628D01*
X139991D01*
X140524Y134579D01*
X140833Y134529D01*
X141092Y134472D01*
X141278Y134416D01*
X141384Y134373D01*
X141406Y134361D01*
X141486Y134300D01*
X141523Y134282D01*
X141830Y133975D01*
X143490Y133016D01*
X145342Y132520D01*
X147258D01*
X149110Y133016D01*
X150770Y133975D01*
X152126Y135330D01*
X153084Y136990D01*
X153580Y138842D01*
Y140758D01*
X153084Y142610D01*
X152818Y143070D01*
X153702Y144079D01*
X155051Y143520D01*
X157549D01*
X159857Y144476D01*
X161624Y146243D01*
X162580Y148551D01*
Y151049D01*
X161624Y153357D01*
X159857Y155124D01*
X157549Y156080D01*
X155051D01*
X152743Y155124D01*
X150976Y153357D01*
X150020Y151049D01*
Y148551D01*
X150578Y147203D01*
X149570Y146318D01*
X149110Y146584D01*
X147258Y147080D01*
X145342D01*
X143490Y146584D01*
X143030Y146318D01*
X142022Y147203D01*
X142580Y148551D01*
Y151049D01*
X141624Y153357D01*
X139857Y155124D01*
X137549Y156080D01*
X135051D01*
X132743Y155124D01*
X132006Y154388D01*
X131919Y154340D01*
X131901Y154325D01*
X131890Y154320D01*
X131779Y154284D01*
X131599Y154242D01*
X131395Y154207D01*
X130836Y154164D01*
X77879D01*
X76209Y153832D01*
X74793Y152886D01*
X71864Y149957D01*
X70918Y148541D01*
X70586Y146871D01*
Y145616D01*
X70544Y145220D01*
X70502Y144980D01*
X68620D01*
Y142237D01*
X68598Y142028D01*
X68595Y142018D01*
X68589Y142009D01*
X68529Y141954D01*
X68358Y141849D01*
X68049Y141723D01*
X67594Y141601D01*
X67001Y141502D01*
X66572Y141464D01*
X35865D01*
X35297Y141564D01*
X34822Y141722D01*
X34464Y141915D01*
X34190Y142140D01*
X33965Y142414D01*
X33772Y142773D01*
X33614Y143247D01*
X33514Y143815D01*
Y172020D01*
X33537Y172345D01*
X33621Y172966D01*
X33726Y173452D01*
X33838Y173791D01*
X33902Y173920D01*
X35480D01*
Y175708D01*
X35484Y175730D01*
X35480Y175753D01*
Y187847D01*
X35484Y187869D01*
X35480Y187892D01*
Y189680D01*
X36676Y189858D01*
X54324D01*
X55520Y189680D01*
Y173920D01*
X66352D01*
X66374Y173916D01*
X66396Y173920D01*
X68180D01*
Y175593D01*
X68211Y175885D01*
X68241Y175969D01*
X68293Y176046D01*
X68422Y176164D01*
X68683Y176321D01*
X69104Y176491D01*
X69690Y176647D01*
X70436Y176769D01*
X70973Y176816D01*
X81360D01*
X83225Y177187D01*
X84806Y178243D01*
X86189Y179626D01*
X93934D01*
X94099Y179616D01*
X94462Y179570D01*
X94778Y179512D01*
X95026Y179451D01*
X95200Y179392D01*
X95296Y179349D01*
X95314Y179338D01*
X95396Y179268D01*
X95488Y179216D01*
X96030Y178675D01*
X97690Y177716D01*
X99542Y177220D01*
X101458D01*
X103310Y177716D01*
X104970Y178675D01*
X106325Y180030D01*
X107284Y181690D01*
X107780Y183542D01*
Y185458D01*
X107284Y187310D01*
X107018Y187770D01*
X107902Y188778D01*
X109251Y188220D01*
X111749D01*
X114057Y189176D01*
X115824Y190943D01*
X116780Y193251D01*
Y195749D01*
X115824Y198057D01*
X114057Y199824D01*
X111749Y200780D01*
X109251D01*
X106943Y199824D01*
X105176Y198057D01*
X104220Y195749D01*
Y193251D01*
X104778Y191903D01*
X103770Y191018D01*
X103310Y191284D01*
X101458Y191780D01*
X99542D01*
X97690Y191284D01*
X97230Y191018D01*
X96222Y191903D01*
X96780Y193251D01*
Y195749D01*
X95824Y198057D01*
X94057Y199824D01*
X91749Y200780D01*
X89251D01*
X86943Y199824D01*
X85935Y198816D01*
X85848Y198761D01*
X85836Y198750D01*
X85744Y198717D01*
X85579Y198673D01*
X85392Y198637D01*
X84789Y198585D01*
X35865D01*
X35297Y198685D01*
X34822Y198844D01*
X34464Y199037D01*
X34190Y199261D01*
X33965Y199536D01*
X33772Y199894D01*
X33614Y200368D01*
X33514Y200936D01*
Y240385D01*
X33614Y240953D01*
X33772Y241427D01*
X33965Y241786D01*
X34190Y242060D01*
X34464Y242285D01*
X34822Y242478D01*
X35297Y242636D01*
X35865Y242736D01*
X66572D01*
X67001Y242698D01*
X67594Y242599D01*
X68049Y242477D01*
X68358Y242350D01*
X68529Y242246D01*
X68589Y242190D01*
X68595Y242182D01*
X68598Y242173D01*
X68620Y241963D01*
Y239220D01*
X81280D01*
Y254980D01*
X82361Y255436D01*
X100239D01*
X101320Y254980D01*
Y239220D01*
X113980D01*
Y241539D01*
X113982Y241558D01*
X114016Y241652D01*
X114073Y241737D01*
X114205Y241859D01*
X114469Y242020D01*
X114893Y242192D01*
X115482Y242350D01*
X116229Y242474D01*
X116777Y242522D01*
X127000D01*
X128865Y242893D01*
X130446Y243950D01*
X131423Y244926D01*
X139734D01*
X139899Y244916D01*
X140262Y244870D01*
X140578Y244812D01*
X140826Y244751D01*
X141000Y244692D01*
X141096Y244649D01*
X141114Y244638D01*
X141196Y244568D01*
X141288Y244517D01*
X141830Y243974D01*
X143490Y243016D01*
X145342Y242520D01*
X147258D01*
X147945Y242704D01*
X164802Y225848D01*
Y119888D01*
X165095Y118413D01*
X165931Y117163D01*
X173331Y109763D01*
X174581Y108927D01*
X176056Y108634D01*
X176056Y108634D01*
X203857D01*
Y102208D01*
X212764D01*
X213137Y102134D01*
X242097D01*
X242097Y102134D01*
X242097Y102134D01*
X289653D01*
Y102120D01*
X301213D01*
Y103184D01*
X307700D01*
X308122Y103268D01*
X308699D01*
X309233Y103489D01*
X309370Y103517D01*
X309486Y103594D01*
X310272Y103920D01*
X311476Y105124D01*
X312128Y106697D01*
Y108399D01*
X311476Y109973D01*
X310272Y111177D01*
X309486Y111502D01*
X309370Y111580D01*
X309233Y111607D01*
X308699Y111828D01*
X308122D01*
X307700Y111912D01*
X301213D01*
Y112680D01*
X289653D01*
Y109842D01*
X278805D01*
Y121708D01*
Y133025D01*
X279654Y134066D01*
X280075Y134150D01*
X280505D01*
X280903Y134314D01*
X281324Y134398D01*
X281681Y134637D01*
X282078Y134802D01*
X282382Y135106D01*
X282740Y135344D01*
X282798Y135402D01*
X283036Y135760D01*
X283282Y136006D01*
X283416Y136327D01*
X283744Y136818D01*
X283859Y137397D01*
X283934Y137579D01*
Y137775D01*
X284076Y138488D01*
X283934Y139201D01*
Y139281D01*
X283903Y139355D01*
X283744Y140158D01*
X283289Y140838D01*
X283282Y140854D01*
X283270Y140867D01*
X282798Y141574D01*
X282091Y142046D01*
X282078Y142058D01*
X282062Y142065D01*
X281382Y142520D01*
X280579Y142679D01*
X280505Y142710D01*
X280425D01*
X279712Y142852D01*
X278805Y143966D01*
Y147634D01*
X280568D01*
X281597Y147208D01*
X283299D01*
X284872Y147860D01*
X286076Y149064D01*
X286728Y150637D01*
Y152339D01*
X286076Y153912D01*
X284872Y155116D01*
X283299Y155768D01*
X281597D01*
X280835Y155452D01*
X279565Y155998D01*
Y156718D01*
X269525D01*
Y159258D01*
X279565D01*
Y160826D01*
X279921D01*
X281359Y161112D01*
X282578Y161926D01*
X284810Y164158D01*
X285624Y165377D01*
X285910Y166815D01*
Y195005D01*
X285828Y195419D01*
Y202890D01*
X275268D01*
Y191330D01*
X278396D01*
Y181268D01*
X269897D01*
X269525Y181342D01*
X242525D01*
X238894Y184972D01*
Y191330D01*
X240320D01*
Y202890D01*
X229932D01*
Y212406D01*
X240320D01*
Y223966D01*
X229760D01*
Y222040D01*
X229030D01*
X227555Y221747D01*
X226305Y220911D01*
X223353Y217959D01*
X222517Y216709D01*
X222224Y215234D01*
Y181268D01*
X216991D01*
Y194777D01*
X216697Y196252D01*
X215862Y197502D01*
X213519Y199845D01*
X212268Y200681D01*
X210803Y200972D01*
Y202900D01*
X200243D01*
Y191340D01*
X209283D01*
Y181268D01*
X203857D01*
Y176887D01*
X202683Y176401D01*
X200907Y178177D01*
X199657Y179013D01*
X198182Y179306D01*
X195803D01*
Y180732D01*
X185400D01*
Y191340D01*
X194803D01*
Y198852D01*
X194875Y199215D01*
X194803Y199578D01*
Y202900D01*
X193280D01*
Y221834D01*
X206926Y235479D01*
X209090Y234899D01*
X211534D01*
X213894Y235532D01*
X216010Y236753D01*
X217738Y238481D01*
X218960Y240597D01*
X219592Y242957D01*
Y245401D01*
X218960Y247761D01*
X217738Y249877D01*
X216610Y251005D01*
X217136Y252275D01*
X232020D01*
X232546Y251005D01*
X231419Y249877D01*
X230197Y247761D01*
X229565Y245401D01*
Y242957D01*
X230197Y240597D01*
X231419Y238481D01*
X233147Y236753D01*
X235263Y235532D01*
X237623Y234899D01*
X240066D01*
X241555Y235298D01*
X246676Y230176D01*
Y223966D01*
X245760D01*
Y212406D01*
X256320D01*
Y223966D01*
X255404D01*
Y231984D01*
X255072Y233654D01*
X254126Y235069D01*
X247726Y241469D01*
X248125Y242957D01*
Y245401D01*
X247492Y247761D01*
X246271Y249877D01*
X245143Y251005D01*
X245669Y252275D01*
X253968D01*
X258677Y247566D01*
X258097Y245401D01*
Y242957D01*
X258730Y240597D01*
X259951Y238481D01*
X261679Y236753D01*
X263620Y235633D01*
Y205434D01*
X259054Y200867D01*
X256320D01*
Y202890D01*
X245760D01*
Y191330D01*
X256320D01*
Y193353D01*
X260610D01*
X262048Y193639D01*
X263267Y194453D01*
X270034Y201220D01*
X270849Y202439D01*
X271134Y203877D01*
Y235633D01*
X273075Y236753D01*
X274803Y238481D01*
X276025Y240597D01*
X276657Y242957D01*
Y245401D01*
X276025Y247761D01*
X274803Y249877D01*
X273075Y251605D01*
X270959Y252827D01*
X268599Y253459D01*
X266155D01*
X263991Y252879D01*
X258499Y258371D01*
X258943Y259625D01*
X258956Y259641D01*
X288512D01*
X292915Y255238D01*
Y252726D01*
X290974Y251605D01*
X289246Y249877D01*
X288024Y247761D01*
X287392Y245401D01*
Y242957D01*
X288024Y240597D01*
X289246Y238481D01*
X290974Y236753D01*
X292915Y235633D01*
Y202890D01*
X291268D01*
Y191330D01*
X301828D01*
Y202890D01*
X300429D01*
Y235633D01*
X302370Y236753D01*
X304098Y238481D01*
X305319Y240597D01*
X305952Y242957D01*
Y245401D01*
X305319Y247761D01*
X304098Y249877D01*
X302370Y251605D01*
X300429Y252726D01*
Y256794D01*
X300143Y258232D01*
X299329Y259451D01*
X292725Y266055D01*
X291506Y266869D01*
X290068Y267155D01*
X231819D01*
X231567Y268425D01*
X232132Y268660D01*
X233336Y269864D01*
X233988Y271437D01*
Y273139D01*
X233592Y274096D01*
X233590Y274265D01*
X233623Y274430D01*
X233586Y274615D01*
X233584Y274804D01*
X233518Y274959D01*
X233505Y275024D01*
X233465Y275606D01*
Y281784D01*
X233491Y282080D01*
X233561Y282500D01*
X233642Y282805D01*
X233690Y282924D01*
X236238D01*
Y295484D01*
X233465D01*
Y301924D01*
X236238D01*
Y305091D01*
X247014D01*
Y303068D01*
X266574D01*
Y314298D01*
X266574Y314628D01*
Y315568D01*
X266574Y315898D01*
Y326798D01*
X266574Y327128D01*
Y328068D01*
X266574Y328398D01*
Y339628D01*
X266574Y339628D01*
Y340568D01*
X266574D01*
X266574Y340898D01*
Y352128D01*
X266574D01*
Y353068D01*
X266574D01*
Y364298D01*
X266574Y364628D01*
Y365568D01*
X266574Y365898D01*
Y366749D01*
X266918Y366832D01*
X267422Y366911D01*
X268414Y366984D01*
X281686D01*
X282108Y367068D01*
X282537D01*
X282934Y367233D01*
X283356Y367316D01*
X283713Y367555D01*
X284110Y367720D01*
X284414Y368024D01*
X284772Y368262D01*
X285010Y368620D01*
X285314Y368924D01*
X285479Y369321D01*
X285718Y369678D01*
X285802Y370099D01*
X285966Y370497D01*
Y370927D01*
X286050Y371348D01*
X285966Y371769D01*
Y372199D01*
X285802Y372597D01*
X285718Y373018D01*
X285479Y373375D01*
X285314Y373772D01*
X285010Y374076D01*
X284772Y374434D01*
X284414Y374672D01*
X284110Y374976D01*
X283713Y375141D01*
X283356Y375380D01*
X282934Y375463D01*
X282537Y375628D01*
X282108D01*
X281686Y375712D01*
X268293D01*
X268082Y375719D01*
X267721Y375754D01*
X267331Y376343D01*
X267176Y377109D01*
X267334Y377308D01*
X267334Y378083D01*
Y382578D01*
X256794D01*
X246254D01*
Y378083D01*
X246254Y377308D01*
X247014Y376353D01*
Y376038D01*
Y365898D01*
X247014Y365568D01*
Y364628D01*
X246050Y363559D01*
X236238D01*
Y367317D01*
X233562D01*
Y373757D01*
X236238D01*
Y386317D01*
X223178D01*
Y373757D01*
X225854D01*
Y367317D01*
X223178D01*
Y362702D01*
X212939D01*
X211998Y363497D01*
X211998Y363972D01*
Y369267D01*
X204708D01*
X197418D01*
Y363666D01*
X197418Y363497D01*
X197367Y362248D01*
X196357Y361573D01*
X178820Y344037D01*
X177985Y342786D01*
X177691Y341312D01*
Y163295D01*
X177985Y161820D01*
X178820Y160570D01*
X181164Y158227D01*
X182414Y157391D01*
X183889Y157098D01*
X184243D01*
Y154172D01*
X186546D01*
X187072Y152902D01*
X186394Y152224D01*
X185743Y150651D01*
Y148949D01*
X186394Y147376D01*
X187598Y146172D01*
X189171Y145520D01*
X190874D01*
X191902Y145946D01*
X197448D01*
X198923Y146239D01*
X200173Y147075D01*
X200732Y147634D01*
X203857D01*
Y142342D01*
X191902D01*
X190874Y142768D01*
X189171D01*
X187598Y142116D01*
X186394Y140912D01*
X185743Y139339D01*
Y137637D01*
X186394Y136064D01*
X187598Y134860D01*
X189171Y134208D01*
X190874D01*
X191902Y134634D01*
X203857D01*
Y129342D01*
X191902D01*
X190874Y129768D01*
X189171D01*
X187598Y129116D01*
X186394Y127912D01*
X185743Y126339D01*
Y124637D01*
X186394Y123064D01*
X187598Y121860D01*
X189171Y121208D01*
X190874D01*
X191902Y121634D01*
X203857D01*
Y116342D01*
X177652D01*
X172510Y121484D01*
Y227444D01*
X172217Y228919D01*
X171381Y230169D01*
X153396Y248155D01*
X153580Y248842D01*
Y250758D01*
X153084Y252610D01*
X152818Y253070D01*
X153702Y254079D01*
X155051Y253520D01*
X157549D01*
X159857Y254476D01*
X161624Y256243D01*
X162580Y258551D01*
Y261049D01*
X161624Y263357D01*
X159857Y265124D01*
X157549Y266080D01*
X155051D01*
X152743Y265124D01*
X150976Y263357D01*
X150020Y261049D01*
Y258551D01*
X150578Y257202D01*
X149570Y256318D01*
X149110Y256584D01*
X147258Y257080D01*
X145342D01*
X143490Y256584D01*
X143030Y256318D01*
X142022Y257202D01*
X142580Y258551D01*
Y261049D01*
X141624Y263357D01*
X139857Y265124D01*
X137549Y266080D01*
X135051D01*
X132743Y265124D01*
X132006Y264387D01*
X131919Y264340D01*
X131901Y264325D01*
X131890Y264320D01*
X131779Y264284D01*
X131599Y264242D01*
X131395Y264207D01*
X130836Y264164D01*
X77879D01*
X76209Y263832D01*
X74793Y262886D01*
X71864Y259957D01*
X70918Y258541D01*
X70586Y256871D01*
Y255616D01*
X70544Y255220D01*
X70502Y254980D01*
X68620D01*
Y252237D01*
X68598Y252027D01*
X68595Y252018D01*
X68589Y252010D01*
X68529Y251954D01*
X68358Y251849D01*
X68049Y251723D01*
X67594Y251601D01*
X67001Y251502D01*
X66572Y251464D01*
X35865D01*
X35297Y251564D01*
X34822Y251722D01*
X34464Y251915D01*
X34190Y252140D01*
X33965Y252414D01*
X33772Y252772D01*
X33614Y253247D01*
X33514Y253815D01*
Y282020D01*
X33537Y282345D01*
X33621Y282966D01*
X33726Y283452D01*
X33838Y283791D01*
X33902Y283920D01*
X35480D01*
Y285708D01*
X35484Y285730D01*
X35480Y285753D01*
Y297847D01*
X35484Y297869D01*
X35480Y297892D01*
Y299680D01*
X36561Y300136D01*
X54439D01*
X55520Y299680D01*
Y283920D01*
X68180D01*
Y286243D01*
X68182Y286262D01*
X68216Y286356D01*
X68273Y286441D01*
X68405Y286563D01*
X68669Y286724D01*
X69093Y286896D01*
X69682Y287054D01*
X70429Y287178D01*
X70977Y287226D01*
X80772D01*
X82637Y287597D01*
X84218Y288654D01*
X85191Y289626D01*
X93934D01*
X94099Y289616D01*
X94462Y289570D01*
X94778Y289512D01*
X95026Y289451D01*
X95200Y289392D01*
X95296Y289349D01*
X95314Y289338D01*
X95396Y289268D01*
X95488Y289216D01*
X96030Y288675D01*
X97690Y287716D01*
X99542Y287220D01*
X101458D01*
X103310Y287716D01*
X104970Y288675D01*
X106325Y290030D01*
X107284Y291690D01*
X107780Y293542D01*
Y295458D01*
X107284Y297310D01*
X107018Y297770D01*
X107902Y298778D01*
X109251Y298220D01*
X111749D01*
X114057Y299176D01*
X115824Y300943D01*
X116780Y303251D01*
Y305749D01*
X115824Y308057D01*
X114057Y309824D01*
X111749Y310780D01*
X109251D01*
X106943Y309824D01*
X105176Y308057D01*
X104220Y305749D01*
Y303251D01*
X104778Y301903D01*
X103770Y301018D01*
X103310Y301284D01*
X101458Y301780D01*
X99542D01*
X97690Y301284D01*
X97230Y301018D01*
X96222Y301903D01*
X96780Y303251D01*
Y305749D01*
X95824Y308057D01*
X94057Y309824D01*
X91749Y310780D01*
X89251D01*
X86943Y309824D01*
X86206Y309088D01*
X86119Y309039D01*
X86101Y309025D01*
X86090Y309020D01*
X85979Y308984D01*
X85799Y308942D01*
X85595Y308907D01*
X85036Y308864D01*
X35865D01*
X35297Y308964D01*
X34822Y309122D01*
X34464Y309315D01*
X34190Y309540D01*
X33965Y309814D01*
X33772Y310173D01*
X33614Y310647D01*
X33514Y311215D01*
Y350067D01*
X33614Y350635D01*
X33772Y351110D01*
X33965Y351468D01*
X34190Y351743D01*
X34464Y351967D01*
X34822Y352160D01*
X35297Y352318D01*
X35865Y352418D01*
X66572D01*
X67001Y352380D01*
X67594Y352282D01*
X68049Y352159D01*
X68358Y352033D01*
X68529Y351928D01*
X68589Y351873D01*
X68595Y351864D01*
X68598Y351855D01*
X68620Y351645D01*
Y349220D01*
X81280D01*
Y364980D01*
X82361Y365436D01*
X100239D01*
X101320Y364980D01*
Y349220D01*
X113980D01*
Y351275D01*
X113982Y351290D01*
X114015Y351383D01*
X114071Y351466D01*
X114202Y351588D01*
X114465Y351748D01*
X114889Y351920D01*
X115478Y352078D01*
X116227Y352202D01*
X116775Y352250D01*
X126238D01*
X128103Y352621D01*
X129684Y353678D01*
X130933Y354926D01*
X139734D01*
X139899Y354916D01*
X140262Y354870D01*
X140578Y354812D01*
X140826Y354751D01*
X141000Y354692D01*
X141096Y354649D01*
X141114Y354637D01*
X141196Y354568D01*
X141288Y354516D01*
X141830Y353975D01*
X143490Y353016D01*
X145342Y352520D01*
X147258D01*
X149110Y353016D01*
X150770Y353975D01*
X152126Y355330D01*
X153084Y356990D01*
X153580Y358842D01*
Y360758D01*
X153084Y362610D01*
X152818Y363070D01*
X153702Y364078D01*
X155051Y363520D01*
X157549D01*
X159857Y364476D01*
X161624Y366243D01*
X162580Y368551D01*
Y371049D01*
X161624Y373357D01*
X159857Y375124D01*
X157549Y376080D01*
X155051D01*
X152743Y375124D01*
X150976Y373357D01*
X150020Y371049D01*
Y368551D01*
X150578Y367202D01*
X149570Y366318D01*
X149110Y366584D01*
X147258Y367080D01*
X145342D01*
X143490Y366584D01*
X143030Y366318D01*
X142022Y367202D01*
X142580Y368551D01*
Y371049D01*
X141624Y373357D01*
X139857Y375124D01*
X137549Y376080D01*
X135051D01*
X132743Y375124D01*
X132006Y374388D01*
X131919Y374339D01*
X131901Y374325D01*
X131890Y374320D01*
X131779Y374284D01*
X131599Y374242D01*
X131395Y374207D01*
X130836Y374164D01*
X77879D01*
X76209Y373832D01*
X74793Y372886D01*
X71864Y369957D01*
X70918Y368541D01*
X70586Y366871D01*
Y365616D01*
X70544Y365220D01*
X70502Y364980D01*
X68620D01*
Y361919D01*
X68598Y361710D01*
X68595Y361700D01*
X68589Y361692D01*
X68529Y361636D01*
X68358Y361532D01*
X68049Y361405D01*
X67594Y361283D01*
X67001Y361184D01*
X66572Y361146D01*
X35865D01*
X35297Y361246D01*
X34822Y361404D01*
X34464Y361597D01*
X34190Y361822D01*
X33965Y362096D01*
X33772Y362455D01*
X33614Y362929D01*
X33514Y363497D01*
Y392020D01*
X33537Y392345D01*
X33621Y392966D01*
X33726Y393452D01*
X33838Y393791D01*
X33902Y393920D01*
X35480D01*
Y395708D01*
X35484Y395731D01*
X35480Y395753D01*
Y407847D01*
X35484Y407869D01*
X35480Y407892D01*
Y409680D01*
X36561Y410136D01*
X54439D01*
X55520Y409680D01*
Y393920D01*
X68180D01*
Y395951D01*
X68182Y395966D01*
X68215Y396059D01*
X68271Y396142D01*
X68402Y396264D01*
X68665Y396424D01*
X69089Y396596D01*
X69678Y396754D01*
X70427Y396878D01*
X70975Y396926D01*
X81252D01*
X83117Y397297D01*
X84698Y398354D01*
X85971Y399626D01*
X93934D01*
X94099Y399616D01*
X94462Y399570D01*
X94778Y399512D01*
X95026Y399451D01*
X95200Y399392D01*
X95296Y399349D01*
X95314Y399338D01*
X95396Y399268D01*
X95488Y399216D01*
X96030Y398675D01*
X97690Y397716D01*
X99542Y397220D01*
X101458D01*
X103310Y397716D01*
X104970Y398675D01*
X106325Y400030D01*
X107284Y401690D01*
X107780Y403542D01*
Y405458D01*
X107284Y407310D01*
X107018Y407770D01*
X107902Y408778D01*
X109251Y408220D01*
X111749D01*
X114057Y409176D01*
X115824Y410943D01*
X116780Y413251D01*
Y415749D01*
X115824Y418057D01*
X114057Y419824D01*
X111749Y420780D01*
X109251D01*
X106943Y419824D01*
X105176Y418057D01*
X104220Y415749D01*
Y413251D01*
X104778Y411903D01*
X103770Y411018D01*
X103310Y411284D01*
X101458Y411780D01*
X99542D01*
X97690Y411284D01*
X97230Y411018D01*
X96222Y411903D01*
X96780Y413251D01*
Y415749D01*
X95824Y418057D01*
X94057Y419824D01*
X91749Y420780D01*
X89251D01*
X86943Y419824D01*
X86206Y419087D01*
X86119Y419039D01*
X86101Y419025D01*
X86090Y419020D01*
X85979Y418984D01*
X85799Y418942D01*
X85595Y418907D01*
X85036Y418864D01*
X35865D01*
X35297Y418964D01*
X34822Y419122D01*
X34464Y419315D01*
X34190Y419540D01*
X33965Y419814D01*
X33772Y420173D01*
X33614Y420647D01*
X33514Y421215D01*
Y432464D01*
X33551Y432851D01*
X33654Y433467D01*
X33794Y434035D01*
X33970Y434557D01*
X34179Y435035D01*
X34421Y435474D01*
X34698Y435877D01*
X35010Y436250D01*
X35423Y436656D01*
X35427Y436662D01*
X35433Y436666D01*
X35499Y436766D01*
X36576Y437842D01*
X37798Y439958D01*
X38430Y442318D01*
Y444762D01*
X37798Y447122D01*
X36576Y449238D01*
X35499Y450314D01*
X35433Y450414D01*
X35427Y450418D01*
X35423Y450424D01*
X35010Y450830D01*
X34698Y451203D01*
X34421Y451607D01*
X34179Y452045D01*
X33970Y452523D01*
X33794Y453045D01*
X33654Y453613D01*
X33551Y454229D01*
X33514Y454616D01*
Y464820D01*
X33430Y465242D01*
Y465671D01*
X33266Y466068D01*
X33182Y466490D01*
X32943Y466847D01*
X32778Y467244D01*
X32474Y467548D01*
X32236Y467906D01*
X31878Y468144D01*
X31574Y468448D01*
X31177Y468613D01*
X30820Y468852D01*
X30398Y468936D01*
X30001Y469100D01*
X29571D01*
X29150Y469184D01*
D02*
G37*
G36*
X211998Y413494D02*
X205978D01*
Y407724D01*
X211998D01*
Y413494D01*
D02*
G37*
G36*
X203438D02*
X197418D01*
Y407724D01*
X203438D01*
Y413494D01*
D02*
G37*
G36*
X211998Y405184D02*
X205978D01*
Y399414D01*
X211998D01*
Y405184D01*
D02*
G37*
G36*
X203438D02*
X197418D01*
Y399414D01*
X203438D01*
Y405184D01*
D02*
G37*
G36*
X229708Y446362D02*
X229286Y446278D01*
X228857D01*
X228459Y446114D01*
X228038Y446030D01*
X227681Y445791D01*
X227283Y445627D01*
X226980Y445323D01*
X226622Y445084D01*
X226384Y444727D01*
X226080Y444423D01*
X225915Y444026D01*
X225676Y443669D01*
X225592Y443247D01*
X225428Y442850D01*
Y442420D01*
X225344Y441998D01*
Y424203D01*
X225315Y423827D01*
X225225Y423218D01*
X225112Y422746D01*
X224993Y422420D01*
X224897Y422243D01*
X224895Y422240D01*
X224844Y422234D01*
X223178D01*
Y420446D01*
X223174Y420423D01*
X223178Y420401D01*
Y411507D01*
X223174Y411484D01*
X223178Y411462D01*
Y409674D01*
X224844D01*
X224895Y409668D01*
X224897Y409665D01*
X224993Y409488D01*
X225112Y409162D01*
X225225Y408690D01*
X225315Y408081D01*
X225344Y407705D01*
Y405203D01*
X225315Y404827D01*
X225225Y404218D01*
X225112Y403746D01*
X224993Y403420D01*
X224897Y403243D01*
X224895Y403240D01*
X224844Y403234D01*
X223178D01*
Y401446D01*
X223174Y401423D01*
X223178Y401401D01*
Y390674D01*
X234405D01*
X234428Y390670D01*
X234450Y390674D01*
X236238D01*
Y392003D01*
X236261Y392012D01*
X236628Y392112D01*
X237114Y392200D01*
X238165Y392287D01*
X245217D01*
X245462Y392272D01*
X246097Y392197D01*
X246124Y392192D01*
X246579Y391140D01*
X246571Y390787D01*
X246254Y390388D01*
X246254Y389613D01*
Y385118D01*
X256794D01*
X267334D01*
Y389613D01*
X267334Y390388D01*
X266574Y391343D01*
Y402128D01*
X248847D01*
X248825Y402132D01*
X248802Y402128D01*
X247014D01*
Y401183D01*
X246783Y401139D01*
X245184Y401015D01*
X238223D01*
X237836Y401046D01*
X237230Y401138D01*
X236761Y401252D01*
X236439Y401372D01*
X236263Y401470D01*
X236248Y401483D01*
X236238Y401566D01*
Y403234D01*
X234572D01*
X234521Y403240D01*
X234519Y403243D01*
X234423Y403420D01*
X234304Y403746D01*
X234191Y404218D01*
X234101Y404827D01*
X234072Y405203D01*
Y407705D01*
X234101Y408081D01*
X234191Y408690D01*
X234304Y409162D01*
X234422Y409488D01*
X234519Y409665D01*
X234521Y409668D01*
X234572Y409674D01*
X236238D01*
Y411462D01*
X236242Y411484D01*
X236238Y411507D01*
Y420401D01*
X236242Y420423D01*
X236238Y420446D01*
Y422234D01*
X234572D01*
X234521Y422240D01*
X234519Y422243D01*
X234423Y422420D01*
X234304Y422746D01*
X234191Y423218D01*
X234101Y423827D01*
X234072Y424203D01*
Y441998D01*
X233988Y442420D01*
Y442850D01*
X233824Y443247D01*
X233740Y443669D01*
X233501Y444026D01*
X233336Y444423D01*
X233032Y444727D01*
X232794Y445084D01*
X232436Y445323D01*
X232132Y445627D01*
X231735Y445791D01*
X231378Y446030D01*
X230956Y446114D01*
X230559Y446278D01*
X230130D01*
X229708Y446362D01*
D02*
G37*
G36*
X211998Y377577D02*
X205978D01*
Y371807D01*
X211998D01*
Y377577D01*
D02*
G37*
G36*
X203438D02*
X197418D01*
Y371807D01*
X203438D01*
Y377577D01*
D02*
G37*
G36*
X303334Y296388D02*
X287064D01*
Y284618D01*
X303334D01*
Y296388D01*
D02*
G37*
G36*
X284524D02*
X268254D01*
Y284618D01*
X284524D01*
Y296388D01*
D02*
G37*
G36*
X303334Y282078D02*
X287064D01*
Y270308D01*
X303334D01*
Y282078D01*
D02*
G37*
G36*
X284524D02*
X268254D01*
Y270308D01*
X284524D01*
Y282078D01*
D02*
G37*
G36*
X301973Y181502D02*
X296703D01*
Y176732D01*
X301973D01*
Y181502D01*
D02*
G37*
G36*
X294163D02*
X288893D01*
Y176732D01*
X294163D01*
Y181502D01*
D02*
G37*
G36*
X301973Y174192D02*
X296703D01*
Y169422D01*
X301973D01*
Y174192D01*
D02*
G37*
G36*
X294163D02*
X288893D01*
Y169422D01*
X294163D01*
Y174192D01*
D02*
G37*
G36*
X301213Y164742D02*
X289653D01*
Y154182D01*
X291579D01*
Y128680D01*
X289653D01*
Y118120D01*
X301213D01*
Y128680D01*
X299287D01*
Y154182D01*
X301213D01*
Y164742D01*
D02*
G37*
%LPD*%
G36*
X31675Y454782D02*
X31750Y453993D01*
X31875Y453245D01*
X32050Y452537D01*
X32275Y451868D01*
X32550Y451240D01*
X32875Y450653D01*
X33250Y450105D01*
X33675Y449598D01*
X34150Y449130D01*
X24150D01*
X24625Y449598D01*
X25050Y450105D01*
X25425Y450653D01*
X25750Y451240D01*
X26025Y451868D01*
X26250Y452537D01*
X26425Y453245D01*
X26550Y453993D01*
X26625Y454782D01*
X26650Y455611D01*
X31650D01*
X31675Y454782D01*
D02*
G37*
G36*
X33675Y437482D02*
X33250Y436975D01*
X32875Y436427D01*
X32550Y435840D01*
X32275Y435212D01*
X32050Y434543D01*
X31875Y433835D01*
X31750Y433087D01*
X31675Y432298D01*
X31650Y431469D01*
X26650D01*
X26625Y432298D01*
X26550Y433087D01*
X26425Y433835D01*
X26250Y434543D01*
X26025Y435212D01*
X25750Y435840D01*
X25425Y436427D01*
X25050Y436975D01*
X24625Y437482D01*
X24150Y437950D01*
X34150D01*
X33675Y437482D01*
D02*
G37*
G36*
X87286Y411350D02*
X87139Y411474D01*
X86953Y411584D01*
X86728Y411682D01*
X86464Y411766D01*
X86161Y411838D01*
X85818Y411896D01*
X85016Y411974D01*
X84557Y411993D01*
X84058Y412000D01*
Y417000D01*
X84557Y417006D01*
X85818Y417104D01*
X86161Y417163D01*
X86464Y417234D01*
X86728Y417318D01*
X86953Y417416D01*
X87139Y417527D01*
X87286Y417650D01*
Y411350D01*
D02*
G37*
G36*
X31700Y421050D02*
X31850Y420200D01*
X32100Y419450D01*
X32450Y418800D01*
X32900Y418250D01*
X33450Y417800D01*
X34100Y417450D01*
X34850Y417200D01*
X35700Y417050D01*
X36650Y417000D01*
Y412000D01*
X35700Y411950D01*
X34850Y411800D01*
X34100Y411550D01*
X33450Y411200D01*
X32900Y410750D01*
X32450Y410200D01*
X32100Y409550D01*
X32056Y409418D01*
X32155Y409119D01*
X32377Y408670D01*
X32640Y408320D01*
X32943Y408069D01*
X33286Y407920D01*
X33670Y407869D01*
X31696D01*
X31650Y407000D01*
X31070Y407869D01*
X24630D01*
X25014Y407920D01*
X25357Y408069D01*
X25661Y408320D01*
X25923Y408670D01*
X26145Y409119D01*
X26327Y409669D01*
X26468Y410320D01*
X26569Y411069D01*
X26630Y411920D01*
X26650Y412869D01*
X27737D01*
X26650Y414500D01*
X31650Y422000D01*
X31700Y421050D01*
D02*
G37*
G36*
X65538Y403512D02*
X65435Y403396D01*
X65339Y403260D01*
X65250Y403103D01*
X65169Y402928D01*
X65094Y402732D01*
X65027Y402517D01*
X64967Y402282D01*
X64869Y401753D01*
X64830Y401458D01*
X61508Y404781D01*
X61803Y404819D01*
X62332Y404917D01*
X62567Y404977D01*
X62782Y405045D01*
X62978Y405119D01*
X63154Y405200D01*
X63309Y405289D01*
X63446Y405385D01*
X63562Y405488D01*
X65538Y403512D01*
D02*
G37*
G36*
X96572Y400650D02*
X96382Y400812D01*
X96146Y400956D01*
X95864Y401083D01*
X95535Y401194D01*
X95160Y401287D01*
X94739Y401364D01*
X94271Y401423D01*
X93197Y401492D01*
X92590Y401500D01*
Y407500D01*
X93197Y407509D01*
X94739Y407636D01*
X95160Y407713D01*
X95535Y407806D01*
X95864Y407916D01*
X96146Y408044D01*
X96382Y408189D01*
X96572Y408350D01*
Y400650D01*
D02*
G37*
G36*
X66399Y407230D02*
X66580Y406720D01*
X66882Y406270D01*
X67304Y405880D01*
X67847Y405550D01*
X68510Y405280D01*
X69294Y405070D01*
X70199Y404920D01*
X71224Y404830D01*
X72369Y404800D01*
Y398800D01*
X71224Y398770D01*
X70199Y398680D01*
X69294Y398530D01*
X68510Y398320D01*
X67847Y398050D01*
X67304Y397720D01*
X66882Y397330D01*
X66580Y396880D01*
X66399Y396370D01*
X66339Y395800D01*
Y407800D01*
X66399Y407230D01*
D02*
G37*
G36*
X33286Y395681D02*
X32943Y395531D01*
X32640Y395280D01*
X32377Y394930D01*
X32155Y394481D01*
X31973Y393931D01*
X31832Y393280D01*
X31731Y392531D01*
X31670Y391680D01*
X31650Y390731D01*
X26650D01*
X26630Y391680D01*
X26468Y393280D01*
X26327Y393931D01*
X26145Y394481D01*
X25923Y394930D01*
X25661Y395280D01*
X25357Y395531D01*
X25014Y395681D01*
X24630Y395731D01*
X33670D01*
X33286Y395681D01*
D02*
G37*
G36*
X264813Y375038D02*
X264963Y374789D01*
X265214Y374568D01*
X265564Y374377D01*
X266014Y374215D01*
X266563Y374083D01*
X267213Y373980D01*
X267964Y373907D01*
X269764Y373848D01*
Y368848D01*
X268813Y368833D01*
X267213Y368716D01*
X266563Y368613D01*
X266014Y368481D01*
X265564Y368319D01*
X265214Y368128D01*
X264963Y367907D01*
X264813Y367658D01*
X264764Y367379D01*
Y375317D01*
X264813Y375038D01*
D02*
G37*
G36*
X133086Y366650D02*
X132939Y366773D01*
X132753Y366884D01*
X132528Y366982D01*
X132264Y367066D01*
X131961Y367137D01*
X131618Y367196D01*
X130817Y367274D01*
X130357Y367294D01*
X129858Y367300D01*
Y372300D01*
X130357Y372307D01*
X131618Y372404D01*
X131961Y372463D01*
X132264Y372534D01*
X132528Y372618D01*
X132753Y372716D01*
X132939Y372826D01*
X133086Y372950D01*
Y366650D01*
D02*
G37*
G36*
X77462Y366162D02*
X77558Y364968D01*
X77642Y364483D01*
X77750Y364072D01*
X77882Y363736D01*
X78039Y363475D01*
X78219Y363288D01*
X78423Y363176D01*
X78651Y363139D01*
X71248D01*
X71477Y363176D01*
X71681Y363288D01*
X71861Y363475D01*
X72017Y363736D01*
X72150Y364072D01*
X72258Y364483D01*
X72342Y364968D01*
X72402Y365527D01*
X72450Y366871D01*
X77450D01*
X77462Y366162D01*
D02*
G37*
G36*
X142372Y355950D02*
X142182Y356111D01*
X141946Y356256D01*
X141664Y356384D01*
X141335Y356494D01*
X140960Y356587D01*
X140539Y356664D01*
X140071Y356724D01*
X138997Y356791D01*
X138390Y356800D01*
Y362800D01*
X138997Y362808D01*
X140539Y362936D01*
X140960Y363013D01*
X141335Y363106D01*
X141664Y363217D01*
X141946Y363344D01*
X142182Y363489D01*
X142372Y363650D01*
Y355950D01*
D02*
G37*
G36*
X70430Y351782D02*
X70381Y352257D01*
X70230Y352682D01*
X69981Y353057D01*
X69630Y353382D01*
X69180Y353657D01*
X68630Y353882D01*
X67980Y354057D01*
X67231Y354182D01*
X66381Y354257D01*
X65430Y354282D01*
Y359282D01*
X66381Y359307D01*
X67231Y359382D01*
X67980Y359507D01*
X68630Y359682D01*
X69180Y359907D01*
X69630Y360182D01*
X69981Y360507D01*
X70230Y360882D01*
X70381Y361307D01*
X70430Y361782D01*
Y351782D01*
D02*
G37*
G36*
X112199Y362554D02*
X112380Y362044D01*
X112682Y361594D01*
X113104Y361204D01*
X113647Y360874D01*
X114310Y360604D01*
X115094Y360394D01*
X115998Y360244D01*
X117024Y360154D01*
X118169Y360124D01*
Y354124D01*
X117024Y354094D01*
X115998Y354004D01*
X115094Y353854D01*
X114310Y353644D01*
X113647Y353374D01*
X113104Y353044D01*
X112682Y352654D01*
X112380Y352204D01*
X112199Y351694D01*
X112139Y351124D01*
Y363124D01*
X112199Y362554D01*
D02*
G37*
G36*
X31700Y363332D02*
X31850Y362482D01*
X32100Y361732D01*
X32450Y361082D01*
X32900Y360532D01*
X33450Y360082D01*
X34100Y359732D01*
X34850Y359482D01*
X35700Y359332D01*
X36650Y359282D01*
Y354282D01*
X35700Y354232D01*
X34850Y354082D01*
X34100Y353832D01*
X33450Y353482D01*
X32900Y353032D01*
X32450Y352482D01*
X32100Y351832D01*
X31850Y351082D01*
X31700Y350232D01*
X31650Y349282D01*
X26650Y356782D01*
X31650Y364282D01*
X31700Y363332D01*
D02*
G37*
G36*
X209487Y338811D02*
X209667Y338561D01*
X209967Y338341D01*
X210387Y338150D01*
X210928Y337988D01*
X211588Y337856D01*
X212367Y337753D01*
X214287Y337635D01*
X215427Y337621D01*
Y331621D01*
X214287Y331606D01*
X211588Y331385D01*
X210928Y331253D01*
X210387Y331092D01*
X209967Y330901D01*
X209667Y330680D01*
X209487Y330430D01*
X209428Y330151D01*
Y339090D01*
X209487Y338811D01*
D02*
G37*
G36*
X247014Y328292D02*
Y327128D01*
X247014Y326798D01*
Y315898D01*
X247014Y315568D01*
Y314628D01*
X247014Y314298D01*
Y312605D01*
X236238D01*
Y314484D01*
X223178D01*
Y301924D01*
X225951D01*
Y295484D01*
X223178D01*
Y282924D01*
X225725D01*
X225774Y282805D01*
X225855Y282500D01*
X225925Y282080D01*
X225951Y281783D01*
Y275261D01*
X225938Y275136D01*
X225931Y275125D01*
X225898Y274959D01*
X225832Y274804D01*
X225830Y274615D01*
X225793Y274430D01*
X225826Y274265D01*
X225824Y274096D01*
X225428Y273139D01*
Y271437D01*
X226080Y269864D01*
X227283Y268660D01*
X227849Y268425D01*
X227597Y267155D01*
X217722D01*
X198975Y285902D01*
Y291664D01*
X203438D01*
Y298704D01*
Y303174D01*
X199988D01*
X200315Y303234D01*
X200607Y303414D01*
X200865Y303713D01*
X201089Y304133D01*
X201278Y304674D01*
X201433Y305333D01*
X201496Y305744D01*
X198975D01*
Y313549D01*
X206789Y321363D01*
X223178D01*
Y318841D01*
X236238D01*
Y322576D01*
X237946D01*
X239383Y322862D01*
X240602Y323676D01*
X245744Y328818D01*
X247014Y328292D01*
D02*
G37*
G36*
X87286Y301350D02*
X87139Y301474D01*
X86953Y301584D01*
X86728Y301681D01*
X86464Y301766D01*
X86161Y301838D01*
X85818Y301896D01*
X85016Y301974D01*
X84557Y301994D01*
X84058Y302000D01*
Y307000D01*
X84557Y307006D01*
X85818Y307104D01*
X86161Y307162D01*
X86464Y307234D01*
X86728Y307318D01*
X86953Y307416D01*
X87139Y307526D01*
X87286Y307650D01*
Y301350D01*
D02*
G37*
G36*
X31700Y311050D02*
X31850Y310200D01*
X32100Y309450D01*
X32450Y308800D01*
X32900Y308250D01*
X33450Y307800D01*
X34100Y307450D01*
X34850Y307200D01*
X35700Y307050D01*
X36650Y307000D01*
Y302000D01*
X35700Y301950D01*
X34850Y301800D01*
X34100Y301550D01*
X33450Y301200D01*
X32900Y300750D01*
X32450Y300200D01*
X32100Y299550D01*
X32056Y299418D01*
X32155Y299119D01*
X32377Y298669D01*
X32640Y298319D01*
X32943Y298069D01*
X33286Y297920D01*
X33670Y297869D01*
X31696D01*
X31650Y297000D01*
X31070Y297869D01*
X24630D01*
X25014Y297920D01*
X25357Y298069D01*
X25661Y298319D01*
X25923Y298669D01*
X26145Y299119D01*
X26327Y299669D01*
X26468Y300319D01*
X26569Y301070D01*
X26630Y301919D01*
X26650Y302869D01*
X27737D01*
X26650Y304500D01*
X31650Y312000D01*
X31700Y311050D01*
D02*
G37*
G36*
X65538Y293512D02*
X65483Y293445D01*
X65431Y293355D01*
X65383Y293244D01*
X65338Y293111D01*
X65297Y292955D01*
X65224Y292579D01*
X65164Y292115D01*
X65139Y291849D01*
X61899Y295089D01*
X62165Y295114D01*
X63005Y295247D01*
X63161Y295288D01*
X63294Y295333D01*
X63405Y295382D01*
X63495Y295433D01*
X63562Y295488D01*
X65538Y293512D01*
D02*
G37*
G36*
X96572Y290650D02*
X96382Y290812D01*
X96146Y290956D01*
X95864Y291084D01*
X95535Y291194D01*
X95160Y291287D01*
X94739Y291364D01*
X94271Y291423D01*
X93197Y291492D01*
X92590Y291500D01*
Y297500D01*
X93197Y297509D01*
X94739Y297636D01*
X95160Y297712D01*
X95535Y297806D01*
X95864Y297917D01*
X96146Y298044D01*
X96382Y298188D01*
X96572Y298350D01*
Y290650D01*
D02*
G37*
G36*
X66430Y297343D02*
X66610Y296873D01*
X66909Y296457D01*
X67330Y296097D01*
X67870Y295792D01*
X68530Y295543D01*
X69310Y295349D01*
X70209Y295211D01*
X71230Y295128D01*
X72369Y295100D01*
Y289100D01*
X71225Y289070D01*
X70201Y288980D01*
X69297Y288830D01*
X68514Y288620D01*
X67851Y288350D01*
X67308Y288020D01*
X66885Y287630D01*
X66583Y287180D01*
X66401Y286670D01*
X66339Y286100D01*
X66370Y297869D01*
X66430Y297343D01*
D02*
G37*
G36*
X233156Y284727D02*
X232832Y284611D01*
X232546Y284419D01*
X232299Y284151D01*
X232089Y283805D01*
X231918Y283382D01*
X231784Y282883D01*
X231689Y282307D01*
X231632Y281654D01*
X231613Y280924D01*
X227803D01*
X227784Y281654D01*
X227727Y282307D01*
X227631Y282883D01*
X227498Y283382D01*
X227327Y283805D01*
X227117Y284151D01*
X226870Y284419D01*
X226584Y284611D01*
X226260Y284727D01*
X225898Y284765D01*
X233518D01*
X233156Y284727D01*
D02*
G37*
G36*
X33286Y285681D02*
X32943Y285530D01*
X32640Y285280D01*
X32377Y284930D01*
X32155Y284480D01*
X31973Y283930D01*
X31832Y283281D01*
X31731Y282530D01*
X31670Y281681D01*
X31650Y280730D01*
X26650D01*
X26630Y281681D01*
X26468Y283281D01*
X26327Y283930D01*
X26145Y284480D01*
X25923Y284930D01*
X25661Y285280D01*
X25357Y285530D01*
X25014Y285681D01*
X24630Y285730D01*
X33670D01*
X33286Y285681D01*
D02*
G37*
G36*
X231615Y276065D02*
X231709Y274688D01*
X231738Y274571D01*
X231771Y274485D01*
X231808Y274430D01*
X227608D01*
X227645Y274485D01*
X227678Y274571D01*
X227707Y274688D01*
X227733Y274838D01*
X227772Y275233D01*
X227795Y275756D01*
X227803Y276406D01*
X231613D01*
X231615Y276065D01*
D02*
G37*
G36*
X133086Y256650D02*
X132939Y256773D01*
X132753Y256884D01*
X132528Y256982D01*
X132264Y257066D01*
X131961Y257138D01*
X131618Y257196D01*
X130817Y257274D01*
X130357Y257293D01*
X129858Y257300D01*
Y262300D01*
X130357Y262306D01*
X131618Y262404D01*
X131961Y262463D01*
X132264Y262534D01*
X132528Y262619D01*
X132753Y262716D01*
X132939Y262826D01*
X133086Y262950D01*
Y256650D01*
D02*
G37*
G36*
X77462Y256162D02*
X77558Y254968D01*
X77642Y254482D01*
X77750Y254072D01*
X77882Y253736D01*
X78039Y253475D01*
X78219Y253288D01*
X78423Y253176D01*
X78651Y253139D01*
X71248D01*
X71477Y253176D01*
X71681Y253288D01*
X71861Y253475D01*
X72017Y253736D01*
X72150Y254072D01*
X72258Y254482D01*
X72342Y254968D01*
X72402Y255527D01*
X72450Y256871D01*
X77450D01*
X77462Y256162D01*
D02*
G37*
G36*
X142372Y245950D02*
X142182Y246112D01*
X141946Y246256D01*
X141664Y246383D01*
X141335Y246494D01*
X140960Y246588D01*
X140539Y246664D01*
X140071Y246723D01*
X138997Y246791D01*
X138390Y246800D01*
Y252800D01*
X138997Y252808D01*
X140539Y252936D01*
X140960Y253013D01*
X141335Y253106D01*
X141664Y253216D01*
X141946Y253344D01*
X142182Y253489D01*
X142372Y253650D01*
Y245950D01*
D02*
G37*
G36*
X70430Y242100D02*
X70381Y242575D01*
X70230Y243000D01*
X69981Y243375D01*
X69630Y243700D01*
X69180Y243975D01*
X68630Y244200D01*
X67980Y244375D01*
X67231Y244500D01*
X66381Y244575D01*
X65430Y244600D01*
Y249600D01*
X66381Y249625D01*
X67231Y249700D01*
X67980Y249825D01*
X68630Y250000D01*
X69180Y250225D01*
X69630Y250500D01*
X69981Y250825D01*
X70230Y251200D01*
X70381Y251625D01*
X70430Y252100D01*
Y242100D01*
D02*
G37*
G36*
X112229Y252642D02*
X112409Y252171D01*
X112710Y251755D01*
X113130Y251394D01*
X113670Y251089D01*
X114330Y250840D01*
X115110Y250646D01*
X116010Y250507D01*
X117029Y250424D01*
X118169Y250396D01*
Y244396D01*
X117025Y244366D01*
X116001Y244276D01*
X115097Y244126D01*
X114314Y243916D01*
X113651Y243646D01*
X113108Y243316D01*
X112685Y242926D01*
X112383Y242476D01*
X112201Y241966D01*
X112139Y241396D01*
X112170Y253169D01*
X112229Y252642D01*
D02*
G37*
G36*
X31700Y253650D02*
X31850Y252800D01*
X32100Y252050D01*
X32450Y251400D01*
X32900Y250850D01*
X33450Y250400D01*
X34100Y250050D01*
X34850Y249800D01*
X35700Y249650D01*
X36650Y249600D01*
Y244600D01*
X35700Y244550D01*
X34850Y244400D01*
X34100Y244150D01*
X33450Y243800D01*
X32900Y243350D01*
X32450Y242800D01*
X32100Y242150D01*
X31850Y241400D01*
X31700Y240550D01*
X31650Y239600D01*
X26650Y247100D01*
X31650Y254600D01*
X31700Y253650D01*
D02*
G37*
G36*
X87487Y191157D02*
X87343Y191264D01*
X87158Y191360D01*
X86934Y191445D01*
X86671Y191518D01*
X86368Y191580D01*
X86025Y191631D01*
X85222Y191699D01*
X84260Y191721D01*
X83886Y196721D01*
X84384Y196729D01*
X85641Y196837D01*
X85982Y196902D01*
X86283Y196982D01*
X86545Y197076D01*
X86769Y197185D01*
X86953Y197307D01*
X87098Y197445D01*
X87487Y191157D01*
D02*
G37*
G36*
X31700Y200771D02*
X31850Y199921D01*
X32100Y199171D01*
X32450Y198521D01*
X32900Y197971D01*
X33450Y197521D01*
X34100Y197171D01*
X34850Y196921D01*
X35700Y196771D01*
X36650Y196721D01*
Y191721D01*
X35700Y191671D01*
X34850Y191521D01*
X34100Y191271D01*
X33450Y190921D01*
X32900Y190471D01*
X32450Y189921D01*
X32103Y189277D01*
X32155Y189119D01*
X32377Y188669D01*
X32640Y188319D01*
X32943Y188069D01*
X33286Y187920D01*
X33670Y187869D01*
X31735D01*
X31700Y187672D01*
X31650Y186721D01*
X30885Y187869D01*
X24630D01*
X25014Y187920D01*
X25357Y188069D01*
X25661Y188319D01*
X25923Y188669D01*
X26145Y189119D01*
X26327Y189669D01*
X26468Y190319D01*
X26569Y191070D01*
X26630Y191919D01*
X26650Y192869D01*
X27551D01*
X26650Y194221D01*
X31650Y201721D01*
X31700Y200771D01*
D02*
G37*
G36*
X96572Y180650D02*
X96382Y180812D01*
X96146Y180956D01*
X95864Y181084D01*
X95535Y181194D01*
X95160Y181287D01*
X94739Y181364D01*
X94271Y181423D01*
X93197Y181492D01*
X92590Y181500D01*
Y187500D01*
X93197Y187509D01*
X94739Y187636D01*
X95160Y187712D01*
X95535Y187806D01*
X95864Y187917D01*
X96146Y188044D01*
X96382Y188188D01*
X96572Y188350D01*
Y180650D01*
D02*
G37*
G36*
X66401Y187120D02*
X66583Y186609D01*
X66885Y186159D01*
X67308Y185770D01*
X67850Y185439D01*
X68514Y185170D01*
X69297Y184960D01*
X70201Y184809D01*
X71225Y184720D01*
X72369Y184690D01*
Y178689D01*
X71230Y178660D01*
X70209Y178571D01*
X69310Y178423D01*
X68530Y178216D01*
X67870Y177950D01*
X67330Y177624D01*
X66909Y177240D01*
X66610Y176796D01*
X66430Y176293D01*
X66370Y175730D01*
X66339Y187689D01*
X66401Y187120D01*
D02*
G37*
G36*
X33286Y175681D02*
X32943Y175530D01*
X32640Y175280D01*
X32377Y174930D01*
X32155Y174480D01*
X31973Y173930D01*
X31832Y173281D01*
X31731Y172530D01*
X31670Y171681D01*
X31650Y170730D01*
X26650D01*
X26630Y171681D01*
X26468Y173281D01*
X26327Y173930D01*
X26145Y174480D01*
X25923Y174930D01*
X25661Y175280D01*
X25357Y175530D01*
X25014Y175681D01*
X24630Y175730D01*
X33670D01*
X33286Y175681D01*
D02*
G37*
G36*
X133086Y146650D02*
X132939Y146774D01*
X132753Y146884D01*
X132528Y146981D01*
X132264Y147066D01*
X131961Y147137D01*
X131618Y147196D01*
X130817Y147274D01*
X130357Y147294D01*
X129858Y147300D01*
Y152300D01*
X130357Y152306D01*
X131618Y152404D01*
X131961Y152463D01*
X132264Y152534D01*
X132528Y152619D01*
X132753Y152716D01*
X132939Y152826D01*
X133086Y152950D01*
Y146650D01*
D02*
G37*
G36*
X77462Y146162D02*
X77558Y144968D01*
X77642Y144483D01*
X77750Y144072D01*
X77882Y143736D01*
X78039Y143475D01*
X78219Y143288D01*
X78423Y143176D01*
X78651Y143139D01*
X71248D01*
X71477Y143176D01*
X71681Y143288D01*
X71861Y143475D01*
X72017Y143736D01*
X72150Y144072D01*
X72258Y144483D01*
X72342Y144968D01*
X72402Y145527D01*
X72450Y146871D01*
X77450D01*
X77462Y146162D01*
D02*
G37*
G36*
X142586Y135743D02*
X142397Y135887D01*
X142162Y136016D01*
X141879Y136130D01*
X141550Y136229D01*
X141175Y136312D01*
X140753Y136381D01*
X139769Y136472D01*
X138598Y136502D01*
X138210Y142502D01*
X138815Y142512D01*
X139886Y142586D01*
X140352Y142651D01*
X140771Y142735D01*
X141144Y142837D01*
X141470Y142958D01*
X141750Y143097D01*
X141983Y143255D01*
X142170Y143432D01*
X142586Y135743D01*
D02*
G37*
G36*
X70430Y132100D02*
X70381Y132575D01*
X70230Y133000D01*
X69981Y133375D01*
X69630Y133700D01*
X69180Y133975D01*
X68630Y134200D01*
X67980Y134375D01*
X67231Y134500D01*
X66381Y134575D01*
X65430Y134600D01*
Y139600D01*
X66381Y139625D01*
X67231Y139700D01*
X67980Y139825D01*
X68630Y140000D01*
X69180Y140225D01*
X69630Y140500D01*
X69981Y140825D01*
X70230Y141200D01*
X70381Y141625D01*
X70430Y142100D01*
Y132100D01*
D02*
G37*
G36*
X112229Y142624D02*
X112409Y142136D01*
X112710Y141705D01*
X113130Y141332D01*
X113670Y141016D01*
X114330Y140758D01*
X115110Y140556D01*
X116010Y140413D01*
X117029Y140327D01*
X118169Y140298D01*
Y134298D01*
X117025Y134268D01*
X116001Y134178D01*
X115097Y134028D01*
X114314Y133818D01*
X113651Y133548D01*
X113108Y133218D01*
X112685Y132828D01*
X112383Y132378D01*
X112201Y131868D01*
X112139Y131298D01*
X112170Y143169D01*
X112229Y142624D01*
D02*
G37*
G36*
X31700Y143650D02*
X31850Y142800D01*
X32100Y142050D01*
X32450Y141400D01*
X32900Y140850D01*
X33450Y140400D01*
X34100Y140050D01*
X34850Y139800D01*
X35700Y139650D01*
X36650Y139600D01*
Y134600D01*
X35700Y134550D01*
X34850Y134400D01*
X34100Y134150D01*
X33450Y133800D01*
X32900Y133350D01*
X32450Y132800D01*
X32100Y132150D01*
X31850Y131400D01*
X31700Y130550D01*
X31650Y129600D01*
X26650Y137100D01*
X31650Y144600D01*
X31700Y143650D01*
D02*
G37*
G36*
X87095Y81558D02*
X86950Y81695D01*
X86766Y81819D01*
X86543Y81927D01*
X86281Y82022D01*
X85979Y82101D01*
X85639Y82166D01*
X85259Y82217D01*
X84382Y82275D01*
X83884Y82282D01*
X84263Y87282D01*
X84764Y87288D01*
X86028Y87372D01*
X86370Y87423D01*
X86673Y87485D01*
X86937Y87558D01*
X87161Y87643D01*
X87345Y87738D01*
X87490Y87845D01*
X87095Y81558D01*
D02*
G37*
G36*
X31700Y91332D02*
X31850Y90482D01*
X32100Y89732D01*
X32450Y89082D01*
X32900Y88532D01*
X33450Y88082D01*
X34100Y87732D01*
X34850Y87482D01*
X35700Y87332D01*
X36650Y87282D01*
Y82282D01*
X35700Y82232D01*
X34850Y82082D01*
X34100Y81832D01*
X33450Y81482D01*
X32900Y81032D01*
X32450Y80482D01*
X32100Y79832D01*
X32009Y79560D01*
X32155Y79120D01*
X32377Y78670D01*
X32640Y78320D01*
X32943Y78070D01*
X33286Y77920D01*
X33670Y77870D01*
X31681D01*
X31650Y77282D01*
X31258Y77870D01*
X24630D01*
X25014Y77920D01*
X25357Y78070D01*
X25661Y78320D01*
X25923Y78670D01*
X26145Y79120D01*
X26327Y79669D01*
X26468Y80319D01*
X26569Y81069D01*
X26630Y81919D01*
X26650Y82870D01*
X27925D01*
X26650Y84782D01*
X31650Y92282D01*
X31700Y91332D01*
D02*
G37*
G36*
X96572Y70650D02*
X96382Y70812D01*
X96146Y70956D01*
X95864Y71083D01*
X95535Y71194D01*
X95160Y71287D01*
X94739Y71364D01*
X94271Y71424D01*
X93197Y71491D01*
X92590Y71500D01*
Y77500D01*
X93197Y77509D01*
X94739Y77636D01*
X95160Y77712D01*
X95535Y77806D01*
X95864Y77916D01*
X96146Y78044D01*
X96382Y78189D01*
X96572Y78350D01*
Y70650D01*
D02*
G37*
G36*
X66399Y77230D02*
X66580Y76720D01*
X66882Y76270D01*
X67304Y75880D01*
X67847Y75550D01*
X68510Y75280D01*
X69294Y75070D01*
X70199Y74920D01*
X71224Y74830D01*
X72369Y74800D01*
Y68800D01*
X71224Y68770D01*
X70199Y68680D01*
X69294Y68530D01*
X68510Y68320D01*
X67847Y68050D01*
X67304Y67720D01*
X66882Y67330D01*
X66580Y66880D01*
X66399Y66370D01*
X66339Y65800D01*
Y77800D01*
X66399Y77230D01*
D02*
G37*
G36*
X33286Y65680D02*
X32943Y65531D01*
X32640Y65280D01*
X32377Y64931D01*
X32155Y64481D01*
X31973Y63931D01*
X31832Y63281D01*
X31731Y62530D01*
X31670Y61680D01*
X31650Y60731D01*
X26650D01*
X26630Y61680D01*
X26468Y63281D01*
X26327Y63931D01*
X26145Y64481D01*
X25923Y64931D01*
X25661Y65280D01*
X25357Y65531D01*
X25014Y65680D01*
X24630Y65731D01*
X33670D01*
X33286Y65680D01*
D02*
G37*
G36*
X133086Y36650D02*
X132939Y36774D01*
X132753Y36884D01*
X132528Y36981D01*
X132264Y37066D01*
X131961Y37137D01*
X131618Y37196D01*
X130817Y37274D01*
X130357Y37294D01*
X129858Y37300D01*
Y42300D01*
X130357Y42306D01*
X131618Y42404D01*
X131961Y42463D01*
X132264Y42534D01*
X132528Y42618D01*
X132753Y42716D01*
X132939Y42826D01*
X133086Y42950D01*
Y36650D01*
D02*
G37*
G36*
X77462Y36162D02*
X77558Y34968D01*
X77642Y34483D01*
X77750Y34072D01*
X77882Y33736D01*
X78039Y33475D01*
X78219Y33288D01*
X78423Y33176D01*
X78651Y33139D01*
X71248D01*
X71477Y33176D01*
X71681Y33288D01*
X71861Y33475D01*
X72017Y33736D01*
X72150Y34072D01*
X72258Y34483D01*
X72342Y34968D01*
X72402Y35528D01*
X72450Y36871D01*
X77450D01*
X77462Y36162D01*
D02*
G37*
G36*
X70430Y22100D02*
X70381Y22575D01*
X70230Y23000D01*
X69981Y23375D01*
X69630Y23700D01*
X69180Y23975D01*
X68630Y24200D01*
X67980Y24375D01*
X67231Y24500D01*
X66381Y24575D01*
X65430Y24600D01*
Y29600D01*
X66381Y29625D01*
X67231Y29700D01*
X67980Y29825D01*
X68630Y30000D01*
X69180Y30225D01*
X69630Y30500D01*
X69981Y30825D01*
X70230Y31200D01*
X70381Y31625D01*
X70430Y32100D01*
Y22100D01*
D02*
G37*
%LPC*%
G36*
X211998Y305744D02*
X207920D01*
X207983Y305333D01*
X208138Y304674D01*
X208327Y304133D01*
X208550Y303713D01*
X208808Y303414D01*
X209101Y303234D01*
X209428Y303174D01*
X205978D01*
Y299974D01*
X211998D01*
Y305744D01*
D02*
G37*
G36*
Y297434D02*
X205978D01*
Y291664D01*
X211998D01*
Y297434D01*
D02*
G37*
%LPD*%
G36*
X232230Y424473D02*
X232297Y423623D01*
X232408Y422873D01*
X232563Y422223D01*
X232763Y421673D01*
X233007Y421223D01*
X233295Y420873D01*
X233629Y420623D01*
X234006Y420473D01*
X234428Y420423D01*
X224988D01*
X225410Y420473D01*
X225788Y420623D01*
X226120Y420873D01*
X226409Y421223D01*
X226653Y421673D01*
X226853Y422223D01*
X227008Y422873D01*
X227119Y423623D01*
X227186Y424473D01*
X227208Y425423D01*
X232208D01*
X232230Y424473D01*
D02*
G37*
G36*
X234006Y411434D02*
X233629Y411284D01*
X233295Y411034D01*
X233007Y410684D01*
X232763Y410234D01*
X232563Y409684D01*
X232408Y409034D01*
X232297Y408284D01*
X232230Y407434D01*
X232208Y406484D01*
X227208D01*
X227186Y407434D01*
X227119Y408284D01*
X227008Y409034D01*
X226853Y409684D01*
X226653Y410234D01*
X226409Y410684D01*
X226120Y411034D01*
X225788Y411284D01*
X225410Y411434D01*
X224988Y411484D01*
X234428D01*
X234006Y411434D01*
D02*
G37*
G36*
X232230Y405473D02*
X232297Y404623D01*
X232408Y403873D01*
X232563Y403223D01*
X232763Y402673D01*
X233007Y402223D01*
X233295Y401873D01*
X233629Y401623D01*
X234006Y401473D01*
X234428Y401423D01*
X224988D01*
X225410Y401473D01*
X225788Y401623D01*
X226120Y401873D01*
X226409Y402223D01*
X226653Y402673D01*
X226853Y403223D01*
X227008Y403873D01*
X227119Y404623D01*
X227186Y405473D01*
X227208Y406423D01*
X232208D01*
X232230Y405473D01*
D02*
G37*
G36*
X234478Y400992D02*
X234627Y400605D01*
X234877Y400265D01*
X235228Y399969D01*
X235678Y399719D01*
X236227Y399515D01*
X236877Y399356D01*
X237628Y399242D01*
X238477Y399174D01*
X239428Y399151D01*
Y394151D01*
X238477Y394134D01*
X236877Y394001D01*
X236227Y393884D01*
X235678Y393734D01*
X235228Y393551D01*
X234877Y393334D01*
X234627Y393084D01*
X234478Y392801D01*
X234428Y392484D01*
Y401423D01*
X234478Y400992D01*
D02*
G37*
G36*
X248825Y392379D02*
X248775Y392715D01*
X248624Y393017D01*
X248375Y393282D01*
X248025Y393513D01*
X247575Y393708D01*
X247024Y393867D01*
X246374Y393991D01*
X245625Y394080D01*
X244774Y394133D01*
X243825Y394151D01*
Y399151D01*
X244774Y399163D01*
X247024Y399338D01*
X247575Y399443D01*
X248025Y399571D01*
X248375Y399723D01*
X248624Y399897D01*
X248775Y400096D01*
X248825Y400317D01*
Y392379D01*
D02*
G37*
D11*
X334968Y446445D02*
X332468Y446221D01*
X330045Y445568D01*
X327771Y444505D01*
X325715Y443065D01*
X323940Y441290D01*
X322499Y439235D01*
X321435Y436962D01*
X320781Y434538D01*
X320556Y432038D01*
X320555Y92000D02*
X320774Y89492D01*
X321426Y87059D01*
X322490Y84777D01*
X323935Y82715D01*
X325715Y80934D01*
X327777Y79490D01*
X330060Y78426D01*
X332492Y77775D01*
X335000Y77555D01*
X12000Y530555D02*
X9665Y530185D01*
X7559Y529112D01*
X5888Y527441D01*
X4815Y525335D01*
X4445Y523000D01*
X340554Y452520D02*
X340523Y451758D01*
X335010Y446445D02*
X337621Y447102D01*
X339617Y448909D01*
X340528Y451443D01*
X333000Y4445D02*
X335758Y4966D01*
X338135Y6458D01*
X339803Y8714D01*
X340533Y11424D01*
Y72491D02*
X339638Y75057D01*
X337634Y76891D01*
X335000Y77555D01*
X4445Y12000D02*
X4815Y9665D01*
X5888Y7559D01*
X7559Y5888D01*
X9665Y4815D01*
X12000Y4445D01*
X340533Y523583D02*
X339801Y526290D01*
X338132Y528545D01*
X335756Y530034D01*
X333000Y530555D01*
X12000Y4445D02*
X333000D01*
X320555Y92000D02*
Y431903D01*
X12000Y530555D02*
X333000D01*
X340533Y11424D02*
Y72491D01*
X340554Y452520D02*
Y523163D01*
X4445Y12000D02*
Y523000D01*
D21*
X295581Y107548D02*
X307700D01*
X279654Y138430D02*
X279712Y138488D01*
X251040Y218186D02*
Y231984D01*
X238845Y244179D02*
X251040Y231984D01*
X29150Y137100D02*
Y181800D01*
Y84782D02*
Y137100D01*
X74950D01*
Y135550D02*
Y146871D01*
X29150Y194221D02*
Y247100D01*
X74950D01*
X29150D02*
Y291800D01*
X74950Y250700D02*
Y256871D01*
X29150Y356782D02*
Y401800D01*
Y304500D02*
Y356782D01*
X74632D01*
X29150Y443540D02*
Y464820D01*
Y414500D02*
Y443540D01*
X256794Y371348D02*
X281686D01*
X29150Y414500D02*
X87733D01*
X29150Y401800D02*
Y414500D01*
Y84782D02*
X87518D01*
X29150Y71800D02*
Y84782D01*
Y194221D02*
X87521D01*
X29150Y181800D02*
Y194221D01*
Y304500D02*
X87497D01*
X29150Y291800D02*
Y304500D01*
X35638Y27100D02*
X74950D01*
X29150Y33588D02*
X35638Y27100D01*
X29150Y33588D02*
Y71800D01*
X77879Y369800D02*
X133600D01*
X74950Y366871D02*
X77879Y369800D01*
X74950Y357100D02*
Y366871D01*
X77879Y259800D02*
X133600D01*
X74950Y256871D02*
X77879Y259800D01*
Y149800D02*
X133600D01*
X74950Y146871D02*
X77879Y149800D01*
Y39800D02*
X133600D01*
X74950Y36871D02*
X77879Y39800D01*
X74950Y27100D02*
Y36871D01*
X229708Y415954D02*
Y441998D01*
Y396954D02*
Y415954D01*
Y396954D02*
X230011Y396651D01*
X256491D01*
X256794Y396348D01*
D22*
X189523Y197620D02*
Y223390D01*
X210312Y244179D01*
X189523Y197120D02*
Y197620D01*
X191118Y199215D01*
X195218Y284346D02*
Y315106D01*
Y284346D02*
X216166Y263398D01*
X290068D01*
X230920Y326333D02*
X237946D01*
X245311Y333698D01*
X256644D01*
X256794Y333848D01*
X254706Y344260D02*
X256794Y346348D01*
X229847Y344260D02*
X254706D01*
X195785Y344121D02*
X229708D01*
Y325121D02*
X230920Y326333D01*
X188973Y281181D02*
X214122Y256032D01*
X188973Y281181D02*
Y337309D01*
X195785Y344121D01*
X195218Y315106D02*
X205233Y325121D01*
X296672Y197110D02*
Y244179D01*
Y256794D01*
X282153Y166815D02*
Y195005D01*
X269620Y164583D02*
X279921D01*
X282153Y166815D01*
X280548Y196610D02*
X282153Y195005D01*
X280548Y196610D02*
Y197110D01*
X269525Y164488D02*
X269620Y164583D01*
X251040Y197110D02*
X260610D01*
X267377Y203877D01*
Y244179D01*
X255525Y256032D02*
X267377Y244179D01*
X230352Y308848D02*
X256794D01*
X229708Y289204D02*
Y308204D01*
X214122Y256032D02*
X255525D01*
X290068Y263398D02*
X296672Y256794D01*
X229708Y272288D02*
Y289204D01*
X205233Y325121D02*
X229708D01*
D23*
X83952Y404500D02*
X100500D01*
X81252Y401800D02*
X83952Y404500D01*
X61850Y401800D02*
X81252D01*
X107650Y357100D02*
X107674Y357124D01*
X126238D01*
X128914Y359800D02*
X146300D01*
X126238Y357124D02*
X128914Y359800D01*
X83172Y294500D02*
X100500D01*
X62150Y292100D02*
X80772D01*
X83172Y294500D01*
X107946Y247396D02*
X127000D01*
X107650Y247100D02*
X107946Y247396D01*
X127000D02*
X129404Y249800D01*
X146300D01*
X81360Y181689D02*
X84170Y184500D01*
X61961Y181689D02*
X81360D01*
X84170Y184500D02*
X100500D01*
X107848Y137298D02*
X129932D01*
X132136Y139502D02*
X146002D01*
X129932Y137298D02*
X132136Y139502D01*
X77896Y71800D02*
X80596Y74500D01*
X61850Y71800D02*
X77896D01*
X80596Y74500D02*
X100500D01*
X107650Y358250D02*
X109200Y359800D01*
X107650Y357100D02*
Y358250D01*
X204708Y311388D02*
X210058Y316738D01*
X204708Y298704D02*
Y311388D01*
Y334621D02*
X217526D01*
D25*
X324777Y476680D02*
D03*
D26*
X308902Y514777D02*
D03*
D28*
X324767Y36099D02*
D03*
D29*
X146300Y29800D02*
D03*
X100500Y74500D02*
D03*
X146300Y139800D02*
D03*
X100500Y184500D02*
D03*
X146300Y249800D02*
D03*
X100500Y294500D02*
D03*
X146300Y359800D02*
D03*
X100500Y404500D02*
D03*
D30*
X156300Y39800D02*
D03*
X136300D02*
D03*
X110500Y84500D02*
D03*
X90500D02*
D03*
X156300Y149800D02*
D03*
X136300D02*
D03*
X110500Y194500D02*
D03*
X90500D02*
D03*
X156300Y259800D02*
D03*
X136300D02*
D03*
X110500Y304500D02*
D03*
X90500D02*
D03*
X156300Y369800D02*
D03*
X136300D02*
D03*
X110500Y414500D02*
D03*
X90500D02*
D03*
D31*
X338328Y7114D02*
D03*
X340335Y15778D02*
D03*
Y31779D02*
D03*
Y47779D02*
D03*
X328845Y4644D02*
D03*
X312845D02*
D03*
X296845D02*
D03*
X333114Y530371D02*
D03*
X317114Y530356D02*
D03*
X301114D02*
D03*
X285114D02*
D03*
X269114D02*
D03*
X253114D02*
D03*
X237114D02*
D03*
X221114D02*
D03*
X205114D02*
D03*
X189114D02*
D03*
X173114D02*
D03*
X157114D02*
D03*
X141114D02*
D03*
X125114D02*
D03*
X109114D02*
D03*
X93114D02*
D03*
X77114D02*
D03*
X61114D02*
D03*
X45114D02*
D03*
X29114D02*
D03*
X13114D02*
D03*
X4644Y516782D02*
D03*
Y500782D02*
D03*
Y484782D02*
D03*
Y468782D02*
D03*
Y452782D02*
D03*
Y436782D02*
D03*
Y420782D02*
D03*
Y404782D02*
D03*
Y388782D02*
D03*
Y372782D02*
D03*
Y356782D02*
D03*
Y340782D02*
D03*
Y324782D02*
D03*
Y308782D02*
D03*
Y292782D02*
D03*
Y276782D02*
D03*
Y260782D02*
D03*
Y244782D02*
D03*
Y228782D02*
D03*
Y212782D02*
D03*
Y196782D02*
D03*
Y180782D02*
D03*
Y164782D02*
D03*
Y148782D02*
D03*
Y132782D02*
D03*
Y116782D02*
D03*
Y100782D02*
D03*
Y84782D02*
D03*
Y68782D02*
D03*
Y52782D02*
D03*
Y36782D02*
D03*
Y20782D02*
D03*
X8860Y5348D02*
D03*
X24845Y4644D02*
D03*
X40845D02*
D03*
X56845D02*
D03*
X72845D02*
D03*
X88845D02*
D03*
X104845D02*
D03*
X120845D02*
D03*
X136845D02*
D03*
X152845D02*
D03*
X168845D02*
D03*
X184845D02*
D03*
X200845D02*
D03*
X216845D02*
D03*
X232845D02*
D03*
X248845D02*
D03*
X264845D02*
D03*
X280845D02*
D03*
X340335Y63779D02*
D03*
X332650Y77812D02*
D03*
X321004Y88783D02*
D03*
X320356Y104770D02*
D03*
Y120770D02*
D03*
Y136770D02*
D03*
Y152770D02*
D03*
Y168770D02*
D03*
Y184770D02*
D03*
Y200770D02*
D03*
Y216770D02*
D03*
Y232770D02*
D03*
Y248770D02*
D03*
Y264770D02*
D03*
Y280770D02*
D03*
Y296770D02*
D03*
Y312770D02*
D03*
Y328770D02*
D03*
Y344770D02*
D03*
Y360770D02*
D03*
Y376770D02*
D03*
Y392770D02*
D03*
Y408770D02*
D03*
Y424770D02*
D03*
X323615Y440435D02*
D03*
X337961Y447520D02*
D03*
X340355Y463340D02*
D03*
Y511339D02*
D03*
D32*
X309000Y49000D02*
D03*
Y499000D02*
D03*
D33*
X325164Y482836D02*
D03*
X292836D02*
D03*
Y515164D02*
D03*
X325164D02*
D03*
X331860Y499000D02*
D03*
X309000Y476140D02*
D03*
X286140Y499000D02*
D03*
X309000Y521860D02*
D03*
X325164Y32836D02*
D03*
X292836D02*
D03*
Y65164D02*
D03*
X325164D02*
D03*
X331860Y49000D02*
D03*
X309000Y26140D02*
D03*
X286140Y49000D02*
D03*
X309000Y71860D02*
D03*
D34*
X307848Y107548D02*
D03*
Y88290D02*
D03*
X308102Y177546D02*
D03*
X251040Y157988D02*
D03*
X230970D02*
D03*
X281940Y212598D02*
D03*
Y232668D02*
D03*
X258064Y22606D02*
D03*
Y42676D02*
D03*
X193548Y51816D02*
D03*
X213618D02*
D03*
X178562Y87122D02*
D03*
X198632D02*
D03*
X18796Y135128D02*
D03*
Y115058D02*
D03*
X45466Y17780D02*
D03*
X25396D02*
D03*
X60960Y48514D02*
D03*
X40890D02*
D03*
X61850Y110998D02*
D03*
X41780D02*
D03*
X62992Y158242D02*
D03*
X42922D02*
D03*
X148590Y193548D02*
D03*
Y213618D02*
D03*
X41148Y223774D02*
D03*
X61218D02*
D03*
X44196Y268986D02*
D03*
X64266D02*
D03*
X19050Y357378D02*
D03*
Y337308D02*
D03*
X61850Y336042D02*
D03*
X41780D02*
D03*
X68834Y378714D02*
D03*
X48764D02*
D03*
X145538Y318262D02*
D03*
X165608D02*
D03*
X295148Y320268D02*
D03*
Y380387D02*
D03*
Y340307D02*
D03*
Y400427D02*
D03*
Y360347D02*
D03*
X300905Y452782D02*
D03*
X103209D02*
D03*
X142748D02*
D03*
X182287D02*
D03*
X221827D02*
D03*
X63669Y484782D02*
D03*
X103209D02*
D03*
X142748D02*
D03*
X182287D02*
D03*
X221827D02*
D03*
X261366D02*
D03*
X24130D02*
D03*
Y513588D02*
D03*
X261366D02*
D03*
X221827D02*
D03*
X182287D02*
D03*
X142748D02*
D03*
X103209D02*
D03*
X63669D02*
D03*
X295148Y300228D02*
D03*
X209296Y215646D02*
D03*
X279654Y138430D02*
D03*
X282448Y151488D02*
D03*
X252742Y112488D02*
D03*
Y125488D02*
D03*
X190023Y149800D02*
D03*
Y138488D02*
D03*
Y125488D02*
D03*
X210312Y244179D02*
D03*
X209296Y228092D02*
D03*
X281178Y253238D02*
D03*
X217526Y334621D02*
D03*
X210058Y316738D02*
D03*
X29150Y464820D02*
D03*
X281686Y371348D02*
D03*
X229708Y441998D02*
D03*
X229708Y272288D02*
D03*
D35*
X256794Y371348D02*
D03*
Y358848D02*
D03*
Y383848D02*
D03*
Y396348D02*
D03*
Y346348D02*
D03*
Y333848D02*
D03*
Y321348D02*
D03*
Y308848D02*
D03*
D36*
X285794Y421848D02*
D03*
Y283348D02*
D03*
D37*
X269525Y177488D02*
D03*
Y170988D02*
D03*
Y164488D02*
D03*
Y157988D02*
D03*
Y151488D02*
D03*
Y144988D02*
D03*
Y138488D02*
D03*
Y131988D02*
D03*
Y125488D02*
D03*
Y118988D02*
D03*
Y112488D02*
D03*
Y105988D02*
D03*
X213137D02*
D03*
Y112488D02*
D03*
Y118988D02*
D03*
Y125488D02*
D03*
Y131988D02*
D03*
Y138488D02*
D03*
Y144988D02*
D03*
Y151488D02*
D03*
Y157988D02*
D03*
Y164488D02*
D03*
Y170988D02*
D03*
Y177488D02*
D03*
D38*
X229708Y308204D02*
D03*
X229708Y396954D02*
D03*
X204708Y406454D02*
D03*
X229708Y415954D02*
D03*
X229708Y361037D02*
D03*
X204708Y370537D02*
D03*
X229708Y380037D02*
D03*
Y325121D02*
D03*
X204708Y334621D02*
D03*
X229708Y344121D02*
D03*
Y289204D02*
D03*
X204708Y298704D02*
D03*
D39*
X251040Y218186D02*
D03*
X235040D02*
D03*
X205523Y197120D02*
D03*
X189523D02*
D03*
X251040Y197110D02*
D03*
X235040D02*
D03*
X296548D02*
D03*
X280548D02*
D03*
D40*
X238845Y244179D02*
D03*
X29150Y443540D02*
D03*
X296672Y244179D02*
D03*
X267377D02*
D03*
X210312D02*
D03*
X56388Y443540D02*
D03*
D41*
X29150Y291800D02*
D03*
X74950Y357100D02*
D03*
X29150Y401800D02*
D03*
Y71800D02*
D03*
X74950Y137100D02*
D03*
X29150Y181800D02*
D03*
X74950Y247100D02*
D03*
Y27100D02*
D03*
D42*
X61850Y71800D02*
D03*
X107650Y137100D02*
D03*
X61850Y401800D02*
D03*
Y181800D02*
D03*
X107650Y357100D02*
D03*
Y247100D02*
D03*
X61850Y291800D02*
D03*
X107650Y27100D02*
D03*
D43*
X295433Y175462D02*
D03*
Y159462D02*
D03*
Y123400D02*
D03*
Y107400D02*
D03*
X190023Y175452D02*
D03*
Y159452D02*
D03*
D44*
X284734Y157988D02*
X284988Y158242D01*
X269525Y157988D02*
X284734D01*
X213137Y157988D02*
X222470D01*
X222470Y157988D01*
X230970D01*
X251040D02*
X269525D01*
X294933Y107633D02*
X295433D01*
X307700Y107548D02*
X307848Y107696D01*
X295433Y107400D02*
X295581Y107548D01*
X279596Y138488D02*
X279654Y138430D01*
X269525Y138488D02*
X279596D01*
X269525Y151488D02*
X282298D01*
X110200Y29800D02*
X146300D01*
X252742Y112488D02*
X269525D01*
X252730Y125476D02*
X252742Y125488D01*
X269525D01*
X190023Y149800D02*
X197448D01*
X199136Y151488D01*
X213137D01*
X190023Y138488D02*
X213137D01*
X190023Y125488D02*
X213137D01*
X168656Y119888D02*
Y227444D01*
X146300Y249800D02*
X168656Y227444D01*
X176056Y112488D02*
X213137D01*
X168656Y119888D02*
X176056Y112488D01*
X229030Y218186D02*
X234993D01*
X226078Y215234D02*
X229030Y218186D01*
X226078Y167235D02*
Y215234D01*
X233540Y216733D02*
X234993Y218186D01*
X235040D01*
X223331Y164488D02*
X226078Y167235D01*
X213137Y164488D02*
X223331D01*
X183889Y160952D02*
X188523D01*
X190023Y159452D01*
X181546Y163295D02*
X183889Y160952D01*
X181546Y163295D02*
Y341312D01*
X199082Y358848D01*
X227519D01*
X229708Y361037D01*
Y380037D01*
Y361037D02*
X231041Y359705D01*
X235040Y183376D02*
Y197110D01*
X240928Y177488D02*
X269525D01*
X235040Y183376D02*
X240928Y177488D01*
X213137D02*
Y194777D01*
X205523Y197120D02*
X210793D01*
X213137Y194777D01*
X190023Y175452D02*
X198182D01*
X202646Y170988D01*
X213137D01*
X295433Y123400D02*
Y159462D01*
X293288Y105988D02*
X294933Y107633D01*
X269525Y105988D02*
X293288D01*
X242097D02*
X269525D01*
X213137D02*
X242097D01*
X241585Y118988D02*
X269525D01*
X213137D02*
X241585D01*
Y131988D02*
X269525D01*
X213137D02*
X241585D01*
Y144988D02*
X269525D01*
X218637D02*
X241585D01*
Y163328D01*
Y131988D02*
Y144988D01*
Y118988D02*
Y131988D01*
Y106500D02*
Y118988D01*
Y106500D02*
X242097Y105988D01*
X249245Y170988D02*
X269525D01*
X241585Y163328D02*
X249245Y170988D01*
X218637Y144988D02*
X218637Y144988D01*
X213137Y144988D02*
X218637D01*
X107650Y27250D02*
X110200Y29800D01*
X107650Y27100D02*
Y27250D01*
X231041Y359705D02*
X255937D01*
X256794Y358848D01*
D45*
X61850Y401800D02*
X64550Y404500D01*
X62150Y292100D02*
X64550Y294500D01*
X61850Y291800D02*
X62150Y292100D01*
X61850Y181800D02*
X62676Y182626D01*
X107650Y137100D02*
X108726Y138176D01*
D46*
X323156Y62298D02*
D03*
D47*
X293125Y28131D02*
D03*
M02*
