G04*
G04 #@! TF.GenerationSoftware,Altium Limited,Altium Designer,24.1.2 (44)*
G04*
G04 Layer_Physical_Order=1*
G04 Layer_Color=255*
%FSLAX44Y44*%
%MOMM*%
G71*
G04*
G04 #@! TF.SameCoordinates,BBC2EA18-74A8-411A-9B9A-F0C275BE575F*
G04*
G04*
G04 #@! TF.FilePolarity,Positive*
G04*
G01*
G75*
%ADD11C,0.8890*%
%ADD21C,0.5000*%
%ADD22C,0.3810*%
%ADD23C,0.6000*%
%ADD24R,2.8702X4.5878*%
%ADD25R,3.1554X1.8640*%
%ADD26R,6.3304X3.1555*%
%ADD27R,3.9234X4.6101*%
%ADD28R,3.1533X6.3308*%
%ADD29C,1.1000*%
%ADD30C,0.9000*%
%ADD31C,0.6000*%
%ADD32C,6.3500*%
%ADD33C,1.0000*%
%ADD34C,0.5000*%
G36*
X333000Y526110D02*
X332080Y526040D01*
X331378Y525829D01*
X330893Y525477D01*
X330626Y524985D01*
X330577Y524352D01*
X330746Y523578D01*
X331132Y522663D01*
X331680Y521705D01*
X332657Y521154D01*
X333573Y520778D01*
X334348Y520623D01*
X334982Y520689D01*
X335475Y520976D01*
X335827Y521484D01*
X336038Y522213D01*
X336109Y523163D01*
X344999Y521576D01*
X344945Y519199D01*
X344513Y513960D01*
X343650Y508077D01*
X341747Y499000D01*
X343650Y489923D01*
X344513Y484040D01*
X344945Y478801D01*
X344999Y476424D01*
X336109Y463422D01*
X329065Y474394D01*
X329946Y477157D01*
X336912Y499000D01*
X330161Y520171D01*
X309000Y526910D01*
X284403Y519076D01*
X273424Y526110D01*
X286437Y535000D01*
X294054Y534514D01*
X296914Y534137D01*
X309000Y531600D01*
X321086Y534137D01*
X323946Y534514D01*
X331562Y535000D01*
X333000Y526110D01*
D02*
G37*
G36*
X12000Y524208D02*
X273029D01*
X275435Y522666D01*
Y499000D01*
X275470Y498825D01*
Y496361D01*
X276296Y491148D01*
X277927Y486129D01*
X280323Y481426D01*
X283425Y477157D01*
X287157Y473425D01*
X291426Y470323D01*
X296129Y467926D01*
X301148Y466296D01*
X306361Y465470D01*
X311639D01*
X312113Y465545D01*
X332589D01*
X334207Y463025D01*
Y452692D01*
X330949Y452371D01*
X327053Y451189D01*
X323462Y449270D01*
X320314Y446687D01*
X317731Y443539D01*
X315812Y439948D01*
X314630Y436052D01*
X314236Y432055D01*
X314212Y432055D01*
X314209Y432038D01*
X314212Y432026D01*
X314208Y431903D01*
X314208Y430785D01*
Y92000D01*
X314251Y91782D01*
X314629Y87948D01*
X315811Y84052D01*
X316012Y83676D01*
X315359Y82587D01*
X308356D01*
X308070Y82530D01*
X306361D01*
X301148Y81704D01*
X296129Y80073D01*
X291426Y77677D01*
X287157Y74575D01*
X283425Y70843D01*
X280323Y66574D01*
X277927Y61871D01*
X276296Y56852D01*
X275470Y51639D01*
Y50721D01*
X275435Y50546D01*
Y10792D01*
X12000D01*
X11847Y10761D01*
X11079Y11079D01*
X10761Y11847D01*
X10792Y12000D01*
Y523000D01*
X10761Y523153D01*
X11079Y523921D01*
X11847Y524239D01*
X12000Y524208D01*
D02*
G37*
G36*
X330288Y72667D02*
X332579Y71183D01*
X333510Y70751D01*
X334298Y70525D01*
X334943Y70505D01*
X335444Y70692D01*
X335802Y71086D01*
X336017Y71685D01*
X336088Y72491D01*
X344978Y71753D01*
X344925Y69378D01*
X344497Y64137D01*
X343642Y58244D01*
X341728Y49000D01*
X343642Y39756D01*
X344497Y33863D01*
X344925Y28622D01*
X344978Y26247D01*
X336088Y13388D01*
X328927Y24282D01*
X336933Y49000D01*
X328927Y73718D01*
X330288Y72667D01*
D02*
G37*
%LPC*%
G36*
X111749Y420780D02*
X109251D01*
X106943Y419824D01*
X105176Y418057D01*
X104220Y415749D01*
Y413251D01*
X104778Y411903D01*
X103770Y411018D01*
X103310Y411284D01*
X101458Y411780D01*
X99542D01*
X97690Y411284D01*
X97230Y411018D01*
X96222Y411903D01*
X96780Y413251D01*
Y415749D01*
X95824Y418057D01*
X94057Y419824D01*
X91749Y420780D01*
X89251D01*
X86943Y419824D01*
X85176Y418057D01*
X84220Y415749D01*
Y413251D01*
X85176Y410943D01*
X86943Y409176D01*
X89251Y408220D01*
X91749D01*
X93097Y408778D01*
X93982Y407770D01*
X93716Y407310D01*
X93220Y405458D01*
Y403542D01*
X93716Y401690D01*
X94675Y400030D01*
X96030Y398675D01*
X97690Y397716D01*
X99542Y397220D01*
X101458D01*
X103310Y397716D01*
X104970Y398675D01*
X105922Y399626D01*
X175141D01*
X185149Y389619D01*
Y349134D01*
X183879Y348749D01*
X183278Y349648D01*
X169680Y363246D01*
X168099Y364303D01*
X166234Y364674D01*
X161714D01*
X161228Y365847D01*
X161624Y366243D01*
X162580Y368551D01*
Y371049D01*
X161624Y373357D01*
X159857Y375124D01*
X157549Y376080D01*
X155051D01*
X152743Y375124D01*
X150976Y373357D01*
X150020Y371049D01*
Y368551D01*
X150578Y367202D01*
X149570Y366318D01*
X149110Y366584D01*
X147258Y367080D01*
X145342D01*
X143490Y366584D01*
X143030Y366318D01*
X142022Y367202D01*
X142580Y368551D01*
Y371049D01*
X141624Y373357D01*
X139857Y375124D01*
X137549Y376080D01*
X135051D01*
X132743Y375124D01*
X130976Y373357D01*
X130020Y371049D01*
Y368551D01*
X130976Y366243D01*
X132743Y364476D01*
X135051Y363520D01*
X137549D01*
X138897Y364078D01*
X139782Y363070D01*
X139516Y362610D01*
X139020Y360758D01*
Y358842D01*
X139516Y356990D01*
X140475Y355330D01*
X141830Y353975D01*
X143490Y353016D01*
X145342Y352520D01*
X147258D01*
X149110Y353016D01*
X150770Y353975D01*
X151722Y354926D01*
X164215D01*
X174958Y344183D01*
Y291396D01*
X173688Y291011D01*
X172864Y292244D01*
X167162Y297946D01*
X165581Y299003D01*
X163716Y299374D01*
X115914D01*
X115428Y300547D01*
X115824Y300943D01*
X116780Y303251D01*
Y305749D01*
X115824Y308057D01*
X114057Y309824D01*
X111749Y310780D01*
X109251D01*
X106943Y309824D01*
X105176Y308057D01*
X104220Y305749D01*
Y303251D01*
X104778Y301903D01*
X103770Y301018D01*
X103310Y301284D01*
X101458Y301780D01*
X99542D01*
X97690Y301284D01*
X97230Y301018D01*
X96222Y301903D01*
X96780Y303251D01*
Y305749D01*
X95824Y308057D01*
X94057Y309824D01*
X91749Y310780D01*
X89251D01*
X86943Y309824D01*
X85176Y308057D01*
X84220Y305749D01*
Y303251D01*
X85176Y300943D01*
X86943Y299176D01*
X89251Y298220D01*
X91749D01*
X93097Y298778D01*
X93982Y297770D01*
X93716Y297310D01*
X93220Y295458D01*
Y293542D01*
X93716Y291690D01*
X94675Y290030D01*
X96030Y288675D01*
X97690Y287716D01*
X99542Y287220D01*
X101458D01*
X103310Y287716D01*
X104970Y288675D01*
X105922Y289626D01*
X161697D01*
X164544Y286779D01*
Y146093D01*
X164915Y144228D01*
X165972Y142647D01*
X186576Y122042D01*
X188158Y120985D01*
X190023Y120614D01*
X191888Y120985D01*
X193469Y122042D01*
X194525Y123623D01*
X194896Y125488D01*
X194525Y127353D01*
X193469Y128934D01*
X189976Y132427D01*
X190492Y133708D01*
X191888Y133985D01*
X193469Y135042D01*
X194525Y136623D01*
X194896Y138488D01*
X194525Y140353D01*
X193469Y141934D01*
X191354Y144049D01*
X191723Y145265D01*
X191888Y145297D01*
X193469Y146354D01*
X194525Y147935D01*
X194896Y149800D01*
Y391637D01*
X194525Y393502D01*
X193469Y395084D01*
X180606Y407946D01*
X179025Y409003D01*
X177160Y409374D01*
X115914D01*
X115428Y410547D01*
X115824Y410943D01*
X116780Y413251D01*
Y415749D01*
X115824Y418057D01*
X114057Y419824D01*
X111749Y420780D01*
D02*
G37*
G36*
X256540Y469184D02*
X29150D01*
X28728Y469100D01*
X28299D01*
X27901Y468936D01*
X27480Y468852D01*
X27123Y468613D01*
X26726Y468448D01*
X26422Y468144D01*
X26064Y467906D01*
X25826Y467548D01*
X25522Y467244D01*
X25357Y466847D01*
X25118Y466490D01*
X25034Y466068D01*
X24870Y465671D01*
Y465242D01*
X24786Y464820D01*
X24870Y464398D01*
Y463969D01*
X25034Y463572D01*
X25118Y463150D01*
X25357Y462793D01*
X25522Y462396D01*
X25826Y462092D01*
X26064Y461734D01*
X26422Y461496D01*
X26726Y461192D01*
X27123Y461027D01*
X27480Y460788D01*
X27901Y460704D01*
X28299Y460540D01*
X28728D01*
X29150Y460456D01*
X254732D01*
X277322Y437866D01*
Y371348D01*
X277406Y370927D01*
Y370497D01*
X277570Y370099D01*
X277654Y369678D01*
X277893Y369321D01*
X278058Y368924D01*
X278362Y368620D01*
X278600Y368262D01*
X278958Y368024D01*
X279262Y367720D01*
X279659Y367555D01*
X280016Y367316D01*
X280438Y367233D01*
X280835Y367068D01*
X281264D01*
X281686Y366984D01*
X282108Y367068D01*
X282537D01*
X282934Y367233D01*
X283356Y367316D01*
X283713Y367555D01*
X284110Y367720D01*
X284414Y368024D01*
X284772Y368262D01*
X285010Y368620D01*
X285314Y368924D01*
X285479Y369321D01*
X285718Y369678D01*
X285802Y370099D01*
X285966Y370497D01*
Y370927D01*
X286050Y371348D01*
Y439674D01*
X285718Y441344D01*
X284772Y442760D01*
X259626Y467906D01*
X258210Y468852D01*
X256540Y469184D01*
D02*
G37*
G36*
X157549Y266080D02*
X155051D01*
X152743Y265124D01*
X150976Y263357D01*
X150020Y261049D01*
Y258551D01*
X150578Y257202D01*
X149570Y256318D01*
X149110Y256584D01*
X147258Y257080D01*
X145342D01*
X143490Y256584D01*
X143030Y256318D01*
X142022Y257202D01*
X142580Y258551D01*
Y261049D01*
X141624Y263357D01*
X139857Y265124D01*
X137549Y266080D01*
X135051D01*
X132743Y265124D01*
X130976Y263357D01*
X130020Y261049D01*
Y258551D01*
X130976Y256243D01*
X132743Y254476D01*
X135051Y253520D01*
X137549D01*
X138897Y254079D01*
X139782Y253070D01*
X139516Y252610D01*
X139020Y250758D01*
Y248842D01*
X139516Y246990D01*
X140475Y245330D01*
X141830Y243974D01*
X143490Y243016D01*
X145342Y242520D01*
X147258D01*
X149110Y243016D01*
X150770Y243974D01*
X152126Y245330D01*
X153084Y246990D01*
X153580Y248842D01*
Y250758D01*
X153084Y252610D01*
X152818Y253070D01*
X153702Y254079D01*
X155051Y253520D01*
X157549D01*
X159857Y254476D01*
X161624Y256243D01*
X162580Y258551D01*
Y261049D01*
X161624Y263357D01*
X159857Y265124D01*
X157549Y266080D01*
D02*
G37*
G36*
X230559Y276568D02*
X228857D01*
X227283Y275916D01*
X226080Y274712D01*
X225557Y273450D01*
X207655Y255549D01*
X206841Y254330D01*
X206555Y252892D01*
Y246293D01*
X206032Y245030D01*
Y243328D01*
X206684Y241755D01*
X207888Y240551D01*
X209461Y239899D01*
X211163D01*
X212736Y240551D01*
X213940Y241755D01*
X214592Y243328D01*
Y245030D01*
X214069Y246293D01*
Y251336D01*
X230870Y268137D01*
X232132Y268660D01*
X233336Y269864D01*
X233988Y271437D01*
Y273139D01*
X233336Y274712D01*
X232132Y275916D01*
X230559Y276568D01*
D02*
G37*
G36*
X111749Y200780D02*
X109251D01*
X106943Y199824D01*
X105176Y198057D01*
X104220Y195749D01*
Y193251D01*
X104778Y191903D01*
X103770Y191018D01*
X103310Y191284D01*
X101458Y191780D01*
X99542D01*
X97690Y191284D01*
X97230Y191018D01*
X96222Y191903D01*
X96780Y193251D01*
Y195749D01*
X95824Y198057D01*
X94057Y199824D01*
X91749Y200780D01*
X89251D01*
X86943Y199824D01*
X85176Y198057D01*
X84220Y195749D01*
Y193251D01*
X85176Y190943D01*
X86943Y189176D01*
X89251Y188220D01*
X91749D01*
X93097Y188778D01*
X93982Y187770D01*
X93716Y187310D01*
X93220Y185458D01*
Y183542D01*
X93716Y181690D01*
X94675Y180030D01*
X96030Y178675D01*
X96136Y178613D01*
Y143848D01*
X96468Y142178D01*
X97414Y140762D01*
X139154Y99022D01*
X140570Y98076D01*
X142240Y97744D01*
X242362D01*
X244032Y98076D01*
X245448Y99022D01*
X255828Y109402D01*
X256066Y109760D01*
X256370Y110064D01*
X256535Y110461D01*
X256774Y110818D01*
X256857Y111240D01*
X257022Y111637D01*
Y112067D01*
X257106Y112488D01*
X257022Y112909D01*
Y113339D01*
X256857Y113736D01*
X256774Y114158D01*
X256535Y114515D01*
X256370Y114912D01*
X256066Y115217D01*
X255828Y115574D01*
X255471Y115812D01*
X255166Y116116D01*
X254769Y116281D01*
X254412Y116520D01*
X253990Y116603D01*
X253593Y116768D01*
X253163D01*
X252742Y116852D01*
X252321Y116768D01*
X251989D01*
X251764Y117031D01*
X251340Y117914D01*
X255828Y122402D01*
X256066Y122760D01*
X256370Y123064D01*
X256535Y123461D01*
X256774Y123818D01*
X256857Y124240D01*
X257022Y124637D01*
Y125067D01*
X257106Y125488D01*
X257022Y125909D01*
Y126339D01*
X256857Y126736D01*
X256774Y127158D01*
X256535Y127515D01*
X256370Y127912D01*
X256066Y128216D01*
X255828Y128574D01*
X255471Y128812D01*
X255166Y129116D01*
X254769Y129281D01*
X254412Y129520D01*
X253990Y129604D01*
X253593Y129768D01*
X253163D01*
X252742Y129852D01*
X252321Y129768D01*
X251891D01*
X251493Y129604D01*
X251072Y129520D01*
X250715Y129281D01*
X250318Y129116D01*
X250014Y128813D01*
X249656Y128574D01*
X237934Y116852D01*
X175420D01*
X153548Y138723D01*
X153580Y138842D01*
Y140758D01*
X153084Y142610D01*
X152818Y143070D01*
X153702Y144079D01*
X155051Y143520D01*
X157549D01*
X159857Y144476D01*
X161624Y146243D01*
X162580Y148551D01*
Y151049D01*
X161624Y153357D01*
X159857Y155124D01*
X157549Y156080D01*
X155051D01*
X152743Y155124D01*
X150976Y153357D01*
X150020Y151049D01*
Y148551D01*
X150578Y147203D01*
X149570Y146318D01*
X149110Y146584D01*
X147258Y147080D01*
X145342D01*
X143490Y146584D01*
X143030Y146318D01*
X142022Y147203D01*
X142580Y148551D01*
Y151049D01*
X141624Y153357D01*
X139857Y155124D01*
X137549Y156080D01*
X135051D01*
X132743Y155124D01*
X130976Y153357D01*
X130020Y151049D01*
Y148551D01*
X130976Y146243D01*
X132743Y144476D01*
X135051Y143520D01*
X137549D01*
X138897Y144079D01*
X139782Y143070D01*
X139516Y142610D01*
X139020Y140758D01*
Y138842D01*
X139516Y136990D01*
X140475Y135330D01*
X141830Y133975D01*
X143490Y133016D01*
X145342Y132520D01*
X147258D01*
X147377Y132552D01*
X170526Y109402D01*
X171942Y108456D01*
X173612Y108124D01*
X239742D01*
X239794Y108134D01*
X240522Y106985D01*
X240142Y106472D01*
X144048D01*
X104864Y145655D01*
Y178613D01*
X104970Y178675D01*
X106325Y180030D01*
X107284Y181690D01*
X107780Y183542D01*
Y185458D01*
X107284Y187310D01*
X107018Y187770D01*
X107902Y188778D01*
X109251Y188220D01*
X111749D01*
X114057Y189176D01*
X115824Y190943D01*
X116780Y193251D01*
Y195749D01*
X115824Y198057D01*
X114057Y199824D01*
X111749Y200780D01*
D02*
G37*
G36*
X282448Y156002D02*
X280778Y155670D01*
X279362Y154724D01*
X278822Y153914D01*
X278820Y153912D01*
X278818Y153910D01*
X278416Y153308D01*
X278275Y152598D01*
X278168Y152339D01*
Y152059D01*
X278084Y151638D01*
X278168Y151217D01*
Y150637D01*
X278390Y150101D01*
X278416Y149968D01*
X278492Y149855D01*
X278820Y149064D01*
X280024Y147860D01*
X280077Y147837D01*
X284559Y143356D01*
Y141092D01*
X283289Y140839D01*
X283282Y140854D01*
X282978Y141158D01*
X282740Y141516D01*
X282382Y141754D01*
X282078Y142058D01*
X281681Y142223D01*
X281324Y142462D01*
X280903Y142545D01*
X280505Y142710D01*
X280075D01*
X279654Y142794D01*
X279233Y142710D01*
X278803D01*
X278405Y142545D01*
X277984Y142462D01*
X277627Y142223D01*
X277230Y142058D01*
X276926Y141754D01*
X276568Y141516D01*
X276330Y141158D01*
X276026Y140854D01*
X275861Y140457D01*
X275622Y140100D01*
X275539Y139678D01*
X275374Y139281D01*
Y138851D01*
X275290Y138430D01*
Y107980D01*
X246175Y78864D01*
X115541D01*
X115015Y80134D01*
X115824Y80943D01*
X116780Y83251D01*
Y85749D01*
X115824Y88057D01*
X114057Y89824D01*
X111749Y90780D01*
X109251D01*
X106943Y89824D01*
X105176Y88057D01*
X104220Y85749D01*
Y83251D01*
X104778Y81903D01*
X103770Y81018D01*
X103310Y81284D01*
X101458Y81780D01*
X99542D01*
X97690Y81284D01*
X97230Y81018D01*
X96222Y81903D01*
X96780Y83251D01*
Y85749D01*
X95824Y88057D01*
X94057Y89824D01*
X91749Y90780D01*
X89251D01*
X86943Y89824D01*
X85176Y88057D01*
X84220Y85749D01*
Y83251D01*
X85176Y80943D01*
X86943Y79176D01*
X89251Y78220D01*
X91749D01*
X93097Y78779D01*
X93982Y77770D01*
X93716Y77310D01*
X93220Y75458D01*
Y73542D01*
X93716Y71690D01*
X94675Y70030D01*
X96030Y68675D01*
X97690Y67716D01*
X99542Y67220D01*
X101458D01*
X103310Y67716D01*
X104970Y68675D01*
X106325Y70030D01*
X106387Y70136D01*
X247982D01*
X249652Y70468D01*
X251068Y71414D01*
X282740Y103086D01*
X283289Y103908D01*
X284559Y103523D01*
Y102008D01*
X216714Y34164D01*
X161341D01*
X160815Y35434D01*
X161624Y36243D01*
X162580Y38551D01*
Y41049D01*
X161624Y43357D01*
X159857Y45124D01*
X157549Y46080D01*
X155051D01*
X152743Y45124D01*
X150976Y43357D01*
X150020Y41049D01*
Y38551D01*
X150578Y37202D01*
X149570Y36318D01*
X149110Y36584D01*
X147258Y37080D01*
X145342D01*
X143490Y36584D01*
X143030Y36318D01*
X142022Y37202D01*
X142580Y38551D01*
Y41049D01*
X141624Y43357D01*
X139857Y45124D01*
X137549Y46080D01*
X135051D01*
X132743Y45124D01*
X130976Y43357D01*
X130020Y41049D01*
Y38551D01*
X130976Y36243D01*
X132743Y34476D01*
X135051Y33520D01*
X137549D01*
X138897Y34079D01*
X139782Y33070D01*
X139516Y32610D01*
X139020Y30758D01*
Y28842D01*
X139516Y26990D01*
X140475Y25330D01*
X141830Y23975D01*
X143490Y23016D01*
X145342Y22520D01*
X147258D01*
X149110Y23016D01*
X150770Y23975D01*
X152126Y25330D01*
X152187Y25436D01*
X218522D01*
X220192Y25768D01*
X221608Y26714D01*
X292008Y97115D01*
X292954Y98531D01*
X293286Y100201D01*
Y145163D01*
X292954Y146833D01*
X292008Y148249D01*
X285534Y154724D01*
X284118Y155670D01*
X282448Y156002D01*
D02*
G37*
G36*
X250425Y446362D02*
X229708D01*
X229286Y446278D01*
X228857D01*
X228459Y446114D01*
X228038Y446030D01*
X227681Y445791D01*
X227283Y445627D01*
X226980Y445323D01*
X226622Y445084D01*
X226384Y444727D01*
X226080Y444423D01*
X225915Y444026D01*
X225676Y443669D01*
X225592Y443247D01*
X225428Y442850D01*
Y442420D01*
X225344Y441998D01*
X225428Y441577D01*
Y441147D01*
X225592Y440750D01*
X225676Y440329D01*
X225915Y439971D01*
X226080Y439574D01*
X226384Y439270D01*
X226622Y438913D01*
X226980Y438674D01*
X227283Y438370D01*
X227681Y438206D01*
X228038Y437967D01*
X228459Y437883D01*
X228857Y437719D01*
X229286D01*
X229708Y437635D01*
X248618D01*
X265638Y420614D01*
Y189738D01*
X265970Y188068D01*
X266916Y186652D01*
X303484Y150084D01*
Y107696D01*
X303568Y107275D01*
Y106697D01*
X303789Y106163D01*
X303816Y106026D01*
X303894Y105910D01*
X304220Y105124D01*
X305424Y103920D01*
X306997Y103268D01*
X308699D01*
X310272Y103920D01*
X311476Y105124D01*
X311802Y105910D01*
X311880Y106026D01*
X311907Y106163D01*
X312128Y106697D01*
Y107275D01*
X312212Y107696D01*
Y151892D01*
X311880Y153562D01*
X310934Y154978D01*
X274366Y191546D01*
Y422422D01*
X274034Y424092D01*
X273088Y425507D01*
X253511Y445084D01*
X252095Y446030D01*
X250425Y446362D01*
D02*
G37*
%LPD*%
D11*
X340554Y452520D02*
X340523Y451758D01*
X335010Y446445D02*
X337621Y447102D01*
X339617Y448909D01*
X340528Y451443D01*
X340533Y72491D02*
X339638Y75057D01*
X337634Y76891D01*
X335000Y77555D01*
X340533Y523583D02*
X339801Y526290D01*
X338132Y528545D01*
X335756Y530034D01*
X333000Y530555D01*
X334968Y446445D02*
X332468Y446221D01*
X330045Y445568D01*
X327771Y444505D01*
X325715Y443065D01*
X323940Y441290D01*
X322499Y439235D01*
X321435Y436962D01*
X320781Y434538D01*
X320556Y432038D01*
X320555Y92000D02*
X320774Y89492D01*
X321426Y87059D01*
X322490Y84777D01*
X323935Y82715D01*
X325715Y80934D01*
X327777Y79490D01*
X330060Y78426D01*
X332492Y77775D01*
X335000Y77555D01*
X12000Y530555D02*
X9665Y530185D01*
X7559Y529112D01*
X5888Y527441D01*
X4815Y525335D01*
X4445Y523000D01*
X333000Y4445D02*
X335758Y4966D01*
X338135Y6458D01*
X339803Y8714D01*
X340533Y11424D01*
X4445Y12000D02*
X4815Y9665D01*
X5888Y7559D01*
X7559Y5888D01*
X9665Y4815D01*
X12000Y4445D01*
X340554Y452520D02*
Y523163D01*
X340533Y11424D02*
Y72491D01*
X12000Y530555D02*
X333000D01*
X320555Y92000D02*
Y431903D01*
X12000Y4445D02*
X333000D01*
X4445Y12000D02*
Y523000D01*
D21*
X270002Y189738D02*
X307848Y151892D01*
X250425Y441998D02*
X270002Y422422D01*
Y189738D02*
Y422422D01*
X307848Y107696D02*
Y151892D01*
X282448Y151638D02*
X288923Y145163D01*
Y100201D02*
Y145163D01*
X218522Y29800D02*
X288923Y100201D01*
X146300Y29800D02*
X218522D01*
X247982Y74500D02*
X279654Y106172D01*
Y138430D01*
X100500Y74500D02*
X247982D01*
X173612Y112488D02*
X239742D01*
X252742Y125488D01*
X242362Y102108D02*
X252742Y112488D01*
X142240Y102108D02*
X242362D01*
X100500Y143848D02*
X142240Y102108D01*
X100500Y143848D02*
Y184500D01*
X146300Y139800D02*
X173612Y112488D01*
X29150Y464820D02*
X256540D01*
X281686Y439674D01*
Y371348D02*
Y439674D01*
X229708Y441998D02*
X250425D01*
D22*
X210312Y252892D02*
X229706Y272286D01*
X210312Y244179D02*
Y252892D01*
D23*
X169418Y146093D02*
X190023Y125488D01*
X169418Y146093D02*
Y288798D01*
X190023Y149800D02*
Y391637D01*
X179832Y148679D02*
Y346202D01*
Y148679D02*
X190023Y138488D01*
X177160Y404500D02*
X190023Y391637D01*
X163716Y294500D02*
X169418Y288798D01*
X100500Y294500D02*
X163716D01*
X166234Y359800D02*
X179832Y346202D01*
X100500Y404500D02*
X177160D01*
X146300Y359800D02*
X166234D01*
D24*
X322707Y57833D02*
D03*
D25*
X324777Y476680D02*
D03*
D26*
X308902Y514777D02*
D03*
D27*
X296867Y27496D02*
D03*
D28*
X324767Y36099D02*
D03*
D29*
X146300Y29800D02*
D03*
X100500Y74500D02*
D03*
X146300Y139800D02*
D03*
X100500Y184500D02*
D03*
X146300Y249800D02*
D03*
X100500Y294500D02*
D03*
X146300Y359800D02*
D03*
X100500Y404500D02*
D03*
D30*
X156300Y39800D02*
D03*
X136300D02*
D03*
X110500Y84500D02*
D03*
X90500D02*
D03*
X156300Y149800D02*
D03*
X136300D02*
D03*
X110500Y194500D02*
D03*
X90500D02*
D03*
X156300Y259800D02*
D03*
X136300D02*
D03*
X110500Y304500D02*
D03*
X90500D02*
D03*
X156300Y369800D02*
D03*
X136300D02*
D03*
X110500Y414500D02*
D03*
X90500D02*
D03*
D31*
X338328Y7114D02*
D03*
X340335Y15778D02*
D03*
Y31779D02*
D03*
Y47779D02*
D03*
X328845Y4644D02*
D03*
X312845D02*
D03*
X296845D02*
D03*
X333114Y530371D02*
D03*
X317114Y530356D02*
D03*
X301114D02*
D03*
X285114D02*
D03*
X269114D02*
D03*
X253114D02*
D03*
X237114D02*
D03*
X221114D02*
D03*
X205114D02*
D03*
X189114D02*
D03*
X173114D02*
D03*
X157114D02*
D03*
X141114D02*
D03*
X125114D02*
D03*
X109114D02*
D03*
X93114D02*
D03*
X77114D02*
D03*
X61114D02*
D03*
X45114D02*
D03*
X29114D02*
D03*
X13114D02*
D03*
X4644Y516782D02*
D03*
Y500782D02*
D03*
Y484782D02*
D03*
Y468782D02*
D03*
Y452782D02*
D03*
Y436782D02*
D03*
Y420782D02*
D03*
Y404782D02*
D03*
Y388782D02*
D03*
Y372782D02*
D03*
Y356782D02*
D03*
Y340782D02*
D03*
Y324782D02*
D03*
Y308782D02*
D03*
Y292782D02*
D03*
Y276782D02*
D03*
Y260782D02*
D03*
Y244782D02*
D03*
Y228782D02*
D03*
Y212782D02*
D03*
Y196782D02*
D03*
Y180782D02*
D03*
Y164782D02*
D03*
Y148782D02*
D03*
Y132782D02*
D03*
Y116782D02*
D03*
Y100782D02*
D03*
Y84782D02*
D03*
Y68782D02*
D03*
Y52782D02*
D03*
Y36782D02*
D03*
Y20782D02*
D03*
X8860Y5348D02*
D03*
X24845Y4644D02*
D03*
X40845D02*
D03*
X56845D02*
D03*
X72845D02*
D03*
X88845D02*
D03*
X104845D02*
D03*
X120845D02*
D03*
X136845D02*
D03*
X152845D02*
D03*
X168845D02*
D03*
X184845D02*
D03*
X200845D02*
D03*
X216845D02*
D03*
X232845D02*
D03*
X248845D02*
D03*
X264845D02*
D03*
X280845D02*
D03*
X340335Y63779D02*
D03*
X332650Y77812D02*
D03*
X321004Y88783D02*
D03*
X320356Y104770D02*
D03*
Y120770D02*
D03*
Y136770D02*
D03*
Y152770D02*
D03*
Y168770D02*
D03*
Y184770D02*
D03*
Y200770D02*
D03*
Y216770D02*
D03*
Y232770D02*
D03*
Y248770D02*
D03*
Y264770D02*
D03*
Y280770D02*
D03*
Y296770D02*
D03*
Y312770D02*
D03*
Y328770D02*
D03*
Y344770D02*
D03*
Y360770D02*
D03*
Y376770D02*
D03*
Y392770D02*
D03*
Y408770D02*
D03*
Y424770D02*
D03*
X323615Y440435D02*
D03*
X337961Y447520D02*
D03*
X340355Y463340D02*
D03*
Y511339D02*
D03*
D32*
X309000Y49000D02*
D03*
Y499000D02*
D03*
D33*
X325164Y482836D02*
D03*
X292836D02*
D03*
Y515164D02*
D03*
X325164D02*
D03*
X331860Y499000D02*
D03*
X309000Y476140D02*
D03*
X286140Y499000D02*
D03*
X309000Y521860D02*
D03*
X325164Y32836D02*
D03*
X292836D02*
D03*
Y65164D02*
D03*
X325164D02*
D03*
X331860Y49000D02*
D03*
X309000Y26140D02*
D03*
X286140Y49000D02*
D03*
X309000Y71860D02*
D03*
D34*
X307848Y107548D02*
D03*
Y88290D02*
D03*
X308102Y177546D02*
D03*
X251040Y157988D02*
D03*
X230970D02*
D03*
X281940Y212598D02*
D03*
Y232668D02*
D03*
X258064Y22606D02*
D03*
Y42676D02*
D03*
X193548Y51816D02*
D03*
X213618D02*
D03*
X178562Y87122D02*
D03*
X198632D02*
D03*
X18796Y135128D02*
D03*
Y115058D02*
D03*
X45466Y17780D02*
D03*
X25396D02*
D03*
X60960Y48514D02*
D03*
X40890D02*
D03*
X61850Y110998D02*
D03*
X41780D02*
D03*
X62992Y158242D02*
D03*
X42922D02*
D03*
X148590Y193548D02*
D03*
Y213618D02*
D03*
X41148Y223774D02*
D03*
X61218D02*
D03*
X44196Y268986D02*
D03*
X64266D02*
D03*
X19050Y357378D02*
D03*
Y337308D02*
D03*
X61850Y336042D02*
D03*
X41780D02*
D03*
X68834Y378714D02*
D03*
X48764D02*
D03*
X145538Y318262D02*
D03*
X165608D02*
D03*
X295148Y320268D02*
D03*
Y380387D02*
D03*
Y340307D02*
D03*
Y400427D02*
D03*
Y360347D02*
D03*
X300905Y452782D02*
D03*
X103209D02*
D03*
X142748D02*
D03*
X182287D02*
D03*
X221827D02*
D03*
X63669Y484782D02*
D03*
X103209D02*
D03*
X142748D02*
D03*
X182287D02*
D03*
X221827D02*
D03*
X261366D02*
D03*
X24130D02*
D03*
Y513588D02*
D03*
X261366D02*
D03*
X221827D02*
D03*
X182287D02*
D03*
X142748D02*
D03*
X103209D02*
D03*
X63669D02*
D03*
X295148Y300228D02*
D03*
X209296Y215646D02*
D03*
X279654Y138430D02*
D03*
X282448Y151488D02*
D03*
X252742Y112488D02*
D03*
Y125488D02*
D03*
X190023Y149800D02*
D03*
Y138488D02*
D03*
Y125488D02*
D03*
X210312Y244179D02*
D03*
X209296Y228092D02*
D03*
X281178Y253238D02*
D03*
X217526Y334621D02*
D03*
X210058Y316738D02*
D03*
X29150Y464820D02*
D03*
X281686Y371348D02*
D03*
X229708Y441998D02*
D03*
X229708Y272288D02*
D03*
M02*
