M48
;Layer_Color=9474304
;FILE_FORMAT=4:2
METRIC,TZ
;TYPE=PLATED
T01F00S00C0.20
T02F00S00C0.30
T03F00S00C0.50
T04F00S00C0.70
T05F00S00C3.20
%
T01
X254Y178
X455
X409Y485
X610
X618Y1110
X418
X188Y1151
Y1351
X429Y1582
X630
X612Y2238
X411
X442Y2690
X643
X1486Y2136
Y1935
X2093Y2156
Y2281
X2103Y2442
X2297Y2723
X2812Y2532
X2819Y2327
Y2126
X2824Y1515
X2797Y1384
X2527Y1255
Y1125
X2510Y1580
X2310
X1900Y1498
Y1385
Y1255
X1986Y871
X1786
X1935Y518
X2136
X2581Y427
Y226
X3078Y883
Y1075
X3081Y1775
X2951Y3002
Y3203
Y3403
Y3603
Y3804
Y4004
X3009Y4528
X2614Y4848
Y5136
X2218
Y4848
Y4528
X2297Y4420
X1823Y4528
Y4848
Y5136
X1427
Y4848
Y4528
X1032
Y4848
Y5136
X637
Y4848
X241
X291Y4648
X241Y5136
X488Y3787
X688
X618Y3360
X418
X190Y3373
Y3574
X1455Y3183
X1656
X2101Y3167
X2175Y3346
X2817Y3713
T02
X89Y53
X248Y46
X408
X568
X728
X888
X1048
X1208
X1368
X1528
X1688
X1848
X2008
X2168
X2328
X2488
X2648
X2808
X46Y208
Y368
Y528
Y688
Y848
Y1008
Y1168
Y1328
Y1488
Y1648
Y1808
Y1968
Y2128
Y2288
Y2448
Y2608
Y2768
Y2928
X3204Y2968
Y2808
Y2648
Y2488
Y2328
Y2168
Y2008
Y1848
Y1688
Y1528
Y1368
Y1208
Y1048
X3210Y888
X3326Y778
X3403Y638
Y478
Y318
Y158
X3383Y71
X3288Y46
X3128
X2968
X3204Y3128
Y3288
Y3448
Y3608
Y3768
Y3928
Y4088
Y4248
X3236Y4404
X3380Y4475
X3404Y4633
Y5113
X3331Y5304
X3171Y5304
X3011
X2851
X2691
X2531
X2371
X2211
X2051
X1891
X1731
X1571
X1411
X1251
X1091
X931
X771
X611
X451
X291
X131
X46Y5168
Y5008
Y4848
Y4688
Y4528
Y4368
Y4208
Y4048
Y3888
Y3728
Y3568
Y3408
Y3248
Y3088
T03
X905Y845
X1105
X1363Y398
X1563
Y1498
X1363
X1105Y1945
X905
Y3045
X1105
X1363Y2598
X1563
Y3698
X1363
X1105Y4145
X905
T04
X1005Y745
X1463Y298
Y1398
X1005Y1845
Y2945
X1463Y2498
X2861Y490
X2928Y328
X3090Y261
X3252Y328
X3319Y490
X3252Y652
X3090Y719
X2928Y652
Y4828
X3090Y4761
X3252Y4828
X3319Y4990
X3252Y5152
X3090Y5219
X2928Y5152
X2861Y4990
X1463Y3598
X1005Y4045
T05
X3090Y490
Y4990
M30
